<svg xmlns="http://www.w3.org/2000/svg" xmlns:xlink="http://www.w3.org/1999/xlink" viewBox="0 0 204.37 168.62"><defs><style>.cls-1{isolation:isolate;}.cls-2{fill:url(#linear-gradient);}.cls-3{fill:url(#linear-gradient-2);}.cls-4{fill:url(#linear-gradient-3);}.cls-5{fill:url(#linear-gradient-4);}.cls-6{fill:url(#linear-gradient-5);}.cls-7{fill:url(#linear-gradient-6);}.cls-8{fill:url(#linear-gradient-7);}.cls-9{fill:url(#linear-gradient-8);}.cls-10{fill:#06fffc;}.cls-11{fill:url(#linear-gradient-9);}.cls-12{fill:url(#linear-gradient-10);}</style><linearGradient id="linear-gradient" x1="21.95" y1="113.32" x2="90.93" y2="113.32" gradientUnits="userSpaceOnUse"><stop offset="0.13" stop-color="#1b1464"/><stop offset="0.61" stop-color="#662d91"/></linearGradient><linearGradient id="linear-gradient-2" x1="21.82" y1="70.74" x2="83.25" y2="70.74" xlink:href="#linear-gradient"/><linearGradient id="linear-gradient-3" x1="-2.57" y1="106.91" x2="28.73" y2="106.1" gradientUnits="userSpaceOnUse"><stop offset="0.13" stop-color="#1b1464"/><stop offset="0.61" stop-color="#2e5497"/></linearGradient><linearGradient id="linear-gradient-4" x1="0" y1="31.82" x2="88.92" y2="31.82" xlink:href="#linear-gradient"/><linearGradient id="linear-gradient-5" x1="8.32" y1="97.32" x2="113.53" y2="82.91" gradientUnits="userSpaceOnUse"><stop offset="0.05" stop-color="aqua"/><stop offset="0.78" stop-color="#0071bc"/></linearGradient><linearGradient id="linear-gradient-6" x1="130.38" y1="133.05" x2="130.38" y2="73.97" gradientUnits="userSpaceOnUse"><stop offset="0" stop-color="aqua"/><stop offset="0.95" stop-color="#0071bc"/></linearGradient><linearGradient id="linear-gradient-7" x1="105.19" y1="4.38" x2="137.57" y2="19.36" gradientUnits="userSpaceOnUse"><stop offset="0.13" stop-color="#492d91"/><stop offset="0.6" stop-color="#662d80"/></linearGradient><linearGradient id="linear-gradient-8" x1="126.18" y1="15.92" x2="173.25" y2="105.24" gradientUnits="userSpaceOnUse"><stop offset="0" stop-color="aqua"/><stop offset="0.76" stop-color="#0071bc"/></linearGradient><linearGradient id="linear-gradient-9" x1="172.47" y1="46.36" x2="208.22" y2="53.61" xlink:href="#linear-gradient-7"/><linearGradient id="linear-gradient-10" x1="102.49" y1="90.19" x2="184.16" y2="88.67" gradientUnits="userSpaceOnUse"><stop offset="0.06" stop-color="#1b1464"/><stop offset="0.76" stop-color="#2e5497"/></linearGradient></defs><g id="Layer_2" data-name="Layer 2"><g id="Layer_1-2" data-name="Layer 1"><g class="cls-1"><polygon class="cls-2" points="39.57 133.27 21.95 123.03 73.31 93.38 90.93 103.62 39.57 133.27"/><polygon class="cls-3" points="39.45 88.51 21.82 78.27 65.63 52.98 83.25 63.22 39.45 88.51"/><polygon class="cls-4" points="17.93 165.94 0.31 155.7 0 47.28 17.62 57.52 17.93 165.94"/><polygon class="cls-5" points="17.62 57.52 0 47.28 71.3 6.11 88.92 16.35 17.62 57.52"/><polygon class="cls-6" points="88.92 16.35 88.98 36.48 39.38 65.12 39.45 88.51 83.25 63.22 83.31 82.89 39.5 108.18 39.57 133.27 90.93 103.62 90.99 123.76 17.93 165.94 17.62 57.52 88.92 16.35"/></g><g class="cls-1"><polygon class="cls-7" points="121.66 65.33 139.28 55.09 139.1 120.87 121.48 131.11 121.66 65.33"/><polygon class="cls-8" points="100.22 10.24 117.84 0 135.9 10.43 118.28 20.67 100.22 10.24"/><polygon class="cls-9" points="118.28 20.67 135.9 10.43 182.62 103.29 165 113.53 118.28 20.67"/><polygon class="cls-10" points="186.75 60.2 204.37 49.96 204.06 158.38 186.44 168.62 186.75 60.2"/><polygon class="cls-11" points="165.19 47.75 182.81 37.51 204.37 49.96 186.75 60.2 165.19 47.75"/><polygon class="cls-12" points="186.75 60.2 186.44 168.62 168.39 158.19 121.66 65.33 121.48 131.11 99.91 118.66 100.22 10.24 118.28 20.67 165 113.53 165.19 47.75 186.75 60.2"/></g></g></g></svg>