<svg xmlns="http://www.w3.org/2000/svg" xmlns:xlink="http://www.w3.org/1999/xlink" viewBox="0 0 333.41 275.03"><defs><style>.cls-1{fill:#322a89;}.cls-2{fill:#4d4bcf;}.cls-3{fill:#6462dc;}.cls-4{fill:none;}.cls-5{fill:#e6e6f0;}.cls-6{fill:#d1d2ec;}.cls-7{fill:#c5c8ee;}.cls-8{fill:#acaff1;}.cls-9{isolation:isolate;}.cls-10{clip-path:url(#clip-path);}.cls-11{fill:#a7aaca;}.cls-12{fill:#7977ed;}.cls-13{clip-path:url(#clip-path-2);}.cls-14{clip-path:url(#clip-path-3);}.cls-15{clip-path:url(#clip-path-4);}.cls-16{clip-path:url(#clip-path-5);}.cls-17{clip-path:url(#clip-path-6);}.cls-18{clip-path:url(#clip-path-7);}.cls-19{clip-path:url(#clip-path-8);}.cls-20{clip-path:url(#clip-path-9);}.cls-21{clip-path:url(#clip-path-10);}.cls-22{clip-path:url(#clip-path-11);}.cls-23{clip-path:url(#clip-path-12);}.cls-24{clip-path:url(#clip-path-13);}.cls-25{clip-path:url(#clip-path-14);}.cls-26{clip-path:url(#clip-path-15);}.cls-27{clip-path:url(#clip-path-16);}.cls-28{clip-path:url(#clip-path-17);}.cls-29{clip-path:url(#clip-path-18);}.cls-30{clip-path:url(#clip-path-19);}.cls-31{clip-path:url(#clip-path-20);}.cls-32{clip-path:url(#clip-path-21);}.cls-33{fill:#181060;}.cls-34{fill:#e7a07d;}.cls-35{fill:#e8e9ee;}.cls-36{fill:#f37874;}.cls-37{fill:#f3b69a;}.cls-38{fill:#e93f57;}.cls-39{fill:#f3bda5;}.cls-40{fill:#f3645f;}.cls-41{fill:#d8daee;}.cls-42{fill:#e9dfd8;}.cls-43{fill:#f3a600;}.cls-44{fill:#f3b000;}.cls-45{fill:#fff;}.cls-46{clip-path:url(#clip-path-22);}.cls-47{clip-path:url(#clip-path-23);}.cls-48{fill:#5654d6;}.cls-49{fill:#d6d3ec;opacity:0.4;}.cls-50{clip-path:url(#clip-path-24);}.cls-51{clip-path:url(#clip-path-25);}.cls-52{clip-path:url(#clip-path-26);}.cls-53{clip-path:url(#clip-path-27);}.cls-54{fill:#60312d;}.cls-55{fill:#dcddf0;}.cls-56{fill:#f05a87;}.cls-57{fill:#d43867;}.cls-58{fill:#c3c9e5;}.cls-59{fill:#dfe2f0;}.cls-60{fill:#824e3b;}.cls-61{fill:#b17d71;}</style><clipPath id="clip-path"><path class="cls-1" d="M259.68,14.67,259.59,47c-30.16-17.42-79.09-17.41-109.06,0l.09-32.32C180.59-2.75,229.52-2.75,259.68,14.67Z"/></clipPath><clipPath id="clip-path-2"><path class="cls-2" d="M98.88,38.36l8.31-4.83c2.74-1.59,6.61-1,10.94,1.54a38.54,38.54,0,0,1,7,5.34l-8.32,4.83a38.49,38.49,0,0,0-7-5.34C105.49,37.4,101.62,36.77,98.88,38.36Z"/></clipPath><clipPath id="clip-path-3"><path class="cls-2" d="M116.81,45.24l8.32-4.83A294.45,294.45,0,0,0,174.4,76.76a196.45,196.45,0,0,0,49.32,20.58l-8.31,4.83a196.45,196.45,0,0,1-49.32-20.58A294.91,294.91,0,0,1,116.81,45.24Z"/></clipPath><clipPath id="clip-path-4"><path class="cls-2" d="M215.41,102.17l8.31-4.83a24,24,0,0,1,7,2.74l-8.31,4.83A24,24,0,0,0,215.41,102.17Z"/></clipPath><clipPath id="clip-path-5"><path class="cls-1" d="M241.43,184.23l-8.31,4.83c2.58-1.5,4.14-5,4.1-10.74,0-10.08.1-36.83.13-46.91a30.45,30.45,0,0,0-14.94-26.5l8.31-4.83a30.45,30.45,0,0,1,14.94,26.5c0,10.08-.1,36.83-.13,46.91C245.57,179.25,244,182.73,241.43,184.23Z"/></clipPath><clipPath id="clip-path-6"><path class="cls-5" d="M57.39,62.49,99,38.34c2.73-1.59,6.61-1,10.94,1.54a38.38,38.38,0,0,1,7,5.34L75.32,69.37a38.38,38.38,0,0,0-7-5.34C64,61.53,60.12,60.9,57.39,62.49Z"/></clipPath><clipPath id="clip-path-7"><path class="cls-5" d="M75.32,69.37l41.56-24.15a293.87,293.87,0,0,0,49.28,36.34,195.72,195.72,0,0,0,49.32,20.58l-41.56,24.15a196,196,0,0,1-49.32-20.57A294.91,294.91,0,0,1,75.32,69.37Z"/></clipPath><clipPath id="clip-path-8"><path class="cls-5" d="M173.92,126.29l41.56-24.15a24.26,24.26,0,0,1,7,2.74L180.92,129A24.55,24.55,0,0,0,173.92,126.29Z"/></clipPath><clipPath id="clip-path-9"><path class="cls-6" d="M233.19,189l-41.56,24.15c2.58-1.5,4.14-5,4.1-10.73,0-10.09.1-36.84.13-46.92A30.47,30.47,0,0,0,180.92,129l41.56-24.15a30.47,30.47,0,0,1,14.94,26.51c0,10.08-.11,36.83-.13,46.91C237.33,184.06,235.77,187.54,233.19,189Z"/></clipPath><clipPath id="clip-path-10"><path class="cls-3" d="M52.72,65.28,73.5,53.2c3.12-1.81,7-2,11.44.59.18.1.36.2.54.32L64.7,66.18l-.53-.32C59.74,63.31,55.84,63.46,52.72,65.28Z"/></clipPath><clipPath id="clip-path-11"><path class="cls-1" d="M198.21,212.85l-20.78,12.08c4.83-2.81,7.83-9.28,7.63-16.67l20.78-12.07C206,203.57,203,210.05,198.21,212.85Z"/></clipPath><clipPath id="clip-path-12"><path class="cls-3" d="M64.7,66.18,85.48,54.11q2.4,1.34,4.8,2.72c14.52,8.39,29,18,43.55,26.36s32.91,17.56,47.44,26l-20.78,12.07c-14.53-8.38-32.91-17.56-47.44-25.95s-29-18-43.55-26.35Q67.1,67.52,64.7,66.18Z"/></clipPath><clipPath id="clip-path-13"><path class="cls-1" d="M185.18,163.3,206,151.22l-.12,45-20.78,12.07Z"/></clipPath><clipPath id="clip-path-14"><path class="cls-1" d="M160.49,121.21l20.78-12.07q2.4,1.38,4.8,2.81c11.46,6.94,20.31,27.13,19.89,39.27L185.18,163.3c.42-12.14-8.43-32.33-19.89-39.27Q162.89,122.59,160.49,121.21Z"/></clipPath><clipPath id="clip-path-15"><path class="cls-1" d="M330.64,74.32l-.09,32.32c0-11.51-7.55-23-22.74-31.81l.1-32.32C323.09,51.27,330.67,62.81,330.64,74.32Z"/></clipPath><clipPath id="clip-path-16"><path class="cls-4" d="M333.41,74.1l-.09,32.32c.07,12.41-8.15,24-23.14,32.75l.09-32.33C325.26,98.13,333.48,86.5,333.41,74.1Z"/></clipPath><clipPath id="clip-path-17"><path class="cls-5" d="M232.25,150.34l6.24,3.62c-2.67-1.55-6.37-1.33-10.45,1l-6.24-3.62C225.89,149,229.58,148.79,232.25,150.34Z"/></clipPath><clipPath id="clip-path-18"><path class="cls-5" d="M217.69,189.74l-6.23-3.62c-2.64-1.53-4.27-4.79-4.29-9.42,0-9.31,6.53-20.66,14.63-25.34L228,155c-8.11,4.68-14.66,16-14.63,25.35C213.42,185,215.05,188.21,217.69,189.74Z"/></clipPath><clipPath id="clip-path-19"><path class="cls-5" d="M299.39,114.63l3.23,1.88a3.06,3.06,0,0,0-3.08.3l-3.23-1.88A3.06,3.06,0,0,1,299.39,114.63Z"/></clipPath><clipPath id="clip-path-20"><path class="cls-6" d="M267.73,167.16l-3.24-1.88a3,3,0,0,1-1.25-2.77l3.23,1.88A3,3,0,0,0,267.73,167.16Z"/></clipPath><clipPath id="clip-path-21"><path class="cls-5" d="M266.4,140.93l-3.23-1.88a9.49,9.49,0,0,1,4.3-7.45l3.24,1.88A9.45,9.45,0,0,0,266.4,140.93Z"/></clipPath><clipPath id="clip-path-22"><path class="cls-1" d="M246.69,201l0,10.06c0-4.44,3-8.86,8.85-12.21,11.7-6.66,30.53-6.54,42.06.26,5.74,3.38,8.59,7.78,8.58,12.16l0-10.07c0-4.38-2.84-8.77-8.57-12.15-11.53-6.8-30.36-6.92-42.06-.26C249.66,192.14,246.71,196.56,246.69,201Z"/></clipPath><clipPath id="clip-path-23"><path class="cls-1" d="M241.62,201l0,8.07c0,5.12,3.32,10.27,10,14.22,13.51,8,35.55,8.1,49.24.31,6.89-3.92,10.35-9.1,10.37-14.29l0-8.07c0,5.19-3.48,10.38-10.36,14.3-13.7,7.79-35.74,7.65-49.25-.32C244.94,211.25,241.6,206.11,241.62,201Z"/></clipPath><clipPath id="clip-path-24"><path class="cls-7" d="M228.32,228.75,250,216.25a2,2,0,0,1,2,.2L230.33,229A2,2,0,0,0,228.32,228.75Z"/></clipPath><clipPath id="clip-path-25"><path class="cls-8" d="M254,223.14l-21.68,12.5a2,2,0,0,0,.82-1.81,6.19,6.19,0,0,0-2.79-4.88L252,216.45a6.2,6.2,0,0,1,2.8,4.88A2,2,0,0,1,254,223.14Z"/></clipPath><clipPath id="clip-path-26"><path class="cls-1" d="M188.45,246.2l47.74-25.72a3.65,3.65,0,0,1,3.68.38l-47,25.81C191.15,245.66,189.58,245.55,188.45,246.2Z"/></clipPath><clipPath id="clip-path-27"><path class="cls-1" d="M243.45,233.15l-46.29,28.26c1.12-.64,1.82-2,1.84-4a13.66,13.66,0,0,0-6.13-10.76l47-25.81a11.39,11.39,0,0,1,5.11,9A3.65,3.65,0,0,1,243.45,233.15Z"/></clipPath></defs><g id="Layer_2" data-name="Layer 2"><g id="Layer_1-2" data-name="Layer 1"><polygon class="cls-6" points="263.96 248.31 89.7 269.25 38.63 127.57 212.9 106.64 263.96 248.31"/><polygon class="cls-5" points="304.23 199.81 223.68 275.03 40.23 209.55 120.78 134.32 304.23 199.81"/><g class="cls-9"><polygon class="cls-1" points="261.68 13.51 261.59 45.83 259.59 46.99 259.69 14.67 261.68 13.51"/><g class="cls-9"><path class="cls-1" d="M259.68,14.67,259.59,47c-30.16-17.42-79.09-17.41-109.06,0l.09-32.32C180.59-2.75,229.52-2.75,259.68,14.67Z"/><g class="cls-10"><g class="cls-9"><path class="cls-1" d="M259.68,14.67,259.59,47c-16.8-9.7-39.42-14-61.34-12.89l.09-32.32C220.26.67,242.88,5,259.68,14.67Z"/><path class="cls-1" d="M198.34,1.78l-.09,32.32C180.81,35,163.81,39.28,150.53,47l.09-32.32C163.9,7,180.9,2.66,198.34,1.78Z"/></g></g></g><polygon class="cls-1" points="150.62 14.67 150.53 46.99 64.67 96.89 64.76 64.57 150.62 14.67"/><polygon class="cls-11" points="64.76 64.57 64.67 96.89 62.66 95.73 62.75 63.41 64.76 64.57"/><path class="cls-12" d="M261.68,13.51l-2,1.16c-30.16-17.42-79.09-17.42-109.06,0L64.76,64.57l-2-1.16,85.86-49.9C163.6,4.8,183.65,0,205.07,0S246.59,4.8,261.68,13.51Z"/></g><g class="cls-9"><g class="cls-9"><path class="cls-2" d="M98.88,38.36l8.31-4.83c2.74-1.59,6.61-1,10.94,1.54a38.54,38.54,0,0,1,7,5.34l-8.32,4.83a38.49,38.49,0,0,0-7-5.34C105.49,37.4,101.62,36.77,98.88,38.36Z"/><g class="cls-13"><g class="cls-9"><path class="cls-2" d="M98.88,38.36l8.31-4.83c2.74-1.59,6.61-1,10.94,1.54a38.54,38.54,0,0,1,7,5.34l-8.32,4.83a38.49,38.49,0,0,0-7-5.34C105.49,37.4,101.62,36.77,98.88,38.36Z"/></g></g></g><g class="cls-9"><path class="cls-2" d="M116.81,45.24l8.32-4.83A294.45,294.45,0,0,0,174.4,76.76a196.45,196.45,0,0,0,49.32,20.58l-8.31,4.83a196.45,196.45,0,0,1-49.32-20.58A294.91,294.91,0,0,1,116.81,45.24Z"/><g class="cls-14"><g class="cls-9"><path class="cls-2" d="M116.81,45.24l8.32-4.83A294.45,294.45,0,0,0,174.4,76.76a196.45,196.45,0,0,0,49.32,20.58l-8.31,4.83a196.45,196.45,0,0,1-49.32-20.58A294.91,294.91,0,0,1,116.81,45.24Z"/></g></g></g><g class="cls-9"><path class="cls-2" d="M215.41,102.17l8.31-4.83a24,24,0,0,1,7,2.74l-8.31,4.83A24,24,0,0,0,215.41,102.17Z"/><g class="cls-15"><g class="cls-9"><path class="cls-2" d="M215.41,102.17l8.31-4.83a24,24,0,0,1,7,2.74l-8.31,4.83A24,24,0,0,0,215.41,102.17Z"/></g></g></g><g class="cls-9"><path class="cls-1" d="M241.43,184.23l-8.31,4.83c2.58-1.5,4.14-5,4.1-10.74,0-10.08.1-36.83.13-46.91a30.45,30.45,0,0,0-14.94-26.5l8.31-4.83a30.45,30.45,0,0,1,14.94,26.5c0,10.08-.1,36.83-.13,46.91C245.57,179.25,244,182.73,241.43,184.23Z"/><g class="cls-16"><g class="cls-9"><path class="cls-1" d="M222.41,104.91l8.31-4.83a30.45,30.45,0,0,1,14.94,26.5c0,10.08-.1,36.83-.13,46.91,0,5.76-1.52,9.24-4.1,10.74l-8.31,4.83c2.58-1.5,4.14-5,4.1-10.74,0-10.08.1-36.83.13-46.91A30.45,30.45,0,0,0,222.41,104.91Z"/></g></g></g><path class="cls-2" d="M222.41,104.91a30.45,30.45,0,0,1,14.94,26.5c0,10.08-.11,36.83-.13,46.91.09,11.85-6.62,14.06-15,9.2a38.42,38.42,0,0,1-7-5.34,294.45,294.45,0,0,0-49.27-36.35,196,196,0,0,0-49.32-20.57,24.26,24.26,0,0,1-7-2.74A30.47,30.47,0,0,1,94.65,96c0-10.08.1-36.83.13-46.91-.09-11.85,6.62-14.06,15-9.2a38.49,38.49,0,0,1,7,5.34,294.91,294.91,0,0,0,49.28,36.35,196.45,196.45,0,0,0,49.32,20.58A24,24,0,0,1,222.41,104.91Z"/></g><g class="cls-9"><g class="cls-9"><path class="cls-5" d="M57.39,62.49,99,38.34c2.73-1.59,6.61-1,10.94,1.54a38.38,38.38,0,0,1,7,5.34L75.32,69.37a38.38,38.38,0,0,0-7-5.34C64,61.53,60.12,60.9,57.39,62.49Z"/><g class="cls-17"><g class="cls-9"><path class="cls-5" d="M57.39,62.49,99,38.34c2.73-1.59,6.61-1,10.94,1.54a38.38,38.38,0,0,1,7,5.34L75.32,69.37a38.38,38.38,0,0,0-7-5.34C64,61.53,60.12,60.9,57.39,62.49Z"/></g></g></g><g class="cls-9"><path class="cls-5" d="M75.32,69.37l41.56-24.15a293.87,293.87,0,0,0,49.28,36.34,195.72,195.72,0,0,0,49.32,20.58l-41.56,24.15a196,196,0,0,1-49.32-20.57A294.91,294.91,0,0,1,75.32,69.37Z"/><g class="cls-18"><g class="cls-9"><path class="cls-5" d="M75.32,69.37l41.56-24.15a293.87,293.87,0,0,0,49.28,36.34,195.72,195.72,0,0,0,49.32,20.58l-41.56,24.15a196,196,0,0,1-49.32-20.57A294.91,294.91,0,0,1,75.32,69.37Z"/></g></g></g><g class="cls-9"><path class="cls-5" d="M173.92,126.29l41.56-24.15a24.26,24.26,0,0,1,7,2.74L180.92,129A24.55,24.55,0,0,0,173.92,126.29Z"/><g class="cls-19"><g class="cls-9"><path class="cls-5" d="M173.92,126.29l41.56-24.15a24.26,24.26,0,0,1,7,2.74L180.92,129A24.55,24.55,0,0,0,173.92,126.29Z"/></g></g></g><g class="cls-9"><path class="cls-6" d="M233.19,189l-41.56,24.15c2.58-1.5,4.14-5,4.1-10.73,0-10.09.1-36.84.13-46.92A30.47,30.47,0,0,0,180.92,129l41.56-24.15a30.47,30.47,0,0,1,14.94,26.51c0,10.08-.11,36.83-.13,46.91C237.33,184.06,235.77,187.54,233.19,189Z"/><g class="cls-20"><g class="cls-9"><path class="cls-6" d="M180.92,129l41.56-24.15a30.47,30.47,0,0,1,14.94,26.51c0,10.08-.11,36.83-.13,46.91,0,5.76-1.52,9.24-4.1,10.74l-41.56,24.15c2.58-1.5,4.14-5,4.1-10.73,0-10.09.1-36.84.13-46.92A30.47,30.47,0,0,0,180.92,129Z"/></g></g></g><path class="cls-5" d="M180.92,129a30.47,30.47,0,0,1,14.94,26.51c0,10.08-.1,36.83-.13,46.92.09,11.84-6.63,14-15,9.19a38.42,38.42,0,0,1-7-5.34A293.81,293.81,0,0,0,124.42,170a196.19,196.19,0,0,0-49.33-20.59,24.09,24.09,0,0,1-7-2.74,30.45,30.45,0,0,1-14.93-26.5c0-10.08.1-36.83.13-46.91-.09-11.85,6.62-14.06,15-9.2a38.38,38.38,0,0,1,7,5.34,294.91,294.91,0,0,0,49.28,36.35,196,196,0,0,0,49.32,20.57A24.55,24.55,0,0,1,180.92,129Z"/></g><g class="cls-9"><g class="cls-9"><path class="cls-3" d="M52.72,65.28,73.5,53.2c3.12-1.81,7-2,11.44.59.18.1.36.2.54.32L64.7,66.18l-.53-.32C59.74,63.31,55.84,63.46,52.72,65.28Z"/><g class="cls-21"><g class="cls-9"><path class="cls-3" d="M52.72,65.28,73.5,53.2c3.12-1.81,7-2,11.44.59.18.1.36.2.54.32L64.7,66.18l-.53-.32C59.74,63.31,55.84,63.46,52.72,65.28Z"/></g></g></g><g class="cls-9"><path class="cls-1" d="M198.21,212.85l-20.78,12.08c4.83-2.81,7.83-9.28,7.63-16.67l20.78-12.07C206,203.57,203,210.05,198.21,212.85Z"/><g class="cls-22"><g class="cls-9"><path class="cls-1" d="M185.06,208.26l20.78-12.07c.2,7.38-2.8,13.86-7.63,16.66l-20.78,12.08C182.26,222.12,185.26,215.65,185.06,208.26Z"/></g></g></g><g class="cls-9"><path class="cls-3" d="M64.7,66.18,85.48,54.11q2.4,1.34,4.8,2.72c14.52,8.39,29,18,43.55,26.36s32.91,17.56,47.44,26l-20.78,12.07c-14.53-8.38-32.91-17.56-47.44-25.95s-29-18-43.55-26.35Q67.1,67.52,64.7,66.18Z"/><g class="cls-23"><g class="cls-9"><path class="cls-3" d="M64.7,66.18,85.48,54.11q2.4,1.34,4.8,2.72c14.52,8.39,29,18,43.55,26.36s32.91,17.56,47.44,26l-20.78,12.07c-14.53-8.38-32.91-17.56-47.44-25.95s-29-18-43.55-26.35Q67.1,67.52,64.7,66.18Z"/></g></g></g><g class="cls-9"><path class="cls-1" d="M185.18,163.3,206,151.22l-.12,45-20.78,12.07Z"/><g class="cls-24"><g class="cls-9"><path class="cls-1" d="M185.18,163.3,206,151.22l-.12,45-20.78,12.07Z"/></g></g></g><g class="cls-9"><path class="cls-1" d="M160.49,121.21l20.78-12.07q2.4,1.38,4.8,2.81c11.46,6.94,20.31,27.13,19.89,39.27L185.18,163.3c.42-12.14-8.43-32.33-19.89-39.27Q162.89,122.59,160.49,121.21Z"/><g class="cls-25"><g class="cls-9"><path class="cls-1" d="M160.49,121.21l20.78-12.07q2.4,1.38,4.8,2.81c11.46,6.94,20.31,27.13,19.89,39.27L185.18,163.3c.42-12.14-8.43-32.33-19.89-39.27Q162.89,122.59,160.49,121.21Z"/></g></g></g><path class="cls-2" d="M160.49,121.21q2.4,1.38,4.8,2.82c11.46,6.94,20.31,27.13,19.89,39.27l-.12,45c.34,12.58-8.59,22.51-20.06,16.21-1.6-.9-3.2-1.8-4.8-2.73-14.52-8.38-32.89-20-47.42-28.37s-29-15.55-43.57-23.93l-4.8-2.82c-.17-.1-.35-.19-.52-.3-11.5-6.63-19.33-27.36-19.37-39q.06-22.48.13-45c.11-11.51,8-23.15,19.52-16.52l.53.32q2.4,1.33,4.8,2.73c14.52,8.38,29,18,43.55,26.35S146,112.83,160.49,121.21Z"/></g><g class="cls-9"><polygon class="cls-1" points="307.9 42.51 307.81 74.83 259.59 46.99 259.69 14.67 307.9 42.51"/><g class="cls-9"><path class="cls-1" d="M330.64,74.32l-.09,32.32c0-11.51-7.55-23-22.74-31.81l.1-32.32C323.09,51.27,330.67,62.81,330.64,74.32Z"/><g class="cls-26"><g class="cls-9"><path class="cls-1" d="M330.64,74.32l-.09,32.32c0-10.33-6.08-20.68-18.31-29l.09-32.32C324.56,53.64,330.67,64,330.64,74.32Z"/><path class="cls-1" d="M312.33,45.29l-.09,32.32q-2.08-1.42-4.43-2.78l.1-32.32C309.46,43.41,310.94,44.34,312.33,45.29Z"/></g></g></g><g class="cls-9"><g class="cls-27"><g class="cls-9"><path class="cls-2" d="M333.41,74.1l-.09,32.32c.07,12.41-8.15,24-23.14,32.75l.09-32.33C325.26,98.13,333.48,86.5,333.41,74.1Z"/></g></g></g><polygon class="cls-11" points="224.41 156.74 224.32 189.06 222.31 187.9 222.4 155.58 224.41 156.74"/><polygon class="cls-2" points="310.27 106.84 310.18 139.17 224.32 189.06 224.41 156.74 310.27 106.84"/><path class="cls-12" d="M309.9,41.35C325,50.06,333.34,61.69,333.41,74.1s-8.15,24-23.14,32.74l-85.86,49.9-2-1.16,85.86-49.89c30-17.42,29.81-45.76-.35-63.18L259.68,14.67l2-1.16Z"/></g><g class="cls-9"><g class="cls-9"><path class="cls-5" d="M232.25,150.34l6.24,3.62c-2.67-1.55-6.37-1.33-10.45,1l-6.24-3.62C225.89,149,229.58,148.79,232.25,150.34Z"/><g class="cls-28"><g class="cls-9"><path class="cls-5" d="M228,155l-6.24-3.62c4.09-2.36,7.78-2.57,10.45-1l6.24,3.62C235.82,152.41,232.12,152.63,228,155Z"/></g></g></g><g class="cls-9"><path class="cls-5" d="M217.69,189.74l-6.23-3.62c-2.64-1.53-4.27-4.79-4.29-9.42,0-9.31,6.53-20.66,14.63-25.34L228,155c-8.11,4.68-14.66,16-14.63,25.35C213.42,185,215.05,188.21,217.69,189.74Z"/><g class="cls-29"><g class="cls-9"><path class="cls-5" d="M217.69,189.74l-6.23-3.62c-2.51-1.46-4.11-4.48-4.27-8.76l6.23,3.63C213.58,185.26,215.18,188.28,217.69,189.74Z"/><path class="cls-5" d="M213.42,181l-6.23-3.63c0-.21,0-.43,0-.66,0-8.46,5.39-18.61,12.46-23.9l6.23,3.62c-7.07,5.3-12.48,15.44-12.45,23.91C213.41,180.55,213.41,180.77,213.42,181Z"/><path class="cls-5" d="M225.86,156.42l-6.23-3.62a24,24,0,0,1,2.17-1.44L228,155A22.78,22.78,0,0,0,225.86,156.42Z"/></g></g></g><path class="cls-7" d="M228,155c8.11-4.68,14.7-.92,14.73,8.39s-6.53,20.67-14.64,25.35-14.7.92-14.72-8.39S219.93,159.66,228,155Z"/></g><g class="cls-9"><g class="cls-9"><path class="cls-5" d="M299.39,114.63l3.23,1.88a3.06,3.06,0,0,0-3.08.3l-3.23-1.88A3.06,3.06,0,0,1,299.39,114.63Z"/><g class="cls-30"><g class="cls-9"><path class="cls-5" d="M299.54,116.81l-3.23-1.88a3.06,3.06,0,0,1,3.08-.3l3.23,1.88A3.06,3.06,0,0,0,299.54,116.81Z"/></g></g></g><g class="cls-9"><path class="cls-6" d="M267.73,167.16l-3.24-1.88a3,3,0,0,1-1.25-2.77l3.23,1.88A3,3,0,0,0,267.73,167.16Z"/><g class="cls-31"><g class="cls-9"><path class="cls-6" d="M267.73,167.16l-3.24-1.88a3,3,0,0,1-1.25-2.58l3.23,1.88A2.94,2.94,0,0,0,267.73,167.16Z"/><path class="cls-6" d="M266.47,164.58l-3.23-1.88v-.19l3.23,1.88Z"/></g></g></g><polygon class="cls-6" points="266.47 164.39 263.24 162.51 263.17 139.05 266.4 140.93 266.47 164.39"/><polygon class="cls-5" points="270.71 133.48 267.47 131.6 296.31 114.93 299.54 116.81 270.71 133.48"/><g class="cls-9"><path class="cls-5" d="M266.4,140.93l-3.23-1.88a9.49,9.49,0,0,1,4.3-7.45l3.24,1.88A9.45,9.45,0,0,0,266.4,140.93Z"/><g class="cls-32"><g class="cls-9"><path class="cls-5" d="M266.4,140.93l-3.23-1.88a9.6,9.6,0,0,1,3.66-7l3.23,1.88A9.6,9.6,0,0,0,266.4,140.93Z"/><path class="cls-5" d="M270.06,133.9,266.83,132c.21-.15.43-.3.64-.42l3.24,1.88A5.12,5.12,0,0,0,270.06,133.9Z"/></g></g></g><path class="cls-7" d="M299.54,116.81c2.39-1.38,4.33-.27,4.34,2.47l.06,23.45a9.49,9.49,0,0,1-4.3,7.46L270.8,166.86c-2.39,1.38-4.32.27-4.33-2.47l-.07-23.46a9.45,9.45,0,0,1,4.31-7.45Z"/></g><path class="cls-1" d="M89.3,118.39l6.31,28.18,6.7-20.66,5.76,3.32-9.36,27.36L92.43,153l-8.9-37.9Z"/><path class="cls-1" d="M110.75,130.78,123.17,138c4.43,2.55,7.72,6.85,7.72,14.67,0,8.12-2.94,7.38-4.52,7l5.38,16-6.11-3.53L121,157l-4.77-3.38v13l-5.43-3.13Zm11.89,21.68c1.88,1.09,2.79,1,2.79-3,0-3.72-1.09-5.27-2.79-6.26l-6.44-3.71v9.24Z"/><path class="cls-33" d="M19.82,134.23a18.08,18.08,0,0,1,.73,4.85,10.54,10.54,0,0,0,1.23,4.74,6.25,6.25,0,0,1-3.23-2.92c-.49-.94-.73-2-1.29-2.92a8.3,8.3,0,0,0-2-2A3.12,3.12,0,0,1,14,132.59C15.1,129.06,18.9,131.67,19.82,134.23Z"/><path class="cls-34" d="M23.45,163.39c-.14-.13-.07,0-.27-.14-.61-.27-.84,0-1.26.06a.55.55,0,0,0-.49.36c-.64,2.65.05,3.48.18,3.08a3.67,3.67,0,0,1,.24-.92c.25.15-.11,1.37.46,1.66s1.59,1.06,1.82.3c.15-.48.07-.75-.38-3.69C23.73,164,23.35,163.45,23.45,163.39Z"/><path class="cls-34" d="M21.2,147.8c-.9-4.79-7.58-6.58-4.3,2.24.36,1,1.39,4.2,2.26,6.34.46,1.13,2.2-.17,2.53-.52C22.8,154.73,22.17,153,21.2,147.8Z"/><path class="cls-34" d="M23.57,164.31c.17.69-.29-.31-1,.12-1.1.7-1.17-.48-2.94-5.74-.39-1.17-.32-2-.82-3.56a1.27,1.27,0,0,1,.37-1.24c.64-.62,2.57-2.22,2.87-1.53s.62,3.09.86,3.79C23.64,158.23,23.2,162.85,23.57,164.31Z"/><g id="character"><path class="cls-34" d="M19.6,188.51c-2.2-2.08-1.73-2.88-1.36-5.21s.75-5.87,2.05-10.61c.21-.76.82-1.89.59-2.68-.55-1.9-3.1-3.4-4.31-1.95a4.71,4.71,0,0,0-.6,2.22c-.39,2-2,2.93-.78,14.27,0,.23.06.52.12.79a3.32,3.32,0,0,1-.15.71c-.23.69-1,2.34-.06,3.34a4.9,4.9,0,0,0,1.89.92c1.28.55,2,2.23,3.54,2.17a2.9,2.9,0,0,0,2.09-1.43C22.78,190.17,20.37,189.23,19.6,188.51Z"/><path class="cls-34" d="M9.6,144.34a10.7,10.7,0,0,1,2.54-1c.18,0,.78.19,1,.15a6.65,6.65,0,0,1,4,.33l0,0v8.24H9.26Z"/><path class="cls-34" d="M13.88,170.89c.12,5.64-1.82,15.2-1.54,19.21,0,.64-1.58,1-2.14.65-.38-.23-.65-.14-.67-.59-.19-4.25-2.67-8.83-1.14-15.94a1.46,1.46,0,0,1,1-1.13Z"/><path class="cls-34" d="M12.18,188.64c.05,2.26,1.68,4.14,2.84,6,.18.28-.12.85-.14,1.18s.26.85-1.94,1c-1,.07-1.53.15-3-3.2-.31-.71-.95-1.23-.88-2.09,0-.65.53-1.2.63-1.84s-.21-1.58.27-2.13a1.24,1.24,0,0,1,2,.46Z"/><path class="cls-34" d="M15,194.6c-1-1.53-2.29-3.11-2.71-4.93-.12-4.22,1.69-13.33,1.57-18.78l-4.47,2.2a1.46,1.46,0,0,0-1,1.13c-1.53,7.11.95,11.69,1.14,15.94a4.43,4.43,0,0,0-.48,1.33c-.07.86.57,1.38.88,2.09,1.48,3.35,2,3.27,3,3.2,2.2-.15,1.92-.57,1.94-1S15.2,194.88,15,194.6Z"/><path class="cls-35" d="M19.6,188.51C18,187,17.81,186.17,18,184.94a2.38,2.38,0,0,1-2.67.37v0a3.32,3.32,0,0,1-.15.71c-.23.69-1,2.34-.06,3.34a4.9,4.9,0,0,0,1.89.92c1.28.55,2,2.23,3.54,2.17a2.9,2.9,0,0,0,2.09-1.43C22.78,190.17,20.37,189.23,19.6,188.51Z"/><path class="cls-35" d="M15,194.6c-1-1.53-2.29-3.11-2.71-4.93,0-.38,0-.8,0-1.25a2.55,2.55,0,0,1-3-.11,15,15,0,0,1,.21,1.85,4.43,4.43,0,0,0-.48,1.33c-.07.86.57,1.38.88,2.09,1.48,3.35,2,3.27,3,3.2,2.2-.15,1.92-.57,1.94-1S15.2,194.88,15,194.6Z"/><path class="cls-1" d="M15,194.6c-.4-.63-.86-1.27-1.29-1.92.1,1-.19,1.85-1.37,1.78-2.08,0-2.24-2.49-2.83-4.3a4.43,4.43,0,0,0-.48,1.33c-.07.86.57,1.38.88,2.09a13.35,13.35,0,0,0,1.83,3.17C13,197.73,16.48,196.87,15,194.6Z"/><path class="cls-36" d="M20.83,163.75c-.3-2.1-1.62-17.16-2.56-19.28-.43-1-1.81-1.23-2.79-1.26-.52,0-.38-.11-.32,1s.54,2.14-.14,3c-1.42,1.76-5,0-5.42-2.9-1.86,1.13-4.52,2.38-3.78,5A15.91,15.91,0,0,1,6,153.17a99.75,99.75,0,0,1-.35,16.68c-.39,3.77-.75,6.25,4.74,7.44,3.18.69,9.86.34,11.22-2.61C22.76,172.11,20.84,163.89,20.83,163.75Z"/><path class="cls-1" d="M19,187.93c.22.74,1,1.23,1.42,1.95.25.41-.18.69-.47.67-2.7-.18-3.93-2-5-3.88a2.78,2.78,0,0,0,.16,2.72,4.57,4.57,0,0,0,1.74,1c1.38.59,3.13,3.36,5.21,1.84C24.39,190.55,20.69,189.76,19,187.93Z"/><g id="head"><path class="cls-34" d="M10.14,144.44c-.09,2.85,5.25,2.9,5.17.22-.11-3.73-.33-4.16-2.09-4.74a5.11,5.11,0,0,0-1.5-.29c-1.85,0-1.34,1.49-1.27,2.15C10.66,143.73,10.17,143.42,10.14,144.44Z"/><path class="cls-37" d="M18.52,134.61a9.22,9.22,0,0,1,.69,6.52,4.87,4.87,0,0,1-2.32,3.48,3.62,3.62,0,0,1-2.49.15,5.71,5.71,0,0,1-2.21-1.24,7.58,7.58,0,0,1-2.35-3.21c-.15-.46-.18-1-.29-1.45a8.25,8.25,0,0,1-.24-2.32,7.62,7.62,0,0,1,.25-2.07,4,4,0,0,1,1.16-1.66,4.28,4.28,0,0,1,3.28-.95,7,7,0,0,1,1.2.27,5.55,5.55,0,0,1,2.38,1.24l0,0A5.9,5.9,0,0,1,18.52,134.61Z"/><path class="cls-1" d="M13.3,139.84a4.89,4.89,0,0,0-.93.33,1,1,0,0,0-.36.51c-.35.77-.93.2-1.12.57a2,2,0,0,0-.09.88q0,.31,0,.63c-1.11-.08-2.29-2-2.74-2.91a8.9,8.9,0,0,1-.6-3.94c.06-3.18,2.41-3.66,2.41-3.66a4.07,4.07,0,0,1,3.79-1.35,7.68,7.68,0,0,1,4.72,1.95,5.23,5.23,0,0,1,1.15,4.63c-.1.71-1-.08-1.53-.57-.82-.82-.33-.47-1.26.57A8.81,8.81,0,0,1,13.3,139.84Z"/><path class="cls-37" d="M11.08,139.2c-.86-.09-1.13.91-.57,1.73a4.13,4.13,0,0,0,.67.65c1.49,1.32,1.94,0,1.47-.46C11.55,140.07,12.16,139.32,11.08,139.2Z"/><path class="cls-34" d="M11.51,141.17c-.1-.09-1-.69-.37-1a.29.29,0,0,1,.41.25c0,.1,0,.2,0,.3a.33.33,0,0,0,.05.16c.08.14.38.28.31.48S11.56,141.22,11.51,141.17Z"/></g><path class="cls-37" d="M3.5,150.46c1-4.83,8-6.63,4.55,2.26-.38,1-1.48,4.23-2.4,6.39-.48,1.13-2.32-.18-2.67-.52C1.8,157.44,2.47,155.66,3.5,150.46Z"/></g><path class="cls-37" d="M.73,167.23c-.19.7.56-.44,1.28,0a3.64,3.64,0,0,0,1.28.42c.73-.32-.16-.58,1.83-6.21.42-1.18.35-2,.88-3.59a1.25,1.25,0,0,0-.4-1.25c-.67-.63-2.72-2.23-3-1.54A28.36,28.36,0,0,0,1.88,158C1.33,160.15,1.12,165.76.73,167.23Z"/><path class="cls-37" d="M0,170.33c.09,1,.35,1,.83,1.36,1.75,1.45,1.2-.48,1.42-1.66.19-1,.8-1.15.37.24a.44.44,0,0,0,.45.62c.17,0,.2-.24.25-.35a3.7,3.7,0,0,0,.45-2.91,1.51,1.51,0,0,0-1.86-1.26C.9,166.23-.14,168.5,0,170.33Z"/><path class="cls-37" d="M23.76,163.8a2.94,2.94,0,0,0-.31-.41c-.45,0-1.68,1.09-.19,2a.85.85,0,0,1,.3.5c0,.23-.08.55.13.74a.41.41,0,0,0,.42.1A3.54,3.54,0,0,0,23.76,163.8Z"/><path class="cls-1" d="M4.33,137.18a18.77,18.77,0,0,0,.11,4.91A10.61,10.61,0,0,1,4,147a6.3,6.3,0,0,0,2.68-3.43c.33-1,.38-2.11.77-3.1a8.67,8.67,0,0,1,1.68-2.3,3.12,3.12,0,0,0,.64-3.58C8.1,131.28,4.8,134.5,4.33,137.18Z"/><path class="cls-34" d="M70.88,191.5c-.26,3.15-1.49,6.14-1.88,9.27a36.47,36.47,0,0,1-.61,4.79,5.09,5.09,0,0,1-2.9,3.63,1.5,1.5,0,0,1-1.61-.2,1.94,1.94,0,0,1-.2-1.69,46.56,46.56,0,0,0-2.19-24.74c-.5-1.33-1.06-2.8-.52-4.1a3.51,3.51,0,0,1,3.12-2c1.11-.06,2.89.16,3.54,1.14a20.15,20.15,0,0,1,1.58,4.13A23.51,23.51,0,0,1,70.88,191.5Z"/><path class="cls-34" d="M69.74,206.71a19.56,19.56,0,0,1-1.49,3.43c-.67,1.55-.9,3.27-1.67,4.79a5.93,5.93,0,0,1-1.26,1.68,4.7,4.7,0,0,1-1.81.95,5.82,5.82,0,0,1-1.94.33,2.81,2.81,0,0,1-1.81-.67,2,2,0,0,1-.63-1.16,2.71,2.71,0,0,1,.21-1.35,19,19,0,0,1,1.41-2.82c.28-.48.57-1,.85-1.45A19.19,19.19,0,0,0,62.83,208a17.22,17.22,0,0,0,1.37-4.23,4.69,4.69,0,0,1,3.56-.58A3.19,3.19,0,0,1,69.74,206.71Z"/><path class="cls-33" d="M59.05,217.39a2.34,2.34,0,0,0,1,.61,5.44,5.44,0,0,0,2.6,0,5.73,5.73,0,0,0,3.93-3c.12-.23.22-.46.32-.7.53-1.33.83-2.81,1.4-4.13a20.54,20.54,0,0,0,1.55-3.42,2.79,2.79,0,0,0-1.17-3c.06,0,.1.24.13.31s.09.23.13.35a7.16,7.16,0,0,1,.23.75,2.82,2.82,0,0,1,0,1.55,5.18,5.18,0,0,1-.63,1,5.75,5.75,0,0,0-.62,1.21c-.24.64-.39,1.34-.58,2s-.38,1.37-.58,2.06a3.48,3.48,0,0,1-.29.82,1.38,1.38,0,0,1-.44.49,1.2,1.2,0,0,1-.75.12,7.23,7.23,0,0,1-1.14-.12A6.7,6.7,0,0,1,62,213.5a5.75,5.75,0,0,1-1.5-1.19,14.54,14.54,0,0,0-1.4,3.12c0,.16-.09.32-.13.48C58.88,216.35,58.73,217,59.05,217.39Z"/><path class="cls-34" d="M58.76,187.58c-.41,2.12-1.23,4.15-1.41,6.3-.15,1.72.11,3.46-.14,5.16s-1.2,3.48-2.85,4a1.65,1.65,0,0,1-1.62-.27c-.51-.52-.37-1.38-.26-2.1.86-5.31-1.42-10.62-1.48-16a16.4,16.4,0,0,0-.27-4.32c-.4-1.42-1.35-2.84-.91-4.25a2.85,2.85,0,0,1,2.5-1.86,4.73,4.73,0,0,1,3.07,1C59.07,177.86,59.57,183.43,58.76,187.58Z"/><path class="cls-34" d="M48.31,203.25c-.41.34-.82.68-1.21,1a14.61,14.61,0,0,0-1.69,1.83c-.61.74-1.26,1.63-.84,2.62a1.56,1.56,0,0,0,.74.74,3.19,3.19,0,0,0,1,.3,6.53,6.53,0,0,0,6.24-2.61,8.87,8.87,0,0,0,.92-1.5,2.73,2.73,0,0,1,1.17-1.21c.68-.42,1.43-.74,2.11-1.18A3.57,3.57,0,0,0,58.07,202a2.94,2.94,0,0,0,.19-2.27,7.71,7.71,0,0,0-.75-1.42,5.57,5.57,0,0,1-.19-1.95c0-.28-1-1-1.7-1.3a1.65,1.65,0,0,0-1.29,0c-.53.28-1.29-.27-1.89-.18a8.37,8.37,0,0,1-.72,4.86A15.11,15.11,0,0,1,48.63,203Z"/><path class="cls-33" d="M44.42,207.62a4.3,4.3,0,0,1,.9-1.58,16.53,16.53,0,0,1,1.78-1.77,4.61,4.61,0,0,0,2,2.13c.7.35,1.72.71,2.37.1.37-.34.65-.76,1-1.09s.86-.79,1.31-1.1c1-.68,2.16-1.64,3-2.33,1.2-1.2.67-2.22.61-3.75a4.44,4.44,0,0,1,.87,1.5,3,3,0,0,1-.23,2.27,3.79,3.79,0,0,1-1.32,1.32c-.68.43-1.43.75-2.12,1.17a2.77,2.77,0,0,0-1.16,1.21,9.58,9.58,0,0,1-.62,1.07l-.3.43A8.16,8.16,0,0,1,50,209.5a6.84,6.84,0,0,1-3.52.49,4.21,4.21,0,0,1-1.23-.18,1.62,1.62,0,0,1-.93-.77A2.18,2.18,0,0,1,44.42,207.62Z"/><g id="_10_woman_smart_watch" data-name="10_woman_smart_watch"><g id="character-2" data-name="character"><g id="character-3" data-name="character"><path class="cls-38" d="M69.71,99.21c.09,1,.08,2.05.08,3.1,0,2.07-.5,4.15-.17,6.22a12.86,12.86,0,0,0,2.11,4.93,6.71,6.71,0,0,1,1.06,2.08,12.12,12.12,0,0,0,1.06,2.52c1,1.79,2.34,3.53,2.27,5.56a6.43,6.43,0,0,1-5.67-.56c-1.9-1.1-3.12-3.16-4.42-4.88a16.61,16.61,0,0,1-2.37-4,10.26,10.26,0,0,1-.67-3.55c0-.64,0-1.27.11-1.91l.75-8.75c0,.1-.17.12-.23,0a.4.4,0,0,1,0-.32c.48,0,.51-.23.49-.71s-.2-.95-.21-1.43a2.58,2.58,0,0,1,.76-1.79,4.24,4.24,0,0,1,1.7-1,2.22,2.22,0,0,1,1.89.08,2.51,2.51,0,0,1,.87,1.4A13.12,13.12,0,0,1,69.71,99.21Z"/><path class="cls-39" d="M33.48,136.09c-.37-.09-.7-.27-1.06-.39a5.82,5.82,0,0,0-1.5-.19l-4.29-.14c-.24,0-.53,0-.62.27a.54.54,0,0,0,0,.33,1.12,1.12,0,0,0,.72.64,4.35,4.35,0,0,0,.95.13,7,7,0,0,1,1.56.33c.05,0,.1,0,.12.08s0,.19-.07.26a3.91,3.91,0,0,1-1,.8,6.1,6.1,0,0,1-.57.29c-.18.08-.33.21-.51.28a16.63,16.63,0,0,0-2.93,1c-.31.17-.7.69-.15.85a2.62,2.62,0,0,0,1.38-.12c.55-.14,1.11-.26,1.67-.36.13,0,.27,0,.4-.06s.16-.09.23-.06c.36.13-.45.66-.54.74l-1.11.89a2.25,2.25,0,0,0-1,1.27c0,.18,0,.34.11.42a.7.7,0,0,0,.43,0,1.68,1.68,0,0,0,.7-.46,12.36,12.36,0,0,1,1.66-1.24,6.3,6.3,0,0,1,.87-.5c.39-.15.24.27.06.45A7.63,7.63,0,0,0,28,142.93a2.41,2.41,0,0,0-.34.75c-.06.31.24.4.46.33a1.56,1.56,0,0,0,.56-.43l1.21-1.26a3.3,3.3,0,0,1,.56-.56c.15-.08.33-.07.3.16a3.54,3.54,0,0,1-.35.86,2,2,0,0,0-.11.64c0,.1,0,.22.11.26a.25.25,0,0,0,.2-.06,2.77,2.77,0,0,0,.87-.93,8.86,8.86,0,0,1,.85-1.16,6.82,6.82,0,0,1,2.08-1.86.75.75,0,0,0,.49-.8,6.08,6.08,0,0,0-.14-1.6,2.05,2.05,0,0,0-.49-.92C34,136.08,33.8,136.17,33.48,136.09Z"/><path class="cls-40" d="M57.94,108.59h-.11C58.17,108.49,58.36,108.58,57.94,108.59Z"/><path class="cls-35" d="M38.36,139.07c2.85-.91,6.32-2.48,10.74-4.29a11.53,11.53,0,0,0,3.3-2.07,7.46,7.46,0,0,0,2-3.33,2.42,2.42,0,0,0,.05-1.92c-.29-.54-.86-1.56-1.41-1.49-7.51,1-11.11,3.41-15.56,6.47-1.08.74-2.15,1.49-3.22,2.26a2.12,2.12,0,0,0-.87,1,2,2,0,0,0,.14,1.3c.28.75.63,2.25,1.49,2.43A6.91,6.91,0,0,0,38.36,139.07Z"/><path class="cls-35" d="M52.94,130.45c1.3-3,2.52-7,4.23-12a13.58,13.58,0,0,0,.74-4.19,8.11,8.11,0,0,0-1.1-4A2.33,2.33,0,0,0,55.42,109a2.16,2.16,0,0,0-1.66.58c-2.86,2.16-4.44,5.76-5.09,9.17-.62,3.18-1.67,6.26-2.26,9.46a9,9,0,0,0-.25,1.87c.07,3,2,4.78,4,3.88A6.92,6.92,0,0,0,52.94,130.45Z"/><path class="cls-41" d="M49.19,121c.38-1.15,1.14-2.22,1.61-3.35a21,21,0,0,0,1-3.29,8.6,8.6,0,0,1,2-4.48,5.4,5.4,0,0,1,2.76-.81,16.41,16.41,0,0,1,3.21-.14c.8,0,1.59.19,2.38.19.51,0,1.08-.38,1.58-.26a14.16,14.16,0,0,1,4.83,2.22,29.41,29.41,0,0,1,4.75,3.85c.23.24.45.47.67.72a5,5,0,0,1,1,1.47,2.38,2.38,0,0,1,.18,1.12c0,.42-.31.66-.42,1a21.84,21.84,0,0,1-.8,2.36c-1.66,4.24-4.26,8.16-5,12.64a24.17,24.17,0,0,0-.19,5.31,24,24,0,0,1,.15,2.54,7.65,7.65,0,0,1,0,.83c-.06.31-.22.42-.51.65-1.53,1.19-3.52,1.32-5.23,2.2-7.47,3.83-11.57-1.49-12.15-1.93-.43-.32-.24-.22.12-3.32C52.62,127.85,47,127.62,49.19,121Z"/><path class="cls-33" d="M51,141.39c-4,7.3-2.18,20.62-3.12,28.26-.33,2.64-3,12.82,5.41,13.68a13.16,13.16,0,0,1,2,.2c2.19.54,4.42,3.86,9.69,3,1.69-.27,3.7-.47,5.09-1.56,1.71-1.33,3.41-3.41,3.07-5.7.63-7.43,1.24-6.6,1.33-15.31.14-14.4-2.45-17-5.59-22.82.29.53-.74,2.1-2.19,3-3.33,2-8.74,2.28-11.67,1.13A6.92,6.92,0,0,1,51,141.39Z"/><path class="cls-34" d="M67.08,111.26a1.49,1.49,0,0,1-.33,1,6.34,6.34,0,0,1-2.49,1.89,5.6,5.6,0,0,1-4.2,0,3.81,3.81,0,0,1-1.3-.87,4.38,4.38,0,0,1-.82-2.44c-.14-.79-.27-1.58-.4-2.37a10.46,10.46,0,0,1-.22-2.9c.17-1.17,1.21-1.58,2.21-1.94a36.49,36.49,0,0,1,5.29-1c3.07-.06,1.24,1.55,1.12,2.72a7.74,7.74,0,0,0,.63,4A4.89,4.89,0,0,1,67.08,111.26Z"/><path class="cls-37" d="M64.06,108.26l.54-.38a3.14,3.14,0,0,0,1-1.28,9.46,9.46,0,0,1,.74-1.36c.15-.28.37-.48.52-.74,1.89-3.2,2-7.49-.7-10.28a7.81,7.81,0,0,0-7.58-2,11.08,11.08,0,0,0-2,.85A5.39,5.39,0,0,0,55,94.12a5,5,0,0,0-.71,1,5.78,5.78,0,0,0-.55,1.31c-.44,1.76.45,3.52.3,5.3-.07.86-.41,1.65-.42,2.53a13.93,13.93,0,0,0,.82,3.87,8.62,8.62,0,0,0,.68,1.86,2.63,2.63,0,0,0,1,1,1.8,1.8,0,0,0,1.31.12,12.89,12.89,0,0,0,3.14-1,19.2,19.2,0,0,0,2.12-1.08C63.11,108.79,63.6,108.55,64.06,108.26Z"/><path class="cls-38" d="M70.38,98.24C70,92.71,67,92,67,92s-.9-1.8-5.45-1.83a8.55,8.55,0,0,0-6,2.61,7.41,7.41,0,0,0-2,4.1c-.06.41-.22,2.14.32,2.18s1-.52,1.39-.76c.14-.11,1.41-1.07,1.32-1.22a5.53,5.53,0,0,0,2,1.81,15.72,15.72,0,0,1,2.25,1.5,10,10,0,0,1,1.69,2.18,4.71,4.71,0,0,0,.75,1,1.61,1.61,0,0,0,1.14.48,1.08,1.08,0,0,0,.62-.26c.14-.13.18-.32.32-.44a1.16,1.16,0,0,1,1.23,0c.58.35-.71.63-.84,1.16,0,.11.17,2.44.17,2.44S70.73,103.72,70.38,98.24Z"/><path class="cls-37" d="M67,101.59c1.38-.09,1.72,1.61.78,2.93a6.09,6.09,0,0,1-1.12,1c-2.47,2.1-3.08-.17-2.3-.88C66.13,103,65.22,101.71,67,101.59Z"/><path class="cls-34" d="M66.26,104.72c.16-.15,1.73-1.07.66-1.7-.29-.18-.62.08-.67.39s0,.33,0,.49a.63.63,0,0,1-.1.27c-.14.23-.62.45-.52.78S66.17,104.8,66.26,104.72Z"/></g></g></g><path class="cls-35" d="M74.28,115.3a2.33,2.33,0,0,0-2.94-.65,4.93,4.93,0,0,0-2.13,2.57,13.68,13.68,0,0,0-.41,9.1c.76,2.68,1.53,5.37,2.48,8a4.43,4.43,0,0,0,.36.87,3.34,3.34,0,0,0,5.43.72,2.78,2.78,0,0,0,1-2,16.2,16.2,0,0,0-.32-2.6q-.37-2.75-.83-5.46c-.34-2-.7-4-1.14-6a18.8,18.8,0,0,0-1.21-4.15A2.91,2.91,0,0,0,74.28,115.3Z"/><path class="cls-39" d="M67,151.8a3.39,3.39,0,0,0-.9.91,5.59,5.59,0,0,0-.33.89c-.24.69-.68,1.31-1,2a1.15,1.15,0,0,0-.14.51.52.52,0,0,0,.21.46.71.71,0,0,0,.71-.08c.79-.5,1.11-1.47,1.64-2.23a1.59,1.59,0,0,1,.46,1.43,4.67,4.67,0,0,1-.53,1.46c-.26.55-.53,1.1-.8,1.64a.73.73,0,0,0-.11.47c.16.65.83,0,1.15.21s.14.57.34.79a.55.55,0,0,0,.72,0c.3-.23.41-.71.59-1a.73.73,0,0,0,0,.33.29.29,0,0,0,.23.22c.31.05.45-.28.67-.4s.54,0,.81-.15a1.88,1.88,0,0,0,.63-.71,12,12,0,0,0,.82-1.64,5.56,5.56,0,0,0,.31-1.72c0-1-.17-1.93-.23-2.9a4,4,0,0,1,.36-1.37c.17-.53.33-1.06.5-1.59a1.25,1.25,0,0,0,.08-.71c-.13-.41-.63-.55-1-.63l-1.77-.34a1.4,1.4,0,0,0-1,.08,1.57,1.57,0,0,0-.46,1A5.33,5.33,0,0,1,67,151.8Z"/><path class="cls-35" d="M71.77,151.83c1.17-.45,1.82-1.85,2.28-3,1.36-3.43,7.62-17,1.38-18.12-1-.17-2,1.09-2.65,1.95-.82,1.08-4.36,11.12-4.67,16.31a3.48,3.48,0,0,0,.3,2C69,151.86,70.86,152.19,71.77,151.83Z"/><g id="man"><path class="cls-1" d="M18.24,224.46a7.38,7.38,0,0,1,3.7-1.72,3.41,3.41,0,0,1,1.69.68c.5.32.47.66.43,1.19-.08,1.48-1.83,2.61-2.59,2.9s-1.33.21-2.14,1.06a2.39,2.39,0,0,1-.55.55c-1.82.92-4,.34-3.15-2.65.39-1.32.31-1.56,1.64-2.36C17.58,223.93,17.72,224.89,18.24,224.46Z"/></g><path class="cls-34" d="M24.09,203.44a1.46,1.46,0,0,0-1-.43c-1.62-.29-3.19-.93-4.78-1.32a10,10,0,0,0-2.16-.3L14.58,200c0,.22-.06.44-.08.66-.42,5.17,1.65,10.19,1.38,22.31,0,1.84.24,2.89,1,3.52,1.29,1.08,2.68-.14,2.93-1,.48-1.69,1-11,1.61-12.14a15.07,15.07,0,0,0,1.65-4c.17-1.27.27-.09.4-1.36s.54-2.23.75-3.38A1.34,1.34,0,0,0,24.09,203.44Z"/><path class="cls-42" d="M20.18,222.92a18.79,18.79,0,0,1-.38,2.51c-.25.89-1.64,2.11-2.93,1-.75-.63-1-1.68-1-3.52,0-.05,0-.11,0-.16A6,6,0,0,0,20.18,222.92Z"/><path class="cls-43" d="M15.4,213.84c-.47-.35-1.19-9.68-.9-13.21,0-.22.05-.44.08-.66l1.57,1.42a10,10,0,0,1,2.16.3c1.59.39,3.16,1,4.78,1.32a1.46,1.46,0,0,1,1,.43,1.34,1.34,0,0,1,.12,1.08c-.21,1.15-.63,2.22-.75,3.38s-.23.09-.4,1.36a15.07,15.07,0,0,1-1.65,4,2.16,2.16,0,0,0-.17.58C19.45,214.73,16.12,214.38,15.4,213.84Z"/><path class="cls-37" d="M27.36,223c0,1.73.39,6.37-1.17,7-.78.3-2.86-.31-3-1.16-.9-5.12-2.08-15.3-2-15.46.3-1,1.66-.45,2.33-.22C27.67,214.55,27.06,210.7,27.36,223Z"/><path class="cls-42" d="M27.21,224.29l.19-.13c.06,2.09.07,5.3-1.21,5.78-.78.3-2.86-.31-3-1.16-.18-1-.37-2.24-.56-3.53A5.91,5.91,0,0,0,27.21,224.29Z"/><path class="cls-37" d="M22.89,201.6c-.94.05-1.87.06-2.81.05a6.09,6.09,0,0,1-1.35,0c-.35-.09-.63-.36-1-.45s-1.09-.66-1.32-.47.13,1.44.23,1.88c.86,3.91,3.34,4.74,4.1,8.65a45.87,45.87,0,0,0,2,6.89c.35.85-.26.11,1.73.46a6.65,6.65,0,0,0,1.41.1c.36,0,.82-.19,1.14,0,.21-1.39.06-2.83.35-4.2a26.7,26.7,0,0,0,.29-4.48C28.06,198.66,28.52,201.27,22.89,201.6Z"/><path class="cls-44" d="M20,211.2c-.77-3.91-2.51-4.7-3.37-8.61-.1-.44-.58-1.59-.23-1.88s11.13-1.78,11.46-.15c.21,1,.32,9,.33,10.08,0,1.89.78,3.27-4.64,3.51C19.83,214.31,20.29,212.57,20,211.2Z"/><path class="cls-45" d="M29,184.94c0,.37,0,1.1-.39,1.34a3.3,3.3,0,0,1-1.29.16c-1.07.1-2.14.17-3.2.23-.49,0-1,.07-1.45.08a21.86,21.86,0,0,1-4.21-.27,4.41,4.41,0,0,1-1.85-.58,1.59,1.59,0,0,1-.39-1.49,2.85,2.85,0,0,1,1.59-2.4,5.57,5.57,0,0,1,2.89-.1,51.84,51.84,0,0,1,6.57,1.27,3.25,3.25,0,0,1,1.09.44A1.8,1.8,0,0,1,29,184.94Z"/><path class="cls-1" d="M28.27,181.85c-.34-.51-3.34-2.3-6-3.25s-5-2.72-7.68-1.22c-3.22,1.81-1.39,5.79-.88,11.82.91,10.84-1,12,3.59,12.57,4,.51,9.25,1.62,10.61-.62a3.88,3.88,0,0,0,.19-2.29C27.57,188.93,29.4,183.55,28.27,181.85Z"/><path class="cls-37" d="M23,176.44c.1-.66-5.2-3.11-5.2-2.13,0,2.87-.5,2.45-.58,3.51s.81,2.74,4.26,2.24C24.05,179.69,22.66,178.53,23,176.44Z"/><path class="cls-37" d="M25.9,167.58a3.16,3.16,0,0,1,.73,1.53c.2,1.3-.33,2.64,0,3.94s-.27,4.1-2.74,4.82a8.78,8.78,0,0,1-4.51-.44,6.39,6.39,0,0,1-2.4-2.54C11.78,166.7,22.4,163.32,25.9,167.58Z"/><path class="cls-1" d="M16.81,164.88c.94-2,8.14-2.74,10.1,2.05a11.38,11.38,0,0,1,.29,1.15c.22.8-.53,1.08-.7,1.2-.53.35-.62,1.17-.85,1.72-.14.35-.43.54-.51.91s-.1,1.93-.79,1.5-.45-1.53-.84-1.45c-1.89.37.5,5.75-4.78,4.59-1.22-.28-1.69-.53-2.78-2.08a5.77,5.77,0,0,1-1.36-3.25C13.78,165.35,16.4,165.76,16.81,164.88Z"/><path class="cls-37" d="M23.1,171.18c-1-.21-1.4,1-.86,2a4.59,4.59,0,0,0,.69.85c1.53,1.76,2.21.2,1.73-.39C23.54,172.28,24.32,171.44,23.1,171.18Z"/><path class="cls-34" d="M23.13,173.07c-.1-.12-1.12-.94-.29-1.28a.34.34,0,0,1,.43.35c0,.12-.05.23-.05.35,0,.37.46.54.33.81S23.18,173.14,23.13,173.07Z"/><path class="cls-1" d="M27.29,227.73c1.1.56,4.23-.85,5.45-.36a2.11,2.11,0,0,1,.81,2.52c-.46,1.15-2.38,1.59-3.48,1.51-2.94-.22-4.56,2.45-6.51.68-.89-.82-.5-2.16-.38-3.3C24,229.61,26.12,229.84,27.29,227.73Z"/><path class="cls-37" d="M29.2,186.8H25.29c.3,2.4.55,5.48,1.17,7.07.24.61.51,0,1,.58a1.3,1.3,0,0,0,1.57.28c1.35-.67,1.17-1.43,1.12-1.62A29.26,29.26,0,0,1,29.2,186.8Z"/><path class="cls-12" d="M29.66,184.59a19.73,19.73,0,0,1,.35,4.5,4.77,4.77,0,0,1-3.07.92,8.29,8.29,0,0,1-1.63-.22c-.2-1.44-.35-3-.63-4.39C23.77,180.75,29,179.4,29.66,184.59Z"/><path class="cls-37" d="M30.84,198.88c-.76-1-1.26-1.41-2.07-2.38-1.89-2.24-2.84-2.19-2.3-4.38a1.56,1.56,0,0,1,1.62-1.19c2,.45,1.05.81,3.8,4.68.31.44.9,1.42,1.44,2S31.2,199.35,30.84,198.88Z"/><path class="cls-37" d="M33.92,197.83c3.31,1.58,3.32,1.77,2.93,2.06s-1,0-1.28-.17c-1.57-.62-.08,1.27.44,1.83,1.36,1.44.57,1.58-.32.8-2.12-1.86.12.78-.25,1.51,0,.12-.11.11-.23.08-.5-.14-.45-.27-.74-.92-.73-1.61-.94-1.23-.83-.89.22.74.44,1.57-.23,1.25-.3-.14-.79-3-.91-1.16,0,.58-.46.42-.57,0a6.44,6.44,0,0,0-1.24-3.54,2.75,2.75,0,0,1-.32-.44c-.32-.61,1.53-1.48,1.87-1.09C32.8,197.79,33.22,197.5,33.92,197.83Z"/><g id="man-2" data-name="man"><path class="cls-1" d="M75.53,230.2a7.42,7.42,0,0,0-3.7-1.72,3.37,3.37,0,0,0-1.69.68c-.51.32-.47.66-.44,1.19.09,1.48,1.84,2.61,2.6,2.9s1.33.21,2.13,1.06a2.65,2.65,0,0,0,.56.55c1.81.92,4,.34,3.15-2.65-.39-1.32-.31-1.56-1.64-2.36C76.19,229.67,76.05,230.63,75.53,230.2Z"/></g><path class="cls-34" d="M69.68,209.18a1.46,1.46,0,0,1,1-.43c1.61-.29,3.19-.93,4.78-1.32a10,10,0,0,1,2.16-.3l1.57-1.42c0,.22.06.44.07.66.43,5.16-1.64,10.19-1.37,22.31,0,1.84-.24,2.89-1,3.52-1.29,1.08-2.68-.14-2.94-1-.48-1.69-1-11-1.6-12.14a15.2,15.2,0,0,1-1.65-4c-.18-1.27-.27-.09-.4-1.36s-.54-2.23-.75-3.38A1.34,1.34,0,0,1,69.68,209.18Z"/><path class="cls-42" d="M73.59,228.66a21.22,21.22,0,0,0,.37,2.51c.26.89,1.65,2.11,2.94,1,.75-.63,1-1.68,1-3.52a.86.86,0,0,1,0-.16A6,6,0,0,1,73.59,228.66Z"/><path class="cls-37" d="M66.41,228.71c0,1.73-.39,6.38,1.17,7,.78.29,2.85-.31,3-1.16.91-5.12,2.08-15.3,2-15.46-.3-1-1.66-.45-2.33-.22C66.1,220.29,66.71,216.44,66.41,228.71Z"/><path class="cls-42" d="M66.56,230l-.19-.13c-.07,2.09-.07,5.3,1.21,5.78.78.29,2.85-.31,3-1.16.19-1,.38-2.24.57-3.54A5.86,5.86,0,0,1,66.56,230Z"/><path class="cls-1" d="M66.48,233.47c-1.1.56-4.23-.86-5.46-.36a2.09,2.09,0,0,0-.8,2.51c.46,1.16,2.38,1.6,3.48,1.52,2.94-.22,4.56,2.45,6.51.68.89-.82.5-2.16.37-3.3C69.78,235.35,67.65,235.58,66.48,233.47Z"/><path class="cls-36" d="M80.75,207.62c-.14-1.34-.2-2.68-.28-4-.23-3.55-.46-7.1-.78-10.65-.14-1.45-.28-2.91-.5-4.35s-.64-2.8-2.21-2.73a28.23,28.23,0,0,0-5.39.83,12.67,12.67,0,0,0-3.74,1.39c-1.1.69-2.45,2-2.5,3.44,0,.46.17.95.17,1.42,0,.94-.15,1.86-.14,2.8a107.39,107.39,0,0,1-1,17.73c-.58,4-1.06,6.62,4.73,8.11,3.36.87,10.48.78,12-2.31C82.46,216.6,80.76,207.77,80.75,207.62Z"/><path class="cls-37" d="M70,184c-.06-.86,5.43-4.39,5.38-3.09-.16,3.79.48,4.67.51,6s-1.1,2.51-4.56,2C68.69,188.67,70.17,186.76,70,184Z"/><path class="cls-37" d="M67,175.19a3.25,3.25,0,0,0-.73,1.53c-.2,1.3.33,2.64,0,3.94s.26,4.1,2.73,4.82a8.77,8.77,0,0,0,4.51-.44A6.32,6.32,0,0,0,76,182.5C81.15,174.31,70.54,170.93,67,175.19Z"/><path class="cls-1" d="M76.12,172.49c-.94-2-8.14-2.74-10.09,2a7.75,7.75,0,0,0-.29,1.15.83.83,0,0,0,.21.86,1.87,1.87,0,0,1,.48.9,7.8,7.8,0,0,1,.22,2.68c0,.45-.07,1,.32,1.22a1.85,1.85,0,0,0,.88.05,1.87,1.87,0,0,1,1.33.63c.43.47.55,1.11,1,1.53a2.77,2.77,0,0,0,1.65.75,9.4,9.4,0,0,0,2-.15,4,4,0,0,0,1.18-.25A4.61,4.61,0,0,0,77,182.08a5.77,5.77,0,0,0,1.36-3.25C79.15,173,76.53,173.37,76.12,172.49Z"/><path class="cls-37" d="M68.53,179.61c1-.21,1.4,1,.87,2a5.13,5.13,0,0,1-.69.85c-1.54,1.76-2.22.2-1.73-.39C68.1,180.71,67.31,179.87,68.53,179.61Z"/><path class="cls-34" d="M68.34,181.73c.1-.12,1.12-.95.29-1.28-.23-.1-.44.12-.44.35s.06.23.06.35c0,.36-.46.53-.34.81S68.28,181.8,68.34,181.73Z"/><path class="cls-1" d="M79.87,192.14a6.6,6.6,0,0,0-.29-2.2,19.65,19.65,0,0,1-.83-3.21,12.76,12.76,0,0,1,.58-4.14,8.54,8.54,0,0,0,.24-4.16,3.44,3.44,0,0,0-2.48-2.53c-.79-.16-1.48-.25-2,.45a5.82,5.82,0,0,0-.61,4.42c.25.9.67,1.74.9,2.65a4.59,4.59,0,0,1,.14,1.61,9.9,9.9,0,0,0-.25,1.32,6,6,0,0,0,1.06,2.87,4.54,4.54,0,0,1,.46,3.11,16,16,0,0,0-.47,3.29A2.78,2.78,0,0,0,78,198.24a3.06,3.06,0,0,1,.35-3.07,11.18,11.18,0,0,0,1.28-2A3.68,3.68,0,0,0,79.87,192.14Z"/><path class="cls-37" d="M69.89,190.29a2.11,2.11,0,0,0-1-1.36,2.2,2.2,0,0,0-1.67-.05,3.57,3.57,0,0,0-1.16.79,4.89,4.89,0,0,0-1,1.66,35.67,35.67,0,0,0-1.48,5.43A55.62,55.62,0,0,1,58,202.25l-.17.09c-1.42.46-3.16,1.4-3.52,2.3-.49,1.22-.73,1.32-.61,1.7.3,1,.81.2,1,.28s.11.28.57.8.49,0,.69,0,.15.25.34.25.13-.07.2-.06.1.2.64.18,0-1.18.91-1.85c.22-.17.48-.29.72-.44a4.1,4.1,0,0,0,.79-.64l.34-.37c1.36-1.07,2.85-1.91,4.26-2.9.68-.48,1.35-1,2-1.46a5.2,5.2,0,0,0,1.63-1.53,21.73,21.73,0,0,0,1.57-4.18,18,18,0,0,0,.44-2.21A4.63,4.63,0,0,0,69.89,190.29Z"/><g class="cls-9"><path class="cls-1" d="M246.69,201l0,10.06c0-4.44,3-8.86,8.85-12.21,11.7-6.66,30.53-6.54,42.06.26,5.74,3.38,8.59,7.78,8.58,12.16l0-10.07c0-4.38-2.84-8.77-8.57-12.15-11.53-6.8-30.36-6.92-42.06-.26C249.66,192.14,246.71,196.56,246.69,201Z"/><g class="cls-46"><g class="cls-9"><path class="cls-33" d="M246.69,201l0,10.06c0-4.44,3-8.86,8.85-12.21,11.7-6.66,30.53-6.54,42.06.26,5.74,3.38,8.59,7.78,8.58,12.16l0-10.07c0-4.38-2.84-8.77-8.57-12.15-11.53-6.8-30.36-6.92-42.06-.26C249.66,192.14,246.71,196.56,246.69,201Z"/></g></g><path class="cls-1" d="M241.62,201l0,8.07c0,5.12,3.32,10.27,10,14.22,13.51,8,35.55,8.1,49.24.31,6.89-3.92,10.35-9.1,10.37-14.29l0-8.07c0,5.19-3.48,10.38-10.36,14.3-13.7,7.79-35.74,7.65-49.25-.32C244.94,211.25,241.6,206.11,241.62,201Z"/><g class="cls-47"><g class="cls-9"><path class="cls-1" d="M241.62,201l0,8.07c0,5.12,3.32,10.27,10,14.22,13.51,8,35.55,8.1,49.24.31,6.89-3.92,10.35-9.1,10.37-14.29l0-8.07c0,5.19-3.48,10.38-10.36,14.3-13.7,7.79-35.74,7.65-49.25-.32C244.94,211.25,241.6,206.11,241.62,201Z"/></g></g><path class="cls-48" d="M301.22,187c13.51,8,13.36,20.74-.33,28.53s-35.74,7.65-49.25-.32-13.35-20.72.34-28.52S287.73,179,301.22,187Zm-3.9,26.42c11.7-6.65,11.83-17.56.29-24.36s-30.36-6.92-42.06-.26-11.83,17.56-.29,24.36S285.63,220.07,297.32,213.41Z"/></g><path class="cls-49" d="M246.94,203.3c.83,3.58,3.6,7.06,8.32,9.84,11.53,6.81,30.36,6.93,42.06.28,4.85-2.77,7.72-6.25,8.58-9.87-.82-3.6-3.59-7.07-8.32-9.86-11.53-6.8-30.36-6.92-42.06-.26C250.67,196.19,247.81,199.68,246.94,203.3Z"/><g class="cls-9"><g class="cls-9"><path class="cls-7" d="M228.32,228.75,250,216.25a2,2,0,0,1,2,.2L230.33,229A2,2,0,0,0,228.32,228.75Z"/><g class="cls-50"><g class="cls-9"><path class="cls-7" d="M228.32,228.75,250,216.25a2,2,0,0,1,2,.2L230.33,229A2,2,0,0,0,228.32,228.75Z"/></g></g></g><g class="cls-9"><path class="cls-8" d="M254,223.14l-21.68,12.5a2,2,0,0,0,.82-1.81,6.19,6.19,0,0,0-2.79-4.88L252,216.45a6.2,6.2,0,0,1,2.8,4.88A2,2,0,0,1,254,223.14Z"/><g class="cls-51"><path class="cls-7" d="M233.12,233.83a5,5,0,0,0-.37-1.86l21.67-12.52a5.19,5.19,0,0,1,.39,1.88,2,2,0,0,1-.83,1.81l-21.68,12.5A2,2,0,0,0,233.12,233.83Z"/><path class="cls-5" d="M230.33,229,252,216.45a6.09,6.09,0,0,1,2.41,3L232.75,232A6.21,6.21,0,0,0,230.33,229Z"/></g></g><path class="cls-7" d="M230.33,229a6.19,6.19,0,0,1,2.79,4.88c0,1.79-1.28,2.51-2.83,1.61a6.2,6.2,0,0,1-2.8-4.89C227.51,228.77,228.77,228.05,230.33,229Z"/></g><g class="cls-9"><g class="cls-9"><path class="cls-1" d="M188.45,246.2l47.74-25.72a3.65,3.65,0,0,1,3.68.38l-47,25.81C191.15,245.66,189.58,245.55,188.45,246.2Z"/><g class="cls-52"><g class="cls-9"><path class="cls-1" d="M188.45,246.2l47.74-25.72a3.65,3.65,0,0,1,3.68.38l-47,25.81C191.15,245.66,189.58,245.55,188.45,246.2Z"/></g></g></g><g class="cls-9"><path class="cls-1" d="M243.45,233.15l-46.29,28.26c1.12-.64,1.82-2,1.84-4a13.66,13.66,0,0,0-6.13-10.76l47-25.81a11.39,11.39,0,0,1,5.11,9A3.65,3.65,0,0,1,243.45,233.15Z"/><g class="cls-53"><g class="cls-9"><path class="cls-48" d="M199,257.43a13.66,13.66,0,0,0-6.13-10.76l47-25.81a11.39,11.39,0,0,1,5.11,9Z"/><path class="cls-1" d="M245,229.83a3.65,3.65,0,0,1-1.53,3.32l-46.29,28.26c1.12-.64,1.82-2,1.84-4Z"/></g></g></g><path class="cls-33" d="M192.87,246.67A13.66,13.66,0,0,1,199,257.43c0,3.95-2.84,5.52-6.26,3.52a13.69,13.69,0,0,1-6.13-10.77C186.65,246.23,189.45,244.66,192.87,246.67Z"/></g><path class="cls-54" d="M216.79,90.67c-3.12-.24-15.86,1.43-14.93-3.9.14-.81,1.62-1.78,2.48-2,1.07-.35,8.53,1.51,12.82,2.36.56.11.58,0,.93.39C218.64,88.16,217.81,90.75,216.79,90.67Z"/><path class="cls-54" d="M203.18,89.46A9.21,9.21,0,0,1,201.51,88q-2.2-2.36-4.22-4.88c-.8-1-1.62-2-2.34-3.07a8.92,8.92,0,0,1-1.64-2.83c-.49-2,.93-5,3.14-5.23A3.77,3.77,0,0,1,199,73.15a14.54,14.54,0,0,1,4,4.94c1.3,2.47,2.93,4.75,4.21,7.24a7.69,7.69,0,0,1,.68,1.49c.68,2.47-3.31,3.18-3.89,2.7C203.61,89.19,203.62,89.73,203.18,89.46Z"/><path class="cls-55" d="M196.45,72A3.77,3.77,0,0,1,199,73.15a26.15,26.15,0,0,1,6.67,7.91,11.89,11.89,0,0,1-6.15,5.27c-1.21-1.39-5.74-7.26-6.17-9.07C192.82,75.23,194.24,72.28,196.45,72Z"/><polygon class="cls-56" points="212.15 100.71 212.41 102.49 200.61 102.8 200.83 101.42 212.15 100.71"/><polygon class="cls-57" points="239.04 100.21 212.41 102.49 212.07 100.12 234.61 97.32 238.98 98.26 239.04 100.21"/><polygon class="cls-57" points="248.93 86.5 249.81 87.54 239.04 100.21 238.91 96.13 248.93 86.5"/><polygon class="cls-58" points="238.98 98.26 248.93 86.5 224.4 87.73 214.63 97.84 238.98 98.26"/><polygon class="cls-58" points="238.98 98.26 223.68 99.93 202.18 101.38 214.63 97.84 238.98 98.26"/><polygon class="cls-59" points="238.98 98.26 214.63 97.84 204.39 98.28 210.93 100.15 238.98 98.26"/><path class="cls-54" d="M149.83,43.73c-1.17-1.38-2.22-2.84-3.29-4.29-.92-1.26-1.93-2.95.51-3,1.86,0,4.66-.26,5.92,1.42.45.61.64,1.37,1,2a25.11,25.11,0,0,0,1.27,2.34,16.68,16.68,0,0,1,2.34,6.45c0,.33-.58-.23-.8,0a1.3,1.3,0,0,1-.67.34,4.51,4.51,0,0,1-2,.06A3.49,3.49,0,0,1,152,47.82,44.14,44.14,0,0,0,149.83,43.73Z"/><path class="cls-60" d="M154.51,45.28a2.62,2.62,0,0,0,1.5-1.51,2.55,2.55,0,0,0-.53-2c-.43-.66-1.06-1.16-1.47-1.83s-.59-1.41-1-2c-1.26-1.68-4.06-1.44-5.92-1.42-2.44,0-1.43,1.72-.51,3,1.07,1.45,2.12,2.91,3.29,4.29A11.06,11.06,0,0,0,151,45.1,3.72,3.72,0,0,0,154.51,45.28Z"/><path class="cls-61" d="M154.33,44.47a3.67,3.67,0,0,1-1.23.18c-.65,0-1.3,0-1.94-.07a.6.6,0,0,1-.47-.17.67.67,0,0,1-.1-.28,1.75,1.75,0,0,1,.09-1.24,1.61,1.61,0,0,1,.8-.54c.94-.35,2.65-.85,3.53-.11S155.17,44.17,154.33,44.47Z"/><path class="cls-61" d="M151.82,38.65a1.57,1.57,0,0,1-1,.18l-1,0a8.82,8.82,0,0,1-1.86-.18,3,3,0,0,1-1.6-.93.44.44,0,0,1-.09-.18c0-.16.13-.28.28-.33a2.7,2.7,0,0,1,.94,0c.71,0,1.4-.22,2.11-.24C150.16,36.92,153.06,37.78,151.82,38.65Z"/><path class="cls-38" d="M157.34,65.61a6.27,6.27,0,0,1-1.29-2.12c-.33-1-.52-2.12-.82-3.16-.68-2.41-4.95-11.31-3.26-13.27,1.32-1.52,4.31-2.6,5.21-1.4,2.2,2.92,3.45,4.66,6.29,11,.78,1.72,1.67,3.38,2.48,5.09a12.2,12.2,0,0,1,1,2.23c.19.84-.88,1.78-1.51,2.23a8.44,8.44,0,0,1-2.46,1.12,7.17,7.17,0,0,1-1.64.3,4.84,4.84,0,0,1-3.06-1.12A7.91,7.91,0,0,1,157.34,65.61Z"/><path class="cls-38" d="M179.85,82.17c-.09.25-.25.56-.52.53a.58.58,0,0,1-.29-.15,6.8,6.8,0,0,1-1.32-1.46,7.57,7.57,0,0,0-.9-1.26,3.71,3.71,0,0,0-2.88-.91c-.6,0-1.19.07-1.78.11a1.43,1.43,0,0,1-1.34-.38c-.9-.76-1.93-1.35-2.88-2.05a30.17,30.17,0,0,1-3.55-3.24c-2.51-2.55-5-5.1-7.29-7.87a1.73,1.73,0,0,1-.38-.62,1.6,1.6,0,0,1,.06-.81,3.31,3.31,0,0,1,1-1.85c.78-.62,1.87-.55,2.85-.72a4.81,4.81,0,0,1,1.13-.16,9.71,9.71,0,0,0,1.41.18,7.67,7.67,0,0,1,1.58-.07.94.94,0,0,1,.47.27,27.79,27.79,0,0,0,7.14,4.1,32.3,32.3,0,0,1,5.06,2.62,8.73,8.73,0,0,1,2.88,3,5.16,5.16,0,0,1,.65,2.46,6.18,6.18,0,0,1-.17,1.22,4.87,4.87,0,0,0,0,1.21A17.45,17.45,0,0,1,179.85,82.17Z"/><path class="cls-60" d="M144.46,46.16a1,1,0,0,0,.18.94,6.8,6.8,0,0,0,1.49,1.63c.79.64,2.14,1.1,2.79,1.83a9.56,9.56,0,0,1,1.58,3.35l4.29.89a7.28,7.28,0,0,0,1-.92,4.57,4.57,0,0,0,1.16-4.1c-.43-1.57-2.18-1.79-3.5-2.29A5.84,5.84,0,0,1,151,45.62a6.59,6.59,0,0,0-2.59-1.8,2.66,2.66,0,0,0-2-.07,4.75,4.75,0,0,0-1.95,2.41Z"/><path class="cls-36" d="M145.46,71.71a6,6,0,0,1,0-2.49c.26-1,.67-2.07,1-3.1.7-2.41,1.8-12.22,4.27-13,1.93-.59,5,.08,5.16,1.57.31,3.64.46,5.78-.47,12.62-.26,1.87-.39,3.75-.6,5.63a12.23,12.23,0,0,1-.37,2.4c-.28.81-1.7,1-2.46,1.09a8.38,8.38,0,0,1-2.68-.36,6.13,6.13,0,0,1-1.55-.62,4.71,4.71,0,0,1-2-2.57A7.14,7.14,0,0,1,145.46,71.71Z"/><path class="cls-36" d="M174,85.15c-3.36-1.3-2-3.43-7.64-1.21-.78.31-.36.45-4.76-1-3.13-1-13.83-6.94-14.31-7.67a3.52,3.52,0,0,1,.16-2.85c.54-.83,1.61-1.1,2.48-1.57,1.8-1,1.59-.39,2.43-.77,1.55-.71,1.65-.59,2-.44,6.81,2.88,18.12.3,18.94,7.88C173.36,77.74,176,85.9,174,85.15Z"/><path class="cls-7" d="M170.46,87.32c-1.63-.54-3.26-1.14-4.92-1.64a2.58,2.58,0,0,1-2.43-3.07c0-2.68.35-4.52,2.21-6.41s3.43-4.08,5.17-6.06a13.12,13.12,0,0,1,2.82-2.6,4.6,4.6,0,0,1,3.68-.66c1.6.48,2.71,1.93,4.2,2.65a10,10,0,0,0,4.77,1c2.78-.17,5.73-.4,8.36.73,3.1,1.34,3.13,4,3.68,7.09a12.43,12.43,0,0,1,.23,2.92c-.24,3.77-3.23,7-6.75,8.35a16.72,16.72,0,0,1-11.06.28c-2.43-1-5.15-1.16-7.67-1.87C172,87.82,171.22,87.58,170.46,87.32Z"/><path class="cls-54" d="M195.65,84h0a3,3,0,0,0,1.55-.67,6.82,6.82,0,0,1,2.29-1.36,1.25,1.25,0,0,0,.65-.29,1.11,1.11,0,0,0,.22-.62,7.58,7.58,0,0,1,.39-2.46,4.12,4.12,0,0,0,.71-2.17c-.05-.62.16-1-.51-1.25a5.92,5.92,0,0,0-2.38-.38,26.74,26.74,0,0,1-3.34-.21,5.62,5.62,0,0,0-1.64.07,2,2,0,0,0-1.3.92,3.06,3.06,0,0,0-.21.73,9.41,9.41,0,0,0,.49,4.79C193.09,82.39,194,84.08,195.65,84Z"/><path class="cls-60" d="M207.67,67.61a14,14,0,0,1,1.06,9.92c-.49,2.16-1.57,4.36-3.54,5.29a5.49,5.49,0,0,1-3.79.24,9,9,0,0,1-3.35-1.89,11.61,11.61,0,0,1-3.57-4.88c-.23-.71-.28-1.49-.44-2.21a11.69,11.69,0,0,1-.36-3.53,11.11,11.11,0,0,1,.37-3.14,6.19,6.19,0,0,1,1.77-2.53,6.51,6.51,0,0,1,5-1.45,11.55,11.55,0,0,1,1.83.42,8.33,8.33,0,0,1,3.62,1.88l.05,0A8.92,8.92,0,0,1,207.67,67.61Z"/><path class="cls-33" d="M201.6,69.36a.62.62,0,0,1-.14.86,1.5,1.5,0,0,1-.93.24c-.24,0-.53-.06-.61-.28a1,1,0,0,1,.22,1.11,1.44,1.44,0,0,1-.9.75c-.19.06-.47,0-.51-.16.18-.06.32.15.38.32a1.59,1.59,0,0,1,.08,1.07.65.65,0,0,1-.87.39.86.86,0,0,1,.38.81,1.85,1.85,0,0,1-.27,1.31,1.69,1.69,0,0,1-.41.39c-.19.11-.43.09-.6.25s-.22.57-.27.89a1.38,1.38,0,0,1-.9,1,5.58,5.58,0,0,1-1,.12,1.55,1.55,0,0,1-1-.1,1,1,0,0,1-.56-1.09.59.59,0,0,1-.59,0,1.14,1.14,0,0,1-.41-.46,1.87,1.87,0,0,1-.19-.87.68.68,0,0,1-.68-.36,1.77,1.77,0,0,1-.19-.79c0-.33.09-.77-.11-1s-.5-.41-.61-.8a1.52,1.52,0,0,1,0-.6c0-.16.17-.35.17-.5s-.3-.55-.32-.85a10.56,10.56,0,0,1,.14-1.26,2.81,2.81,0,0,0-.22-.85c-.09-.25-.14-.26,0-.5s.19-.32.28-.48a3.23,3.23,0,0,0,.4-1,2.45,2.45,0,0,1,.38-1.3.92.92,0,0,1,1-.34,1.39,1.39,0,0,1,1.58-1.21,1.1,1.1,0,0,1,.45-1c.34-.23.78-.06,1.06-.32s.51-.65,1-.81a2.28,2.28,0,0,1,1.64.17,1.8,1.8,0,0,1,2.36-.11l.09.06a.31.31,0,0,0,.22-.07,1.47,1.47,0,0,1,1.24-.2c.36.11.59.52.93.59a1.44,1.44,0,0,0,.46-.08,1.37,1.37,0,0,1,.74.12,4.31,4.31,0,0,1,1.75,1.33,1.71,1.71,0,0,0,.18.2,1.18,1.18,0,0,0,.62.14,1.68,1.68,0,0,1,1.38,1.83,1.69,1.69,0,0,1,1.25,1.3,2.9,2.9,0,0,1-.14,1c-.06.38.07.72-.08,1.1a1.23,1.23,0,0,1-.77.77.92.92,0,0,1-1-.32,1.21,1.21,0,0,1-2.22,0,1.37,1.37,0,0,1-1.24.38,1,1,0,0,1-.82-.94.67.67,0,0,1-.52.66A1.07,1.07,0,0,1,201.6,69.36Z"/><path class="cls-60" d="M195.3,74.22c-1.3-.14-1.71,1.39-.86,2.63a5.93,5.93,0,0,0,1,1c2.26,2,2.94,0,2.23-.7C196,75.55,197,74.4,195.3,74.22Z"/><path class="cls-60" d="M202.36,104.3c-.81.68-1,.76-2,.52-3-.76-16.63-1.54-14.82-6.64.28-.78,1.89-1.48,2.79-1.61,1.11-.16,9.57,2.64,13.66,4.18.53.2.84.19,1.11.68A2.89,2.89,0,0,1,202.36,104.3Z"/><path class="cls-60" d="M185.45,99.67a8.82,8.82,0,0,1-.43-2.15q-.26-3.21-.27-6.44c0-1.28,0-2.58.08-3.86A8.91,8.91,0,0,1,185.3,84c.89-1.89,3.82-3.33,5.72-2.15a3.81,3.81,0,0,1,1.27,2.44,14.81,14.81,0,0,1,.09,6.39c-.52,2.74-.66,5.54-1.21,8.29a7.77,7.77,0,0,1-.39,1.58c-1,2.36-4.57.44-4.72-.31C186,99.73,185.63,100.15,185.45,99.67Z"/><path class="cls-55" d="M184.55,92.47c0-1.83.1-7.09.75-8.49.89-1.89,3.82-3.33,5.72-2.15a3.81,3.81,0,0,1,1.27,2.44,19.9,19.9,0,0,1,0,8.2C190.06,93.84,186.84,93.41,184.55,92.47Z"/><path class="cls-54" d="M196.16,77.18c-.17-.15-1.8-1.18-.63-1.77a.51.51,0,0,1,.7.44c0,.17,0,.34,0,.5a.67.67,0,0,0,.1.28c.14.24.63.49.52.82S196.25,77.27,196.16,77.18Z"/><path class="cls-60" d="M202.47,100.53c3.26-1.29,3.26-1.44,5-1.26a4.29,4.29,0,0,1,2.42,1.7c.38.78-.82.7-1.08.62s-.51-.36-.79-.48c-1.12-.5-2.23,1-2.77,1.47a2.11,2.11,0,0,1-3.52-1.33C201.76,100.81,202.1,100.68,202.47,100.53Z"/><path class="cls-60" d="M201.1,101.63c.15-.42,1.46-.69,1.83-.74,3.88-.54,1.36-.77,4.73.76a5,5,0,0,0,2.84.35c.38-.09.83-.27,1.14,0a.66.66,0,0,1,.08.83c.53-.17.5.77.08,1.17-.81.76.43,1-1.2,2,2.89,2.43-9.61.11-10.53-1.48C199.6,103.68,200.77,102.49,201.1,101.63Z"/><path class="cls-54" d="M216.83,87.07c2-1,5.76-2.1,7.27-1.44,1.73.76,2.1.65,2.33,1.13.59,1.25-.73,1-.92,1.25s.14.38.11,1.33c0,.77-.57.44-.75.67s.07.39-.15.56-.21.06-.29.13.08.29-.55.76-1.13-1.17-2.81-1c-.42,0-.83.15-1.25.23a7.06,7.06,0,0,1-1.52.09c-.43,0-1.29-.11-1.51-.1Z"/></g></g></svg>