<svg xmlns="http://www.w3.org/2000/svg" xmlns:xlink="http://www.w3.org/1999/xlink" viewBox="0 0 269.94 235.42"><defs><style>.cls-1{fill:none;}.cls-2{fill:#42e8e0;}.cls-3{fill:url(#Áåçûìÿííûé_ãðàäèåíò_24);}.cls-4{fill:url(#Áåçûìÿííûé_ãðàäèåíò_2);}.cls-21,.cls-5,.cls-9{fill:#24126a;}.cls-5{opacity:0.3;}.cls-6{fill:#fff;}.cls-7{fill:url(#Áåçûìÿííûé_ãðàäèåíò_2-2);}.cls-8{fill:url(#Áåçûìÿííûé_ãðàäèåíò_24-2);}.cls-10{opacity:0.51;}.cls-11{fill:#453c9e;}.cls-12{fill:url(#Áåçûìÿííûé_ãðàäèåíò_24-3);}.cls-13{fill:url(#Áåçûìÿííûé_ãðàäèåíò_2-3);}.cls-14{opacity:0.15;}.cls-15{clip-path:url(#clip-path);}.cls-16{fill:url(#Áåçûìÿííûé_ãðàäèåíò_24-4);}.cls-17{fill:url(#Áåçûìÿííûé_ãðàäèåíò_2-4);}.cls-18,.cls-21{opacity:0.5;}.cls-19{fill:url(#Áåçûìÿííûé_ãðàäèåíò_36);}.cls-20{fill:url(#Áåçûìÿííûé_ãðàäèåíò_37);}.cls-22{fill:url(#Áåçûìÿííûé_ãðàäèåíò_36-2);}.cls-23{opacity:0.8;}.cls-24{fill:url(#Áåçûìÿííûé_ãðàäèåíò_36-3);}.cls-25{fill:url(#Áåçûìÿííûé_ãðàäèåíò_37-2);}.cls-26{fill:url(#Áåçûìÿííûé_ãðàäèåíò_36-4);}</style><linearGradient id="Áåçûìÿííûé_ãðàäèåíò_24" x1="191.39" y1="171.73" x2="-3.46" y2="171.73" gradientUnits="userSpaceOnUse"><stop offset="0" stop-color="#5761d7"/><stop offset="0.18" stop-color="#5c66d9"/><stop offset="0.39" stop-color="#6a73df"/><stop offset="0.61" stop-color="#8289e8"/><stop offset="0.85" stop-color="#a3a7f5"/><stop offset="1" stop-color="#bcbeff"/></linearGradient><linearGradient id="Áåçûìÿííûé_ãðàäèåíò_2" x1="18.12" y1="167.2" x2="212.97" y2="167.2" gradientTransform="matrix(-1, 0, 0, 1, 147.69, 0)" gradientUnits="userSpaceOnUse"><stop offset="0" stop-color="#c0bff6"/><stop offset="0.29" stop-color="#c5c4f7"/><stop offset="0.64" stop-color="#d3d2f9"/><stop offset="1" stop-color="#e9e9fd"/></linearGradient><linearGradient id="Áåçûìÿííûé_ãðàäèåíò_2-2" x1="-65.79" y1="81.72" x2="72.1" y2="81.72" xlink:href="#Áåçûìÿííûé_ãðàäèåíò_2"/><linearGradient id="Áåçûìÿííûé_ãðàäèåíò_24-2" x1="-65.79" y1="117.09" x2="-42.11" y2="117.09" gradientTransform="matrix(-1, 0, 0, 1, 147.69, 0)" xlink:href="#Áåçûìÿííûé_ãðàäèåíò_24"/><linearGradient id="Áåçûìÿííûé_ãðàäèåíò_24-3" x1="-47.31" y1="155.67" x2="147.43" y2="155.67" gradientTransform="matrix(-1, 0, 0, 1, 147.69, 0)" xlink:href="#Áåçûìÿííûé_ãðàäèåíò_24"/><linearGradient id="Áåçûìÿííûé_ãðàäèåíò_2-3" x1="18.12" y1="150.34" x2="212.97" y2="150.34" xlink:href="#Áåçûìÿííûé_ãðàäèåíò_2"/><clipPath id="clip-path"><polygon class="cls-1" points="210.19 72.2 90.27 2.99 75.2 92.58 195.05 161.74 210.19 72.2"/></clipPath><linearGradient id="Áåçûìÿííûé_ãðàäèåíò_24-4" x1="-122.2" y1="112.81" x2="72.55" y2="112.81" gradientTransform="matrix(-1, 0, 0, 1, 147.69, 0)" xlink:href="#Áåçûìÿííûé_ãðàäèåíò_24"/><linearGradient id="Áåçûìÿííûé_ãðàäèåíò_2-4" x1="-56.77" y1="107.48" x2="138.08" y2="107.48" xlink:href="#Áåçûìÿííûé_ãðàäèåíò_2"/><linearGradient id="Áåçûìÿííûé_ãðàäèåíò_36" x1="143.47" y1="82.11" x2="186.37" y2="82.11" gradientUnits="userSpaceOnUse"><stop offset="0" stop-color="#bcbeff"/><stop offset="0.14" stop-color="#b4b7fc"/><stop offset="0.37" stop-color="#9ea2f3"/><stop offset="0.65" stop-color="#7a81e5"/><stop offset="0.87" stop-color="#5761d7"/></linearGradient><linearGradient id="Áåçûìÿííûé_ãðàäèåíò_37" x1="98.26" y1="61.61" x2="204.12" y2="61.61" gradientUnits="userSpaceOnUse"><stop offset="0" stop-color="#e9e9fd"/><stop offset="0.36" stop-color="#d3d2f9"/><stop offset="0.71" stop-color="#c5c4f7"/><stop offset="1" stop-color="#c0bff6"/></linearGradient><linearGradient id="Áåçûìÿííûé_ãðàäèåíò_36-2" x1="127.52" y1="42.24" x2="204.18" y2="55.41" xlink:href="#Áåçûìÿííûé_ãðàäèåíò_36"/><linearGradient id="Áåçûìÿííûé_ãðàäèåíò_36-3" x1="91.24" y1="110.19" x2="134.14" y2="110.19" xlink:href="#Áåçûìÿííûé_ãðàäèåíò_36"/><linearGradient id="Áåçûìÿííûé_ãðàäèåíò_37-2" x1="46.03" y1="89.7" x2="151.89" y2="89.7" xlink:href="#Áåçûìÿííûé_ãðàäèåíò_37"/><linearGradient id="Áåçûìÿííûé_ãðàäèåíò_36-4" x1="75.28" y1="70.32" x2="151.95" y2="83.49" xlink:href="#Áåçûìÿííûé_ãðàäèåíò_36"/></defs><g id="Layer_2" data-name="Layer 2"><g id="Ñëîé_1" data-name="Ñëîé 1"><path class="cls-2" d="M121.89,235.42a5.21,5.21,0,0,1-2.57-.64L1.17,166.57A2,2,0,0,1,0,165a1.49,1.49,0,0,1,.86-1.27L71.36,123a5.1,5.1,0,0,1,4.57.19l118.15,68.21a2,2,0,0,1,1.17,1.6,1.49,1.49,0,0,1-.86,1.27L123.89,235A4.16,4.16,0,0,1,121.89,235.42ZM73.36,122.93a3.74,3.74,0,0,0-1.8.41L1.06,164.05A1.1,1.1,0,0,0,.4,165a1.6,1.6,0,0,0,1,1.25l118.15,68.22a4.67,4.67,0,0,0,4.17.18l70.5-40.71a1.1,1.1,0,0,0,.66-.92,1.6,1.6,0,0,0-1-1.25L75.73,123.52A4.9,4.9,0,0,0,73.36,122.93Z"/><path class="cls-3" d="M195.05,181.2l-6.51-.94L75.83,115.19a4.87,4.87,0,0,0-4.37-.19L4.33,153.76.2,153.17v5.48h0a1.79,1.79,0,0,0,1.06,1.41l118.15,68.22a4.9,4.9,0,0,0,4.37.18l70.5-40.71a1.28,1.28,0,0,0,.75-1.11h0Z"/><path class="cls-4" d="M1.27,154.61l118.15,68.22a4.9,4.9,0,0,0,4.37.18l70.5-40.71c1.12-.65,1-1.77-.31-2.52L75.83,111.56a4.9,4.9,0,0,0-4.37-.18L1,152.09C-.16,152.74,0,153.87,1.27,154.61Z"/><path class="cls-5" d="M11.5,156l105.61,61a4.31,4.31,0,0,0,3.9.16l63-36.38c1-.58.87-1.59-.28-2.26l-105.61-61a4.31,4.31,0,0,0-3.9-.16l-63,36.38C10.22,154.27,10.35,155.28,11.5,156Z"/><path class="cls-6" d="M194.29,181.71l-70.5,40.7a4.84,4.84,0,0,1-4.37-.18L1.27,154a2,2,0,0,1-1-1.13c-.18.57.16,1.23,1,1.72l118.15,68.22a4.9,4.9,0,0,0,4.37.18l70.5-40.71a1.19,1.19,0,0,0,.7-1.39A1.39,1.39,0,0,1,194.29,181.71Z"/><path class="cls-7" d="M75.62,90.3,90.55,1.69l-1.2-.51,1.81-1h0a1.29,1.29,0,0,1,1.39.1L211.91,69.17a3.38,3.38,0,0,1,1.55,3L198.4,161.52a1.11,1.11,0,0,1-.63.9h0l-1.77,1-.3-1.65.1,0L77.17,93.33A3.38,3.38,0,0,1,75.62,90.3Z"/><path class="cls-8" d="M211.24,71.59l2-.87a2.78,2.78,0,0,1,.25,1.48L198.4,161.52a1.11,1.11,0,0,1-.63.9h0l-1.77,1-.3-1.65.1,0-6-3.47Z"/><path class="cls-9" d="M75.3,94.4l119.36,68.92c.92.53,1.71.22,1.87-.73l15.05-89.31a3.36,3.36,0,0,0-1.54-3L90.67,1.33C89.75.8,89,1.11,88.8,2.06l-15,89.31A3.32,3.32,0,0,0,75.3,94.4Z"/><g class="cls-10"><polygon class="cls-11" points="90.27 2.99 210.19 72.2 195.05 161.74 75.2 92.58 90.27 2.99"/></g><path class="cls-12" d="M.26,136.69l6.52,3.4L72.1,102.38a4.73,4.73,0,0,1,4.26.18L189,167.6c1.07-.61,6-3,6-3l-2.39,3.88h0a1.4,1.4,0,0,1-.66.74L123.15,209a4.73,4.73,0,0,1-4.26-.18L3.61,142.22a2,2,0,0,1-1-1h0Z"/><path class="cls-13" d="M1.27,137.76,119.42,206a4.84,4.84,0,0,0,4.37.18l70.5-40.7c1.12-.65,1-1.78-.31-2.52L75.83,94.71a4.87,4.87,0,0,0-4.37-.18L1,135.24C-.16,135.88,0,137,1.27,137.76Z"/><path class="cls-6" d="M1.27,137.23l118.15,68.21a4.87,4.87,0,0,0,4.37.19l70.5-40.71a1.39,1.39,0,0,0,.71-.83,1.2,1.2,0,0,1-.71,1.36l-70.5,40.7a4.84,4.84,0,0,1-4.37-.18L1.27,137.76c-.84-.48-1.18-1.13-1-1.7A2,2,0,0,0,1.27,137.23Z"/><g class="cls-14"><g class="cls-15"><path class="cls-16" d="M75.15,93.83l6.51,3.4L147,59.52a4.73,4.73,0,0,1,4.26.18l112.66,65c1.08-.6,6-3,6-3l-2.38,3.88h0a1.42,1.42,0,0,1-.67.74L198,166.1a4.73,4.73,0,0,1-4.26-.18L78.49,99.36a2.07,2.07,0,0,1-1-1h0Z"/><path class="cls-17" d="M76.16,94.9l118.15,68.21a4.85,4.85,0,0,0,4.36.19l70.51-40.71c1.12-.65,1-1.78-.31-2.52L150.72,51.85a4.9,4.9,0,0,0-4.37-.18L75.84,92.38C74.72,93,74.86,94.15,76.16,94.9Z"/><path class="cls-6" d="M268.87,120.07,150.72,51.85a5.15,5.15,0,0,0-2.92-.59,5.07,5.07,0,0,1,2,.59L268,120.07c1.29.74,1.43,1.87.31,2.52L197.8,163.3a3.52,3.52,0,0,1-1.45.41,4.11,4.11,0,0,0,2.32-.41l70.51-40.71C270.3,121.94,270.16,120.81,268.87,120.07Z"/><g class="cls-18"><path class="cls-9" d="M138,83.16,134.26,81a1.29,1.29,0,0,0-1.15,0l-4.21,2.46c-.33.19-.35.49-.05.67l3.79,2.19a1.27,1.27,0,0,0,1.15,0l4.2-2.46C138.33,83.63,138.35,83.33,138,83.16Z"/><path class="cls-9" d="M143.89,86.53l-3.79-2.18a1.24,1.24,0,0,0-1.14,0l-4.21,2.46c-.33.19-.36.49-.05.67l3.79,2.18a1.24,1.24,0,0,0,1.14,0l4.21-2.46C144.17,87,144.2,86.71,143.89,86.53Z"/><path class="cls-9" d="M149.74,89.91,146,87.72a1.27,1.27,0,0,0-1.15,0l-4.21,2.46c-.33.19-.35.49,0,.66l3.78,2.19a1.29,1.29,0,0,0,1.15,0l4.21-2.46C150,90.39,150,90.09,149.74,89.91Z"/><path class="cls-9" d="M145.29,94.4l-3.79-2.18a1.26,1.26,0,0,0-1.15,0l-3.53,2.06c-.33.2-.35.5,0,.67l3.79,2.19a1.3,1.3,0,0,0,1.15,0l3.53-2.07C145.57,94.88,145.59,94.58,145.29,94.4Z"/><path class="cls-9" d="M151.14,97.78l-3.79-2.18a1.23,1.23,0,0,0-1.15,0l-3.53,2.06c-.33.19-.36.49,0,.67l3.79,2.19a1.24,1.24,0,0,0,1.14,0l3.54-2.06C151.42,98.26,151.44,98,151.14,97.78Z"/><path class="cls-9" d="M157,101.16,153.2,99a1.29,1.29,0,0,0-1.15,0l-3.54,2.07c-.33.19-.35.49,0,.67l3.78,2.18a1.26,1.26,0,0,0,1.15,0l3.54-2.06C157.27,101.63,157.29,101.33,157,101.16Z"/><path class="cls-9" d="M162.83,104.54l-3.78-2.19a1.26,1.26,0,0,0-1.15,0l-3.54,2.06c-.33.2-.35.5,0,.67l3.78,2.19a1.29,1.29,0,0,0,1.15,0l3.54-2.07C163.12,105,163.14,104.71,162.83,104.54Z"/><path class="cls-9" d="M168.68,107.91l-3.79-2.18a1.21,1.21,0,0,0-1.14,0l-3.54,2.06c-.33.19-.35.49-.05.67l3.79,2.19a1.26,1.26,0,0,0,1.15,0l3.53-2.06C169,108.39,169,108.09,168.68,107.91Z"/><path class="cls-9" d="M174.53,111.29l-3.79-2.19a1.3,1.3,0,0,0-1.15,0l-3.53,2.07c-.33.19-.35.49-.05.67l3.79,2.18a1.26,1.26,0,0,0,1.15,0l3.53-2.06C174.81,111.76,174.83,111.46,174.53,111.29Z"/><path class="cls-9" d="M180.38,114.67l-3.79-2.19a1.26,1.26,0,0,0-1.15,0l-3.53,2.06c-.33.2-.35.5,0,.67l3.79,2.19a1.3,1.3,0,0,0,1.15,0l3.53-2.07C180.66,115.14,180.68,114.84,180.38,114.67Z"/><path class="cls-9" d="M186.23,118l-3.79-2.18a1.23,1.23,0,0,0-1.15,0L177.76,118c-.33.19-.35.49,0,.67l3.79,2.19a1.27,1.27,0,0,0,1.15,0l3.53-2.06C186.51,118.52,186.53,118.22,186.23,118Z"/><path class="cls-9" d="M192.08,121.42l-3.79-2.19a1.3,1.3,0,0,0-1.15,0l-3.53,2.07c-.33.19-.36.49-.05.67l3.79,2.18a1.26,1.26,0,0,0,1.15,0l3.53-2.06C192.36,121.89,192.38,121.59,192.08,121.42Z"/><path class="cls-9" d="M197.93,124.8l-3.79-2.19a1.26,1.26,0,0,0-1.15,0l-3.53,2.06c-.34.2-.36.5-.05.67l3.78,2.19a1.29,1.29,0,0,0,1.15,0l3.54-2.07C198.21,125.27,198.23,125,197.93,124.8Z"/><path class="cls-9" d="M142.85,99.23,139.06,97a1.26,1.26,0,0,0-1.15,0l-3.53,2.06c-.33.2-.35.5,0,.67l3.79,2.19a1.3,1.3,0,0,0,1.15,0l3.53-2.07C143.13,99.7,143.16,99.4,142.85,99.23Z"/><path class="cls-9" d="M136.92,95.8l-3.79-2.19a1.29,1.29,0,0,0-1.15,0l-3.53,2.07c-.34.19-.36.49,0,.67l3.78,2.18a1.26,1.26,0,0,0,1.15,0l3.54-2.06C137.2,96.27,137.22,96,136.92,95.8Z"/><path class="cls-9" d="M131,92.37l-8.16-4.71a1.23,1.23,0,0,0-1.15,0l-3.53,2.06c-.33.2-.35.49,0,.67l8.16,4.71a1.3,1.3,0,0,0,1.15,0L130.92,93C131.25,92.84,131.27,92.54,131,92.37Z"/><path class="cls-9" d="M124.07,94.61l-6.62-3.82a1.26,1.26,0,0,0-1.15,0l-3.53,2.06c-.33.2-.35.5,0,.67l6.62,3.82a1.26,1.26,0,0,0,1.15,0L124,95.28C124.35,95.08,124.38,94.79,124.07,94.61Z"/><path class="cls-9" d="M148.7,102.6l-3.79-2.18a1.23,1.23,0,0,0-1.15,0l-3.53,2.06c-.33.19-.35.49,0,.67l3.79,2.19a1.27,1.27,0,0,0,1.15,0l3.53-2.06C149,103.08,149,102.78,148.7,102.6Z"/><path class="cls-9" d="M154.55,106l-3.79-2.19a1.3,1.3,0,0,0-1.15,0l-3.53,2.07c-.33.19-.35.49-.05.67l3.79,2.18a1.26,1.26,0,0,0,1.15,0l3.53-2.06C154.83,106.45,154.85,106.15,154.55,106Z"/><path class="cls-9" d="M160.4,109.36l-3.79-2.19a1.26,1.26,0,0,0-1.15,0l-3.53,2.06c-.33.2-.36.5-.05.67l3.79,2.19a1.3,1.3,0,0,0,1.15,0l3.53-2.07C160.68,109.83,160.7,109.53,160.4,109.36Z"/><path class="cls-9" d="M166.25,112.73l-3.79-2.18a1.23,1.23,0,0,0-1.15,0l-3.53,2.06c-.33.19-.36.49-.05.67l3.78,2.19a1.26,1.26,0,0,0,1.15,0l3.54-2.06C166.53,113.21,166.55,112.91,166.25,112.73Z"/><path class="cls-9" d="M172.09,116.11l-3.78-2.19a1.29,1.29,0,0,0-1.15,0L163.62,116c-.33.19-.35.49,0,.67l3.78,2.18a1.26,1.26,0,0,0,1.15,0l3.54-2.06C172.38,116.58,172.4,116.28,172.09,116.11Z"/><path class="cls-9" d="M177.94,119.49l-3.78-2.19a1.26,1.26,0,0,0-1.15,0l-3.54,2.07c-.33.19-.35.49-.05.66l3.79,2.19a1.29,1.29,0,0,0,1.15,0l3.53-2.07C178.23,120,178.25,119.66,177.94,119.49Z"/><path class="cls-9" d="M183.79,122.86,180,120.68a1.23,1.23,0,0,0-1.15,0l-3.53,2.06c-.33.19-.35.49,0,.67l3.79,2.19a1.27,1.27,0,0,0,1.15,0l3.53-2.06C184.07,123.34,184.1,123,183.79,122.86Z"/><path class="cls-9" d="M189.64,126.24l-3.79-2.19a1.3,1.3,0,0,0-1.15,0l-3.53,2.07c-.33.19-.35.49,0,.67l3.79,2.18a1.26,1.26,0,0,0,1.15,0l3.53-2.06C189.92,126.71,189.94,126.41,189.64,126.24Z"/><path class="cls-9" d="M195.49,129.62l-3.79-2.19a1.26,1.26,0,0,0-1.15,0L187,129.53c-.33.19-.35.49-.05.66l3.79,2.19a1.3,1.3,0,0,0,1.15,0l3.53-2.07C195.77,130.09,195.79,129.79,195.49,129.62Z"/><path class="cls-9" d="M205.89,135.62l-8.27-4.77a1.26,1.26,0,0,0-1.15,0l-3.53,2.06c-.33.2-.35.5-.05.67l8.27,4.77a1.24,1.24,0,0,0,1.14,0l3.54-2.06C206.17,136.09,206.19,135.79,205.89,135.62Z"/><path class="cls-9" d="M195.16,141.88l-7-4a1.23,1.23,0,0,0-1.15,0L183.51,140c-.33.19-.35.49,0,.67l7,4a1.26,1.26,0,0,0,1.15,0l3.54-2.06C195.45,142.36,195.47,142.06,195.16,141.88Z"/><path class="cls-9" d="M147.89,108.36l-3.79-2.19a1.27,1.27,0,0,0-1.15,0l-3.53,2.06c-.33.19-.35.49,0,.67l3.79,2.18a1.23,1.23,0,0,0,1.15,0l3.53-2.06C148.17,108.83,148.19,108.54,147.89,108.36Z"/><path class="cls-9" d="M141.89,104.9l-3.78-2.19a1.29,1.29,0,0,0-1.15,0l-3.54,2.07c-.33.19-.35.49,0,.67l3.78,2.18a1.26,1.26,0,0,0,1.15,0l3.54-2.06C142.18,105.37,142.2,105.08,141.89,104.9Z"/><path class="cls-9" d="M135.9,101.44l-3.79-2.19a1.3,1.3,0,0,0-1.15,0l-3.53,2.07c-.33.19-.35.49-.05.67l3.79,2.18a1.26,1.26,0,0,0,1.15,0l3.53-2.06C136.18,101.91,136.2,101.61,135.9,101.44Z"/><path class="cls-9" d="M129.91,98l-3.79-2.19a1.29,1.29,0,0,0-1.15,0l-3.53,2.07c-.33.19-.36.49,0,.67l3.78,2.18a1.26,1.26,0,0,0,1.15,0l3.54-2.06C130.19,98.45,130.21,98.15,129.91,98Z"/><path class="cls-9" d="M153.74,111.74,150,109.55a1.26,1.26,0,0,0-1.15,0l-3.53,2.07c-.33.19-.36.49-.05.66L149,114.5a1.26,1.26,0,0,0,1.15,0l3.53-2.07C154,112.21,154,111.91,153.74,111.74Z"/><path class="cls-9" d="M159.59,115.11l-3.79-2.18a1.26,1.26,0,0,0-1.15,0L151.12,115c-.34.2-.36.5-.05.67l3.78,2.19a1.29,1.29,0,0,0,1.15,0l3.54-2.07C159.87,115.59,159.89,115.29,159.59,115.11Z"/><path class="cls-9" d="M165.43,118.49l-3.78-2.19a1.26,1.26,0,0,0-1.15,0L157,118.4c-.33.19-.35.49,0,.67l3.78,2.18a1.23,1.23,0,0,0,1.15,0l3.54-2.06C165.72,119,165.74,118.67,165.43,118.49Z"/><path class="cls-9" d="M171.28,121.87l-3.78-2.19a1.26,1.26,0,0,0-1.15,0l-3.54,2.07c-.33.19-.35.49-.05.66l3.79,2.19a1.26,1.26,0,0,0,1.15,0l3.53-2.07C171.56,122.34,171.59,122,171.28,121.87Z"/><path class="cls-9" d="M177.13,125.24l-3.79-2.18a1.26,1.26,0,0,0-1.15,0l-3.53,2.06c-.33.2-.35.5,0,.67L172.4,128a1.3,1.3,0,0,0,1.15,0l3.53-2.07C177.41,125.72,177.44,125.42,177.13,125.24Z"/><path class="cls-9" d="M183,128.62l-3.79-2.19a1.27,1.27,0,0,0-1.15,0l-3.53,2.06c-.33.19-.35.49,0,.67l3.79,2.18a1.23,1.23,0,0,0,1.15,0l3.53-2.06C183.26,129.09,183.28,128.8,183,128.62Z"/><path class="cls-9" d="M188.83,132,185,129.81a1.26,1.26,0,0,0-1.15,0l-3.53,2.07c-.33.19-.35.49-.05.66l3.79,2.19a1.26,1.26,0,0,0,1.15,0l3.53-2.07C189.11,132.47,189.13,132.17,188.83,132Z"/><path class="cls-9" d="M194.68,135.37l-3.79-2.18a1.26,1.26,0,0,0-1.15,0l-3.53,2.06c-.33.2-.36.5-.05.67l3.79,2.19a1.3,1.3,0,0,0,1.15,0l3.53-2.07C195,135.85,195,135.55,194.68,135.37Z"/><path class="cls-9" d="M200.53,138.75l-3.79-2.19a1.26,1.26,0,0,0-1.15,0l-3.53,2.06c-.34.19-.36.49-.05.67l3.78,2.18a1.23,1.23,0,0,0,1.15,0l3.54-2.06C200.81,139.22,200.83,138.93,200.53,138.75Z"/><path class="cls-9" d="M133.75,106.43,130,104.24a1.26,1.26,0,0,0-1.15,0l-3.54,2.07c-.33.19-.35.49,0,.66l3.78,2.19a1.26,1.26,0,0,0,1.15,0l3.54-2.07C134,106.9,134.06,106.6,133.75,106.43Z"/><path class="cls-9" d="M127.93,103.07l-3.78-2.19a1.29,1.29,0,0,0-1.15,0L119.46,103c-.33.19-.35.49,0,.66l3.78,2.19a1.26,1.26,0,0,0,1.15,0l3.54-2.07C128.22,103.54,128.24,103.24,127.93,103.07Z"/><path class="cls-9" d="M122.12,99.71l-3.79-2.19a1.29,1.29,0,0,0-1.15,0l-3.53,2.07c-.34.19-.36.49-.05.66l3.78,2.19a1.26,1.26,0,0,0,1.15,0l3.54-2.07C122.4,100.18,122.42,99.88,122.12,99.71Z"/><path class="cls-9" d="M116.3,96.35l-3.79-2.19a1.29,1.29,0,0,0-1.15,0l-3.53,2.07c-.33.19-.36.49,0,.66l3.79,2.19a1.24,1.24,0,0,0,1.14,0L116.25,97C116.58,96.82,116.6,96.52,116.3,96.35Z"/><path class="cls-9" d="M110.66,99.64l-3.79-2.19a1.3,1.3,0,0,0-1.15,0l-1.16.69c-.33.19-.36.49,0,.66L108.3,101a1.24,1.24,0,0,0,1.14,0l1.17-.68C110.94,100.11,111,99.81,110.66,99.64Z"/><path class="cls-9" d="M118.26,104l-3.79-2.18a1.26,1.26,0,0,0-1.15,0l-1.17.68c-.33.19-.35.49-.05.67l3.79,2.19a1.27,1.27,0,0,0,1.15,0l1.17-.68C118.54,104.5,118.56,104.2,118.26,104Z"/><path class="cls-9" d="M124.05,107.37l-3.79-2.19a1.27,1.27,0,0,0-1.15,0l-1.16.68c-.33.19-.36.49,0,.67l3.79,2.18a1.24,1.24,0,0,0,1.14,0L124,108C124.33,107.84,124.35,107.55,124.05,107.37Z"/><path class="cls-9" d="M129.85,110.72l-3.79-2.19a1.26,1.26,0,0,0-1.15,0l-1.17.68c-.33.2-.35.5,0,.67l3.79,2.19a1.3,1.3,0,0,0,1.15,0l1.17-.69C130.13,111.19,130.15,110.89,129.85,110.72Z"/><path class="cls-9" d="M135.64,114.06l-3.79-2.18a1.23,1.23,0,0,0-1.15,0l-1.16.68c-.33.19-.36.49,0,.67l3.79,2.18a1.26,1.26,0,0,0,1.15,0l1.16-.68C135.92,114.54,136,114.24,135.64,114.06Z"/><path class="cls-9" d="M168,132.74l-3.79-2.19a1.26,1.26,0,0,0-1.15,0l-1.17.68c-.33.19-.35.49,0,.67l3.79,2.18a1.26,1.26,0,0,0,1.15,0l1.17-.68C168.28,133.22,168.3,132.92,168,132.74Z"/><path class="cls-9" d="M173.79,136.09,170,133.9a1.3,1.3,0,0,0-1.15,0l-1.16.68c-.33.2-.36.5-.05.67l3.79,2.19a1.27,1.27,0,0,0,1.14,0l1.17-.69C174.07,136.56,174.09,136.26,173.79,136.09Z"/><path class="cls-9" d="M179.59,139.43l-3.79-2.18a1.26,1.26,0,0,0-1.15,0l-1.17.68c-.33.19-.35.49,0,.67l3.79,2.19a1.27,1.27,0,0,0,1.15,0l1.17-.68C179.87,139.91,179.89,139.61,179.59,139.43Z"/><path class="cls-9" d="M185.38,142.78l-3.79-2.19a1.3,1.3,0,0,0-1.15,0l-1.16.69c-.33.19-.36.49-.05.66l3.79,2.19a1.24,1.24,0,0,0,1.14,0l1.17-.68C185.66,143.25,185.69,143,185.38,142.78Z"/><path class="cls-9" d="M139.6,109.8l-3.78-2.18a1.26,1.26,0,0,0-1.15,0l-3.54,2.06c-.33.2-.35.5,0,.67l3.79,2.19a1.29,1.29,0,0,0,1.15,0l3.53-2.07C139.89,110.28,139.91,110,139.6,109.8Z"/><path class="cls-9" d="M145.45,113.18,141.66,111a1.27,1.27,0,0,0-1.15,0L137,113.09c-.33.19-.35.49,0,.67l3.79,2.18a1.23,1.23,0,0,0,1.15,0l3.53-2.06C145.73,113.65,145.76,113.36,145.45,113.18Z"/><path class="cls-9" d="M151.3,116.56l-3.79-2.19a1.3,1.3,0,0,0-1.15,0l-3.53,2.07c-.33.19-.35.49-.05.66l3.79,2.19a1.26,1.26,0,0,0,1.15,0l3.53-2.07C151.58,117,151.6,116.73,151.3,116.56Z"/><path class="cls-9" d="M157.15,119.93l-3.79-2.18a1.26,1.26,0,0,0-1.15,0l-3.53,2.06c-.33.2-.35.5-.05.67l3.79,2.19a1.3,1.3,0,0,0,1.15,0l3.53-2.07C157.43,120.41,157.45,120.11,157.15,119.93Z"/><path class="cls-9" d="M163,123.31l-3.79-2.19a1.27,1.27,0,0,0-1.15,0l-3.53,2.06c-.33.19-.35.49-.05.67l3.79,2.18a1.23,1.23,0,0,0,1.15,0L163,124C163.28,123.79,163.3,123.49,163,123.31Z"/><path class="cls-9" d="M168.85,126.69l-3.79-2.19a1.29,1.29,0,0,0-1.15,0l-3.53,2.07c-.33.19-.36.49,0,.66l3.79,2.19a1.24,1.24,0,0,0,1.14,0l3.54-2.07C169.13,127.16,169.15,126.86,168.85,126.69Z"/><path class="cls-9" d="M174.69,130.06l-3.78-2.18a1.26,1.26,0,0,0-1.15,0L166.22,130c-.33.2-.35.5,0,.67l3.78,2.19a1.29,1.29,0,0,0,1.15,0l3.54-2.07C175,130.54,175,130.24,174.69,130.06Z"/><path class="cls-9" d="M180.54,133.44l-3.78-2.19a1.26,1.26,0,0,0-1.15,0l-3.54,2.06c-.33.19-.35.49,0,.67l3.78,2.18a1.23,1.23,0,0,0,1.15,0l3.54-2.06C180.83,133.92,180.85,133.62,180.54,133.44Z"/><path class="cls-9" d="M186.39,136.82l-3.79-2.19a1.27,1.27,0,0,0-1.14,0l-3.54,2.07c-.33.19-.35.49,0,.66l3.79,2.19a1.26,1.26,0,0,0,1.15,0l3.53-2.07C186.67,137.29,186.7,137,186.39,136.82Z"/><path class="cls-9" d="M139.33,91l-11.16-6.44a1.27,1.27,0,0,0-1.15,0l-3.53,2.06c-.33.19-.35.49,0,.67l11.16,6.44a1.3,1.3,0,0,0,1.15,0l3.53-2.07C139.61,91.44,139.63,91.14,139.33,91Z"/><path class="cls-9" d="M211.18,132.45,200,126a1.26,1.26,0,0,0-1.15,0l-3.54,2.06c-.33.2-.35.5-.05.67l11.16,6.44a1.26,1.26,0,0,0,1.15,0l3.53-2.06C211.46,132.92,211.48,132.62,211.18,132.45Z"/><path class="cls-9" d="M200.33,119.12l-3.79-2.19a1.3,1.3,0,0,0-1.15,0l-4.2,2.46c-.33.2-.36.5-.05.67l3.78,2.19a1.29,1.29,0,0,0,1.15,0l4.21-2.46C200.61,119.59,200.64,119.3,200.33,119.12Z"/><path class="cls-9" d="M157.86,94.6l-6.06-3.5a1.3,1.3,0,0,0-1.15,0l-4.21,2.46c-.33.2-.35.49,0,.67l6,3.5a1.26,1.26,0,0,0,1.15,0l4.21-2.45C158.14,95.07,158.16,94.77,157.86,94.6Z"/><path class="cls-9" d="M194.7,115.87l-6.06-3.5a1.26,1.26,0,0,0-1.15,0l-4.21,2.46c-.33.19-.35.49-.05.67l6.06,3.49a1.23,1.23,0,0,0,1.15,0l4.21-2.46C195,116.34,195,116,194.7,115.87Z"/><path class="cls-9" d="M166.3,99.47,160.24,96a1.3,1.3,0,0,0-1.15,0l-4.21,2.46c-.33.2-.35.5,0,.67l6.06,3.5a1.3,1.3,0,0,0,1.15,0l4.21-2.46C166.58,99.94,166.6,99.65,166.3,99.47Z"/><path class="cls-9" d="M154.87,99.16l26.34,15.2a1.26,1.26,0,0,0,1.15,0l4.29-2.5c.31-.18.29-.48,0-.67L160.28,96Z"/><path class="cls-9" d="M211.1,128.48l4.22,2.43a1,1,0,0,0,.94,0l1.73-1c.27-.16.28-.4,0-.55l-4.21-2.43a1.06,1.06,0,0,0-.95,0l-1.72,1C210.87,128.09,210.85,128.33,211.1,128.48Z"/><path class="cls-9" d="M205.21,125.07l4.21,2.44a1.06,1.06,0,0,0,1,0l1.72-1c.27-.16.29-.41,0-.55l-4.22-2.44a1,1,0,0,0-.94,0l-1.72,1C205,124.69,205,124.93,205.21,125.07Z"/><path class="cls-9" d="M199.36,121.7l4.22,2.43a1,1,0,0,0,.94,0l1.72-1c.27-.16.29-.4,0-.55l-4.22-2.43a1,1,0,0,0-.94,0l-1.72,1C199.13,121.31,199.11,121.55,199.36,121.7Z"/><path class="cls-9" d="M202.16,126.85l4.22,2.44a1.06,1.06,0,0,0,1,0l1.72-1c.27-.15.29-.4,0-.54l-4.22-2.44a1,1,0,0,0-.94,0l-1.73,1C201.93,126.46,201.92,126.71,202.16,126.85Z"/></g><path class="cls-19" d="M138.1,53.29V90.21h0a2.57,2.57,0,0,0,1.49,2.14l30.68,17.71c2.21,1.28,6.07,1.12,8.62-.35h0c1.43-.83,2.14-1.89,2.11-2.89h0V69.88Z"/><path class="cls-5" d="M172.57,110.8a10.15,10.15,0,0,0,6.32-1.09c1.43-.83,2.14-1.89,2.11-2.89h0V69.88l-8.28-3.2h-.15Z"/><path class="cls-20" d="M170.27,73.14,139.59,55.42c-2.21-1.27-1.93-3.5.62-5h0c2.55-1.48,6.4-1.64,8.61-.36L179.51,67.8c2.21,1.28,1.93,3.51-.62,5h0C176.34,74.25,172.48,74.41,170.27,73.14Z"/><path class="cls-21" d="M170.27,124.61l-30.68-17.72c-2.21-1.27-1.93-3.5.62-5h0c2.55-1.47,6.4-1.63,8.61-.36l30.69,17.72c2.21,1.27,1.93,3.5-.62,5h0C176.34,125.72,172.48,125.88,170.27,124.61Z"/><path class="cls-22" d="M173.33,70.76a2.65,2.65,0,0,1-2.65-2.65V51.7c0-5.59-4.09-12.68-8.94-15.48l-7-4.07c-1.86-1.07-3.54-1.33-4.61-.72s-1.68,2.21-1.68,4.35V52.19a2.65,2.65,0,0,1-5.3,0V35.78c0-4.15,1.54-7.33,4.33-8.94s6.32-1.36,9.91.72l7,4.06C170.89,35.38,176,44.2,176,51.7V68.11A2.66,2.66,0,0,1,173.33,70.76Z"/></g></g><g class="cls-23"><path class="cls-9" d="M55.62,130.21,51.87,128c-.3-.17-.27-.48.08-.68l4.43-2.55a1.28,1.28,0,0,1,1.17,0l3.75,2.16c.31.18.27.48-.08.68l-4.43,2.56A1.31,1.31,0,0,1,55.62,130.21Z"/><path class="cls-9" d="M61.41,133.55l-3.75-2.17c-.3-.17-.26-.47.08-.67l4.43-2.56a1.33,1.33,0,0,1,1.18-.05l3.75,2.17c.3.17.26.47-.09.68l-4.43,2.55A1.31,1.31,0,0,1,61.41,133.55Z"/><path class="cls-9" d="M67.2,136.89l-3.75-2.16c-.3-.18-.26-.48.09-.68L68,131.49a1.3,1.3,0,0,1,1.18,0l3.75,2.16c.3.17.26.48-.09.68l-4.42,2.56A1.3,1.3,0,0,1,67.2,136.89Z"/><path class="cls-9" d="M75.21,134.13,71.46,132c-.3-.18-.26-.48.09-.68l3.71-2.15a1.33,1.33,0,0,1,1.18,0l3.75,2.17c.3.17.26.48-.09.68l-3.71,2.14A1.3,1.3,0,0,1,75.21,134.13Z"/><path class="cls-9" d="M81,137.48l-3.76-2.17c-.3-.17-.26-.48.09-.68l3.72-2.14a1.28,1.28,0,0,1,1.17-.05L86,134.6c.3.18.26.48-.08.68l-3.72,2.15A1.31,1.31,0,0,1,81,137.48Z"/><path class="cls-9" d="M86.8,140.82l-3.75-2.16c-.3-.18-.27-.48.08-.68l3.72-2.15a1.31,1.31,0,0,1,1.17-.05L91.77,138c.3.17.27.48-.08.68L88,140.77A1.31,1.31,0,0,1,86.8,140.82Z"/><path class="cls-9" d="M92.59,144.16,88.84,142c-.3-.17-.26-.48.08-.68l3.72-2.14a1.25,1.25,0,0,1,1.17-.05l3.76,2.16c.3.18.26.48-.09.68l-3.72,2.15A1.28,1.28,0,0,1,92.59,144.16Z"/><path class="cls-9" d="M98.38,147.51l-3.75-2.17c-.3-.17-.26-.47.09-.67l3.71-2.15a1.33,1.33,0,0,1,1.18-.05l3.75,2.17c.3.17.26.47-.09.67l-3.71,2.15A1.33,1.33,0,0,1,98.38,147.51Z"/><path class="cls-9" d="M104.17,150.85l-3.75-2.16c-.3-.18-.26-.48.09-.68l3.71-2.15a1.33,1.33,0,0,1,1.18-.05l3.75,2.17c.3.17.26.48-.08.68l-3.72,2.14A1.27,1.27,0,0,1,104.17,150.85Z"/><path class="cls-9" d="M110,154.2,106.22,152c-.31-.17-.27-.48.08-.68l3.72-2.14a1.31,1.31,0,0,1,1.17-.05l3.75,2.16c.3.18.27.48-.08.68l-3.72,2.15A1.31,1.31,0,0,1,110,154.2Z"/><path class="cls-9" d="M115.76,157.54,112,155.38c-.3-.18-.27-.48.08-.68l3.72-2.15a1.31,1.31,0,0,1,1.17-.05l3.75,2.17c.31.17.27.48-.08.68l-3.72,2.14A1.28,1.28,0,0,1,115.76,157.54Z"/><path class="cls-9" d="M121.55,160.89l-3.75-2.17c-.3-.17-.26-.48.08-.68l3.72-2.14a1.3,1.3,0,0,1,1.18-.05l3.75,2.16c.3.18.26.48-.09.68l-3.71,2.15A1.33,1.33,0,0,1,121.55,160.89Z"/><path class="cls-9" d="M127.34,164.23l-3.75-2.17c-.3-.17-.26-.47.09-.67l3.71-2.15a1.33,1.33,0,0,1,1.18-.05l3.75,2.17c.3.17.26.47-.09.68l-3.71,2.14A1.33,1.33,0,0,1,127.34,164.23Z"/><path class="cls-9" d="M83.75,132.55,80,130.38c-.3-.17-.27-.47.08-.67l3.72-2.15a1.31,1.31,0,0,1,1.17,0l3.75,2.17c.3.17.27.47-.08.67l-3.72,2.15A1.31,1.31,0,0,1,83.75,132.55Z"/><path class="cls-9" d="M77.87,129.16,74.12,127c-.3-.17-.27-.48.08-.68l3.72-2.14a1.25,1.25,0,0,1,1.17,0l3.75,2.16c.31.18.27.48-.08.68L79,129.11A1.31,1.31,0,0,1,77.87,129.16Z"/><path class="cls-9" d="M72,125.76l-8.08-4.67c-.3-.17-.26-.48.09-.68l3.71-2.14a1.3,1.3,0,0,1,1.18,0L77,122.88c.3.18.26.48-.09.68l-3.71,2.15A1.33,1.33,0,0,1,72,125.76Z"/><path class="cls-9" d="M76.1,121.62l-6.56-3.78c-.3-.18-.26-.48.09-.68L73.34,115a1.33,1.33,0,0,1,1.18-.05l6.55,3.79c.3.17.27.48-.08.68l-3.72,2.14A1.31,1.31,0,0,1,76.1,121.62Z"/><path class="cls-9" d="M89.54,135.89l-3.75-2.16c-.3-.18-.26-.48.08-.68l3.72-2.15a1.28,1.28,0,0,1,1.17,0L94.52,133c.3.17.26.48-.09.68l-3.72,2.14A1.25,1.25,0,0,1,89.54,135.89Z"/><path class="cls-9" d="M95.33,139.24l-3.75-2.17c-.3-.17-.26-.48.09-.68l3.71-2.14a1.33,1.33,0,0,1,1.18-.05l3.75,2.16c.3.18.26.48-.09.68l-3.71,2.15A1.33,1.33,0,0,1,95.33,139.24Z"/><path class="cls-9" d="M101.12,142.58l-3.75-2.16c-.3-.18-.26-.48.09-.68l3.71-2.15a1.33,1.33,0,0,1,1.18-.05l3.75,2.17c.3.17.26.48-.08.68l-3.72,2.14A1.3,1.3,0,0,1,101.12,142.58Z"/><path class="cls-9" d="M106.92,145.93l-3.75-2.17c-.31-.17-.27-.48.08-.68l3.72-2.14a1.28,1.28,0,0,1,1.17-.05l3.75,2.16c.3.18.27.48-.08.68l-3.72,2.15A1.31,1.31,0,0,1,106.92,145.93Z"/><path class="cls-9" d="M112.71,149.27,109,147.1c-.3-.17-.27-.47.08-.67l3.72-2.15a1.31,1.31,0,0,1,1.17-.05l3.75,2.17c.31.17.27.47-.08.68l-3.72,2.14A1.31,1.31,0,0,1,112.71,149.27Z"/><path class="cls-9" d="M118.5,152.61l-3.75-2.16c-.3-.18-.26-.48.08-.68l3.72-2.15a1.3,1.3,0,0,1,1.18,0l3.75,2.16c.3.18.26.48-.09.68l-3.71,2.15A1.3,1.3,0,0,1,118.5,152.61Z"/><path class="cls-9" d="M124.29,156l-3.75-2.17c-.3-.17-.26-.47.09-.68l3.71-2.14a1.33,1.33,0,0,1,1.18-.05l3.75,2.17c.3.17.26.47-.09.67l-3.71,2.15A1.33,1.33,0,0,1,124.29,156Z"/><path class="cls-9" d="M130.09,159.3l-3.76-2.16c-.3-.18-.26-.48.09-.68l3.72-2.15a1.31,1.31,0,0,1,1.17-.05l3.75,2.17c.3.17.26.48-.08.68l-3.72,2.14A1.28,1.28,0,0,1,130.09,159.3Z"/><path class="cls-9" d="M135.88,162.65l-3.75-2.17c-.3-.17-.27-.48.08-.68l3.72-2.14a1.28,1.28,0,0,1,1.17,0l3.75,2.16c.3.18.27.48-.08.68l-3.72,2.15A1.31,1.31,0,0,1,135.88,162.65Z"/><path class="cls-9" d="M146.18,168.59,138,163.87c-.3-.18-.26-.48.09-.68l3.71-2.15a1.33,1.33,0,0,1,1.18,0l8.18,4.73c.3.17.26.48-.08.68l-3.72,2.14A1.28,1.28,0,0,1,146.18,168.59Z"/><path class="cls-9" d="M157.45,162.08l-6.91-4c-.3-.17-.26-.47.09-.68l3.72-2.14a1.31,1.31,0,0,1,1.17-.05l6.91,4c.3.17.26.48-.09.68L158.63,162A1.33,1.33,0,0,1,157.45,162.08Z"/><path class="cls-9" d="M99.68,135.24l-3.75-2.17c-.3-.17-.26-.47.09-.67l3.71-2.15a1.33,1.33,0,0,1,1.18-.05l3.75,2.17c.3.17.26.47-.09.67l-3.71,2.15A1.33,1.33,0,0,1,99.68,135.24Z"/><path class="cls-9" d="M93.75,131.81,90,129.65c-.3-.18-.27-.48.08-.68l3.72-2.15a1.31,1.31,0,0,1,1.17,0l3.75,2.17c.3.17.27.48-.08.68l-3.72,2.14A1.28,1.28,0,0,1,93.75,131.81Z"/><path class="cls-9" d="M87.81,128.38l-3.75-2.16c-.3-.18-.26-.48.08-.68l3.72-2.15a1.3,1.3,0,0,1,1.18,0l3.75,2.16c.3.18.26.48-.09.68L89,128.34A1.3,1.3,0,0,1,87.81,128.38Z"/><path class="cls-9" d="M81.87,125l-3.75-2.17c-.3-.17-.26-.48.09-.68L81.92,120a1.3,1.3,0,0,1,1.18,0l3.75,2.16c.3.18.26.48-.08.68l-3.72,2.15A1.33,1.33,0,0,1,81.87,125Z"/><path class="cls-9" d="M105.48,138.58l-3.76-2.16c-.3-.18-.26-.48.09-.68l3.72-2.15a1.31,1.31,0,0,1,1.17-.05l3.75,2.17c.3.17.26.48-.08.68l-3.72,2.14A1.25,1.25,0,0,1,105.48,138.58Z"/><path class="cls-9" d="M111.27,141.93l-3.75-2.17c-.3-.17-.27-.48.08-.68l3.72-2.14a1.31,1.31,0,0,1,1.17-.05l3.75,2.16c.3.18.27.48-.08.68l-3.72,2.15A1.31,1.31,0,0,1,111.27,141.93Z"/><path class="cls-9" d="M117.06,145.27l-3.75-2.16c-.3-.18-.26-.48.08-.68l3.72-2.15a1.33,1.33,0,0,1,1.18-.05L122,142.4c.3.17.26.48-.09.68l-3.71,2.14A1.3,1.3,0,0,1,117.06,145.27Z"/><path class="cls-9" d="M122.85,148.62l-3.75-2.17c-.3-.17-.26-.48.09-.68l3.71-2.14a1.3,1.3,0,0,1,1.18,0l3.75,2.16c.3.18.26.48-.09.68L124,148.57A1.33,1.33,0,0,1,122.85,148.62Z"/><path class="cls-9" d="M128.64,152l-3.75-2.17c-.3-.17-.26-.47.09-.67l3.71-2.15a1.33,1.33,0,0,1,1.18-.05l3.75,2.17c.3.17.26.47-.08.68l-3.72,2.14A1.33,1.33,0,0,1,128.64,152Z"/><path class="cls-9" d="M134.44,155.3l-3.75-2.16c-.31-.18-.27-.48.08-.68l3.72-2.15a1.28,1.28,0,0,1,1.17,0l3.75,2.16c.3.17.27.48-.08.68l-3.72,2.15A1.28,1.28,0,0,1,134.44,155.3Z"/><path class="cls-9" d="M140.23,158.65l-3.75-2.17c-.3-.17-.27-.48.08-.68l3.72-2.14a1.31,1.31,0,0,1,1.17,0l3.75,2.17c.31.17.27.47-.08.67l-3.72,2.15A1.31,1.31,0,0,1,140.23,158.65Z"/><path class="cls-9" d="M146,162l-3.75-2.16c-.3-.18-.26-.48.08-.68l3.72-2.15a1.33,1.33,0,0,1,1.18-.05l3.75,2.17c.3.17.26.48-.09.68l-3.71,2.14A1.3,1.3,0,0,1,146,162Z"/><path class="cls-9" d="M151.81,165.34l-3.75-2.17c-.3-.17-.26-.48.09-.68l3.71-2.14a1.3,1.3,0,0,1,1.18,0l3.75,2.16c.3.18.26.48-.09.68L153,165.29A1.33,1.33,0,0,1,151.81,165.34Z"/><path class="cls-9" d="M96.63,127l-3.75-2.17c-.3-.17-.26-.48.09-.68L96.68,122a1.33,1.33,0,0,1,1.18,0l3.75,2.16c.3.18.26.48-.09.68l-3.71,2.15A1.33,1.33,0,0,1,96.63,127Z"/><path class="cls-9" d="M90.87,123.64l-3.75-2.17c-.3-.17-.26-.47.08-.67l3.72-2.15a1.31,1.31,0,0,1,1.17-.05l3.76,2.17c.3.17.26.47-.09.68L92,123.59A1.31,1.31,0,0,1,90.87,123.64Z"/><path class="cls-9" d="M85.11,120.31l-3.75-2.16c-.31-.18-.27-.48.08-.68l3.72-2.15a1.31,1.31,0,0,1,1.17,0l3.75,2.17c.3.17.27.48-.08.68l-3.72,2.14A1.28,1.28,0,0,1,85.11,120.31Z"/><path class="cls-9" d="M79.34,117l-3.75-2.16c-.3-.17-.26-.48.09-.68L79.39,112a1.27,1.27,0,0,1,1.18,0l3.75,2.16c.3.18.26.48-.09.68l-3.71,2.15A1.3,1.3,0,0,1,79.34,117Z"/><path class="cls-9" d="M85.27,113.56l-3.75-2.16c-.3-.18-.26-.48.08-.68l1.23-.71A1.33,1.33,0,0,1,84,110l3.75,2.17c.3.17.26.47-.09.68l-1.23.7A1.25,1.25,0,0,1,85.27,113.56Z"/><path class="cls-9" d="M92.79,117.91,89,115.74c-.3-.17-.26-.48.08-.68l1.23-.71a1.33,1.33,0,0,1,1.18,0l3.75,2.17c.3.17.26.48-.09.68l-1.22.71A1.33,1.33,0,0,1,92.79,117.91Z"/><path class="cls-9" d="M98.53,121.22l-3.75-2.17c-.3-.17-.26-.47.08-.67l1.23-.71a1.3,1.3,0,0,1,1.18,0l3.75,2.16c.3.18.26.48-.09.68l-1.22.71A1.33,1.33,0,0,1,98.53,121.22Z"/><path class="cls-9" d="M104.27,124.53l-3.75-2.16c-.3-.18-.26-.48.08-.68l1.23-.71a1.33,1.33,0,0,1,1.18,0l3.75,2.17c.3.17.26.47-.09.67l-1.23.71A1.28,1.28,0,0,1,104.27,124.53Z"/><path class="cls-9" d="M110,127.85l-3.75-2.17c-.3-.17-.26-.48.08-.68l1.23-.71a1.33,1.33,0,0,1,1.18-.05l3.75,2.17c.3.17.26.48-.09.68l-1.23.71A1.31,1.31,0,0,1,110,127.85Z"/><path class="cls-9" d="M142.05,146.35l-3.75-2.17c-.3-.17-.26-.48.09-.68l1.22-.71a1.33,1.33,0,0,1,1.18,0l3.75,2.17c.3.17.26.48-.09.68l-1.22.71A1.33,1.33,0,0,1,142.05,146.35Z"/><path class="cls-9" d="M147.79,149.66,144,147.49c-.3-.17-.26-.47.08-.67l1.23-.71a1.3,1.3,0,0,1,1.18-.05l3.75,2.16c.3.18.26.48-.09.68l-1.22.71A1.33,1.33,0,0,1,147.79,149.66Z"/><path class="cls-9" d="M153.53,153l-3.75-2.16c-.3-.18-.26-.48.08-.68l1.23-.71a1.33,1.33,0,0,1,1.18,0l3.75,2.17c.3.17.26.47-.09.68l-1.22.7A1.27,1.27,0,0,1,153.53,153Z"/><path class="cls-9" d="M159.27,156.29l-3.75-2.17c-.3-.17-.26-.48.08-.68l1.23-.71a1.3,1.3,0,0,1,1.18,0l3.75,2.16c.3.17.26.48-.09.68l-1.23.71A1.31,1.31,0,0,1,159.27,156.29Z"/><path class="cls-9" d="M102.43,130.31l-3.76-2.16c-.3-.18-.26-.48.09-.68l3.72-2.15a1.31,1.31,0,0,1,1.17,0l3.75,2.17c.3.17.26.48-.08.68l-3.72,2.14A1.28,1.28,0,0,1,102.43,130.31Z"/><path class="cls-9" d="M108.22,133.66l-3.75-2.17c-.3-.17-.27-.48.08-.68l3.72-2.14a1.28,1.28,0,0,1,1.17,0l3.75,2.16c.3.18.27.48-.08.68l-3.72,2.15A1.31,1.31,0,0,1,108.22,133.66Z"/><path class="cls-9" d="M114,137l-3.75-2.17c-.3-.17-.26-.47.08-.67l3.72-2.15a1.33,1.33,0,0,1,1.18,0l3.75,2.17c.3.17.26.47-.09.68L115.19,137A1.33,1.33,0,0,1,114,137Z"/><path class="cls-9" d="M119.8,140.34l-3.75-2.16c-.3-.18-.26-.48.09-.68l3.71-2.15a1.3,1.3,0,0,1,1.18,0l3.75,2.16c.3.18.26.48-.09.68L121,140.3A1.3,1.3,0,0,1,119.8,140.34Z"/><path class="cls-9" d="M125.59,143.69l-3.75-2.17c-.3-.17-.26-.47.09-.68l3.71-2.14a1.33,1.33,0,0,1,1.18,0l3.75,2.17c.3.17.26.47-.08.67l-3.72,2.15A1.33,1.33,0,0,1,125.59,143.69Z"/><path class="cls-9" d="M131.39,147l-3.75-2.16c-.31-.18-.27-.48.08-.68l3.72-2.15a1.31,1.31,0,0,1,1.17,0l3.75,2.17c.3.17.27.48-.08.68L132.56,147A1.28,1.28,0,0,1,131.39,147Z"/><path class="cls-9" d="M137.18,150.38l-3.75-2.17c-.3-.17-.27-.48.08-.68l3.72-2.14a1.28,1.28,0,0,1,1.17,0l3.75,2.16c.31.18.27.48-.08.68l-3.72,2.15A1.31,1.31,0,0,1,137.18,150.38Z"/><path class="cls-9" d="M143,153.72l-3.75-2.16c-.3-.18-.26-.48.08-.68l3.72-2.15a1.33,1.33,0,0,1,1.18,0l3.75,2.17c.3.17.26.48-.09.68l-3.71,2.14A1.33,1.33,0,0,1,143,153.72Z"/><path class="cls-9" d="M148.76,157.06,145,154.9c-.3-.17-.26-.48.09-.68l3.71-2.14A1.27,1.27,0,0,1,150,152l3.75,2.16c.3.18.26.48-.09.68L149.94,157A1.3,1.3,0,0,1,148.76,157.06Z"/><path class="cls-9" d="M69.31,130.72l-11.05-6.37c-.3-.18-.26-.48.09-.68l3.71-2.15a1.33,1.33,0,0,1,1.18,0l11.05,6.38c.3.18.26.48-.09.68l-3.71,2.15A1.3,1.3,0,0,1,69.31,130.72Z"/><path class="cls-9" d="M140.47,171.81l-11.05-6.38c-.3-.17-.26-.48.09-.68l3.71-2.14a1.3,1.3,0,0,1,1.18-.05l11,6.38c.3.17.26.47-.09.67l-3.72,2.15A1.31,1.31,0,0,1,140.47,171.81Z"/><path class="cls-9" d="M117.31,165.82l-3.76-2.16c-.3-.18-.26-.48.09-.68l4.43-2.56a1.31,1.31,0,0,1,1.17,0l3.75,2.17c.3.17.27.48-.08.68l-4.43,2.55A1.28,1.28,0,0,1,117.31,165.82Z"/><path class="cls-9" d="M75.24,141.54l-6-3.47c-.3-.17-.26-.47.09-.68l4.43-2.55a1.31,1.31,0,0,1,1.17-.05l6,3.46c.3.18.26.48-.09.68l-4.42,2.56A1.33,1.33,0,0,1,75.24,141.54Z"/><path class="cls-9" d="M111.72,162.6l-6-3.46c-.3-.18-.27-.48.08-.68l4.43-2.56a1.31,1.31,0,0,1,1.17-.05l6,3.47c.3.17.26.47-.08.67l-4.43,2.56A1.33,1.33,0,0,1,111.72,162.6Z"/><path class="cls-9" d="M83.6,146.36l-6-3.46c-.3-.18-.26-.48.09-.68l4.42-2.56a1.33,1.33,0,0,1,1.18,0l6,3.47c.3.17.26.48-.09.68l-4.43,2.55A1.31,1.31,0,0,1,83.6,146.36Z"/><path class="cls-9" d="M83.33,139.64l26.08,15.06c.32.18.32.48,0,.67L104.89,158a1.34,1.34,0,0,1-1.17,0L77.64,142.92Z"/><path class="cls-9" d="M133.49,171.88l4.18,2.42c.25.14.22.39-.07.55l-1.81,1.05a1.09,1.09,0,0,1-1,0l-4.18-2.41c-.25-.15-.22-.4.07-.56l1.81-1.05A1.09,1.09,0,0,1,133.49,171.88Z"/><path class="cls-9" d="M127.65,168.51l4.18,2.41c.25.15.22.4-.07.56L130,172.53a1.09,1.09,0,0,1-1,0l-4.18-2.42c-.25-.14-.22-.39.07-.55l1.81-1A1.09,1.09,0,0,1,127.65,168.51Z"/><path class="cls-9" d="M121.86,165.17l4.18,2.41c.25.14.22.39-.07.56l-1.81,1a1.06,1.06,0,0,1-1,0L119,166.81c-.25-.14-.22-.39.07-.56l1.81-1A1.05,1.05,0,0,1,121.86,165.17Z"/><path class="cls-9" d="M130.85,166.67l4.18,2.41c.25.14.22.39-.07.55l-1.81,1.05a1.09,1.09,0,0,1-1,0L128,168.31c-.25-.15-.22-.39.07-.56l1.81-1A1,1,0,0,1,130.85,166.67Z"/></g><path class="cls-2" d="M189.94,76.55a1.74,1.74,0,0,1-.87-.26,2.55,2.55,0,0,1-1.22-2.58,1.28,1.28,0,0,1,.73-.93,1.55,1.55,0,0,1,1.39.14,2.55,2.55,0,0,1,1.22,2.59h0a1.27,1.27,0,0,1-1.25,1Zm-.84-3.48a.86.86,0,0,0-.36.08.88.88,0,0,0-.5.65,2.14,2.14,0,0,0,1,2.15,1.18,1.18,0,0,0,1,.12.9.9,0,0,0,.5-.65h0a2.13,2.13,0,0,0-1-2.15A1.39,1.39,0,0,0,189.1,73.07Z"/><path class="cls-2" d="M194.72,79.3a1.7,1.7,0,0,1-.87-.25,2.55,2.55,0,0,1-1.23-2.58,1.3,1.3,0,0,1,.74-.94,1.59,1.59,0,0,1,1.39.15A2.52,2.52,0,0,1,196,78.27h0a1.28,1.28,0,0,1-.73.93A1.3,1.3,0,0,1,194.72,79.3Zm-.85-3.47a1,1,0,0,0-.35.07.92.92,0,0,0-.51.66,2.13,2.13,0,0,0,1,2.14,1.15,1.15,0,0,0,1,.13.89.89,0,0,0,.5-.66,2.13,2.13,0,0,0-1-2.14A1.33,1.33,0,0,0,193.87,75.83Z"/><path class="cls-2" d="M200.55,81a1.15,1.15,0,0,1-1.83.66,2.37,2.37,0,0,1-1.13-2.37,1.15,1.15,0,0,1,1.83-.66A2.35,2.35,0,0,1,200.55,81Z"/><polygon class="cls-2" points="108.98 28.28 106.42 26.8 106.62 25.62 109.18 27.1 108.98 28.28"/><polygon class="cls-2" points="112.69 30.42 110.14 28.95 110.33 27.77 112.89 29.24 112.69 30.42"/><polygon class="cls-2" points="105.3 26.16 99.7 22.92 99.9 21.74 105.5 24.98 105.3 26.16"/><path class="cls-2" d="M160.7,100.79a3.91,3.91,0,0,1-1.93-.55L123.21,79.71A6.21,6.21,0,0,1,120.53,73a3.7,3.7,0,0,1,2.09-2.54,3.53,3.53,0,0,1,3.15.32l35.56,20.52A6.22,6.22,0,0,1,164,98a3.7,3.7,0,0,1-2.09,2.54A3.2,3.2,0,0,1,160.7,100.79ZM123.84,70.66a2.8,2.8,0,0,0-1.07.21,3.26,3.26,0,0,0-1.85,2.27,5.77,5.77,0,0,0,2.49,6.22L159,99.89a3.15,3.15,0,0,0,2.79.29,3.27,3.27,0,0,0,1.86-2.27,5.79,5.79,0,0,0-2.49-6.23L125.57,71.15A3.45,3.45,0,0,0,123.84,70.66Z"/><path class="cls-24" d="M85.87,81.37V118.3h0a2.55,2.55,0,0,0,1.48,2.13L118,138.15c2.21,1.27,6.06,1.11,8.61-.36h0c1.43-.82,2.15-1.89,2.11-2.89h0V98Z"/><path class="cls-5" d="M120.34,138.89a10.21,10.21,0,0,0,6.31-1.1c1.43-.82,2.15-1.89,2.11-2.89h0V98l-8.27-3.2h-.15Z"/><path class="cls-25" d="M118,101.22,87.35,83.51c-2.2-1.28-1.93-3.51.62-5h0c2.55-1.47,6.41-1.63,8.62-.36l30.68,17.72c2.21,1.27,1.93,3.5-.62,5h0C124.1,102.34,120.25,102.5,118,101.22Z"/><path class="cls-21" d="M118,152.69,87.35,135c-2.2-1.28-1.93-3.5.62-5h0c2.55-1.47,6.41-1.63,8.62-.35l30.68,17.71c2.21,1.28,1.93,3.5-.62,5h0C124.1,153.81,120.25,154,118,152.69Z"/><path class="cls-26" d="M121.1,98.85a2.66,2.66,0,0,1-2.65-2.66V79.79c0-5.6-4.1-12.69-8.94-15.49l-7-4.06c-1.86-1.08-3.54-1.34-4.61-.72s-1.68,2.2-1.68,4.35v16.4a2.65,2.65,0,1,1-5.3,0V63.87c0-4.16,1.53-7.33,4.33-8.95s6.31-1.35,9.91.72l7,4.07c6.5,3.75,11.59,12.57,11.59,20.08v16.4A2.65,2.65,0,0,1,121.1,98.85Z"/></g></g></svg>