<svg xmlns="http://www.w3.org/2000/svg" xmlns:xlink="http://www.w3.org/1999/xlink" viewBox="0 0 367.78 352.55"><defs><style>.cls-1{isolation:isolate;}.cls-2,.cls-21,.cls-37{mix-blend-mode:exclusion;}.cls-2{fill:url(#radial-gradient);}.cls-22,.cls-3{opacity:0.2;}.cls-4{opacity:0;}.cls-5{opacity:0.09;}.cls-6{opacity:0.18;}.cls-7{opacity:0.27;}.cls-8{opacity:0.36;}.cls-9{opacity:0.45;}.cls-10{opacity:0.55;}.cls-11{opacity:0.64;}.cls-12{opacity:0.73;}.cls-13{opacity:0.82;}.cls-14{opacity:0.91;}.cls-15{fill:url(#linear-gradient);}.cls-16{fill:url(#linear-gradient-2);}.cls-17{fill:url(#linear-gradient-3);}.cls-18{fill:#fff;}.cls-19{opacity:0.8;fill:url(#linear-gradient-4);}.cls-20{fill:url(#linear-gradient-5);}.cls-21{fill:url(#radial-gradient-2);}.cls-22{fill:url(#linear-gradient-6);}.cls-23{opacity:0.27;fill:url(#linear-gradient-7);}.cls-24{opacity:0.35;fill:url(#linear-gradient-8);}.cls-25{opacity:0.42;fill:url(#linear-gradient-9);}.cls-26{opacity:0.49;fill:url(#linear-gradient-10);}.cls-27{opacity:0.56;fill:url(#linear-gradient-11);}.cls-28{opacity:0.64;fill:url(#linear-gradient-12);}.cls-29{opacity:0.71;fill:url(#linear-gradient-13);}.cls-30{opacity:0.78;fill:url(#linear-gradient-14);}.cls-31{opacity:0.85;fill:url(#linear-gradient-15);}.cls-32{opacity:0.93;fill:url(#linear-gradient-16);}.cls-33{fill:url(#linear-gradient-17);}.cls-123,.cls-129,.cls-132,.cls-135,.cls-34{mix-blend-mode:color-dodge;}.cls-34{fill:url(#New_Gradient_Swatch_copy_6);}.cls-35{fill:url(#linear-gradient-18);}.cls-121,.cls-36{opacity:0.3;}.cls-104,.cls-105,.cls-106,.cls-107,.cls-108,.cls-109,.cls-110,.cls-111,.cls-112,.cls-113,.cls-114,.cls-115,.cls-127,.cls-36{mix-blend-mode:screen;}.cls-36{fill:url(#linear-gradient-19);}.cls-37{fill:url(#radial-gradient-3);}.cls-38{fill:url(#linear-gradient-20);}.cls-39{fill:url(#linear-gradient-21);}.cls-40{fill:url(#linear-gradient-22);}.cls-41{fill:url(#linear-gradient-23);}.cls-42{fill:url(#linear-gradient-24);}.cls-43{fill:url(#linear-gradient-25);}.cls-44{fill:url(#linear-gradient-26);}.cls-45{fill:url(#linear-gradient-27);}.cls-46{fill:url(#linear-gradient-28);}.cls-47{fill:url(#linear-gradient-29);}.cls-48{fill:url(#linear-gradient-30);}.cls-49{fill:url(#linear-gradient-31);}.cls-50{fill:url(#linear-gradient-32);}.cls-51{fill:url(#linear-gradient-33);}.cls-52{fill:url(#linear-gradient-34);}.cls-53{fill:url(#linear-gradient-35);}.cls-54{fill:url(#linear-gradient-36);}.cls-55{fill:url(#linear-gradient-37);}.cls-56{fill:url(#linear-gradient-38);}.cls-57{fill:url(#linear-gradient-39);}.cls-58{fill:url(#linear-gradient-40);}.cls-59{fill:url(#linear-gradient-41);}.cls-60{fill:url(#linear-gradient-42);}.cls-61{fill:url(#linear-gradient-43);}.cls-62{fill:url(#linear-gradient-44);}.cls-63{fill:url(#linear-gradient-45);}.cls-64{fill:url(#linear-gradient-46);}.cls-65{fill:url(#linear-gradient-47);}.cls-66{fill:url(#linear-gradient-48);}.cls-67{fill:url(#linear-gradient-49);}.cls-68{fill:url(#linear-gradient-50);}.cls-69{fill:url(#linear-gradient-51);}.cls-70{fill:url(#linear-gradient-52);}.cls-71{fill:url(#linear-gradient-53);}.cls-72{fill:url(#linear-gradient-54);}.cls-73{fill:url(#linear-gradient-55);}.cls-74{fill:url(#linear-gradient-56);}.cls-75{fill:url(#linear-gradient-57);}.cls-76{fill:url(#linear-gradient-58);}.cls-77{fill:url(#linear-gradient-59);}.cls-78{fill:url(#linear-gradient-60);}.cls-79{fill:url(#linear-gradient-61);}.cls-80{fill:url(#linear-gradient-62);}.cls-81{fill:url(#linear-gradient-63);}.cls-82{fill:url(#linear-gradient-64);}.cls-83{fill:url(#linear-gradient-65);}.cls-84{fill:url(#linear-gradient-66);}.cls-85{fill:url(#linear-gradient-67);}.cls-86{fill:url(#linear-gradient-68);}.cls-87{fill:url(#linear-gradient-69);}.cls-88{fill:url(#linear-gradient-70);}.cls-89{fill:url(#linear-gradient-71);}.cls-90{fill:url(#linear-gradient-72);}.cls-91{fill:url(#linear-gradient-73);}.cls-92{fill:url(#linear-gradient-74);}.cls-93{fill:url(#linear-gradient-75);}.cls-94{fill:url(#linear-gradient-76);}.cls-95{fill:url(#linear-gradient-77);}.cls-96{fill:url(#linear-gradient-78);}.cls-97{fill:url(#linear-gradient-79);}.cls-98{fill:url(#linear-gradient-80);}.cls-99{fill:url(#linear-gradient-81);}.cls-100{fill:url(#linear-gradient-82);}.cls-101{fill:url(#linear-gradient-83);}.cls-102{fill:url(#New_Gradient_Swatch_copy_13);}.cls-103{fill:url(#New_Gradient_Swatch_copy_13-2);}.cls-104{fill:url(#linear-gradient-84);}.cls-105{fill:url(#linear-gradient-85);}.cls-106{fill:url(#linear-gradient-86);}.cls-107{fill:url(#linear-gradient-87);}.cls-108{fill:url(#linear-gradient-88);}.cls-109{fill:url(#linear-gradient-89);}.cls-110{fill:url(#linear-gradient-90);}.cls-111{fill:url(#linear-gradient-91);}.cls-112{fill:url(#linear-gradient-92);}.cls-113{fill:url(#linear-gradient-93);}.cls-114{fill:url(#linear-gradient-94);}.cls-115{fill:url(#linear-gradient-95);}.cls-116{fill:url(#linear-gradient-96);}.cls-117{fill:url(#linear-gradient-97);}.cls-118{fill:#c7bcd6;}.cls-118,.cls-122{opacity:0.5;mix-blend-mode:multiply;}.cls-119{fill:url(#linear-gradient-98);}.cls-120{fill:url(#linear-gradient-99);}.cls-121{fill:url(#linear-gradient-100);}.cls-122{fill:url(#radial-gradient-4);}.cls-123{opacity:0.7;fill:url(#radial-gradient-5);}.cls-124{fill:url(#linear-gradient-101);}.cls-125{fill:url(#linear-gradient-102);}.cls-126{fill:url(#New_Gradient_Swatch_copy_7);}.cls-127{fill:url(#White_Black);}.cls-128{fill:url(#linear-gradient-103);}.cls-129{fill:url(#Radial_Gradient_1);}.cls-130{fill:url(#linear-gradient-104);}.cls-131{fill:url(#New_Gradient_Swatch_copy_13-3);}.cls-132{fill:url(#Radial_Gradient_1-2);}.cls-133{fill:url(#linear-gradient-105);}.cls-134{fill:url(#New_Gradient_Swatch_copy_13-4);}.cls-135{fill:url(#Radial_Gradient_1-3);}</style><radialGradient id="radial-gradient" cx="-2779.7" cy="330.51" r="184.01" gradientTransform="matrix(-1, 0, 0, 1, -2643.43, 0)" gradientUnits="userSpaceOnUse"><stop offset="0.01" stop-color="#dc3daa"/><stop offset="0.02" stop-color="#d83aaa"/><stop offset="0.15" stop-color="#b928ab"/><stop offset="0.25" stop-color="#a61dab"/><stop offset="0.33" stop-color="#9f19ab"/><stop offset="1" stop-color="#180226"/></radialGradient><linearGradient id="linear-gradient" x1="-2995.71" y1="248.11" x2="-2691.41" y2="248.11" gradientTransform="matrix(-1, 0, 0, 1, -2643.43, 0)" gradientUnits="userSpaceOnUse"><stop offset="0.06" stop-color="#9f79b8"/><stop offset="0.26" stop-color="#a17bba"/><stop offset="0.36" stop-color="#a783bf"/><stop offset="0.43" stop-color="#b290c9"/><stop offset="0.49" stop-color="#c1a1d5"/><stop offset="0.51" stop-color="#c4a5d7"/><stop offset="0.52" stop-color="#cdb3dd"/><stop offset="0.53" stop-color="#dbc8e7"/><stop offset="0.55" stop-color="#efe7f4"/><stop offset="0.56" stop-color="#fff"/><stop offset="0.57" stop-color="#ece0f3"/><stop offset="0.58" stop-color="#ddc8ea"/><stop offset="0.59" stop-color="#d4b9e5"/><stop offset="0.6" stop-color="#d1b4e3"/><stop offset="0.66" stop-color="#b395d6"/><stop offset="0.72" stop-color="#9c7dcb"/><stop offset="0.77" stop-color="#8e6ec5"/><stop offset="0.81" stop-color="#8969c3"/><stop offset="1" stop-color="#b086cc"/></linearGradient><linearGradient id="linear-gradient-2" x1="-3002.19" y1="240.14" x2="-2709.44" y2="240.14" gradientTransform="matrix(-1, 0, 0, 1, -2643.43, 0)" gradientUnits="userSpaceOnUse"><stop offset="0" stop-color="#2f054a"/><stop offset="1" stop-color="#5824b0"/></linearGradient><linearGradient id="linear-gradient-3" x1="-2998.91" y1="240.14" x2="-2712.71" y2="240.14" gradientTransform="matrix(-1, 0, 0, 1, -2643.43, 0)" gradientUnits="userSpaceOnUse"><stop offset="0" stop-color="#3d065f"/><stop offset="1" stop-color="#5f27bd"/></linearGradient><linearGradient id="linear-gradient-4" x1="-3222.02" y1="1482.2" x2="-5674.43" y2="2791.45" gradientTransform="matrix(-0.87, 0.5, 0, 1.15, -2627.08, 34.33)" gradientUnits="userSpaceOnUse"><stop offset="0.06" stop-color="#9f79b8"/><stop offset="0.26" stop-color="#a17bba"/><stop offset="0.37" stop-color="#a783bf"/><stop offset="0.45" stop-color="#b290c9"/><stop offset="0.51" stop-color="#c2a2d6"/><stop offset="0.56" stop-color="#d1b4e3"/><stop offset="0.66" stop-color="#b395d6"/><stop offset="0.75" stop-color="#9c7dcb"/><stop offset="0.84" stop-color="#8e6ec5"/><stop offset="0.92" stop-color="#8969c3"/></linearGradient><linearGradient id="linear-gradient-5" x1="-3224.63" y1="1483.32" x2="-5677.03" y2="2792.58" gradientTransform="matrix(-0.87, 0.5, 0, 1.15, -2627.08, 34.33)" xlink:href="#linear-gradient-3"/><radialGradient id="radial-gradient-2" cx="-2699.55" cy="67.19" r="133" gradientTransform="matrix(-1, 0, 0, 1, -2643.43, 0)" gradientUnits="userSpaceOnUse"><stop offset="0.01" stop-color="#dc3daa"/><stop offset="0.04" stop-color="#b9319a"/><stop offset="0.1" stop-color="#8d2285"/><stop offset="0.15" stop-color="#6a1674"/><stop offset="0.2" stop-color="#510d69"/><stop offset="0.25" stop-color="#420861"/><stop offset="0.28" stop-color="#3d065f"/><stop offset="1"/></radialGradient><linearGradient id="linear-gradient-6" x1="-2667.33" y1="98.69" x2="-2899.47" y2="166.96" gradientTransform="matrix(-1, 0, 0, 1, -2643.43, 0)" gradientUnits="userSpaceOnUse"><stop offset="0" stop-color="#4916a1"/><stop offset="0.52" stop-color="#5f27bd"/><stop offset="1" stop-color="#b4299a"/></linearGradient><linearGradient id="linear-gradient-7" x1="-2667.63" y1="98.86" x2="-2898.97" y2="166.9" gradientTransform="matrix(-1, 0, 0, 1, -2643.43, 0)" gradientUnits="userSpaceOnUse"><stop offset="0" stop-color="#46159b"/><stop offset="0.52" stop-color="#5e26bb"/><stop offset="0.69" stop-color="#7a28b2"/><stop offset="1" stop-color="#b4299a"/></linearGradient><linearGradient id="linear-gradient-8" x1="-2667.93" y1="99.04" x2="-2898.48" y2="166.85" gradientTransform="matrix(-1, 0, 0, 1, -2643.43, 0)" gradientUnits="userSpaceOnUse"><stop offset="0" stop-color="#431494"/><stop offset="0.52" stop-color="#5d26b9"/><stop offset="0.69" stop-color="#7828b3"/><stop offset="1" stop-color="#b4299a"/></linearGradient><linearGradient id="linear-gradient-9" x1="-2668.22" y1="99.21" x2="-2897.99" y2="166.79" gradientTransform="matrix(-1, 0, 0, 1, -2643.43, 0)" gradientUnits="userSpaceOnUse"><stop offset="0" stop-color="#41138e"/><stop offset="0.52" stop-color="#5b25b6"/><stop offset="0.69" stop-color="#7528b4"/><stop offset="1" stop-color="#b4299a"/></linearGradient><linearGradient id="linear-gradient-10" x1="-2668.52" y1="99.39" x2="-2897.49" y2="166.73" gradientTransform="matrix(-1, 0, 0, 1, -2643.43, 0)" gradientUnits="userSpaceOnUse"><stop offset="0" stop-color="#3e1288"/><stop offset="0.52" stop-color="#5a24b4"/><stop offset="0.69" stop-color="#7228b5"/><stop offset="1" stop-color="#b4299a"/></linearGradient><linearGradient id="linear-gradient-11" x1="-2668.82" y1="99.57" x2="-2897" y2="166.68" gradientTransform="matrix(-1, 0, 0, 1, -2643.43, 0)" gradientUnits="userSpaceOnUse"><stop offset="0" stop-color="#3b1182"/><stop offset="0.52" stop-color="#5924b2"/><stop offset="0.69" stop-color="#6f28b6"/><stop offset="1" stop-color="#b4299a"/></linearGradient><linearGradient id="linear-gradient-12" x1="-2669.12" y1="99.74" x2="-2896.51" y2="166.62" gradientTransform="matrix(-1, 0, 0, 1, -2643.43, 0)" gradientUnits="userSpaceOnUse"><stop offset="0" stop-color="#38117b"/><stop offset="0.52" stop-color="#5823b0"/><stop offset="0.69" stop-color="#6d27b8"/><stop offset="1" stop-color="#b4299a"/></linearGradient><linearGradient id="linear-gradient-13" x1="-2669.41" y1="99.92" x2="-2896.01" y2="166.56" gradientTransform="matrix(-1, 0, 0, 1, -2643.43, 0)" gradientUnits="userSpaceOnUse"><stop offset="0" stop-color="#351075"/><stop offset="0.52" stop-color="#5723ae"/><stop offset="0.69" stop-color="#6a27b9"/><stop offset="1" stop-color="#b4299a"/></linearGradient><linearGradient id="linear-gradient-14" x1="-2669.71" y1="100.09" x2="-2895.52" y2="166.51" gradientTransform="matrix(-1, 0, 0, 1, -2643.43, 0)" gradientUnits="userSpaceOnUse"><stop offset="0" stop-color="#320f6f"/><stop offset="0.52" stop-color="#5622ac"/><stop offset="0.69" stop-color="#6727ba"/><stop offset="1" stop-color="#b4299a"/></linearGradient><linearGradient id="linear-gradient-15" x1="-2670.01" y1="100.27" x2="-2895.02" y2="166.45" gradientTransform="matrix(-1, 0, 0, 1, -2643.43, 0)" gradientUnits="userSpaceOnUse"><stop offset="0" stop-color="#300e69"/><stop offset="0.52" stop-color="#5421a9"/><stop offset="0.69" stop-color="#6427bb"/><stop offset="1" stop-color="#b4299a"/></linearGradient><linearGradient id="linear-gradient-16" x1="-2670.31" y1="100.45" x2="-2894.53" y2="166.39" gradientTransform="matrix(-1, 0, 0, 1, -2643.43, 0)" gradientUnits="userSpaceOnUse"><stop offset="0" stop-color="#2d0d62"/><stop offset="0.52" stop-color="#5321a7"/><stop offset="0.69" stop-color="#6227bc"/><stop offset="1" stop-color="#b4299a"/></linearGradient><linearGradient id="linear-gradient-17" x1="-2670.6" y1="100.62" x2="-2894.04" y2="166.34" gradientTransform="matrix(-1, 0, 0, 1, -2643.43, 0)" gradientUnits="userSpaceOnUse"><stop offset="0" stop-color="#2a0c5c"/><stop offset="0.69" stop-color="#5f27bd"/><stop offset="1" stop-color="#b4299a"/></linearGradient><radialGradient id="New_Gradient_Swatch_copy_6" cx="-1764.71" cy="-3553.05" r="40.92" gradientTransform="matrix(-0.95, -0.33, -0.19, 0.56, -2088.01, 1603.21)" gradientUnits="userSpaceOnUse"><stop offset="0" stop-color="#972a74"/><stop offset="0.04" stop-color="#8a266a"/><stop offset="0.19" stop-color="#601b4a"/><stop offset="0.35" stop-color="#3d112f"/><stop offset="0.51" stop-color="#230a1b"/><stop offset="0.67" stop-color="#0f040c"/><stop offset="0.83" stop-color="#040103"/><stop offset="1"/></radialGradient><linearGradient id="linear-gradient-18" x1="-1597.22" y1="1847.83" x2="-1730.65" y2="1746.96" gradientTransform="matrix(-0.87, 0.5, 1.5, 0.29, -3941.47, 539.6)" gradientUnits="userSpaceOnUse"><stop offset="0" stop-color="#3d065f"/><stop offset="1" stop-color="#12054e"/><stop offset="1" stop-color="#10054d"/></linearGradient><linearGradient id="linear-gradient-19" x1="-2877.85" y1="172.87" x2="-2803.1" y2="290.18" gradientTransform="matrix(-1, 0, 0, 1, -2643.43, 0)" gradientUnits="userSpaceOnUse"><stop offset="0.06" stop-color="#9f79b8"/><stop offset="0.25" stop-color="#a17bba"/><stop offset="0.35" stop-color="#a883c0"/><stop offset="0.42" stop-color="#b490cc"/><stop offset="0.48" stop-color="#c5a3dc"/><stop offset="0.54" stop-color="#dbbbf0"/><stop offset="0.56" stop-color="#e6c6fa"/><stop offset="0.6" stop-color="#d6b6f1"/><stop offset="0.69" stop-color="#b595dd"/><stop offset="0.77" stop-color="#9d7dcf"/><stop offset="0.85" stop-color="#8e6ec6"/><stop offset="0.92" stop-color="#8969c3"/></linearGradient><radialGradient id="radial-gradient-3" cx="-2940.43" cy="148.97" r="44.8" gradientTransform="matrix(-1, 0, 0, 1, -2643.43, 0)" gradientUnits="userSpaceOnUse"><stop offset="0.01" stop-color="#ff75d4"/><stop offset="0.09" stop-color="#d84fc3"/><stop offset="0.16" stop-color="#b932b6"/><stop offset="0.23" stop-color="#a620ae"/><stop offset="0.28" stop-color="#9f19ab"/><stop offset="0.36" stop-color="#8a1697"/><stop offset="0.57" stop-color="#590d66"/><stop offset="0.75" stop-color="#360743"/><stop offset="0.9" stop-color="#20032e"/><stop offset="1" stop-color="#180226"/></radialGradient><linearGradient id="linear-gradient-20" x1="-2730.02" y1="86.79" x2="-2727.98" y2="209.17" gradientTransform="matrix(-1, 0, 0, 1, -2643.43, 0)" gradientUnits="userSpaceOnUse"><stop offset="0.02" stop-color="#f7aa90"/><stop offset="0.02" stop-color="#f4a491"/><stop offset="0.11" stop-color="#d6739a"/><stop offset="0.18" stop-color="#be4ca2"/><stop offset="0.25" stop-color="#ad30a7"/><stop offset="0.32" stop-color="#a31faa"/><stop offset="0.36" stop-color="#9f19ab"/><stop offset="0.81" stop-color="#5824b0"/><stop offset="0.98" stop-color="#4916a1"/></linearGradient><linearGradient id="linear-gradient-21" x1="-2725.03" y1="86.71" x2="-2722.99" y2="209.07" xlink:href="#linear-gradient-20"/><linearGradient id="linear-gradient-22" x1="-2719.28" y1="86.6" x2="-2717.24" y2="209" xlink:href="#linear-gradient-20"/><linearGradient id="linear-gradient-23" x1="-2714.29" y1="86.52" x2="-2712.25" y2="208.91" xlink:href="#linear-gradient-20"/><linearGradient id="linear-gradient-24" x1="-2708.92" y1="86.44" x2="-2706.88" y2="208.81" xlink:href="#linear-gradient-20"/><linearGradient id="linear-gradient-25" x1="-2703.55" y1="86.35" x2="-2701.51" y2="208.71" xlink:href="#linear-gradient-20"/><linearGradient id="linear-gradient-26" x1="-2697.8" y1="86.25" x2="-2695.76" y2="208.62" xlink:href="#linear-gradient-20"/><linearGradient id="linear-gradient-27" x1="-2692.43" y1="86.17" x2="-2690.39" y2="208.53" xlink:href="#linear-gradient-20"/><linearGradient id="linear-gradient-28" x1="-2734.12" y1="86.85" x2="-2732.08" y2="209.24" xlink:href="#linear-gradient-20"/><linearGradient id="linear-gradient-29" x1="-2728.38" y1="86.77" x2="-2726.34" y2="209.11" xlink:href="#linear-gradient-20"/><linearGradient id="linear-gradient-30" x1="-2723" y1="86.67" x2="-2720.96" y2="209.04" xlink:href="#linear-gradient-20"/><linearGradient id="linear-gradient-31" x1="-2718.01" y1="86.59" x2="-2715.97" y2="208.96" xlink:href="#linear-gradient-20"/><linearGradient id="linear-gradient-32" x1="-2712.26" y1="86.49" x2="-2710.23" y2="208.86" xlink:href="#linear-gradient-20"/><linearGradient id="linear-gradient-33" x1="-2706.9" y1="86.39" x2="-2704.86" y2="208.79" xlink:href="#linear-gradient-20"/><linearGradient id="linear-gradient-34" x1="-2701.9" y1="86.32" x2="-2699.86" y2="208.69" xlink:href="#linear-gradient-20"/><linearGradient id="linear-gradient-35" x1="-2696.53" y1="86.23" x2="-2694.49" y2="208.61" xlink:href="#linear-gradient-20"/><linearGradient id="linear-gradient-36" x1="-2737.47" y1="86.92" x2="-2735.43" y2="209.29" xlink:href="#linear-gradient-20"/><linearGradient id="linear-gradient-37" x1="-2732.48" y1="86.83" x2="-2730.44" y2="209.21" xlink:href="#linear-gradient-20"/><linearGradient id="linear-gradient-38" x1="-2726.73" y1="86.73" x2="-2724.69" y2="209.11" xlink:href="#linear-gradient-20"/><linearGradient id="linear-gradient-39" x1="-2721.36" y1="86.65" x2="-2719.32" y2="209.01" xlink:href="#linear-gradient-20"/><linearGradient id="linear-gradient-40" x1="-2716.37" y1="86.56" x2="-2714.33" y2="208.94" xlink:href="#linear-gradient-20"/><linearGradient id="linear-gradient-41" x1="-2710.62" y1="86.45" x2="-2708.58" y2="208.85" xlink:href="#linear-gradient-20"/><linearGradient id="linear-gradient-42" x1="-2705.63" y1="86.38" x2="-2703.59" y2="208.76" xlink:href="#linear-gradient-20"/><linearGradient id="linear-gradient-43" x1="-2699.88" y1="86.28" x2="-2697.84" y2="208.66" xlink:href="#linear-gradient-20"/><linearGradient id="linear-gradient-44" x1="-2741.19" y1="86.97" x2="-2739.15" y2="209.35" xlink:href="#linear-gradient-20"/><linearGradient id="linear-gradient-45" x1="-2736.2" y1="86.9" x2="-2734.16" y2="209.26" xlink:href="#linear-gradient-20"/><linearGradient id="linear-gradient-46" x1="-2730.45" y1="86.78" x2="-2728.41" y2="209.19" xlink:href="#linear-gradient-20"/><linearGradient id="linear-gradient-47" x1="-2725.46" y1="86.71" x2="-2723.42" y2="209.09" xlink:href="#linear-gradient-20"/><linearGradient id="linear-gradient-48" x1="-2720.09" y1="86.63" x2="-2718.05" y2="208.99" xlink:href="#linear-gradient-20"/><linearGradient id="linear-gradient-49" x1="-2714.72" y1="86.52" x2="-2712.68" y2="208.92" xlink:href="#linear-gradient-20"/><linearGradient id="linear-gradient-50" x1="-2708.97" y1="86.44" x2="-2706.93" y2="208.81" xlink:href="#linear-gradient-20"/><linearGradient id="linear-gradient-51" x1="-2703.6" y1="86.34" x2="-2701.56" y2="208.73" xlink:href="#linear-gradient-20"/><linearGradient id="linear-gradient-52" x1="-2745.29" y1="87.06" x2="-2743.25" y2="209.41" xlink:href="#linear-gradient-20"/><linearGradient id="linear-gradient-53" x1="-2739.54" y1="86.93" x2="-2737.5" y2="209.33" xlink:href="#linear-gradient-20"/><linearGradient id="linear-gradient-54" x1="-2734.18" y1="86.82" x2="-2732.14" y2="209.25" xlink:href="#linear-gradient-20"/><linearGradient id="linear-gradient-55" x1="-2729.18" y1="86.77" x2="-2727.14" y2="209.15" xlink:href="#linear-gradient-20"/><linearGradient id="linear-gradient-56" x1="-2723.43" y1="86.68" x2="-2721.39" y2="209.05" xlink:href="#linear-gradient-20"/><linearGradient id="linear-gradient-57" x1="-2718.44" y1="86.59" x2="-2716.4" y2="208.97" xlink:href="#linear-gradient-20"/><linearGradient id="linear-gradient-58" x1="-2712.69" y1="86.5" x2="-2710.65" y2="208.87" xlink:href="#linear-gradient-20"/><linearGradient id="linear-gradient-59" x1="-2707.7" y1="86.42" x2="-2705.66" y2="208.79" xlink:href="#linear-gradient-20"/><linearGradient id="linear-gradient-60" x1="-2748.64" y1="87.11" x2="-2746.6" y2="209.47" xlink:href="#linear-gradient-20"/><linearGradient id="linear-gradient-61" x1="-2743.64" y1="87.02" x2="-2741.6" y2="209.39" xlink:href="#linear-gradient-20"/><linearGradient id="linear-gradient-62" x1="-2737.9" y1="86.94" x2="-2735.86" y2="209.29" xlink:href="#linear-gradient-20"/><linearGradient id="linear-gradient-63" x1="-2732.9" y1="86.84" x2="-2730.87" y2="209.21" xlink:href="#linear-gradient-20"/><linearGradient id="linear-gradient-64" x1="-2727.16" y1="86.72" x2="-2725.12" y2="209.12" xlink:href="#linear-gradient-20"/><linearGradient id="linear-gradient-65" x1="-2721.79" y1="86.66" x2="-2719.75" y2="209.02" xlink:href="#linear-gradient-20"/><linearGradient id="linear-gradient-66" x1="-2716.79" y1="86.58" x2="-2714.75" y2="208.94" xlink:href="#linear-gradient-20"/><linearGradient id="linear-gradient-67" x1="-2711.05" y1="86.47" x2="-2709.01" y2="208.84" xlink:href="#linear-gradient-20"/><linearGradient id="linear-gradient-68" x1="-2752.36" y1="87.16" x2="-2750.32" y2="209.53" xlink:href="#linear-gradient-20"/><linearGradient id="linear-gradient-69" x1="-2747.37" y1="87.07" x2="-2745.33" y2="209.45" xlink:href="#linear-gradient-20"/><linearGradient id="linear-gradient-70" x1="-2741.62" y1="86.99" x2="-2739.58" y2="209.36" xlink:href="#linear-gradient-20"/><linearGradient id="linear-gradient-71" x1="-2736.25" y1="86.9" x2="-2734.21" y2="209.26" xlink:href="#linear-gradient-20"/><linearGradient id="linear-gradient-72" x1="-2731.26" y1="86.82" x2="-2729.22" y2="209.18" xlink:href="#linear-gradient-20"/><linearGradient id="linear-gradient-73" x1="-2725.51" y1="86.72" x2="-2723.47" y2="209.09" xlink:href="#linear-gradient-20"/><linearGradient id="linear-gradient-74" x1="-2720.52" y1="86.61" x2="-2718.48" y2="209.01" xlink:href="#linear-gradient-20"/><linearGradient id="linear-gradient-75" x1="-2714.77" y1="86.54" x2="-2712.73" y2="208.91" xlink:href="#linear-gradient-20"/><linearGradient id="linear-gradient-76" x1="-2756.08" y1="87.23" x2="-2754.04" y2="209.6" xlink:href="#linear-gradient-20"/><linearGradient id="linear-gradient-77" x1="-2751.09" y1="87.14" x2="-2749.05" y2="209.51" xlink:href="#linear-gradient-20"/><linearGradient id="linear-gradient-78" x1="-2745.34" y1="87.05" x2="-2743.3" y2="209.42" xlink:href="#linear-gradient-20"/><linearGradient id="linear-gradient-79" x1="-2740.35" y1="86.95" x2="-2738.31" y2="209.34" xlink:href="#linear-gradient-20"/><linearGradient id="linear-gradient-80" x1="-2734.98" y1="86.89" x2="-2732.94" y2="209.25" xlink:href="#linear-gradient-20"/><linearGradient id="linear-gradient-81" x1="-2729.61" y1="86.76" x2="-2727.57" y2="209.16" xlink:href="#linear-gradient-20"/><linearGradient id="linear-gradient-82" x1="-2723.86" y1="86.68" x2="-2721.82" y2="209.06" xlink:href="#linear-gradient-20"/><linearGradient id="linear-gradient-83" x1="-2718.49" y1="86.57" x2="-2716.45" y2="208.97" xlink:href="#linear-gradient-20"/><linearGradient id="New_Gradient_Swatch_copy_13" x1="244.15" y1="136.54" x2="296.69" y2="120.81" gradientUnits="userSpaceOnUse"><stop offset="0.04" stop-color="#6b24d6"/><stop offset="0.29" stop-color="#7733dc"/><stop offset="0.79" stop-color="#975ced"/><stop offset="1" stop-color="#a56ef4"/></linearGradient><linearGradient id="New_Gradient_Swatch_copy_13-2" x1="-537.55" y1="142.75" x2="-474.6" y2="128.64" gradientTransform="matrix(-1, 0, 0, 1, -321.44, 0)" xlink:href="#New_Gradient_Swatch_copy_13"/><linearGradient id="linear-gradient-84" x1="215.56" y1="181.81" x2="215.56" y2="217.31" gradientUnits="userSpaceOnUse"><stop offset="0" stop-color="#f8299a"/><stop offset="0.1" stop-color="#c9217d"/><stop offset="0.23" stop-color="#94195c"/><stop offset="0.36" stop-color="#671140"/><stop offset="0.49" stop-color="#420b29"/><stop offset="0.62" stop-color="#250617"/><stop offset="0.75" stop-color="#10030a"/><stop offset="0.88" stop-color="#040103"/><stop offset="1"/></linearGradient><linearGradient id="linear-gradient-85" x1="215.56" y1="181.86" x2="215.56" y2="216.79" gradientUnits="userSpaceOnUse"><stop offset="0" stop-color="#f93a9b"/><stop offset="0.08" stop-color="#d63285"/><stop offset="0.22" stop-color="#9e2562"/><stop offset="0.36" stop-color="#6e1a44"/><stop offset="0.49" stop-color="#46102c"/><stop offset="0.63" stop-color="#270919"/><stop offset="0.76" stop-color="#12040b"/><stop offset="0.88" stop-color="#040103"/><stop offset="1"/></linearGradient><linearGradient id="linear-gradient-86" x1="215.56" y1="181.9" x2="215.56" y2="216.27" gradientUnits="userSpaceOnUse"><stop offset="0" stop-color="#f94b9c"/><stop offset="0.05" stop-color="#e4458f"/><stop offset="0.2" stop-color="#a9336a"/><stop offset="0.35" stop-color="#752349"/><stop offset="0.49" stop-color="#4b172f"/><stop offset="0.63" stop-color="#2a0d1b"/><stop offset="0.77" stop-color="#13060c"/><stop offset="0.89" stop-color="#050103"/><stop offset="1"/></linearGradient><linearGradient id="linear-gradient-87" x1="215.56" y1="181.95" x2="215.56" y2="215.75" gradientUnits="userSpaceOnUse"><stop offset="0" stop-color="#fa5c9e"/><stop offset="0.01" stop-color="#f55a9b"/><stop offset="0.17" stop-color="#b54373"/><stop offset="0.33" stop-color="#7e2e50"/><stop offset="0.49" stop-color="#511e33"/><stop offset="0.64" stop-color="#2e111d"/><stop offset="0.77" stop-color="#15080d"/><stop offset="0.9" stop-color="#050203"/><stop offset="1"/></linearGradient><linearGradient id="linear-gradient-88" x1="215.56" y1="181.99" x2="215.56" y2="215.23" gradientUnits="userSpaceOnUse"><stop offset="0" stop-color="#fb6d9f"/><stop offset="0.14" stop-color="#c3557c"/><stop offset="0.32" stop-color="#893b57"/><stop offset="0.48" stop-color="#582638"/><stop offset="0.64" stop-color="#32161f"/><stop offset="0.78" stop-color="#160a0e"/><stop offset="0.9" stop-color="#060304"/><stop offset="1"/></linearGradient><linearGradient id="linear-gradient-89" x1="215.56" y1="182.03" x2="215.56" y2="214.72" gradientUnits="userSpaceOnUse"><stop offset="0" stop-color="#fb7ea0"/><stop offset="0.1" stop-color="#d56b88"/><stop offset="0.29" stop-color="#954b5f"/><stop offset="0.47" stop-color="#60303d"/><stop offset="0.63" stop-color="#361b23"/><stop offset="0.78" stop-color="#190c10"/><stop offset="0.91" stop-color="#060304"/><stop offset="1"/></linearGradient><linearGradient id="linear-gradient-90" x1="215.56" y1="182.08" x2="215.56" y2="214.2" gradientUnits="userSpaceOnUse"><stop offset="0" stop-color="#fc8fa1"/><stop offset="0.05" stop-color="#eb8596"/><stop offset="0.25" stop-color="#a45d69"/><stop offset="0.45" stop-color="#6a3c44"/><stop offset="0.62" stop-color="#3c2226"/><stop offset="0.78" stop-color="#1b0f11"/><stop offset="0.91" stop-color="#070405"/><stop offset="1"/></linearGradient><linearGradient id="linear-gradient-91" x1="215.56" y1="182.12" x2="215.56" y2="213.68" gradientUnits="userSpaceOnUse"><stop offset="0" stop-color="#fca0a2"/><stop offset="0.21" stop-color="#b67475"/><stop offset="0.42" stop-color="#764b4c"/><stop offset="0.61" stop-color="#432b2b"/><stop offset="0.78" stop-color="#1f1314"/><stop offset="0.91" stop-color="#080505"/><stop offset="1"/></linearGradient><linearGradient id="linear-gradient-92" x1="215.56" y1="182.17" x2="215.56" y2="213.16" gradientUnits="userSpaceOnUse"><stop offset="0" stop-color="#fdb1a3"/><stop offset="0.14" stop-color="#cf9185"/><stop offset="0.38" stop-color="#865e56"/><stop offset="0.59" stop-color="#4c3531"/><stop offset="0.77" stop-color="#231816"/><stop offset="0.91" stop-color="#090706"/><stop offset="1"/></linearGradient><linearGradient id="linear-gradient-93" x1="215.56" y1="182.21" x2="215.56" y2="212.64" gradientUnits="userSpaceOnUse"><stop offset="0" stop-color="#fec2a5"/><stop offset="0.05" stop-color="#efb69b"/><stop offset="0.32" stop-color="#9b7665"/><stop offset="0.56" stop-color="#584439"/><stop offset="0.76" stop-color="#291f1a"/><stop offset="0.91" stop-color="#0b0807"/><stop offset="1"/></linearGradient><linearGradient id="linear-gradient-94" x1="215.56" y1="182.26" x2="215.56" y2="212.12" gradientUnits="userSpaceOnUse"><stop offset="0" stop-color="#fed3a6"/><stop offset="0.23" stop-color="#b79877"/><stop offset="0.51" stop-color="#695745"/><stop offset="0.74" stop-color="#302820"/><stop offset="0.91" stop-color="#0d0b09"/><stop offset="1"/></linearGradient><linearGradient id="linear-gradient-95" x1="215.56" y1="182.3" x2="215.56" y2="211.6" gradientUnits="userSpaceOnUse"><stop offset="0" stop-color="#ffe4a7"/><stop offset="0.1" stop-color="#e1ca94"/><stop offset="0.43" stop-color="#827455"/><stop offset="0.71" stop-color="#3c3627"/><stop offset="0.9" stop-color="#110f0b"/><stop offset="1"/></linearGradient><linearGradient id="linear-gradient-96" x1="206.47" y1="175.83" x2="224.53" y2="175.83" gradientUnits="userSpaceOnUse"><stop offset="0.02" stop-color="#45108a"/><stop offset="0.29" stop-color="#3d065f"/><stop offset="1" stop-color="#12054e"/><stop offset="1" stop-color="#10054d"/></linearGradient><linearGradient id="linear-gradient-97" x1="193.86" y1="161.86" x2="236.98" y2="161.86" gradientUnits="userSpaceOnUse"><stop offset="0" stop-color="#5c1ccc"/><stop offset="0.03" stop-color="#6323d0"/><stop offset="0.07" stop-color="#7538da"/><stop offset="0.12" stop-color="#9259ea"/><stop offset="0.14" stop-color="#a56ef4"/><stop offset="0.23" stop-color="#c994ff"/><stop offset="0.28" stop-color="#ae7af0"/><stop offset="0.38" stop-color="#7945d1"/><stop offset="0.54" stop-color="#4916a1"/><stop offset="0.62" stop-color="#4b17a4"/><stop offset="0.69" stop-color="#521aaf"/><stop offset="0.76" stop-color="#5d1ec1"/><stop offset="0.82" stop-color="#6b24d6"/><stop offset="0.94" stop-color="#5b1dbd"/><stop offset="1" stop-color="#531ab0"/></linearGradient><linearGradient id="linear-gradient-98" x1="181.07" y1="94.74" x2="249.6" y2="94.74" gradientUnits="userSpaceOnUse"><stop offset="0.01" stop-color="#c1a1d5"/><stop offset="0.04" stop-color="#c8abda"/><stop offset="0.1" stop-color="#dac6e6"/><stop offset="0.18" stop-color="#f7f2f9"/><stop offset="0.2" stop-color="#fff"/><stop offset="0.23" stop-color="#f9f5fb"/><stop offset="0.29" stop-color="#e9dbf2"/><stop offset="0.36" stop-color="#d1b4e3"/><stop offset="0.43" stop-color="#b395d6"/><stop offset="0.49" stop-color="#9c7dcb"/><stop offset="0.56" stop-color="#8e6ec5"/><stop offset="0.61" stop-color="#8969c3"/><stop offset="0.76" stop-color="#9471c6"/><stop offset="1" stop-color="#b086cc"/></linearGradient><linearGradient id="linear-gradient-99" x1="202.42" y1="37.44" x2="238.55" y2="52.07" gradientUnits="userSpaceOnUse"><stop offset="0" stop-color="#5c1ccc"/><stop offset="0.04" stop-color="#6323d0"/><stop offset="0.09" stop-color="#7538da"/><stop offset="0.16" stop-color="#9259ea"/><stop offset="0.19" stop-color="#a56ef4"/><stop offset="0.34" stop-color="#7945d1"/><stop offset="0.44" stop-color="#6d37c7"/><stop offset="0.6" stop-color="#5e27ba"/><stop offset="0.77" stop-color="#561db2"/><stop offset="1" stop-color="#531ab0"/></linearGradient><linearGradient id="linear-gradient-100" x1="231.42" y1="35.57" x2="184.76" y2="58.41" xlink:href="#linear-gradient-99"/><radialGradient id="radial-gradient-4" cx="215.56" cy="-2950.59" r="48.63" gradientTransform="translate(0 4815.69) scale(1 1.6)" gradientUnits="userSpaceOnUse"><stop offset="0.53" stop-color="#fff"/><stop offset="0.6" stop-color="#fbfafd"/><stop offset="0.68" stop-color="#efecf6"/><stop offset="0.76" stop-color="#dcd5ea"/><stop offset="0.85" stop-color="#c0b4da"/><stop offset="0.95" stop-color="#9e8bc5"/><stop offset="1" stop-color="#8770b8"/></radialGradient><radialGradient id="radial-gradient-5" cx="18359.38" cy="10244.19" r="58.15" gradientTransform="matrix(-0.22, 0.06, -0.24, -0.97, 6771.13, 9017.88)" gradientUnits="userSpaceOnUse"><stop offset="0" stop-color="#972a74"/><stop offset="0.02" stop-color="#8c276c"/><stop offset="0.11" stop-color="#671d4f"/><stop offset="0.21" stop-color="#471437"/><stop offset="0.32" stop-color="#2d0d23"/><stop offset="0.43" stop-color="#190713"/><stop offset="0.57" stop-color="#0b0308"/><stop offset="0.73" stop-color="#020102"/><stop offset="1"/></radialGradient><linearGradient id="linear-gradient-101" x1="190.21" y1="92.92" x2="208.84" y2="125.19" xlink:href="#linear-gradient-97"/><linearGradient id="linear-gradient-102" x1="182.61" y1="111.27" x2="208.59" y2="111.27" gradientUnits="userSpaceOnUse"><stop offset="0.04" stop-color="#a56ef4"/><stop offset="0.36" stop-color="#c994ff"/><stop offset="0.54" stop-color="#b379f5"/><stop offset="0.91" stop-color="#7935dc"/><stop offset="1" stop-color="#6b24d6"/></linearGradient><linearGradient id="New_Gradient_Swatch_copy_7" x1="202.78" y1="123.72" x2="188.01" y2="98.13" gradientUnits="userSpaceOnUse"><stop offset="0.04" stop-color="#138bbd"/><stop offset="0.23" stop-color="#169ac7"/><stop offset="0.59" stop-color="#1fc3df"/><stop offset="1" stop-color="#2af6ff"/></linearGradient><linearGradient id="White_Black" x1="185.37" y1="96.09" x2="198.99" y2="113.19" gradientUnits="userSpaceOnUse"><stop offset="0" stop-color="#fff"/><stop offset="1"/></linearGradient><linearGradient id="linear-gradient-103" x1="199.99" y1="125.78" x2="185.29" y2="100.33" gradientUnits="userSpaceOnUse"><stop offset="0" stop-color="#5c1ccc"/><stop offset="0.23" stop-color="#ba85ff"/><stop offset="0.38" stop-color="#7945d1"/><stop offset="0.54" stop-color="#4916a1"/><stop offset="0.61" stop-color="#4b17a4"/><stop offset="0.68" stop-color="#521aaf"/><stop offset="0.74" stop-color="#5d1ec1"/><stop offset="0.79" stop-color="#6b24d6"/><stop offset="0.93" stop-color="#5b1dbd"/><stop offset="1" stop-color="#531ab0"/></linearGradient><radialGradient id="Radial_Gradient_1" cx="198.15" cy="110.91" r="13.94" xlink:href="#White_Black"/><linearGradient id="linear-gradient-104" x1="179.23" y1="184.14" x2="197.11" y2="129.42" gradientUnits="userSpaceOnUse"><stop offset="0.2" stop-color="#7734dc"/><stop offset="0.39" stop-color="#8c4fe7"/><stop offset="0.59" stop-color="#a56ef4"/><stop offset="0.67" stop-color="#ba8aff"/><stop offset="0.8" stop-color="#a067f1"/><stop offset="1" stop-color="#9155ea"/></linearGradient><linearGradient id="New_Gradient_Swatch_copy_13-3" x1="178.8" y1="165.61" x2="240.18" y2="147.23" xlink:href="#New_Gradient_Swatch_copy_13"/><radialGradient id="Radial_Gradient_1-2" cx="-281.15" cy="-464.99" r="23" gradientTransform="translate(448.94 571.13) scale(0.89)" xlink:href="#White_Black"/><linearGradient id="linear-gradient-105" x1="246.37" y1="166.83" x2="236.62" y2="137.98" gradientUnits="userSpaceOnUse"><stop offset="0.04" stop-color="#6b24d6"/><stop offset="0.19" stop-color="#7733dc"/><stop offset="0.2" stop-color="#7734dc"/><stop offset="0.39" stop-color="#8c4fe7"/><stop offset="0.59" stop-color="#a56ef4"/><stop offset="0.67" stop-color="#ba8aff"/><stop offset="0.8" stop-color="#a067f1"/><stop offset="1" stop-color="#9155ea"/></linearGradient><linearGradient id="New_Gradient_Swatch_copy_13-4" x1="-510.94" y1="173.4" x2="-415.13" y2="151.92" gradientTransform="matrix(-1, 0, 0, 1, -220.84, 0)" xlink:href="#New_Gradient_Swatch_copy_13"/><radialGradient id="Radial_Gradient_1-3" cx="234.3" cy="154.9" r="20.45" xlink:href="#White_Black"/></defs><g class="cls-1"><g id="Layer_2" data-name="Layer 2"><g id="_1" data-name=" 1"><path class="cls-2" d="M165,348.9l-93-53.71c-4.1-2.36-6.46-5.55-6.46-8.72,0-2.66,1.65-5.07,4.64-6.8L234,185a23,23,0,0,1,11.24-2.6,29.88,29.88,0,0,1,14.56,3.65l93,53.71c4.1,2.36,6.45,5.54,6.45,8.72,0,2.66-1.64,5.07-4.64,6.8L190.74,350a23,23,0,0,1-11.24,2.6A29.84,29.84,0,0,1,165,348.9ZM234.56,186,70.65,280.61c-2.64,1.53-4.1,3.61-4.1,5.86,0,2.78,2.16,5.61,5.91,7.78l93,53.71a28.86,28.86,0,0,0,14,3.5A21.87,21.87,0,0,0,190.2,349l163.92-94.63c2.64-1.53,4.09-3.61,4.09-5.86,0-2.78-2.15-5.61-5.91-7.78l-93-53.71a28.87,28.87,0,0,0-14-3.49A21.76,21.76,0,0,0,234.56,186Z"/><g class="cls-3"><path class="cls-4" d="M179.5,341.79A31,31,0,0,0,195,338.06L358.9,243.43c5.64-3.26,8.88-8.42,8.88-14.15,0-6.28-3.9-12.14-10.7-16.06l-93-53.71a38.13,38.13,0,0,0-18.8-4.78,31,31,0,0,0-15.47,3.73L65.87,253.1c-5.65,3.26-8.89,8.42-8.89,14.15,0,6.28,3.9,12.13,10.7,16.06l93,53.71A38.09,38.09,0,0,0,179.5,341.79Z"/><path class="cls-5" d="M230.19,159.17,66.28,253.81c-5.63,3.25-8.55,8.41-8.18,14a17,17,0,0,0,.77,3.9c1.32,4.22,5.51,8.74,10.32,11.52l91.93,53.08A37.25,37.25,0,0,0,179.86,341a35.48,35.48,0,0,0,7.68-.94,30.37,30.37,0,0,0,7.65-3l163.3-94.27c5.62-3.25,8.55-8.39,8.21-14a16.57,16.57,0,0,0-1-4.52c-1.42-4-5.46-8.24-10.06-10.89l-91.7-53a36.92,36.92,0,0,0-4-2,38.76,38.76,0,0,0-14.5-2.87A30.35,30.35,0,0,0,230.19,159.17Z"/><path class="cls-6" d="M230.6,159.88,66.69,254.52c-5.62,3.24-8.22,8.39-7.48,13.84a20,20,0,0,0,1,3.73c1.31,3.76,6.16,8.57,10.49,11.07l90.83,52.44a36.51,36.51,0,0,0,18.68,4.51,35.81,35.81,0,0,0,7.62-1.07,35.45,35.45,0,0,0,7.58-3.12L358.08,242c5.59-3.23,8.22-8.35,7.53-13.79a17.68,17.68,0,0,0-1.21-4.31c-1.39-3.55-6-8.07-10.18-10.45l-90.38-52.18a36.58,36.58,0,0,0-18.18-4.9A29.67,29.67,0,0,0,230.6,159.88Z"/><path class="cls-7" d="M231,160.59,67.1,255.23c-5.6,3.24-7.9,8.37-6.77,13.69a21.77,21.77,0,0,0,1.21,3.54c1.28,3.31,6.82,8.4,10.67,10.62l89.73,51.8a35.57,35.57,0,0,0,18.63,4.38,34.86,34.86,0,0,0,7.55-1.2,41.2,41.2,0,0,0,7.5-3.21l162.05-93.56c5.56-3.21,7.9-8.3,6.86-13.6a20.5,20.5,0,0,0-1.45-4.1c-1.33-3.12-6.61-7.89-10.29-10l-89.06-51.42c-.93-.54-2.83-1.52-3.85-1.95a37.74,37.74,0,0,0-14-3A29,29,0,0,0,231,160.59Z"/><path class="cls-8" d="M231.42,161.3,67.51,255.94c-5.59,3.23-7.59,8.34-6.07,13.54a31.91,31.91,0,0,0,1.43,3.36c1.22,2.85,7.49,8.22,10.86,10.17l88.61,51.16a34.93,34.93,0,0,0,18.58,4.25,34,34,0,0,0,7.5-1.34,48.39,48.39,0,0,0,7.41-3.3l161.43-93.2c5.54-3.19,7.59-8.25,6.18-13.42a24.12,24.12,0,0,0-1.67-3.89c-1.26-2.69-7.2-7.71-10.41-9.57L263.62,163c-.82-.47-2.89-1.56-3.78-1.95A37.37,37.37,0,0,0,246.06,158,28.45,28.45,0,0,0,231.42,161.3Z"/><path class="cls-9" d="M231.83,162,67.92,256.65c-5.58,3.22-7.29,8.32-5.36,13.39.41,1.08,1.11,2,1.64,3.18,1.14,2.4,8.15,8,11,9.72l87.51,50.52a34.07,34.07,0,0,0,18.53,4.11,33.63,33.63,0,0,0,7.43-1.46,60.2,60.2,0,0,0,7.34-3.4l160.8-92.84c5.51-3.18,7.29-8.21,5.51-13.24a32.29,32.29,0,0,0-1.9-3.68c-1.16-2.26-7.78-7.54-10.53-9.13l-86.42-49.89c-.7-.41-2.95-1.61-3.71-2a36.77,36.77,0,0,0-13.55-3.11A27.67,27.67,0,0,0,231.83,162Z"/><path class="cls-10" d="M232.24,162.72,68.33,257.36c-5.56,3.21-7,8.3-4.65,13.24a14.48,14.48,0,0,0,1.85,3c.6,2.13,8.81,7.87,11.22,9.26l86.41,49.89A31.39,31.39,0,0,0,189,335.13a74.91,74.91,0,0,0,7.26-3.49l160.18-92.48c5.48-3.16,7-8.16,4.84-13.06a14,14,0,0,0-2.14-3.47c-.65-2-8.35-7.36-10.64-8.69l-85.1-49.13c-.59-.34-3-1.65-3.65-1.94a36.32,36.32,0,0,0-13.3-3.18A27.11,27.11,0,0,0,232.24,162.72Z"/><path class="cls-11" d="M232.65,163.44,68.74,258.07c-5.55,3.21-6.74,8.29-3.95,13.09A14.81,14.81,0,0,0,66.87,274c.47,1.71,9.46,7.69,11.39,8.81L163.57,332a30.32,30.32,0,0,0,25.73,2.11c1-.32,6.34-3.1,7.17-3.58L356,238.45c5.46-3.15,6.73-8.13,4.16-12.88a14.61,14.61,0,0,0-2.36-3.26c-.52-1.61-8.93-7.19-10.76-8.25l-83.79-48.37c-.46-.27-3.06-1.7-3.57-1.93a35.72,35.72,0,0,0-13.06-3.24C241.4,160.3,236.38,161.28,232.65,163.44Z"/><path class="cls-12" d="M233.06,164.15,69.15,258.78c-5.53,3.2-6.48,8.28-3.24,12.94a14.92,14.92,0,0,0,2.29,2.64c.35,1.28,10.13,7.52,11.57,8.35L164,331.33a29.47,29.47,0,0,0,25.61,1.85c.75-.26,6.48-3.32,7.1-3.68l158.93-91.76c5.43-3.13,6.47-8.1,3.49-12.7a15.06,15.06,0,0,0-2.59-3c-.4-1.21-9.51-7-10.89-7.81l-82.46-47.6c-.34-.21-3.12-1.75-3.5-1.93a35.12,35.12,0,0,0-12.82-3.3C241.69,161.1,236.72,162,233.06,164.15Z"/><path class="cls-13" d="M233.47,164.86,69.56,259.49c-5.52,3.19-6.23,8.29-2.54,12.79a15.87,15.87,0,0,0,2.51,2.46c.24.85,10.79,7.34,11.75,7.9l83.11,48a31.29,31.29,0,0,0,18.31,3.58,31.77,31.77,0,0,0,7.18-2c.5-.17,6.61-3.53,7-3.77L355.21,237c5.4-3.12,6.21-8.08,2.81-12.52a15.11,15.11,0,0,0-2.82-2.84c-.26-.8-10.08-6.83-11-7.37l-81.14-46.84c-.23-.13-3.18-1.8-3.43-1.92a34.39,34.39,0,0,0-12.58-3.36C242,161.9,237.06,162.78,233.47,164.86Z"/><path class="cls-14" d="M233.88,165.57,70,260.2c-5.51,3.18-6,8.31-1.83,12.64a17.06,17.06,0,0,0,2.72,2.28c.12.42,11.45,7.16,11.93,7.44l82,47.35a30.6,30.6,0,0,0,18.26,3.44,31.91,31.91,0,0,0,7.12-2.12c.25-.1,6.73-3.75,6.93-3.87l157.69-91c5.38-3.1,6-8.08,2.14-12.34a16.08,16.08,0,0,0-3.05-2.63c-.13-.4-10.66-6.66-11.12-6.92L263,168.34l-3.36-1.91A34,34,0,0,0,247.24,163C242.27,162.69,237.4,163.53,233.88,165.57Z"/><path d="M190.47,330.25l163.92-94.64c6.47-3.74,5.66-10.26-1.82-14.58l-93-53.71c-7.47-4.31-18.78-4.78-25.26-1L70.38,260.91c-6.47,3.74-5.66,10.27,1.81,14.59l93,53.7C172.69,333.52,184,334,190.47,330.25Z"/></g><path class="cls-15" d="M190.47,330.1l163.92-94.64c2.89-1.66,4.32-3.88,4.36-6.21,0-.08,0-8.05,0-8.12,0-2.84-2.14,2.08-6.18-.25l-93-53.71c-7.47-4.31-18.78-4.78-25.26-1L70.38,260.76c-2.16,1.25-3.73-4-4.29-2.36-.19.56-.07,8-.08,8.57-.06,2.9,2,6,6.18,8.37l93,53.71C172.69,333.37,184,333.84,190.47,330.1Z"/><path class="cls-16" d="M190.47,322.13l163.92-94.64c6.47-3.74,5.66-10.26-1.82-14.58l-93-53.71c-7.47-4.31-18.78-4.78-25.26-1L70.38,252.79c-6.47,3.74-5.66,10.27,1.81,14.59l93,53.7C172.69,325.4,184,325.87,190.47,322.13Z"/><path class="cls-17" d="M179.5,321.38a19.17,19.17,0,0,0,9.33-2.08l163.92-94.64c1-.59,2.73-1.83,2.73-3.5s-1.69-3.77-4.54-5.41l-93-53.71a26,26,0,0,0-12.65-3.13,19.17,19.17,0,0,0-9.33,2.08L72,255.63c-1,.59-2.74,1.83-2.74,3.5s1.7,3.77,4.55,5.41l93,53.71A26,26,0,0,0,179.5,321.38Z"/><path class="cls-18" d="M72.19,266l93,53.71c7.48,4.31,18.79,4.78,25.26,1l163.92-94.63c2.68-1.55,4.1-3.58,4.32-5.74.33,2.65-1.08,5.22-4.32,7.09L190.47,322.13c-6.47,3.74-17.78,3.27-25.26-1.05l-93-53.7c-4.37-2.53-6.45-5.81-6.13-8.85C66.39,261.17,68.46,263.87,72.19,266Z"/><path class="cls-19" d="M72.4,249.15l161.22-93.08a13.49,13.49,0,0,0,6.22-15.42L204.72,19.15a13.5,13.5,0,0,0-19.72-8L23.78,104.27a13.5,13.5,0,0,0-6.22,15.43L52.68,241.19A13.49,13.49,0,0,0,72.4,249.15Z"/><path class="cls-20" d="M74.66,249.15l161.21-93.08a13.49,13.49,0,0,0,6.23-15.42L207,19.15a13.5,13.5,0,0,0-19.72-8L26,104.27a13.52,13.52,0,0,0-6.23,15.43L54.94,241.19A13.49,13.49,0,0,0,74.66,249.15Z"/><path class="cls-21" d="M35.67,232.5.55,111A14,14,0,0,1,7,95L168.24,1.89a14,14,0,0,1,20.49,8.27l35.13,121.49a14,14,0,0,1-6.47,16L56.17,240.76a14,14,0,0,1-7,1.89A14.12,14.12,0,0,1,35.67,232.5ZM168.77,2.81,7.55,95.89a12.94,12.94,0,0,0-6,14.81L36.69,232.2a13,13,0,0,0,12.48,9.39,12.88,12.88,0,0,0,6.47-1.75l161.22-93.08a13,13,0,0,0,6-14.81L187.72,10.45a13.07,13.07,0,0,0-12.49-9.39A12.87,12.87,0,0,0,168.77,2.81Z"/><path class="cls-22" d="M67.93,246.45a8.78,8.78,0,0,0,4.47-1.21l161.22-93.08a9,9,0,0,0,4.14-10.27L202.64,20.4A9,9,0,0,0,194,13.89a8.92,8.92,0,0,0-4.48,1.21L28.29,108.18a9,9,0,0,0-4.14,10.27L59.27,240A9,9,0,0,0,67.93,246.45Z"/><path class="cls-23" d="M68.1,246.14a8.84,8.84,0,0,0,4.46-1.21l160.63-92.74A8.93,8.93,0,0,0,237.32,142l-35-121.13a9,9,0,0,0-8.62-6.49,8.84,8.84,0,0,0-4.46,1.21L28.58,108.29a9,9,0,0,0-4.13,10.24l35,121.13A9,9,0,0,0,68.1,246.14Z"/><path class="cls-24" d="M68.27,245.83a8.8,8.8,0,0,0,4.44-1.21l160.06-92.41A8.89,8.89,0,0,0,236.88,142L202,21.25a9,9,0,0,0-8.59-6.46A8.74,8.74,0,0,0,188.94,16L28.88,108.4a8.93,8.93,0,0,0-4.12,10.2L59.67,239.37A9,9,0,0,0,68.27,245.83Z"/><path class="cls-25" d="M68.44,245.51a8.69,8.69,0,0,0,4.42-1.2l159.48-92.07a8.87,8.87,0,0,0,4.1-10.16L201.63,21.68a9,9,0,0,0-8.56-6.44,8.76,8.76,0,0,0-4.42,1.2L29.17,108.52a8.86,8.86,0,0,0-4.1,10.15l34.8,120.4A9,9,0,0,0,68.44,245.51Z"/><path class="cls-26" d="M68.61,245.2A8.68,8.68,0,0,0,73,244l158.9-91.73A8.85,8.85,0,0,0,236,142.15l-34.7-120a8.92,8.92,0,0,0-8.53-6.42,8.73,8.73,0,0,0-4.41,1.2L29.46,108.63a8.86,8.86,0,0,0-4.09,10.12l34.7,120A8.93,8.93,0,0,0,68.61,245.2Z"/><path class="cls-27" d="M68.78,244.89a8.7,8.7,0,0,0,4.39-1.19l158.32-91.41a8.81,8.81,0,0,0,4.07-10.08L201,22.54a8.87,8.87,0,0,0-8.5-6.39,8.67,8.67,0,0,0-4.39,1.19L29.75,108.74a8.81,8.81,0,0,0-4.07,10.08l34.6,119.67A8.88,8.88,0,0,0,68.78,244.89Z"/><path class="cls-28" d="M69,244.57a8.69,8.69,0,0,0,4.37-1.18l157.74-91.07a8.78,8.78,0,0,0,4.06-10L200.63,23a8.86,8.86,0,0,0-8.47-6.36,8.7,8.7,0,0,0-4.38,1.18L30,108.85A8.78,8.78,0,0,0,26,118.9L60.48,238.2A8.85,8.85,0,0,0,69,244.57Z"/><path class="cls-29" d="M69.12,244.26a8.68,8.68,0,0,0,4.36-1.18l157.16-90.74a8.75,8.75,0,0,0,4-10L200.29,23.39a8.83,8.83,0,0,0-8.44-6.34,8.68,8.68,0,0,0-4.36,1.18L30.33,109a8.76,8.76,0,0,0-4,10L60.68,237.91A8.82,8.82,0,0,0,69.12,244.26Z"/><path class="cls-30" d="M69.29,243.94a8.57,8.57,0,0,0,4.34-1.17l156.58-90.4a8.72,8.72,0,0,0,4-10L200,23.82a8.78,8.78,0,0,0-8.4-6.32,8.62,8.62,0,0,0-4.35,1.18L30.62,109.07a8.72,8.72,0,0,0-4,10L60.88,237.62A8.78,8.78,0,0,0,69.29,243.94Z"/><path class="cls-31" d="M69.46,243.63a8.56,8.56,0,0,0,4.33-1.17l156-90.07a8.67,8.67,0,0,0,4-9.93L199.62,24.25a8.75,8.75,0,0,0-8.38-6.3,8.56,8.56,0,0,0-4.33,1.17l-156,90.07a8.67,8.67,0,0,0-4,9.93L61.08,237.33A8.75,8.75,0,0,0,69.46,243.63Z"/><path class="cls-32" d="M69.63,243.32a8.46,8.46,0,0,0,4.31-1.17l155.42-89.73a8.65,8.65,0,0,0,4-9.9L199.28,24.67a8.71,8.71,0,0,0-8.34-6.27,8.52,8.52,0,0,0-4.32,1.17L31.21,109.3a8.65,8.65,0,0,0-4,9.9L61.28,237A8.73,8.73,0,0,0,69.63,243.32Z"/><path class="cls-33" d="M69.8,243a8.48,8.48,0,0,0,4.29-1.16l154.84-89.39a8.63,8.63,0,0,0,4-9.87L199,25.1a8.7,8.7,0,0,0-8.32-6.25A8.39,8.39,0,0,0,186.34,20L31.5,109.41a8.62,8.62,0,0,0-4,9.86l34,117.48A8.69,8.69,0,0,0,69.8,243Z"/><path class="cls-18" d="M26,104.27,187.26,11.19a13.36,13.36,0,0,1,9.24-1.56,13.34,13.34,0,0,0-8.19,1.72L27.09,104.43a13.48,13.48,0,0,0-6.22,15.42L56,241.34a13.47,13.47,0,0,0,10.47,9.53,13.49,13.49,0,0,1-11.52-9.68L19.81,119.7A13.52,13.52,0,0,1,26,104.27Z"/><path class="cls-34" d="M224.55,179.93c-4.34,12.62,9.46,28.81,30.83,36.16s42.22,3.08,46.56-9.54-9.47-28.8-30.84-36.16S228.89,167.31,224.55,179.93Z"/><path class="cls-35" d="M161.34,287.27l133.11-76.85c2.67-1.54,2.33-4.23-.75-6l-50-28.86c-3.08-1.78-7.73-2-10.4-.43L100.22,252c-2.67,1.54-2.33,4.23.75,6l50,28.86C154,288.61,158.67,288.81,161.34,287.27Z"/><path class="cls-36" d="M240.83,178.92a4.33,4.33,0,0,0-3.92,0l-8.53,4.93a1.19,1.19,0,0,0,0,2.26,4.31,4.31,0,0,0,3.91,0l8.53-4.92C241.9,180.55,241.9,179.54,240.83,178.92Zm-14.61,8.43a4.28,4.28,0,0,0-3.91,0l-4,2.33c-1.09.63-1.09,1.64,0,2.26a4.31,4.31,0,0,0,3.91,0l4-2.33C227.29,189,227.3,188,226.22,187.35Zm-10.11,5.84a4.33,4.33,0,0,0-3.92,0l-4,2.33a1.19,1.19,0,0,0,0,2.26,4.33,4.33,0,0,0,3.92,0l4-2.33C217.18,194.82,217.19,193.81,216.11,193.19ZM206,199a4.31,4.31,0,0,0-3.91,0l-4,2.33a1.19,1.19,0,0,0,0,2.26,4.33,4.33,0,0,0,3.92,0l4-2.33C207.06,200.66,207.07,199.65,206,199Zm-10.11,5.84a4.33,4.33,0,0,0-3.92,0l-4,2.33a1.19,1.19,0,0,0,0,2.26,4.31,4.31,0,0,0,3.91,0l4.05-2.33C197,206.5,197,205.49,195.88,204.87Zm-10.12,5.84a4.31,4.31,0,0,0-3.91,0l-4,2.33a1.19,1.19,0,0,0,0,2.26,4.33,4.33,0,0,0,3.92,0l4-2.33C186.83,212.34,186.84,211.33,185.76,210.71Zm-10.11,5.84a4.33,4.33,0,0,0-3.92,0l-4,2.33a1.19,1.19,0,0,0,0,2.26,4.31,4.31,0,0,0,3.91,0l4-2.33C176.72,218.18,176.73,217.17,175.65,216.55Zm-10.12,5.84a4.31,4.31,0,0,0-3.91,0l-4,2.34c-1.09.63-1.09,1.64,0,2.26a4.33,4.33,0,0,0,3.92,0l4-2.33C166.6,224,166.61,223,165.53,222.39Zm-10.11,5.84a4.33,4.33,0,0,0-3.92,0l-4,2.33a1.19,1.19,0,0,0,0,2.26,4.31,4.31,0,0,0,3.91,0l4-2.33A1.2,1.2,0,0,0,155.42,228.23Zm-10.12,5.84a4.36,4.36,0,0,0-3.92,0l-4,2.34c-1.08.63-1.09,1.64,0,2.26a4.33,4.33,0,0,0,3.92,0l4-2.33C146.37,235.7,146.38,234.69,145.3,234.07Zm-10.11,5.84a4.36,4.36,0,0,0-3.92,0l-4,2.34a1.19,1.19,0,0,0,0,2.26,4.31,4.31,0,0,0,3.91,0l4.05-2.33C136.26,241.54,136.27,240.53,135.19,239.91Zm-10.12,5.84a4.31,4.31,0,0,0-3.91,0l-4,2.34a1.19,1.19,0,0,0,0,2.26,4.31,4.31,0,0,0,3.91,0l4-2.33C126.14,247.38,126.15,246.37,125.07,245.75Zm-10.32,6a4.33,4.33,0,0,0-3.92,0l-4,2.33a1.19,1.19,0,0,0,0,2.26,4.31,4.31,0,0,0,3.91,0l4-2.33C115.82,253.34,115.82,252.33,114.75,251.71Zm135.17-67.54-3.47-2a5,5,0,0,0-4.46,0l-3.5,2a1.36,1.36,0,0,0,0,2.57l3.48,2a4.91,4.91,0,0,0,4.45,0l3.5-2C251.14,186,251.16,184.88,249.92,184.17ZM236.3,194.6l3.49-2c1.24-.71,1.25-1.86,0-2.57l-3.47-2a4.94,4.94,0,0,0-4.46,0l-3.5,2c-1.24.71-1.24,1.87,0,2.57l3.47,2A4.94,4.94,0,0,0,236.3,194.6Zm-6.6,1.25-3.48-2a4.94,4.94,0,0,0-4.46,0l-3.49,2c-1.24.71-1.25,1.87,0,2.57l3.48,2a4.88,4.88,0,0,0,4.45,0l3.5-2C230.92,197.71,230.92,196.56,229.7,195.85Zm-10.12,5.84-3.48-2a4.94,4.94,0,0,0-4.46,0l-3.49,2a1.36,1.36,0,0,0,0,2.58l3.47,2a4.9,4.9,0,0,0,4.46,0l3.5-2C220.8,203.55,220.81,202.4,219.58,201.69ZM198,210.12l3.48,2a4.88,4.88,0,0,0,4.45,0l3.5-2c1.24-.71,1.24-1.86,0-2.57l-3.47-2a4.91,4.91,0,0,0-4.45,0l-3.5,2C196.8,208.26,196.79,209.41,198,210.12ZM187.9,216l3.48,2a4.9,4.9,0,0,0,4.46,0l3.5-2c1.23-.71,1.24-1.86,0-2.57l-3.48-2a4.91,4.91,0,0,0-4.45,0l-3.5,2C186.68,214.1,186.68,215.26,187.9,216Zm-10.11,5.84,3.48,2a4.91,4.91,0,0,0,4.45,0l3.5-2c1.24-.71,1.24-1.86,0-2.57l-3.47-2a5,5,0,0,0-4.46,0l-3.5,2C176.57,219.94,176.56,221.09,177.79,221.8Zm-10.12,5.84,3.48,2a4.94,4.94,0,0,0,4.46,0l3.5-2c1.23-.71,1.24-1.86,0-2.57l-3.48-2a4.91,4.91,0,0,0-4.45,0l-3.5,2C166.46,225.78,166.45,226.94,167.67,227.64Zm-10.11,5.84,3.48,2a4.91,4.91,0,0,0,4.45,0l3.5-2c1.24-.71,1.24-1.86,0-2.57l-3.48-2a4.94,4.94,0,0,0-4.46,0l-3.49,2C156.34,231.62,156.33,232.77,157.56,233.48Zm-10.11,5.84,3.47,2a4.9,4.9,0,0,0,4.46,0l3.5-2c1.23-.71,1.24-1.86,0-2.57l-3.48-2a4.91,4.91,0,0,0-4.45,0l-3.5,2C146.23,237.46,146.22,238.62,147.45,239.32Zm1.32,3.25-3.47-2a4.94,4.94,0,0,0-4.46,0l-3.5,2c-1.23.71-1.24,1.86,0,2.57l3.48,2a4.9,4.9,0,0,0,4.46,0l3.49-2C150,244.43,150,243.28,148.77,242.57ZM127.22,251l3.47,2a4.94,4.94,0,0,0,4.46,0l3.5-2a1.36,1.36,0,0,0,0-2.57l-3.48-2a4.91,4.91,0,0,0-4.45,0l-3.5,2C126,249.14,126,250.29,127.22,251Zm-14.82,8.56,3.48,2a4.88,4.88,0,0,0,4.45,0l8-4.61c1.23-.71,1.24-1.86,0-2.57l-3.48-2a5,5,0,0,0-4.46,0l-8,4.61C111.18,257.7,111.17,258.85,112.4,259.56Zm146.9-70-3.48-2a4.91,4.91,0,0,0-4.45,0l-8,4.61a1.36,1.36,0,0,0,0,2.58l3.48,2a4.88,4.88,0,0,0,4.45,0l8-4.61C260.52,191.44,260.52,190.29,259.3,189.58ZM244.69,198l-3.48-2a5,5,0,0,0-4.45,0l-3.5,2c-1.24.72-1.24,1.86,0,2.58l3.47,2a4.94,4.94,0,0,0,4.46,0l3.5-2C245.91,199.87,245.92,198.72,244.69,198Zm-10.13,8.41c1.24-.71,1.24-1.86,0-2.57l-3.47-2a4.94,4.94,0,0,0-4.46,0l-3.5,2a1.36,1.36,0,0,0,0,2.58l3.48,2a4.88,4.88,0,0,0,4.45,0Zm-10.11,5.84c1.23-.71,1.24-1.86,0-2.57l-3.47-2a5,5,0,0,0-4.46,0l-3.5,2c-1.24.72-1.24,1.87,0,2.58l3.48,2a4.9,4.9,0,0,0,4.46,0Zm-18,1.27-3.49,2c-1.24.71-1.25,1.87,0,2.57l3.48,2a4.9,4.9,0,0,0,4.46,0l3.49-2c1.23-.72,1.24-1.87,0-2.58l-3.47-2A4.94,4.94,0,0,0,206.41,213.53Zm-9.9,5.72-3.93,2.27a1.22,1.22,0,0,0,0,2.32l3.9,2.25a4.47,4.47,0,0,0,4,0l3.93-2.27c1.12-.65,1.12-1.69,0-2.33l-3.91-2.25A4.44,4.44,0,0,0,196.51,219.25Zm-10.11,5.84-3.93,2.27a1.22,1.22,0,0,0,0,2.32l3.9,2.25a4.44,4.44,0,0,0,4,0l3.93-2.27a1.23,1.23,0,0,0,0-2.33l-3.9-2.25A4.44,4.44,0,0,0,186.4,225.09Zm-10.11,5.84-3.93,2.27c-1.12.64-1.13,1.68,0,2.32l3.91,2.25a4.45,4.45,0,0,0,4,0l3.93-2.27a1.22,1.22,0,0,0,0-2.32l-3.9-2.26A4.42,4.42,0,0,0,176.29,230.93Zm-10.12,5.84L162.24,239a1.23,1.23,0,0,0,0,2.33l3.9,2.25a4.47,4.47,0,0,0,4,0l3.92-2.27a1.23,1.23,0,0,0,0-2.33l-3.9-2.25A4.44,4.44,0,0,0,166.17,236.77Zm-10.12,5.84-3.93,2.27a1.22,1.22,0,0,0,0,2.32l3.91,2.25a4.45,4.45,0,0,0,4,0l3.93-2.27a1.23,1.23,0,0,0,0-2.33l-3.9-2.25A4.44,4.44,0,0,0,156.05,242.61Zm-6.12,12.68,3.93-2.27a1.23,1.23,0,0,0,0-2.33L150,248.44a4.42,4.42,0,0,0-4,0L142,250.71c-1.12.65-1.12,1.69,0,2.33l3.91,2.25A4.47,4.47,0,0,0,149.93,255.29Zm-10.12,5.84,3.93-2.27c1.12-.65,1.12-1.69,0-2.33l-3.91-2.25a4.44,4.44,0,0,0-4,0l-3.93,2.26c-1.11.65-1.12,1.69,0,2.33l3.91,2.25A4.45,4.45,0,0,0,139.81,261.13Zm-18.25,3.71,3.9,2.25a4.44,4.44,0,0,0,4,0l3.93-2.27a1.23,1.23,0,0,0,0-2.33l-3.9-2.25a4.44,4.44,0,0,0-4,0l-3.93,2.27A1.22,1.22,0,0,0,121.56,264.84Zm147.32-69.73L265,192.86a4.42,4.42,0,0,0-4,0l-12.69,7.32a1.22,1.22,0,0,0,0,2.32l3.9,2.26a4.47,4.47,0,0,0,4,0l12.68-7.32C270,196.79,270,195.75,268.88,195.11ZM250,206l-3.9-2.25a4.47,4.47,0,0,0-4,0L238.15,206a1.22,1.22,0,0,0,0,2.32l3.91,2.26a4.5,4.5,0,0,0,4,0l3.93-2.27A1.23,1.23,0,0,0,250,206Zm-10.12,5.85-3.9-2.26a4.47,4.47,0,0,0-4,0L228,211.87c-1.12.64-1.13,1.68,0,2.32l3.91,2.26a4.42,4.42,0,0,0,4,0l3.93-2.27A1.22,1.22,0,0,0,239.89,211.85Zm-10.11,5.83-3.91-2.25a4.42,4.42,0,0,0-4,0l-3.93,2.27a1.22,1.22,0,0,0,0,2.32l3.9,2.26a4.47,4.47,0,0,0,4,0l3.93-2.27A1.23,1.23,0,0,0,229.78,217.68Zm-14.06,10.44,3.93-2.27a1.22,1.22,0,0,0,0-2.32l-3.9-2.26a4.47,4.47,0,0,0-4,0l-3.93,2.27a1.22,1.22,0,0,0,0,2.32l3.91,2.25A4.42,4.42,0,0,0,215.72,228.12ZM205.61,234l3.92-2.27c1.12-.64,1.13-1.69,0-2.32l-3.91-2.26a4.45,4.45,0,0,0-4,0l-3.93,2.27a1.22,1.22,0,0,0,0,2.32l3.91,2.26A4.47,4.47,0,0,0,205.61,234Zm-10.12,5.84,3.93-2.27a1.22,1.22,0,0,0,0-2.32l-3.9-2.26a4.44,4.44,0,0,0-4,0l-3.93,2.27a1.22,1.22,0,0,0,0,2.32l3.9,2.26A4.47,4.47,0,0,0,195.49,239.8Zm-10.11,5.84,3.93-2.27a1.23,1.23,0,0,0,0-2.33l-3.9-2.25a4.44,4.44,0,0,0-4,0l-3.92,2.27a1.22,1.22,0,0,0,0,2.32l3.9,2.26A4.47,4.47,0,0,0,185.38,245.64Zm-10.12,5.84,3.93-2.27a1.23,1.23,0,0,0,0-2.33l-3.9-2.25a4.47,4.47,0,0,0-4,0l-3.93,2.27a1.22,1.22,0,0,0,0,2.32l3.91,2.25A4.45,4.45,0,0,0,175.26,251.48Zm-10.11,5.84,3.93-2.27a1.22,1.22,0,0,0,0-2.32l-3.91-2.26a4.42,4.42,0,0,0-4,0l-3.93,2.27c-1.12.64-1.13,1.68,0,2.32l3.91,2.26A4.47,4.47,0,0,0,165.15,257.32ZM159,258.56l-3.9-2.25a4.44,4.44,0,0,0-4,0l-3.93,2.27a1.22,1.22,0,0,0,0,2.32l3.9,2.26a4.47,4.47,0,0,0,4,0l3.93-2.27A1.23,1.23,0,0,0,159,258.56Zm-28.05,11.69,3.91,2.25a4.44,4.44,0,0,0,4,0l10-5.77a1.22,1.22,0,0,0,0-2.32l-3.9-2.26a4.44,4.44,0,0,0-4,0l-10,5.77C129.82,268.57,129.81,269.61,130.92,270.25ZM278.21,200.5l-3.39-1.95a5,5,0,0,0-4.55,0l-18,10.38c-1.26.73-1.26,1.91,0,2.63l3.38,2a5,5,0,0,0,4.55,0l18-10.4A1.38,1.38,0,0,0,278.21,200.5ZM253.5,214.76l-3.38-1.95a5,5,0,0,0-4.55,0l-3.41,2c-1.25.73-1.26,1.91,0,2.63l3.39,2a5,5,0,0,0,4.54,0l3.41-2C254.75,216.66,254.75,215.49,253.5,214.76Zm-10.11,5.84L240,218.65a5,5,0,0,0-4.55,0l-3.41,2c-1.26.73-1.27,1.91,0,2.63l3.38,1.95a5,5,0,0,0,4.55,0l3.4-2C244.63,222.5,244.64,221.33,243.39,220.6Zm-10.12,5.84-3.38-1.95a5,5,0,0,0-4.55,0l-3.4,2c-1.26.73-1.27,1.91,0,2.63l3.39,1.95a5,5,0,0,0,4.54,0l3.41-2C234.52,228.34,234.53,227.17,233.27,226.44Zm-10.11,5.84-3.38-1.95a5,5,0,0,0-4.55,0l-3.41,2c-1.26.73-1.27,1.91,0,2.63l3.38,1.95a5,5,0,0,0,4.55,0l3.4-2C224.4,234.18,224.41,233,223.16,232.28ZM213,238.12l-3.38-2a5,5,0,0,0-4.55,0l-3.4,2c-1.26.73-1.27,1.91,0,2.63l3.38,1.95a5,5,0,0,0,4.55,0l3.41-2C214.29,240,214.3,238.85,213,238.12ZM202.93,244l-3.38-2a5.05,5.05,0,0,0-4.56,0l-3.4,2c-1.26.73-1.27,1.91,0,2.63l3.38,1.95a5,5,0,0,0,4.55,0l3.41-2C204.18,245.86,204.18,244.69,202.93,244Zm-10.12,5.84-3.38-2a5,5,0,0,0-4.55,0l-3.4,2c-1.26.73-1.27,1.91,0,2.63l3.38,2a5,5,0,0,0,4.55,0l3.41-2C194.06,251.7,194.07,250.53,192.81,249.8Zm-10.11,5.84-3.39-1.95a5,5,0,0,0-4.54,0l-3.41,2c-1.26.73-1.26,1.9,0,2.63l3.38,1.95a5,5,0,0,0,4.55,0l3.4-2C183.94,257.54,184,256.37,182.7,255.64Zm-10.12,5.84-3.38-2a5,5,0,0,0-4.55,0l-3.4,2c-1.27.73-1.27,1.91,0,2.63l3.38,1.95a5,5,0,0,0,4.55,0l3.41-2C173.83,263.38,173.83,262.21,172.58,261.48Zm-10.12,5.84-3.37-1.95a5.05,5.05,0,0,0-4.56,0l-3.4,2c-1.26.73-1.27,1.91,0,2.63l3.38,1.95a5,5,0,0,0,4.55,0l3.41-2C163.71,269.22,163.72,268,162.46,267.32Zm-21.68,8.62,3.38,1.95a5,5,0,0,0,4.55,0l3.41-2c1.25-.73,1.26-1.91,0-2.63l-3.37-2a5,5,0,0,0-4.55,0l-3.41,2C139.53,274,139.53,275.22,140.78,275.94Zm131-64.79,3.38,1.95a5,5,0,0,0,4.55,0l7.9-4.56c1.25-.72,1.26-1.9,0-2.62L284.2,204a5.05,5.05,0,0,0-4.56,0l-7.89,4.56C270.49,209.25,270.48,210.43,271.74,211.15ZM261.62,217l3.38,1.95a5.05,5.05,0,0,0,4.56,0l3.4-2c1.26-.73,1.26-1.91,0-2.63l-3.39-2a5,5,0,0,0-4.55,0l-3.4,2C260.37,215.09,260.37,216.26,261.62,217Zm-10.11,5.84,3.38,1.95a5,5,0,0,0,4.55,0l3.4-2c1.26-.73,1.27-1.91,0-2.63l-3.39-2a5,5,0,0,0-4.55,0l-3.4,2C250.26,220.93,250.25,222.1,251.51,222.83ZM180.7,263.71l3.39,2a5,5,0,0,0,4.54,0l64.1-37c1.26-.73,1.27-1.91,0-2.63l-3.38-2a5,5,0,0,0-4.55,0l-64.09,37C179.46,261.81,179.45,263,180.7,263.71Zm-10.11,5.84L174,271.5a5,5,0,0,0,4.55,0l3.4-2c1.27-.73,1.27-1.91,0-2.63L178.55,265a5,5,0,0,0-4.55,0l-3.4,2C169.34,267.65,169.33,268.82,170.59,269.55Zm-10.12,5.83,3.38,2a5,5,0,0,0,4.55,0l3.41-2c1.26-.73,1.26-1.91,0-2.63l-3.38-1.95a5,5,0,0,0-4.55,0l-3.41,2C159.22,273.49,159.22,274.66,160.47,275.38Zm-10.33,6,3.39,1.95a5,5,0,0,0,4.55,0l3.4-2c1.26-.73,1.27-1.91,0-2.63l-3.39-1.95a5,5,0,0,0-4.55,0l-3.4,2C148.9,279.45,148.89,280.62,150.14,281.35Z"/><path class="cls-37" d="M261.53,187.07l41-23.67c2.11-1.22,3.27-2.93,3.27-4.82,0-2.24-1.64-4.48-4.51-6.14l-47.44-27.39-.55,1,47.44,27.39c2.53,1.45,4,3.35,4,5.19,0,1.48-1,2.86-2.73,3.87l-41,23.67Z"/><path class="cls-38" d="M84.42,104.61l1.13-.68,2.63.64-.4,1.33-.94-.23-.62-.22.24.75.21.69,1.21,4.27-1.37.82Z"/><path class="cls-39" d="M78.7,109a3,3,0,0,1,1.42-2,1.69,1.69,0,0,1,2-.1,4.76,4.76,0,0,1,1.37,2.54,6.39,6.39,0,0,1,.23,3.17,3,3,0,0,1-1.42,2,1.69,1.69,0,0,1-2,.1,4.66,4.66,0,0,1-1.36-2.52A6.54,6.54,0,0,1,78.7,109Zm2.64-.55a.59.59,0,0,0-.86-.17,1.15,1.15,0,0,0-.52,1,6.91,6.91,0,0,0,.33,2.08,5.49,5.49,0,0,0,.77,1.81.61.61,0,0,0,.86.18,1.14,1.14,0,0,0,.53-1,6.9,6.9,0,0,0-.34-2.07A5.65,5.65,0,0,0,81.34,108.47Z"/><path class="cls-40" d="M73.57,111.09l1.13-.68,2.63.65-.4,1.33-.94-.24a4.43,4.43,0,0,1-.62-.22l.24.75.21.69L77,117.64l-1.38.82Z"/><path class="cls-41" d="M67.85,115.5a3,3,0,0,1,1.43-2,1.69,1.69,0,0,1,2-.1A4.81,4.81,0,0,1,72.62,116a6.5,6.5,0,0,1,.23,3.17,3,3,0,0,1-1.42,2,1.68,1.68,0,0,1-2,.1,4.56,4.56,0,0,1-1.37-2.52A6.41,6.41,0,0,1,67.85,115.5Zm2.64-.54a.6.6,0,0,0-.86-.18,1.15,1.15,0,0,0-.52,1,6.6,6.6,0,0,0,.34,2.08,5.43,5.43,0,0,0,.76,1.81.61.61,0,0,0,.86.18,1.15,1.15,0,0,0,.53-1,7.23,7.23,0,0,0-.34-2.06A5.47,5.47,0,0,0,70.49,115Z"/><path class="cls-42" d="M62.42,118.74a3,3,0,0,1,1.43-2,1.69,1.69,0,0,1,2-.1,4.73,4.73,0,0,1,1.38,2.55,6.49,6.49,0,0,1,.23,3.17,3,3,0,0,1-1.42,2,1.69,1.69,0,0,1-2,.1,4.62,4.62,0,0,1-1.37-2.52A6.53,6.53,0,0,1,62.42,118.74Zm2.65-.54a.61.61,0,0,0-.86-.18,1.16,1.16,0,0,0-.53,1A6.6,6.6,0,0,0,64,121.1a5.43,5.43,0,0,0,.76,1.81.62.62,0,0,0,.87.18,1.14,1.14,0,0,0,.52-1,6.59,6.59,0,0,0-.34-2.07A5.73,5.73,0,0,0,65.07,118.2Z"/><path class="cls-43" d="M57,122a3,3,0,0,1,1.42-2,1.71,1.71,0,0,1,2-.1,4.8,4.8,0,0,1,1.37,2.55,6.49,6.49,0,0,1,.23,3.17,3,3,0,0,1-1.42,2,1.72,1.72,0,0,1-2,.1,4.7,4.7,0,0,1-1.36-2.53A6.29,6.29,0,0,1,57,122Zm2.64-.54a.61.61,0,0,0-.86-.18,1.17,1.17,0,0,0-.52,1,6.82,6.82,0,0,0,.33,2.07,5.39,5.39,0,0,0,.77,1.81.61.61,0,0,0,.86.18,1.17,1.17,0,0,0,.53-1,7.34,7.34,0,0,0-.34-2.07A5.47,5.47,0,0,0,59.64,121.44Z"/><path class="cls-44" d="M51.87,124.06l1.13-.68,2.62.64-.39,1.33-.94-.23c-.11,0-.32-.11-.62-.23l.24.76.21.69,1.21,4.26-1.37.82Z"/><path class="cls-45" d="M46.44,127.29l1.13-.67,2.63.64-.4,1.33-.94-.23c-.11,0-.31-.11-.62-.23l.24.76.22.69,1.21,4.26-1.38.82Z"/><path class="cls-46" d="M87.64,118.17a3,3,0,0,1,1.43-2,1.67,1.67,0,0,1,2-.09,4.66,4.66,0,0,1,1.37,2.54,6.27,6.27,0,0,1,.23,3.17,3,3,0,0,1-1.42,2,1.71,1.71,0,0,1-2,.1,4.7,4.7,0,0,1-1.37-2.53A6.49,6.49,0,0,1,87.64,118.17Zm2.65-.55a.62.62,0,0,0-.87-.18,1.19,1.19,0,0,0-.52,1,6.59,6.59,0,0,0,.34,2.07,5.43,5.43,0,0,0,.76,1.81.62.62,0,0,0,.87.19,1.17,1.17,0,0,0,.52-1,6.67,6.67,0,0,0-.34-2.07A5.73,5.73,0,0,0,90.29,117.62Z"/><path class="cls-47" d="M82.51,120.24l1.13-.68,2.63.64-.4,1.33-.93-.23a6.29,6.29,0,0,1-.63-.22l.25.75.21.69L86,126.78l-1.38.82Z"/><path class="cls-48" d="M77.08,123.48l1.13-.68,2.64.64-.4,1.33-.94-.23a5,5,0,0,1-.62-.23l.24.76.21.69L80.55,130l-1.37.83Z"/><path class="cls-49" d="M71.37,127.89a3,3,0,0,1,1.42-2,1.69,1.69,0,0,1,2-.1,4.66,4.66,0,0,1,1.36,2.54,6.4,6.4,0,0,1,.24,3.17,3,3,0,0,1-1.43,2,1.69,1.69,0,0,1-2,.1,4.73,4.73,0,0,1-1.37-2.52A6.52,6.52,0,0,1,71.37,127.89Zm2.64-.55a.59.59,0,0,0-.86-.17,1.18,1.18,0,0,0-.53,1,7,7,0,0,0,.34,2.08,5.87,5.87,0,0,0,.76,1.81.62.62,0,0,0,.87.18,1.19,1.19,0,0,0,.53-1,7,7,0,0,0-.35-2.06A5.81,5.81,0,0,0,74,127.34Z"/><path class="cls-50" d="M66.23,130l1.13-.68,2.63.64-.39,1.34-.94-.24a5.56,5.56,0,0,1-.62-.22l.24.75.21.69,1.21,4.27-1.37.82Z"/><path class="cls-51" d="M60.81,133.2l1.13-.67,2.63.64-.4,1.33-.94-.24a4.43,4.43,0,0,1-.62-.22l.24.75.21.69,1.22,4.27-1.38.82Z"/><path class="cls-52" d="M55.09,137.61a3,3,0,0,1,1.42-2,1.71,1.71,0,0,1,2-.1,4.73,4.73,0,0,1,1.37,2.55,6.48,6.48,0,0,1,.24,3.16,3,3,0,0,1-1.43,2,1.68,1.68,0,0,1-2,.1,4.56,4.56,0,0,1-1.37-2.52A6.41,6.41,0,0,1,55.09,137.61Zm2.64-.54a.6.6,0,0,0-.86-.18,1.15,1.15,0,0,0-.52,1,6.6,6.6,0,0,0,.34,2.08,5.43,5.43,0,0,0,.76,1.81.61.61,0,0,0,.86.18,1.16,1.16,0,0,0,.53-1,6.9,6.9,0,0,0-.34-2.07A5.58,5.58,0,0,0,57.73,137.07Z"/><path class="cls-53" d="M49.66,140.85a3,3,0,0,1,1.43-2,1.69,1.69,0,0,1,2-.1,4.74,4.74,0,0,1,1.38,2.54,6.5,6.5,0,0,1,.23,3.17,3,3,0,0,1-1.43,2,1.69,1.69,0,0,1-2,.09A4.62,4.62,0,0,1,49.89,144,6.53,6.53,0,0,1,49.66,140.85Zm2.65-.54a.61.61,0,0,0-.86-.18,1.18,1.18,0,0,0-.53,1,6.91,6.91,0,0,0,.34,2.08A5.65,5.65,0,0,0,52,145a.62.62,0,0,0,.87.18,1.17,1.17,0,0,0,.53-1,7,7,0,0,0-.35-2.07A5.73,5.73,0,0,0,52.31,140.31Z"/><path class="cls-54" d="M91.46,129.38l1.12-.67,2.63.64-.39,1.33-.95-.24a5.59,5.59,0,0,1-.62-.22l.25.75.21.7,1.21,4.26-1.38.82Z"/><path class="cls-55" d="M85.74,133.8a3,3,0,0,1,1.42-2,1.69,1.69,0,0,1,2-.1,4.8,4.8,0,0,1,1.38,2.55,6.49,6.49,0,0,1,.23,3.17,3,3,0,0,1-1.43,2,1.71,1.71,0,0,1-2,.1A4.77,4.77,0,0,1,86,137,6.36,6.36,0,0,1,85.74,133.8Zm2.64-.55a.61.61,0,0,0-.86-.18,1.17,1.17,0,0,0-.53,1,6.9,6.9,0,0,0,.34,2.07A5.19,5.19,0,0,0,88.1,138a.6.6,0,0,0,.86.18,1.17,1.17,0,0,0,.53-1,7,7,0,0,0-.35-2.07A5.73,5.73,0,0,0,88.38,133.25Z"/><path class="cls-56" d="M80.6,135.86l1.13-.67,2.63.64-.4,1.33-.94-.23-.61-.23.23.76.22.69,1.21,4.26-1.38.82Z"/><path class="cls-57" d="M75.18,139.11l1.13-.68,2.63.64-.4,1.33-.94-.23a5,5,0,0,1-.62-.23l.24.76.21.69,1.21,4.26-1.37.82Z"/><path class="cls-58" d="M69.46,143.52a3,3,0,0,1,1.42-2,1.69,1.69,0,0,1,2-.09A4.72,4.72,0,0,1,74.23,144a6.5,6.5,0,0,1,.23,3.17,3,3,0,0,1-1.42,2,1.72,1.72,0,0,1-2,.1,4.7,4.7,0,0,1-1.36-2.53A6.37,6.37,0,0,1,69.46,143.52ZM72.1,143a.61.61,0,0,0-.86-.18,1.19,1.19,0,0,0-.52,1,6.6,6.6,0,0,0,.33,2.08,5.21,5.21,0,0,0,.77,1.8.6.6,0,0,0,.86.18,1.13,1.13,0,0,0,.53-1,6.89,6.89,0,0,0-.34-2.06A5.45,5.45,0,0,0,72.1,143Z"/><path class="cls-59" d="M64.32,145.59l1.14-.68,2.63.64-.4,1.33-.94-.23a5,5,0,0,1-.62-.23l.24.76.21.69,1.21,4.26-1.37.83Z"/><path class="cls-60" d="M58.61,150A3,3,0,0,1,60,148a1.69,1.69,0,0,1,2-.1,4.72,4.72,0,0,1,1.37,2.54,6.5,6.5,0,0,1,.23,3.17,3,3,0,0,1-1.42,2,1.71,1.71,0,0,1-2,.1,4.77,4.77,0,0,1-1.37-2.53A6.48,6.48,0,0,1,58.61,150Zm2.64-.55a.59.59,0,0,0-.86-.17,1.15,1.15,0,0,0-.52,1,6.6,6.6,0,0,0,.33,2.08,5.87,5.87,0,0,0,.76,1.81.61.61,0,0,0,.87.17,1.13,1.13,0,0,0,.53-1,7,7,0,0,0-.35-2.06A5.58,5.58,0,0,0,61.25,149.45Z"/><path class="cls-61" d="M53.47,152.07l1.14-.68,2.63.64-.4,1.34-.94-.24a6.4,6.4,0,0,1-.62-.22l.24.75.21.69,1.21,4.27-1.37.82Z"/><path class="cls-62" d="M95,141.77l1.13-.68,2.63.64-.4,1.34-.94-.24c-.11,0-.31-.1-.61-.22l.24.75.2.69,1.22,4.27-1.38.82Z"/><path class="cls-63" d="M89.25,146.18a3,3,0,0,1,1.43-2,1.69,1.69,0,0,1,2-.1A4.76,4.76,0,0,1,94,146.64a6.63,6.63,0,0,1,.23,3.17,3,3,0,0,1-1.43,2,1.69,1.69,0,0,1-2,.1,4.6,4.6,0,0,1-1.37-2.52A6.41,6.41,0,0,1,89.25,146.18Zm2.65-.55a.6.6,0,0,0-.86-.17,1.16,1.16,0,0,0-.53,1,6.64,6.64,0,0,0,.34,2.08,5.53,5.53,0,0,0,.76,1.81.61.61,0,0,0,.86.18,1.14,1.14,0,0,0,.53-1,6.59,6.59,0,0,0-.34-2.07A5.81,5.81,0,0,0,91.9,145.63Z"/><path class="cls-64" d="M84.12,148.25l1.13-.68,2.63.64-.4,1.34-.94-.24a4.94,4.94,0,0,1-.62-.22l.24.75.22.7,1.2,4.26-1.37.82Z"/><path class="cls-65" d="M78.4,152.66a3,3,0,0,1,1.43-2,1.69,1.69,0,0,1,2-.1,4.7,4.7,0,0,1,1.37,2.54,6.4,6.4,0,0,1,.24,3.17,3,3,0,0,1-1.43,2,1.71,1.71,0,0,1-2,.1,4.64,4.64,0,0,1-1.37-2.53A6.53,6.53,0,0,1,78.4,152.66Zm2.65-.54a.62.62,0,0,0-.87-.18,1.18,1.18,0,0,0-.52,1A6.63,6.63,0,0,0,80,155a5.43,5.43,0,0,0,.76,1.81.61.61,0,0,0,.86.18,1.13,1.13,0,0,0,.53-1,6.59,6.59,0,0,0-.34-2.07A5.73,5.73,0,0,0,81.05,152.12Z"/><path class="cls-66" d="M73,155.91a3,3,0,0,1,1.43-2,1.69,1.69,0,0,1,2-.1,4.73,4.73,0,0,1,1.38,2.55,6.46,6.46,0,0,1,.23,3.16,3,3,0,0,1-1.42,2,1.7,1.7,0,0,1-2,.09,4.69,4.69,0,0,1-1.37-2.52A6.49,6.49,0,0,1,73,155.91Zm2.65-.55a.61.61,0,0,0-.86-.18,1.17,1.17,0,0,0-.52,1,6.82,6.82,0,0,0,.33,2.07,5.19,5.19,0,0,0,.77,1.81.6.6,0,0,0,.86.18,1.15,1.15,0,0,0,.53-1,7,7,0,0,0-.35-2.07A5.73,5.73,0,0,0,75.62,155.36Z"/><path class="cls-67" d="M67.55,159.15a3,3,0,0,1,1.43-2,1.69,1.69,0,0,1,2-.1,4.8,4.8,0,0,1,1.37,2.55,6.37,6.37,0,0,1,.23,3.17,3,3,0,0,1-1.42,2,1.71,1.71,0,0,1-2,.1,4.64,4.64,0,0,1-1.37-2.53A6.37,6.37,0,0,1,67.55,159.15Zm2.65-.55a.61.61,0,0,0-.87-.18,1.19,1.19,0,0,0-.52,1,6.59,6.59,0,0,0,.34,2.07,5.43,5.43,0,0,0,.76,1.81.62.62,0,0,0,.87.18,1.14,1.14,0,0,0,.52-1,7,7,0,0,0-.34-2.07A5.73,5.73,0,0,0,70.2,158.6Z"/><path class="cls-68" d="M62.42,161.21l1.13-.67,2.63.64-.4,1.33-.94-.23a5,5,0,0,1-.62-.23l.24.76.21.69,1.21,4.26-1.37.82Z"/><path class="cls-69" d="M57,164.46l1.13-.68,2.63.64-.39,1.33-.94-.23a4.44,4.44,0,0,1-.62-.23l.24.76.21.69L60.46,171l-1.37.82Z"/><path class="cls-70" d="M98.2,155.33a3,3,0,0,1,1.42-2,1.67,1.67,0,0,1,2-.09,4.66,4.66,0,0,1,1.38,2.54,6.5,6.5,0,0,1,.23,3.17,3,3,0,0,1-1.43,2,1.71,1.71,0,0,1-2,.1,4.7,4.7,0,0,1-1.37-2.53A6.36,6.36,0,0,1,98.2,155.33Zm2.64-.55a.61.61,0,0,0-.86-.18,1.15,1.15,0,0,0-.52,1,6.6,6.6,0,0,0,.33,2.08,5.41,5.41,0,0,0,.77,1.8.61.61,0,0,0,.86.18,1.16,1.16,0,0,0,.53-1,7,7,0,0,0-.35-2.06A5.48,5.48,0,0,0,100.84,154.78Z"/><path class="cls-71" d="M93.06,157.39l1.13-.67,2.63.64-.4,1.34-.94-.24c-.11,0-.31-.1-.61-.22l.24.75.21.69L96.53,164l-1.38.82Z"/><path class="cls-72" d="M87.64,160.64l1.13-.68,2.63.64-.4,1.33-.94-.23a5,5,0,0,1-.62-.23l.24.76.21.69,1.21,4.27-1.37.82Z"/><path class="cls-73" d="M81.92,165.05a3,3,0,0,1,1.42-2,1.71,1.71,0,0,1,2-.09,4.72,4.72,0,0,1,1.37,2.54,6.5,6.5,0,0,1,.23,3.17,3,3,0,0,1-1.42,2,1.68,1.68,0,0,1-2,.1,4.6,4.6,0,0,1-1.37-2.52A6.42,6.42,0,0,1,81.92,165.05Zm2.64-.54a.6.6,0,0,0-.86-.19,1.18,1.18,0,0,0-.52,1,6.68,6.68,0,0,0,.34,2.08,5.32,5.32,0,0,0,.76,1.81.61.61,0,0,0,.86.18,1.17,1.17,0,0,0,.53-1,6.65,6.65,0,0,0-.35-2.06A5.21,5.21,0,0,0,84.56,164.51Z"/><path class="cls-74" d="M76.78,167.12l1.13-.68,2.64.64-.4,1.34-.94-.24a4,4,0,0,1-.62-.22l.24.75.21.69,1.21,4.27-1.37.82Z"/><path class="cls-75" d="M71.07,171.53a3,3,0,0,1,1.42-2,1.68,1.68,0,0,1,2-.1A4.66,4.66,0,0,1,75.84,172a6.5,6.5,0,0,1,.23,3.17,3,3,0,0,1-1.43,2,1.68,1.68,0,0,1-2,.1,4.69,4.69,0,0,1-1.37-2.52A6.51,6.51,0,0,1,71.07,171.53Zm2.64-.54a.59.59,0,0,0-.86-.18,1.17,1.17,0,0,0-.52,1,6.91,6.91,0,0,0,.33,2.08,5.49,5.49,0,0,0,.77,1.81.61.61,0,0,0,.86.18,1.16,1.16,0,0,0,.53-1,6.9,6.9,0,0,0-.34-2.07A5.82,5.82,0,0,0,73.71,171Z"/><path class="cls-76" d="M65.94,173.6l1.12-.67,2.63.63-.39,1.34-.94-.23c-.11,0-.32-.11-.62-.23l.24.75.21.69,1.21,4.27L68,181Z"/><path class="cls-77" d="M60.22,178a3,3,0,0,1,1.42-2,1.71,1.71,0,0,1,2-.1A4.76,4.76,0,0,1,65,178.47a6.5,6.5,0,0,1,.23,3.17,3,3,0,0,1-1.42,2,1.7,1.7,0,0,1-2,.09,4.62,4.62,0,0,1-1.36-2.52A6.41,6.41,0,0,1,60.22,178Zm2.64-.54a.61.61,0,0,0-.86-.18,1.15,1.15,0,0,0-.52,1,6.83,6.83,0,0,0,.33,2.08,5.49,5.49,0,0,0,.77,1.81.61.61,0,0,0,.86.18,1.17,1.17,0,0,0,.53-1,6.66,6.66,0,0,0-.35-2.07A5.51,5.51,0,0,0,62.86,177.47Z"/><path class="cls-78" d="M102,166.54l1.12-.67,2.64.64-.4,1.33-.94-.23c-.11,0-.32-.11-.62-.23l.24.75.21.7,1.21,4.26-1.37.82Z"/><path class="cls-79" d="M96.29,171a3,3,0,0,1,1.42-2,1.71,1.71,0,0,1,2-.1,4.8,4.8,0,0,1,1.37,2.55,6.37,6.37,0,0,1,.23,3.17,3,3,0,0,1-1.42,2,1.69,1.69,0,0,1-2,.11,4.7,4.7,0,0,1-1.38-2.53A6.48,6.48,0,0,1,96.29,171Zm2.64-.55a.61.61,0,0,0-.86-.18,1.17,1.17,0,0,0-.52,1,6.3,6.3,0,0,0,.34,2.07,5,5,0,0,0,.76,1.81.61.61,0,0,0,.86.18,1.15,1.15,0,0,0,.53-1,7,7,0,0,0-.35-2.07A5.51,5.51,0,0,0,98.93,170.41Z"/><path class="cls-80" d="M91.15,173l1.13-.67,2.63.64-.39,1.33-.94-.23a5,5,0,0,1-.62-.23l.24.76.21.69,1.21,4.26-1.37.82Z"/><path class="cls-81" d="M85.44,177.44a3,3,0,0,1,1.42-2,1.69,1.69,0,0,1,2-.09,4.72,4.72,0,0,1,1.37,2.54,6.49,6.49,0,0,1,.23,3.17A3,3,0,0,1,89,183a1.72,1.72,0,0,1-2,.1,4.77,4.77,0,0,1-1.37-2.53A6.36,6.36,0,0,1,85.44,177.44Zm2.64-.55a.61.61,0,0,0-.86-.18,1.17,1.17,0,0,0-.52,1,6.51,6.51,0,0,0,.33,2.07,5.65,5.65,0,0,0,.76,1.81.61.61,0,0,0,.87.18,1.15,1.15,0,0,0,.53-1,7.07,7.07,0,0,0-.35-2.07A5.51,5.51,0,0,0,88.08,176.89Z"/><path class="cls-82" d="M80.31,179.5l1.12-.67,2.63.64-.4,1.33-.93-.23c-.11,0-.32-.11-.62-.23l.24.76.21.69,1.21,4.26-1.38.83Z"/><path class="cls-83" d="M74.88,182.75l1.13-.68,2.63.64-.4,1.33-.94-.23a6.4,6.4,0,0,1-.62-.22l.24.75.21.69,1.21,4.26-1.37.83Z"/><path class="cls-84" d="M69.16,187.16a3,3,0,0,1,1.42-2,1.69,1.69,0,0,1,2-.09,4.66,4.66,0,0,1,1.37,2.54,6.38,6.38,0,0,1,.23,3.17,3,3,0,0,1-1.42,2,1.69,1.69,0,0,1-2,.1,4.64,4.64,0,0,1-1.37-2.52A6.42,6.42,0,0,1,69.16,187.16Zm2.64-.55a.59.59,0,0,0-.86-.17,1.16,1.16,0,0,0-.52,1,6.64,6.64,0,0,0,.34,2.08,5.41,5.41,0,0,0,.76,1.81.61.61,0,0,0,.86.18,1.17,1.17,0,0,0,.53-1,6.65,6.65,0,0,0-.35-2.06A5.37,5.37,0,0,0,71.8,186.61Z"/><path class="cls-85" d="M64,189.23l1.13-.68,2.63.64-.4,1.33-.94-.23a6.4,6.4,0,0,1-.62-.22l.24.75.21.69,1.21,4.27-1.37.82Z"/><path class="cls-86" d="M105.52,178.93l1.13-.68,2.63.64-.39,1.34L108,180c-.11,0-.32-.1-.63-.22l.25.75.21.69,1.21,4.27-1.38.82Z"/><path class="cls-87" d="M99.8,183.34a3,3,0,0,1,1.43-2,1.68,1.68,0,0,1,2-.1,4.7,4.7,0,0,1,1.38,2.54,6.5,6.5,0,0,1,.23,3.17,3,3,0,0,1-1.43,2,1.68,1.68,0,0,1-2,.1,4.73,4.73,0,0,1-1.37-2.52A6.53,6.53,0,0,1,99.8,183.34Zm2.65-.55a.59.59,0,0,0-.86-.17,1.18,1.18,0,0,0-.53,1,6.64,6.64,0,0,0,.34,2.08,5.76,5.76,0,0,0,.76,1.81.62.62,0,0,0,.87.18,1.15,1.15,0,0,0,.52-1,6.59,6.59,0,0,0-.34-2.07A5.58,5.58,0,0,0,102.45,182.79Z"/><path class="cls-88" d="M94.67,185.41l1.13-.67,2.64.64-.4,1.33-.94-.24a4.41,4.41,0,0,1-.63-.22l.25.75.21.7,1.2,4.26-1.36.82Z"/><path class="cls-89" d="M89.25,188.65l1.12-.67,2.64.64-.4,1.33-.94-.24a4.43,4.43,0,0,1-.62-.22l.24.75.21.7,1.21,4.26-1.37.82Z"/><path class="cls-90" d="M83.53,193.06a3,3,0,0,1,1.42-2,1.71,1.71,0,0,1,2-.1,4.8,4.8,0,0,1,1.37,2.55,6.49,6.49,0,0,1,.23,3.17,3,3,0,0,1-1.42,2,1.7,1.7,0,0,1-2,.09,4.62,4.62,0,0,1-1.36-2.52A6.41,6.41,0,0,1,83.53,193.06Zm2.64-.54a.61.61,0,0,0-.86-.18,1.17,1.17,0,0,0-.52,1,6.51,6.51,0,0,0,.33,2.07,5.39,5.39,0,0,0,.77,1.81.61.61,0,0,0,.86.18,1.15,1.15,0,0,0,.53-1,6.7,6.7,0,0,0-.35-2.07A5.3,5.3,0,0,0,86.17,192.52Z"/><path class="cls-91" d="M78.39,195.13l1.13-.67,2.63.64-.39,1.33-.94-.23c-.11,0-.32-.11-.62-.23l.24.75.21.7,1.21,4.26-1.37.82Z"/><path class="cls-92" d="M72.68,199.54a3,3,0,0,1,1.42-2,1.71,1.71,0,0,1,2-.1A4.8,4.8,0,0,1,77.45,200a6.5,6.5,0,0,1,.23,3.17,3,3,0,0,1-1.42,2,1.72,1.72,0,0,1-2,.1,4.7,4.7,0,0,1-1.36-2.53A6.29,6.29,0,0,1,72.68,199.54Zm2.64-.54a.61.61,0,0,0-.86-.18,1.17,1.17,0,0,0-.52,1,6.82,6.82,0,0,0,.33,2.07,5.39,5.39,0,0,0,.77,1.81.61.61,0,0,0,.86.18,1.15,1.15,0,0,0,.53-1,6.75,6.75,0,0,0-.35-2.07A5.51,5.51,0,0,0,75.32,199Z"/><path class="cls-93" d="M67.54,201.62l1.13-.68,2.63.64-.39,1.33-.94-.23a5,5,0,0,1-.62-.23l.24.76.21.69L71,208.16l-1.37.82Z"/><path class="cls-94" d="M109,191.32l1.13-.68,2.63.64-.4,1.33-.94-.23a6.55,6.55,0,0,1-.62-.23l.24.76.22.69,1.21,4.26-1.38.82Z"/><path class="cls-95" d="M103.32,195.73a3,3,0,0,1,1.43-2,1.66,1.66,0,0,1,2-.1,4.66,4.66,0,0,1,1.37,2.54,6.4,6.4,0,0,1,.24,3.17,3,3,0,0,1-1.43,2,1.71,1.71,0,0,1-2,.1,4.64,4.64,0,0,1-1.37-2.52A6.54,6.54,0,0,1,103.32,195.73Zm2.65-.55a.62.62,0,0,0-.87-.18,1.19,1.19,0,0,0-.52,1,7,7,0,0,0,.34,2.08,5.24,5.24,0,0,0,.76,1.8.6.6,0,0,0,.86.19,1.16,1.16,0,0,0,.53-1,7,7,0,0,0-.34-2.07A5.84,5.84,0,0,0,106,195.18Z"/><path class="cls-96" d="M98.19,197.8l1.13-.68,2.63.64-.4,1.33-.93-.23a4.42,4.42,0,0,1-.63-.23l.24.76.22.69,1.21,4.27-1.38.82Z"/><path class="cls-97" d="M92.47,202.21a3,3,0,0,1,1.43-2,1.68,1.68,0,0,1,2-.1,4.66,4.66,0,0,1,1.37,2.54,6.38,6.38,0,0,1,.23,3.17,3,3,0,0,1-1.42,2,1.69,1.69,0,0,1-2,.1,4.7,4.7,0,0,1-1.37-2.52A6.54,6.54,0,0,1,92.47,202.21Zm2.65-.54a.59.59,0,0,0-.86-.18,1.16,1.16,0,0,0-.53,1,6.64,6.64,0,0,0,.34,2.08,5.63,5.63,0,0,0,.76,1.81.61.61,0,0,0,.86.18,1.14,1.14,0,0,0,.53-1,6.89,6.89,0,0,0-.34-2.06A5.62,5.62,0,0,0,95.12,201.67Z"/><path class="cls-98" d="M87,205.45a3,3,0,0,1,1.43-2,1.69,1.69,0,0,1,2-.1,4.59,4.59,0,0,1,1.37,2.54,6.4,6.4,0,0,1,.24,3.17,3,3,0,0,1-1.43,2,1.69,1.69,0,0,1-2,.1,4.69,4.69,0,0,1-1.37-2.52A6.66,6.66,0,0,1,87,205.45Zm2.65-.54a.6.6,0,0,0-.86-.18,1.17,1.17,0,0,0-.53,1,6.68,6.68,0,0,0,.34,2.08,5.76,5.76,0,0,0,.76,1.81.62.62,0,0,0,.87.18,1.19,1.19,0,0,0,.53-1,7.23,7.23,0,0,0-.34-2.06A5.82,5.82,0,0,0,89.69,204.91Z"/><path class="cls-99" d="M81.62,208.69a3,3,0,0,1,1.42-2,1.69,1.69,0,0,1,2-.1,4.8,4.8,0,0,1,1.37,2.55,6.34,6.34,0,0,1,.23,3.16,2.94,2.94,0,0,1-1.42,2,1.68,1.68,0,0,1-2,.1,4.56,4.56,0,0,1-1.37-2.52A6.41,6.41,0,0,1,81.62,208.69Zm2.65-.54a.61.61,0,0,0-.87-.18,1.17,1.17,0,0,0-.52,1,6.6,6.6,0,0,0,.34,2.08,5.22,5.22,0,0,0,.76,1.81.61.61,0,0,0,.86.18,1.14,1.14,0,0,0,.53-1A6.59,6.59,0,0,0,85,210,5.62,5.62,0,0,0,84.27,208.15Z"/><path class="cls-100" d="M76.49,210.76l1.13-.67,2.63.63-.4,1.34-.94-.24a4.43,4.43,0,0,1-.62-.22l.24.75.21.69L80,217.31l-1.38.82Z"/><path class="cls-101" d="M71.06,214l1.13-.67,2.63.64-.39,1.33-1-.24a4.45,4.45,0,0,1-.61-.22l.24.75.21.7,1.21,4.26-1.38.82Z"/><path class="cls-102" d="M237.34,143.15l19.26,10.26v-13a10.06,10.06,0,0,0-1-4.69l-8.31-15.83c-1.8-3.4-5.67-4-9.93-1.55h0Z"/><path class="cls-103" d="M193.78,143.15l-19.26,10.26v-13a10.06,10.06,0,0,1,1-4.69l8.32-15.83c1.79-3.4,5.67-4,9.93-1.55h0Z"/><path class="cls-104" d="M225.79,187c0,10.9-4.58,39.43-10.23,39.43S205.32,197.94,205.32,187c0-9.59,4.58-11.9,10.24-11.9S225.79,177.45,225.79,187Z"/><path class="cls-105" d="M225.25,186.91c0,10.64-4.34,38.9-9.69,38.9s-9.69-28.26-9.69-38.9c0-9.36,4.34-11.62,9.69-11.62S225.25,177.55,225.25,186.91Z"/><path class="cls-106" d="M224.7,186.78c0,10.38-4.09,38.37-9.14,38.37s-9.15-28-9.15-38.37c0-9.14,4.1-11.34,9.15-11.34S224.7,177.64,224.7,186.78Z"/><path class="cls-107" d="M224.16,186.65c0,10.12-3.85,37.83-8.6,37.83s-8.6-27.71-8.6-37.83c0-8.91,3.85-11.06,8.6-11.06S224.16,177.74,224.16,186.65Z"/><path class="cls-108" d="M223.61,186.51c0,9.87-3.61,37.31-8.05,37.31s-8.05-27.44-8.05-37.31c0-8.68,3.6-10.77,8.05-10.77S223.61,177.83,223.61,186.51Z"/><path class="cls-109" d="M223.06,186.38c0,9.61-3.36,36.77-7.5,36.77s-7.51-27.16-7.51-36.77c0-8.45,3.36-10.49,7.51-10.49S223.06,177.93,223.06,186.38Z"/><path class="cls-110" d="M222.52,186.25c0,9.34-3.12,36.24-7,36.24s-7-26.9-7-36.24c0-8.23,3.12-10.21,7-10.21S222.52,178,222.52,186.25Z"/><path class="cls-111" d="M222,186.12c0,9.08-2.87,35.7-6.41,35.7s-6.41-26.62-6.41-35.7c0-8,2.87-9.93,6.41-9.93S222,178.12,222,186.12Z"/><path class="cls-112" d="M221.42,186c0,8.83-2.62,35.18-5.86,35.18s-5.87-26.35-5.87-35.18c0-7.77,2.63-9.64,5.87-9.64S221.42,178.21,221.42,186Z"/><path class="cls-113" d="M220.88,185.85c0,8.57-2.39,34.65-5.32,34.65s-5.32-26.08-5.32-34.65c0-7.54,2.38-9.36,5.32-9.36S220.88,178.31,220.88,185.85Z"/><path class="cls-114" d="M220.33,185.72c0,8.31-2.14,34.11-4.77,34.11s-4.77-25.8-4.77-34.11c0-7.31,2.13-9.08,4.77-9.08S220.33,178.41,220.33,185.72Z"/><path class="cls-115" d="M219.78,185.59c0,8-1.89,33.58-4.22,33.58s-4.23-25.53-4.23-33.58c0-7.09,1.89-8.8,4.23-8.8S219.78,178.5,219.78,185.59Z"/><path class="cls-116" d="M224.73,171.83H206.39v2.58h0v.08c0,2.95,4.1,5.34,9.17,5.34s9.17-2.39,9.17-5.34a.22.22,0,0,0,0-.08h0Z"/><path class="cls-117" d="M237.46,148.89H193.65v13h0c0,.06,0,.12,0,.18,0,7,9.81,12.75,21.91,12.75s21.9-5.71,21.9-12.75c0-.06,0-.12,0-.18h0Z"/><path class="cls-118" d="M237.46,149.34H193.65v10.38h0c0,.05,0,.1,0,.14,0,5.62,9.81,10.17,21.91,10.17s21.9-4.55,21.9-10.17c0,0,0-.09,0-.14h0Z"/><path class="cls-119" d="M249.8,105.8A76.86,76.86,0,0,0,237.11,53c-.45-.64-.9-1.29-1.37-1.92L215.56,23.39,195.37,51c-.46.63-.92,1.28-1.36,1.92a76.92,76.92,0,0,0-12.7,52.84l5.15,43.12h0c0,.08,0,.15,0,.23,0,9.36,13,16.94,29.1,16.94s29.09-7.58,29.09-16.94c0-.08,0-.15,0-.23h0Z"/><path class="cls-120" d="M235.74,51,215.56,23.39,195.37,51l-.33.47c3.49,4.58,11.36,7.77,20.52,7.77s17-3.19,20.51-7.77C236,51.35,235.86,51.2,235.74,51Z"/><path class="cls-121" d="M235.74,51,215.56,23.39,195.37,51l-.33.47c3.49,4.58,11.36,7.77,20.52,7.77s17-3.19,20.51-7.77C236,51.35,235.86,51.2,235.74,51Z"/><path class="cls-122" d="M249.8,105.8A76.86,76.86,0,0,0,237.11,53c-.45-.64-.9-1.29-1.37-1.92L215.56,23.39,195.37,51c-.46.63-.92,1.28-1.36,1.92a76.92,76.92,0,0,0-12.7,52.84l5.15,43.12h0c0,.08,0,.15,0,.23,0,9.36,13,16.94,29.1,16.94s29.09-7.58,29.09-16.94c0-.08,0-.15,0-.23h0Z"/><path class="cls-123" d="M229.23,81.84c-5.78-23.24-17.77-50-14.92-51.29,5-2.28,25.95,23.79,31.73,47,5.1,20.46-.65,71.39-5.94,72.71S234.32,102.3,229.23,81.84Z"/><path class="cls-124" d="M211.15,117.26c0,4-1.39,6.87-3.64,8.25l-2.24,1.41c-2.35,1.31-.85-1.67-4.41-3.73-7.17-4.14-13-14.17-13-22.4,0-4.07-3.76-4.1-1.46-5.46l2.68-1.48c2.34-1.27,5.54-1,9.07,1C205.33,99,211.15,109,211.15,117.26Z"/><path class="cls-125" d="M208.59,118.77c0,8.24-5.82,11.55-13,7.41s-13-14.17-13-22.41,5.81-11.54,13-7.4S208.59,110.54,208.59,118.77Z"/><path class="cls-126" d="M206.15,117.36c0,6.69-4.73,9.38-10.55,6s-10.55-11.51-10.55-18.2,4.72-9.37,10.55-6S206.15,110.68,206.15,117.36Z"/><path class="cls-127" d="M204,114c0,5-3.55,7.06-7.94,4.53s-7.93-8.67-7.93-13.7,3.55-7,7.93-4.52S204,109,204,114Z"/><path class="cls-128" d="M197.67,122.51c-5.82-3.36-10.55-11.51-10.55-18.2,0-3.08,1-5.31,2.66-6.49-2.85.52-4.73,3.15-4.73,7.36,0,6.69,4.72,14.84,10.55,18.2,3.14,1.81,6,1.86,7.89.48A8.73,8.73,0,0,1,197.67,122.51Z"/><path class="cls-129" d="M196,96c-3.44-2-7-1.85-8.65-1.07a11,11,0,0,1,8.14,1.44c7.18,4.14,13,14.17,13,22.4,0,4.29-2,7.32-4.47,8.59,2.64-1,5-4.06,5-9C209,110.21,203.15,100.18,196,96Z"/><path class="cls-130" d="M194,161l-15.33,29.36-3.1-1.83V176.05a18.24,18.24,0,0,1,1-5.61l8-24.33c1.71-5.24,5.42-10.1,9.5-12.46h0l3,1.8Z"/><path class="cls-131" d="M197.09,162.78l-18.43,27.53V177.88a18.19,18.19,0,0,1,1-5.61l8-24.34c1.71-5.23,5.42-10.09,9.5-12.45h0Z"/><path class="cls-132" d="M178.93,178.22a18.19,18.19,0,0,1,1-5.61l8-24.34a23.57,23.57,0,0,1,9-12.12v-.74h0c-4.08,2.36-7.79,7.22-9.5,12.46l-8,24.34a18.13,18.13,0,0,0-1,5.6v12.43l.54-.81Z"/><path class="cls-133" d="M237.12,161l15.33,29.36,3.1-1.83V176.05a18.52,18.52,0,0,0-1-5.61l-8-24.33c-1.71-5.24-5.42-10.1-9.5-12.46h0l-3,1.8Z"/><path class="cls-134" d="M234,162.78l18.43,27.53V177.88a18.19,18.19,0,0,0-1-5.61l-8-24.34c-1.71-5.23-5.42-10.09-9.5-12.45h0Z"/><path class="cls-135" d="M251.89,172.27l-8-24.34c-1.71-5.23-5.42-10.09-9.5-12.45h0v.16A23.71,23.71,0,0,1,243,147.48l8,24.34a18.46,18.46,0,0,1,1,5.6v11.45l1,1.44V177.88A18.19,18.19,0,0,0,251.89,172.27Z"/></g></g></g></svg>