<svg xmlns="http://www.w3.org/2000/svg" xmlns:xlink="http://www.w3.org/1999/xlink" viewBox="0 0 347.62 355.54"><defs><style>.cls-1{fill:none;}.cls-2{fill:#dad9e8;}.cls-3{fill:#b7b6e3;}.cls-4{fill:#919dd6;}.cls-5{fill:#1393f2;}.cls-6{fill:#ebebf1;}.cls-7{isolation:isolate;}.cls-15,.cls-8{fill:#c4c3ec;}.cls-14,.cls-8{opacity:0.39;}.cls-9{opacity:0.9;}.cls-10{fill:#2559b4;}.cls-11{fill:#f3d249;}.cls-12{fill:#05d4f5;}.cls-13{fill:#f5d622;}.cls-16{fill:#d8d5ee;}.cls-17{fill:#e4e3ee;}.cls-18{fill:#848487;}.cls-19{clip-path:url(#clip-path);}.cls-20{fill:#858588;}.cls-21{clip-path:url(#clip-path-2);}.cls-22{clip-path:url(#clip-path-3);}.cls-23{clip-path:url(#clip-path-4);}.cls-24{clip-path:url(#clip-path-5);}.cls-25{clip-path:url(#clip-path-6);}.cls-26{clip-path:url(#clip-path-7);}.cls-27{clip-path:url(#clip-path-8);}.cls-28{clip-path:url(#clip-path-9);}.cls-29{clip-path:url(#clip-path-10);}.cls-30{clip-path:url(#clip-path-11);}.cls-31{clip-path:url(#clip-path-12);}.cls-32{clip-path:url(#clip-path-13);}.cls-33{clip-path:url(#clip-path-14);}.cls-34{clip-path:url(#clip-path-15);}.cls-35{clip-path:url(#clip-path-16);}.cls-36{clip-path:url(#clip-path-17);}.cls-37{clip-path:url(#clip-path-18);}.cls-38{clip-path:url(#clip-path-19);}.cls-39{fill:#042f8f;}.cls-40{fill:#02196a;}.cls-41{clip-path:url(#clip-path-20);}.cls-42{clip-path:url(#clip-path-21);}.cls-43{clip-path:url(#clip-path-22);}.cls-44{fill:url(#New_Gradient_Swatch_copy_3);}.cls-45{opacity:0.3;mix-blend-mode:multiply;}.cls-46{fill:#4a2680;}.cls-47{fill:#01084e;}.cls-48{fill:#11449b;}.cls-49{fill:#336fd6;}.cls-50{fill:#fff;}.cls-51{fill:#f4413c;}.cls-52{fill:#f5554f;}.cls-53{fill:#f5bfa6;}.cls-54{fill:#e9a27f;}.cls-55{clip-path:url(#clip-path-23);}.cls-56{clip-path:url(#clip-path-24);}.cls-57{clip-path:url(#clip-path-25);}.cls-58{clip-path:url(#clip-path-26);}.cls-59{clip-path:url(#clip-path-27);}.cls-60{clip-path:url(#clip-path-28);}.cls-61{clip-path:url(#clip-path-29);}.cls-62{fill:#db3029;}.cls-63{fill:#ea533e;}.cls-64{clip-path:url(#clip-path-30);}.cls-65{fill:#78819c;}.cls-66{clip-path:url(#clip-path-31);}.cls-67{clip-path:url(#clip-path-32);}.cls-68{clip-path:url(#clip-path-33);}.cls-69{clip-path:url(#clip-path-34);}.cls-70{fill:#171c29;}.cls-71{clip-path:url(#clip-path-35);}.cls-72{clip-path:url(#clip-path-36);}.cls-73{clip-path:url(#clip-path-37);}</style><clipPath id="clip-path"><path class="cls-1" d="M36.07,268v4.74c0-1.52-1-3-3-4.19a16.1,16.1,0,0,0-14.56,0c-2,1.17-3,2.69-3,4.21V268c0-1.52,1-3,3-4.2a16.07,16.07,0,0,1,14.56,0C35.08,265,36.08,266.48,36.07,268Z"/></clipPath><clipPath id="clip-path-2"><path class="cls-1" d="M7.22,273.64l0,4.73a9.59,9.59,0,0,1-1.7-2.58v-4.74A9.68,9.68,0,0,0,7.22,273.64Z"/></clipPath><clipPath id="clip-path-3"><path class="cls-1" d="M45.78,271.5l0,4.74a10.34,10.34,0,0,1-1.68,2.31v-4.74A10.4,10.4,0,0,0,45.78,271.5Z"/></clipPath><clipPath id="clip-path-4"><path class="cls-1" d="M19.73,279.59v4.74a29.71,29.71,0,0,1-4.44-1.1v-4.74A29.1,29.1,0,0,0,19.73,279.59Z"/></clipPath><clipPath id="clip-path-5"><path class="cls-1" d="M35.81,278.59l0,4.74a29.28,29.28,0,0,1-4.39,1l0-4.74A29.58,29.58,0,0,0,35.81,278.59Z"/></clipPath><clipPath id="clip-path-6"><path class="cls-1" d="M74.23,293v3.4a3.65,3.65,0,0,0-2.15-3,11.55,11.55,0,0,0-10.46,0,3.69,3.69,0,0,0-2.17,3V293a3.69,3.69,0,0,1,2.17-3,11.55,11.55,0,0,1,10.46,0A3.67,3.67,0,0,1,74.23,293Z"/></clipPath><clipPath id="clip-path-7"><path class="cls-1" d="M53.52,297v3.4a7,7,0,0,1-1.23-1.86v-3.4A7,7,0,0,0,53.52,297Z"/></clipPath><clipPath id="clip-path-8"><path class="cls-1" d="M81.2,295.49v3.41A7.87,7.87,0,0,1,80,300.56v-3.41A7.39,7.39,0,0,0,81.2,295.49Z"/></clipPath><clipPath id="clip-path-9"><path class="cls-1" d="M62.5,301.31v3.4a21.87,21.87,0,0,1-3.19-.79v-3.4A21.87,21.87,0,0,0,62.5,301.31Z"/></clipPath><clipPath id="clip-path-10"><path class="cls-1" d="M74,300.59V304a23,23,0,0,1-3.15.75v-3.4A23,23,0,0,0,74,300.59Z"/></clipPath><clipPath id="clip-path-11"><path class="cls-1" d="M21.38,302.85v3.22a5.08,5.08,0,0,1-.92-1.39v-3.22A5.27,5.27,0,0,0,21.38,302.85Z"/></clipPath><clipPath id="clip-path-12"><path class="cls-1" d="M42.13,301.7v3.22a5.39,5.39,0,0,1-.9,1.25v-3.23A5.34,5.34,0,0,0,42.13,301.7Z"/></clipPath><clipPath id="clip-path-13"><path class="cls-1" d="M28.12,306.05v3.23a16.37,16.37,0,0,1-2.39-.59v-3.23A15.18,15.18,0,0,0,28.12,306.05Z"/></clipPath><clipPath id="clip-path-14"><path class="cls-1" d="M36.77,305.52v3.22a16.24,16.24,0,0,1-2.36.56v-3.22A17.66,17.66,0,0,0,36.77,305.52Z"/></clipPath><clipPath id="clip-path-15"><path class="cls-1" d="M123.67,176.36l0,5.77c0-2.15-1.41-4.29-4.24-5.93-5.67-3.27-14.88-3.26-20.59,0-2.85,1.64-4.27,3.8-4.28,6l0-5.77c0-2.15,1.43-4.31,4.28-5.95,5.7-3.29,14.91-3.3,20.59,0C122.26,172.07,123.67,174.22,123.67,176.36Z"/></clipPath><clipPath id="clip-path-16"><path class="cls-1" d="M89.59,182.41v5.77a10.29,10.29,0,0,1-1.85-2.8v-5.77A10.77,10.77,0,0,0,89.59,182.41Z"/></clipPath><clipPath id="clip-path-17"><path class="cls-1" d="M131.37,180.09v5.77a11.53,11.53,0,0,1-1.83,2.51V182.6A11,11,0,0,0,131.37,180.09Z"/></clipPath><clipPath id="clip-path-18"><path class="cls-1" d="M103.15,188.86l0,5.77a32.2,32.2,0,0,1-4.81-1.19l0-5.77A32.2,32.2,0,0,0,103.15,188.86Z"/></clipPath><clipPath id="clip-path-19"><path class="cls-1" d="M120.57,187.78v5.77a33.16,33.16,0,0,1-4.77,1.12l0-5.77A33,33,0,0,0,120.57,187.78Z"/></clipPath><clipPath id="clip-path-20"><path class="cls-2" d="M81,10.38l5.32-3.06a3.14,3.14,0,0,1,3.19.31l-5.32,3.06A3.17,3.17,0,0,0,81,10.38Z"/></clipPath><clipPath id="clip-path-21"><path class="cls-3" d="M282.8,251.73l-5.32,3.06a3.13,3.13,0,0,0,1.3-2.87l5.33-3.06A3.16,3.16,0,0,1,282.8,251.73Z"/></clipPath><clipPath id="clip-path-22"><path class="cls-2" d="M274.68,120.7l5.32-3.06a9.83,9.83,0,0,1,4.46,7.71l-5.33,3.06A9.81,9.81,0,0,0,274.68,120.7Z"/></clipPath><linearGradient id="New_Gradient_Swatch_copy_3" x1="203.61" y1="52.18" x2="169.53" y2="167.52" gradientUnits="userSpaceOnUse"><stop offset="0" stop-color="#4baae3"/><stop offset="0.19" stop-color="#46a1e2"/><stop offset="0.5" stop-color="#3789e1"/><stop offset="0.89" stop-color="#2063de"/><stop offset="1" stop-color="#1856dd"/></linearGradient><clipPath id="clip-path-23"><path class="cls-4" d="M86.43,262.58v3.52a1.51,1.51,0,0,0-.87-1.21v-3.52A1.48,1.48,0,0,1,86.43,262.58Z"/></clipPath><clipPath id="clip-path-24"><path class="cls-4" d="M96,264.73v3.53a6.61,6.61,0,0,1-1.27,3.8v-3.53A6.56,6.56,0,0,0,96,264.73Z"/></clipPath><clipPath id="clip-path-25"><path class="cls-4" d="M60.58,268.16v-3.53c0,2.64,1.74,5.29,5.23,7.3,5.19,3,12.79,3.75,19.17,2.26v3.52c-6.38,1.5-14,.75-19.17-2.26C62.32,273.44,60.58,270.8,60.58,268.16Z"/></clipPath><clipPath id="clip-path-26"><path class="cls-4" d="M156.13,302.58v3.52a4.5,4.5,0,0,0-4.06,0v-3.52A4.47,4.47,0,0,1,156.13,302.58Z"/></clipPath><clipPath id="clip-path-27"><path class="cls-4" d="M143.6,311.7v-3.52a1.42,1.42,0,0,1,.83-1.17v3.52A1.44,1.44,0,0,0,143.6,311.7Z"/></clipPath><clipPath id="clip-path-28"><path class="cls-4" d="M168.51,306.32v3.52a6.4,6.4,0,0,1-.76,3v-3.52A6.46,6.46,0,0,0,168.51,306.32Z"/></clipPath><clipPath id="clip-path-29"><path class="cls-4" d="M133.12,309.75v-3.52c0,2.64,1.73,5.28,5.22,7.29,4.81,2.78,11.67,3.63,17.73,2.55v3.52c-6.06,1.08-12.92.23-17.73-2.54C134.85,315,133.11,312.39,133.12,309.75Z"/></clipPath><clipPath id="clip-path-30"><path class="cls-5" d="M66.49,126.59l-3.59,2.09a1,1,0,0,1,1,.09l3.59-2.08A1,1,0,0,0,66.49,126.59Z"/></clipPath><clipPath id="clip-path-31"><path class="cls-3" d="M132,98.48l-3-1.77c.73.43,1.91-.14,2.73-1.36l3,1.77C133.91,98.34,132.72,98.91,132,98.48Z"/></clipPath><clipPath id="clip-path-32"><path class="cls-3" d="M74,179.68l-3-1.78a2.31,2.31,0,0,1-.36-.25c-1.71-1.48-1.37-5.23.75-8.38l3,1.78c-2.13,3.15-2.47,6.89-.76,8.37A2.36,2.36,0,0,0,74,179.68Z"/></clipPath><clipPath id="clip-path-33"><path class="cls-3" d="M123.51,86.45l-3-1.78c3.77-5.6,8.76-9,12.92-9.27l3,1.78C132.27,77.46,127.29,80.85,123.51,86.45Z"/></clipPath><clipPath id="clip-path-34"><path class="cls-3" d="M119.34,104.34l-3-1.78c-1.47-4.68,0-11.73,4.17-17.89l3,1.78C119.35,92.61,117.87,99.66,119.34,104.34Z"/></clipPath><clipPath id="clip-path-35"><path class="cls-6" d="M212.6,101.11l4.24,2.46c-1.8-1-4.29-.9-7.05.69l-4.24-2.46C208.3,100.21,210.8,100.06,212.6,101.11Z"/></clipPath><clipPath id="clip-path-36"><path class="cls-6" d="M202.8,127.74l-4.24-2.47c-1.78-1-2.88-3.23-2.89-6.36,0-6.29,4.4-14,9.88-17.11l4.24,2.46c-5.47,3.17-9.9,10.83-9.88,17.12C199.92,124.5,201,126.7,202.8,127.74Z"/></clipPath><clipPath id="clip-path-37"><path class="cls-6" d="M210.78,108.41l-1-4.15c5.48-3.16,9.93-.62,10,5.67s-4.41,13.95-9.88,17.12-9.93.62-10-5.67,4.41-13.95,9.88-17.12l1,4.15A15,15,0,0,0,204,120.15c0,4.31,3.07,6,6.82,3.88a14.9,14.9,0,0,0,6.77-11.73C217.58,108,214.53,106.24,210.78,108.41Z"/></clipPath></defs><g class="cls-7"><g id="Layer_2" data-name="Layer 2"><g id="Layer_1-2" data-name="Layer 1"><polygon class="cls-8" points="347.62 82.46 204.79 0 204.79 106.11 347.62 188.57 347.62 82.46"/><polygon class="cls-3" points="347.62 82.46 204.79 0 204.79 16.72 347.62 99.18 347.62 82.46"/><g class="cls-9"><polygon class="cls-3" points="313.03 100.96 335.59 113.98 335.59 107.51 313.03 94.49 313.03 100.96"/><polygon class="cls-3" points="221.46 41.62 229.39 46.2 229.39 52.67 221.46 48.09 221.46 41.62"/><polygon class="cls-3" points="260.66 70.72 276.96 80.14 276.96 73.67 260.66 64.25 260.66 70.72"/><polygon class="cls-3" points="230.46 53.29 251.53 65.45 251.53 58.98 230.46 46.82 230.46 53.29"/><polygon class="cls-10" points="252.71 66.13 259.21 69.89 259.21 63.42 252.71 59.66 252.71 66.13"/><polygon class="cls-11" points="278.31 80.91 311.85 100.27 311.85 93.8 278.31 74.44 278.31 80.91"/><polygon class="cls-3" points="211.2 105.89 242.65 124.05 242.65 117.58 211.2 99.42 211.2 105.89"/><polygon class="cls-3" points="273.91 142.1 290.22 151.51 290.22 145.04 273.91 135.63 273.91 142.1"/><polygon class="cls-3" points="243.72 124.67 264.79 136.83 264.79 130.36 243.72 118.2 243.72 124.67"/><polygon class="cls-10" points="265.96 137.51 272.47 141.26 272.47 134.79 265.96 131.04 265.96 137.51"/><polygon class="cls-12" points="291.56 152.29 325.1 171.65 325.1 165.18 291.56 145.82 291.56 152.29"/><polygon class="cls-12" points="315.81 93.46 343.99 109.72 343.99 103.25 315.81 86.99 315.81 93.46"/><polygon class="cls-3" points="282.66 74.32 313.52 92.14 313.52 85.66 282.66 67.85 282.66 74.32"/><polygon class="cls-3" points="214.47 34.95 245.33 52.77 245.33 46.3 214.47 28.48 214.47 34.95"/><polygon class="cls-10" points="258.91 60.61 281.14 73.44 281.14 66.97 258.91 54.14 258.91 60.61"/><polygon class="cls-12" points="246.73 53.58 257.7 59.91 257.7 53.44 246.73 47.11 246.73 53.58"/><polygon class="cls-12" points="315.81 147.87 343.98 164.13 343.98 157.66 315.81 141.4 315.81 147.87"/><polygon class="cls-3" points="210.21 80.86 236.94 96.29 236.94 102.76 210.21 87.33 210.21 80.86"/><polygon class="cls-3" points="261.89 116.74 281.76 128.21 281.76 121.74 261.89 110.27 261.89 116.74"/><polygon class="cls-10" points="252.71 111.44 259.21 115.19 259.21 108.72 252.71 104.96 252.71 111.44"/><polygon class="cls-11" points="283.37 129.14 314.22 146.95 314.22 140.48 283.37 122.67 283.37 129.14"/><polygon class="cls-12" points="239.6 104.3 250.58 110.63 250.58 104.16 239.6 97.83 239.6 104.3"/><polygon class="cls-12" points="315.81 120.75 343.98 137.01 343.98 130.54 315.81 114.28 315.81 120.75"/><polygon class="cls-3" points="279.01 99.5 314.22 119.83 314.22 113.36 279.01 93.03 279.01 99.5"/><polygon class="cls-3" points="214.47 62.29 245.33 80.1 245.33 73.63 214.47 55.82 214.47 62.29"/><polygon class="cls-12" points="258.91 87.94 277.39 98.61 277.39 92.14 258.91 81.47 258.91 87.94"/><polygon class="cls-3" points="246.73 80.91 257.7 87.24 257.7 80.77 246.73 74.44 246.73 80.91"/><polygon class="cls-10" points="304.74 105.27 335.59 123.08 335.59 116.61 304.74 98.8 304.74 105.27"/><polygon class="cls-11" points="250.28 73.84 281.14 91.65 281.14 85.18 250.28 67.36 250.28 73.84"/><polygon class="cls-3" points="282.81 92.61 302.68 104.08 302.68 97.61 282.81 86.14 282.81 92.61"/><polygon class="cls-10" points="231.1 62.76 242.07 69.09 242.07 62.62 231.1 56.29 231.1 62.76"/><polygon class="cls-3" points="304.74 150.79 335.59 168.6 335.59 162.13 304.74 144.32 304.74 150.79"/><polygon class="cls-3" points="246.73 117.3 276.17 134.3 276.17 127.83 246.73 110.83 246.73 117.3"/><polygon class="cls-10" points="277.39 135 303.74 150.21 303.74 143.74 277.39 128.53 277.39 135"/><polygon class="cls-13" points="231.1 108.28 245.89 116.82 245.89 110.35 231.1 101.81 231.1 108.28"/><polygon class="cls-11" points="322.48 133.72 335.59 141.29 335.59 134.82 322.48 127.25 322.48 133.72"/><polygon class="cls-3" points="260.51 97.95 291.83 116.03 291.83 109.56 260.51 91.48 260.51 97.95"/><polygon class="cls-3" points="293.04 116.72 321.06 132.91 321.06 126.44 293.04 110.25 293.04 116.72"/><polygon class="cls-12" points="247.13 90.22 258.11 96.56 258.11 90.09 247.13 83.75 247.13 90.22"/><polygon class="cls-11" points="305.99 133.31 325.72 144.7 325.72 138.23 305.99 126.84 305.99 133.31"/><polygon class="cls-3" points="250.91 101.51 304.51 132.45 304.51 125.98 250.91 95.04 250.91 101.51"/><polygon class="cls-11" points="232.82 91.06 249.57 100.73 249.57 94.26 232.82 84.59 232.82 91.06"/></g><g class="cls-14"><polygon class="cls-15" points="33.43 57.94 33.32 85.67 67.89 105.69 68 77.96 33.43 57.94"/></g><path class="cls-12" d="M35.41,70.67l8.75,1.55V76.8l-4.32-1.34,4.32,3.92V84l-8.75-8.71Z"/><path class="cls-12" d="M51.62,71l4.64,2.67L49.71,92.6l-4.64-2.68Z"/><path class="cls-12" d="M57.17,86.89,61.48,88l-4.31-3.65V79.73l8.74,8.55v4.58l-8.74-1.39Z"/><g class="cls-14"><polygon class="cls-15" points="48.97 30.65 48.88 59.1 74.11 73.72 74.19 45.26 48.97 30.65"/></g><path class="cls-12" d="M60.2,46.22l2.6,1.51.73-4,2.92,1.69-.73,4,1.62.94v3l-2.12-1.23L64.69,55l2.65,1.53v3L64.2,57.71l-.73,4L60.55,60l.73-4-2.59-1.51-.73,4L55,56.82l.73-4-1.62-.94v-3l2.12,1.23.53-2.89L54.15,45.7v-3l3.14,1.82.73-4,2.92,1.69Zm-1,5.59,2.6,1.51.53-2.89-2.6-1.51Z"/><polygon class="cls-16" points="123.42 208.47 78.67 234.3 15.66 197.92 60.41 172.09 123.42 208.47"/><polygon class="cls-17" points="114.71 224.81 81.43 255.89 5.64 228.83 38.92 197.76 114.71 224.81"/><g class="cls-7"><polygon class="cls-18" points="32.32 252.93 32.3 257.67 32.25 261.26 32.26 256.52 32.32 252.93"/><polygon class="cls-4" points="7.83 261.86 7.82 266.6 3.81 264.26 3.82 259.52 7.83 261.86"/><polygon class="cls-3" points="48.74 259.88 48.73 264.62 44.31 267.13 44.32 262.39 48.74 259.88"/><g class="cls-7"><g class="cls-19"><g class="cls-7"><path class="cls-15" d="M36.07,268v4.74c0-1.52-1-3-3-4.19a16.1,16.1,0,0,0-14.56,0c-2,1.17-3,2.69-3,4.21V268c0-1.52,1-3,3-4.2a16.07,16.07,0,0,1,14.56,0C35.08,265,36.08,266.48,36.07,268Z"/></g></g></g><polygon class="cls-4" points="5.51 271.05 5.5 275.79 0 275.78 0.01 271.04 5.51 271.05"/><polygon class="cls-4" points="51.77 271.52 51.76 276.26 45.77 276.24 45.78 271.5 51.77 271.52"/><polygon class="cls-20" points="51.9 264.78 51.89 269.51 51.76 276.26 51.77 271.52 51.9 264.78"/><g class="cls-7"><g class="cls-21"><g class="cls-7"><path class="cls-15" d="M7.22,273.64l0,4.73a9.59,9.59,0,0,1-1.7-2.58v-4.74A9.68,9.68,0,0,0,7.22,273.64Z"/></g></g></g><g class="cls-7"><g class="cls-22"><g class="cls-7"><path class="cls-15" d="M45.78,271.5l0,4.74a10.34,10.34,0,0,1-1.68,2.31v-4.74A10.4,10.4,0,0,0,45.78,271.5Z"/></g></g></g><g class="cls-7"><g class="cls-23"><g class="cls-7"><path class="cls-15" d="M19.73,279.59v4.74a29.71,29.71,0,0,1-4.44-1.1v-4.74A29.1,29.1,0,0,0,19.73,279.59Z"/></g></g></g><g class="cls-7"><g class="cls-24"><g class="cls-7"><path class="cls-15" d="M35.81,278.59l0,4.74a29.28,29.28,0,0,1-4.39,1l0-4.74A29.58,29.58,0,0,0,35.81,278.59Z"/></g></g></g><polygon class="cls-4" points="11.45 280.7 11.43 285.44 3.21 280.67 3.22 275.93 11.45 280.7"/><polygon class="cls-3" points="15.29 278.49 15.28 283.23 11.43 285.44 11.45 280.7 15.29 278.49"/><polygon class="cls-3" points="48.15 276.15 48.13 280.89 39.85 285.67 39.86 280.93 48.15 276.15"/><polygon class="cls-4" points="39.86 280.93 39.85 285.67 35.79 283.33 35.81 278.59 39.86 280.93"/><polygon class="cls-18" points="31.42 279.63 31.4 284.37 31.39 287.56 31.4 282.82 31.42 279.63"/><path class="cls-2" d="M39.86,280.93l-4-2.34a29.58,29.58,0,0,1-4.39,1l0,3.19H19.71l0-3.24a29.1,29.1,0,0,1-4.44-1.1l-3.84,2.21-8.23-4.77,4-2.29a9.68,9.68,0,0,1-1.71-2.59H0l.08-6.74H5.91a10.88,10.88,0,0,1,1.92-2.44l-4-2.34,8.33-4.75,4.25,2.48a31.66,31.66,0,0,1,4.18-.91l.05-3.44,11.69,0-.06,3.59a31.32,31.32,0,0,1,4,1l4.32-2.46,8.18,4.8-4.42,2.51a10,10,0,0,1,1.62,2.36l6,0-.13,6.74-6,0a10.4,10.4,0,0,1-1.69,2.31l4.06,2.34Zm-21.37-8.7a16,16,0,0,0,14.55,0c4-2.32,4-6.08,0-8.4a16.07,16.07,0,0,0-14.56,0C14.49,266.15,14.47,269.91,18.49,272.23Z"/><polygon class="cls-4" points="31.4 282.82 31.39 287.56 19.7 287.56 19.71 282.83 31.4 282.82"/></g><g class="cls-7"><polygon class="cls-18" points="71.53 282.17 71.52 285.57 71.48 288.15 71.5 284.75 71.53 282.17"/><polygon class="cls-4" points="53.96 288.58 53.95 291.98 51.07 290.3 51.08 286.9 53.96 288.58"/><polygon class="cls-3" points="83.32 287.16 83.31 290.56 80.14 292.36 80.15 288.96 83.32 287.16"/><g class="cls-7"><g class="cls-25"><g class="cls-7"><path class="cls-15" d="M74.23,293v3.4a3.65,3.65,0,0,0-2.15-3,11.55,11.55,0,0,0-10.46,0,3.69,3.69,0,0,0-2.17,3V293a3.69,3.69,0,0,1,2.17-3,11.55,11.55,0,0,1,10.46,0A3.67,3.67,0,0,1,74.23,293Z"/></g></g></g><polygon class="cls-4" points="52.29 295.17 52.28 298.57 48.34 298.57 48.34 295.17 52.29 295.17"/><polygon class="cls-4" points="85.5 295.51 85.49 298.92 81.19 298.89 81.2 295.5 85.5 295.51"/><polygon class="cls-20" points="85.59 290.67 85.58 294.07 85.49 298.92 85.5 295.51 85.59 290.67"/><g class="cls-7"><g class="cls-26"><g class="cls-7"><path class="cls-15" d="M53.52,297v3.4a7,7,0,0,1-1.23-1.86v-3.4A7,7,0,0,0,53.52,297Z"/></g></g></g><g class="cls-7"><g class="cls-27"><g class="cls-7"><path class="cls-15" d="M81.2,295.49v3.41A7.87,7.87,0,0,1,80,300.56v-3.41A7.39,7.39,0,0,0,81.2,295.49Z"/></g></g></g><g class="cls-7"><g class="cls-28"><g class="cls-7"><path class="cls-15" d="M62.5,301.31v3.4a21.87,21.87,0,0,1-3.19-.79v-3.4A21.87,21.87,0,0,0,62.5,301.31Z"/></g></g></g><g class="cls-7"><g class="cls-29"><g class="cls-7"><path class="cls-15" d="M74,300.59V304a23,23,0,0,1-3.15.75v-3.4A23,23,0,0,0,74,300.59Z"/></g></g></g><polygon class="cls-4" points="56.55 302.1 56.54 305.5 50.64 302.08 50.65 298.68 56.55 302.1"/><polygon class="cls-3" points="59.31 300.52 59.3 303.92 56.54 305.5 56.55 302.1 59.31 300.52"/><polygon class="cls-3" points="82.9 298.83 82.89 302.24 76.94 305.67 76.95 302.27 82.9 298.83"/><polygon class="cls-4" points="76.95 302.27 76.94 305.67 74.03 303.99 74.04 300.59 76.95 302.27"/><polygon class="cls-18" points="70.89 301.33 70.88 304.74 70.86 307.02 70.87 303.62 70.89 301.33"/><path class="cls-2" d="M77,302.27,74,300.59a23,23,0,0,1-3.15.75l0,2.28H62.48l0-2.32a21.87,21.87,0,0,1-3.19-.79l-2.76,1.58-5.9-3.42L53.52,297a7,7,0,0,1-1.23-1.86H48.34l.06-4.84h4.17A7.91,7.91,0,0,1,54,288.58l-2.88-1.68,6-3.42,3,1.79a22.17,22.17,0,0,1,3-.66l0-2.46,8.39,0,0,2.58a21.6,21.6,0,0,1,2.85.72l3.1-1.76,5.87,3.45L80.15,289a6.9,6.9,0,0,1,1.16,1.69l4.28,0-.09,4.84-4.3,0A7.39,7.39,0,0,1,80,297.15l2.91,1.68ZM61.6,296a11.56,11.56,0,0,0,10.45,0c2.9-1.67,2.9-4.37,0-6a11.55,11.55,0,0,0-10.46,0C58.73,291.66,58.72,294.36,61.6,296Z"/><polygon class="cls-4" points="70.87 303.62 70.86 307.02 62.47 307.03 62.48 303.63 70.87 303.62"/></g><g class="cls-7"><polygon class="cls-18" points="34.89 291.71 34.88 294.93 34.85 296.87 34.86 293.64 34.89 291.71"/><polygon class="cls-4" points="21.72 296.51 21.71 299.74 19.55 298.48 19.56 295.25 21.72 296.51"/><polygon class="cls-3" points="43.73 295.45 43.72 298.67 41.34 300.02 41.35 296.8 43.73 295.45"/><polygon class="cls-4" points="20.47 301.46 20.46 304.68 17.5 304.68 17.51 301.45 20.47 301.46"/><polygon class="cls-4" points="45.36 301.71 45.35 304.94 42.12 304.92 42.13 301.7 45.36 301.71"/><polygon class="cls-20" points="45.43 298.08 45.42 301.31 45.35 304.94 45.36 301.71 45.43 298.08"/><g class="cls-7"><g class="cls-30"><g class="cls-7"><path class="cls-15" d="M21.38,302.85v3.22a5.08,5.08,0,0,1-.92-1.39v-3.22A5.27,5.27,0,0,0,21.38,302.85Z"/></g></g></g><g class="cls-7"><g class="cls-31"><g class="cls-7"><path class="cls-15" d="M42.13,301.7v3.22a5.39,5.39,0,0,1-.9,1.25v-3.23A5.34,5.34,0,0,0,42.13,301.7Z"/></g></g></g><g class="cls-7"><g class="cls-32"><g class="cls-7"><path class="cls-15" d="M28.12,306.05v3.23a16.37,16.37,0,0,1-2.39-.59v-3.23A15.18,15.18,0,0,0,28.12,306.05Z"/></g></g></g><g class="cls-7"><g class="cls-33"><g class="cls-7"><path class="cls-15" d="M36.77,305.52v3.22a16.24,16.24,0,0,1-2.36.56v-3.22A17.66,17.66,0,0,0,36.77,305.52Z"/></g></g></g><polygon class="cls-3" points="25.73 305.46 25.72 308.69 23.65 309.87 23.66 306.65 25.73 305.46"/><polygon class="cls-4" points="23.66 306.65 23.65 309.87 19.23 307.31 19.24 304.08 23.66 306.65"/><polygon class="cls-3" points="43.41 304.2 43.4 307.43 38.94 310 38.95 306.78 43.41 304.2"/><polygon class="cls-4" points="38.95 306.78 38.94 310 36.76 308.74 36.77 305.52 38.95 306.78"/><polygon class="cls-18" points="34.41 306.08 34.4 309.3 34.39 311.01 34.4 307.79 34.41 306.08"/><path class="cls-2" d="M39.33,292.87l4.4,2.58-2.38,1.35a5.33,5.33,0,0,1,.87,1.27h3.21l-.07,3.63H42.13a5.34,5.34,0,0,1-.9,1.24l2.18,1.26L39,306.78l-2.18-1.26a17.66,17.66,0,0,1-2.36.56v1.71H28.11v-1.74a15.18,15.18,0,0,1-2.39-.59l-2.07,1.19-4.42-2.57,2.14-1.23a5.27,5.27,0,0,1-.91-1.39h-3l0-3.63h3.13a5.69,5.69,0,0,1,1-1.32l-2.16-1.26L24,292.7,26.33,294a18.18,18.18,0,0,1,2.24-.49l0-1.85,6.29,0,0,1.93a16,16,0,0,1,2.14.55Z"/><polygon class="cls-4" points="34.4 307.79 34.39 311.01 28.1 311.02 28.11 307.79 34.4 307.79"/></g><g class="cls-7"><polygon class="cls-18" points="116.79 159.98 116.77 165.75 116.71 169.64 116.73 163.87 116.79 159.98"/><polygon class="cls-4" points="90.26 169.65 90.24 175.42 85.9 172.89 85.92 167.12 90.26 169.65"/><polygon class="cls-3" points="134.58 167.51 134.57 173.28 129.78 175.99 129.8 170.22 134.58 167.51"/><g class="cls-7"><g class="cls-34"><g class="cls-7"><path class="cls-15" d="M123.67,176.36l0,5.77c0-2.15-1.41-4.29-4.24-5.93-5.67-3.27-14.88-3.26-20.59,0-2.85,1.64-4.27,3.8-4.28,6l0-5.77c0-2.15,1.43-4.31,4.28-5.95,5.7-3.29,14.91-3.3,20.59,0C122.26,172.07,123.67,174.22,123.67,176.36Z"/></g></g></g><polygon class="cls-4" points="87.74 179.61 87.73 185.38 81.77 185.37 81.79 179.6 87.74 179.61"/><polygon class="cls-4" points="137.86 180.12 137.85 185.89 131.36 185.86 131.38 180.09 137.86 180.12"/><polygon class="cls-20" points="138.01 172.81 138 178.58 137.85 185.89 137.86 180.12 138.01 172.81"/><g class="cls-7"><g class="cls-35"><g class="cls-7"><path class="cls-15" d="M89.59,182.41v5.77a10.29,10.29,0,0,1-1.85-2.8v-5.77A10.77,10.77,0,0,0,89.59,182.41Z"/></g></g></g><g class="cls-7"><g class="cls-36"><g class="cls-7"><path class="cls-15" d="M131.37,180.09v5.77a11.53,11.53,0,0,1-1.83,2.51V182.6A11,11,0,0,0,131.37,180.09Z"/></g></g></g><g class="cls-7"><g class="cls-37"><g class="cls-7"><path class="cls-15" d="M103.15,188.86l0,5.77a32.2,32.2,0,0,1-4.81-1.19l0-5.77A32.2,32.2,0,0,0,103.15,188.86Z"/></g></g></g><g class="cls-7"><g class="cls-38"><g class="cls-7"><path class="cls-15" d="M120.57,187.78v5.77a33.16,33.16,0,0,1-4.77,1.12l0-5.77A33,33,0,0,0,120.57,187.78Z"/></g></g></g><polygon class="cls-4" points="94.17 190.06 94.16 195.83 85.25 190.66 85.27 184.89 94.17 190.06"/><polygon class="cls-3" points="98.34 187.67 98.32 193.44 94.16 195.83 94.17 190.06 98.34 187.67"/><polygon class="cls-3" points="133.94 185.13 133.92 190.9 124.95 196.08 124.97 190.31 133.94 185.13"/><polygon class="cls-4" points="124.97 190.31 124.95 196.08 120.56 193.55 120.57 187.78 124.97 190.31"/><polygon class="cls-18" points="115.81 188.9 115.79 194.67 115.77 198.13 115.79 192.36 115.81 188.9"/><path class="cls-2" d="M125,190.31l-4.4-2.53a33,33,0,0,1-4.76,1.12l0,3.46H103.13l0-3.5a32.2,32.2,0,0,1-4.81-1.19l-4.17,2.39-8.9-5.17,4.32-2.48a10.77,10.77,0,0,1-1.85-2.8H81.79l.08-7.31h6.3a11.75,11.75,0,0,1,2.09-2.65l-4.34-2.53,9-5.16,4.62,2.69a34.5,34.5,0,0,1,4.52-1l.06-3.72,12.66,0-.06,3.89A31.62,31.62,0,0,1,121,165l4.68-2.66,8.86,5.2-4.78,2.71a10.65,10.65,0,0,1,1.74,2.56l6.47,0-.15,7.31-6.49,0a11,11,0,0,1-1.83,2.51l4.4,2.53Zm-26.17-8c5.67,3.28,14.89,3.26,20.58,0s5.72-8.61.05-11.89-14.89-3.26-20.59,0S93.12,179.07,98.8,182.34Z"/><polygon class="cls-4" points="115.79 192.36 115.77 198.13 103.11 198.13 103.13 192.37 115.79 192.36"/></g><polygon class="cls-17" points="125.8 202 124.11 201.84 124.34 201.71 126.03 201.87 125.8 202"/><g class="cls-7"><path class="cls-17" d="M126,201.87l-1.69-.16a14.44,14.44,0,0,1,1.47-.75l1.45.29A11.78,11.78,0,0,0,126,201.87Z"/><path class="cls-17" d="M127.26,201.25l-1.45-.29a23.3,23.3,0,0,1,12.88-1.36c20.18,3.44,37.44,9.3,51.16,17.22l-1.68.16c-13.43-7.75-30.89-13.44-50.14-16.87A19.5,19.5,0,0,0,127.26,201.25Z"/></g><path class="cls-3" d="M220.05,248.21v3.55c0,2.19-1.48,4.32-4.21,5.91v-3.56C218.57,252.52,220,250.39,220.05,248.21Z"/><path class="cls-17" d="M188.17,217l1.68-.16a89.85,89.85,0,0,1,16.32,11.92l-2,0A85.28,85.28,0,0,0,188.17,217Z"/><path class="cls-17" d="M204.12,228.76l2,0a65,65,0,0,1,13.24,17c1.57,3,.2,6.2-3.57,8.39l-1.69-1.79c3.15-1.83,4.29-4.53,3-7A68.86,68.86,0,0,0,204.12,228.76Z"/><polygon class="cls-3" points="215.84 254.11 215.83 257.67 215.51 257.85 215.52 254.3 215.84 254.11"/><polygon class="cls-17" points="214.15 252.32 215.84 254.11 215.52 254.3 213.83 252.5 214.15 252.32"/><path class="cls-6" d="M188.17,217c13.17,7.61,22.93,17.47,29,28.33,1.31,2.48.17,5.18-3,7l-.32.18c-4.9,2.86-12.56,2.62-17.12,0a8.73,8.73,0,0,1-2.65-2.28c-6.12-8.65-14.73-15.75-25.37-21.9a138.69,138.69,0,0,0-38.76-14.84,15.07,15.07,0,0,1-4-1.55c-4.55-2.63-5-7.07-.09-9.92l.23-.13a18.7,18.7,0,0,1,12-1.76C157.28,203.54,174.74,209.23,188.17,217Z"/><path class="cls-3" d="M215.52,254.3v3.55c-5.88,3.42-15,3.13-20.49,0a10,10,0,0,1-3.16-2.71c-6.06-8.24-14.44-15.45-24.87-21.47-10.63-6.13-23.39-11-38-14.53a18.08,18.08,0,0,1-4.81-1.85c-2.81-1.62-4.31-3.82-4.3-6v-3.56c0,2.22,1.5,4.41,4.3,6a17.75,17.75,0,0,0,4.81,1.85c14.59,3.5,27.35,8.4,38,14.54,10.43,6,18.81,13.23,24.87,21.46a10.19,10.19,0,0,0,3.16,2.72C200.48,257.43,209.64,257.71,215.52,254.3Z"/><g class="cls-7"><path class="cls-17" d="M213.83,252.5l1.69,1.8a17.23,17.23,0,0,1-3.78,1.59l-1.06-2.06A14.07,14.07,0,0,0,213.83,252.5Z"/><path class="cls-17" d="M210.68,253.83l1.06,2.06c-5.37,1.55-11.9,1-16.28-1.37l1.61-1.83A19.41,19.41,0,0,0,210.68,253.83Z"/><path class="cls-17" d="M197.07,252.69l-1.61,1.83-.43-.24a10.19,10.19,0,0,1-3.16-2.72c-6.06-8.23-14.44-15.44-24.87-21.46-1.21-.7-2.45-1.38-3.71-2l1.62-1.84c1.28.69,2.54,1.38,3.78,2.1,10.64,6.15,19.25,13.25,25.37,21.9a8.73,8.73,0,0,0,2.65,2.28Z"/><path class="cls-17" d="M164.91,226.21l-1.62,1.84A147.2,147.2,0,0,0,129,215.56a18.55,18.55,0,0,1-4.37-1.6l1.61-1.83a16,16,0,0,0,3.67,1.34A141.6,141.6,0,0,1,164.91,226.21Z"/><path class="cls-17" d="M126.26,212.13,124.65,214c-.15-.08-.3-.16-.44-.25-5.44-3.14-6-8.45-.1-11.87l1.69.16c-4.91,2.85-4.46,7.29.09,9.92Z"/></g><g class="cls-7"><polygon class="cls-39" points="194.5 227.3 198.85 224.76 188 163.24 183.65 165.77 194.5 227.3"/><polygon class="cls-40" points="183.65 165.77 188 163.24 157.09 145.47 152.74 148 183.65 165.77"/><polygon class="cls-39" points="152.74 148 163.59 209.53 194.5 227.3 183.65 165.77 152.74 148"/></g><g class="cls-7"><path class="cls-2" d="M81,10.38l5.32-3.06a3.14,3.14,0,0,1,3.19.31l-5.32,3.06A3.17,3.17,0,0,0,81,10.38Z"/><g class="cls-41"><g class="cls-7"><path class="cls-2" d="M81,10.38l5.32-3.06a3.14,3.14,0,0,1,3.19.31l-5.32,3.06A3.17,3.17,0,0,0,81,10.38Z"/></g></g><path class="cls-3" d="M282.8,251.73l-5.32,3.06a3.13,3.13,0,0,0,1.3-2.87l5.33-3.06A3.16,3.16,0,0,1,282.8,251.73Z"/><g class="cls-42"><g class="cls-7"><path class="cls-3" d="M278.78,251.92l5.33-3.06a3.16,3.16,0,0,1-1.31,2.87l-5.32,3.06A3.13,3.13,0,0,0,278.78,251.92Z"/></g></g><polygon class="cls-3" points="279.13 128.41 284.46 125.35 284.11 248.86 278.78 251.92 279.13 128.41"/><polygon class="cls-2" points="84.14 10.69 89.46 7.63 280 117.64 274.68 120.7 84.14 10.69"/><path class="cls-2" d="M274.68,120.7l5.32-3.06a9.83,9.83,0,0,1,4.46,7.71l-5.33,3.06A9.81,9.81,0,0,0,274.68,120.7Z"/><g class="cls-43"><g class="cls-7"><path class="cls-2" d="M274.68,120.7l5.32-3.06a9.83,9.83,0,0,1,4.46,7.71l-5.33,3.06A9.81,9.81,0,0,0,274.68,120.7Z"/></g></g><path class="cls-6" d="M274.68,120.7a9.81,9.81,0,0,1,4.45,7.71l-.35,123.51c0,2.84-2,4-4.48,2.56l-190.54-110a9.82,9.82,0,0,1-4.46-7.72l.35-123.51c0-2.83,2-4,4.49-2.55Z"/><path class="cls-2" d="M275.47,128.4l-.33,120.49v1.83L85.59,141.29A6.23,6.23,0,0,1,83,136.76l.35-122.32,1.54.89,188,108.54A6.23,6.23,0,0,1,275.47,128.4Z"/><path class="cls-44" d="M275.47,128.4l-.33,120.49-188-108.55a6.3,6.3,0,0,1-2.62-4.54l.34-120.47,188,108.54A6.23,6.23,0,0,1,275.47,128.4Z"/></g><g class="cls-45"><polygon class="cls-46" points="136.98 240.95 118.88 230.8 106.2 241.34 136.98 240.95"/></g><g class="cls-7"><polygon class="cls-6" points="93.47 250.68 93.73 251.71 161.59 290.47 161.33 289.44 93.47 250.68"/><polygon class="cls-3" points="161.33 289.44 161.59 290.47 188.12 269.15 187.85 266.61 161.33 289.44"/><polygon class="cls-2" points="93.47 250.68 161.33 289.44 187.85 266.61 119.98 227.84 93.47 250.68"/></g><g class="cls-7"><polygon class="cls-15" points="117.49 230.54 117.66 231.23 121.29 233.3 121.11 232.61 117.49 230.54"/><polygon class="cls-3" points="121.11 232.61 121.29 233.3 123.21 231.64 123.04 230.95 121.11 232.61"/><polygon class="cls-6" points="117.49 230.54 121.11 232.61 123.04 230.95 119.42 228.88 117.49 230.54"/></g><g class="cls-7"><polygon class="cls-15" points="112.65 235.03 112.82 235.72 116.44 237.79 116.27 237.1 112.65 235.03"/><polygon class="cls-3" points="116.27 237.1 116.44 237.79 119.97 234.75 119.79 234.07 116.27 237.1"/><polygon class="cls-6" points="112.65 235.03 116.27 237.1 119.79 234.07 116.17 232 112.65 235.03"/></g><g class="cls-7"><polygon class="cls-15" points="122.06 233.15 122.23 233.84 125.86 235.91 125.68 235.22 122.06 233.15"/><polygon class="cls-3" points="125.68 235.22 125.86 235.91 127.78 234.25 127.61 233.56 125.68 235.22"/><polygon class="cls-6" points="122.06 233.15 125.68 235.22 127.61 233.56 123.98 231.49 122.06 233.15"/></g><g class="cls-7"><polygon class="cls-15" points="117.04 237.54 117.21 238.23 120.83 240.3 120.66 239.61 117.04 237.54"/><polygon class="cls-3" points="120.66 239.61 120.83 240.3 124.36 237.26 124.18 236.57 120.66 239.61"/><polygon class="cls-6" points="117.04 237.54 120.66 239.61 124.18 236.57 120.56 234.5 117.04 237.54"/></g><g class="cls-7"><polygon class="cls-15" points="126.63 235.76 126.8 236.45 130.42 238.51 130.25 237.83 126.63 235.76"/><polygon class="cls-3" points="130.25 237.83 130.42 238.51 132.35 236.86 132.18 236.17 130.25 237.83"/><polygon class="cls-6" points="126.63 235.76 130.25 237.83 132.18 236.17 128.55 234.1 126.63 235.76"/></g><g class="cls-7"><polygon class="cls-15" points="121.43 240.05 121.6 240.73 125.22 242.8 125.05 242.12 121.43 240.05"/><polygon class="cls-3" points="125.05 242.12 125.22 242.8 128.75 239.77 128.57 239.08 125.05 242.12"/><polygon class="cls-6" points="121.43 240.05 125.05 242.12 128.57 239.08 124.95 237.01 121.43 240.05"/></g><g class="cls-7"><polygon class="cls-15" points="131.2 238.37 131.37 239.06 134.99 241.13 134.82 240.44 131.2 238.37"/><polygon class="cls-3" points="134.82 240.44 134.99 241.13 136.91 239.47 136.74 238.78 134.82 240.44"/><polygon class="cls-6" points="131.2 238.37 134.82 240.44 136.74 238.78 133.12 236.71 131.2 238.37"/></g><g class="cls-7"><polygon class="cls-15" points="125.82 242.56 125.99 243.24 129.61 245.31 129.44 244.62 125.82 242.56"/><polygon class="cls-3" points="129.44 244.62 129.61 245.31 133.13 242.28 132.96 241.59 129.44 244.62"/><polygon class="cls-6" points="125.82 242.56 129.44 244.62 132.96 241.59 129.34 239.52 125.82 242.56"/></g><g class="cls-7"><polygon class="cls-15" points="130.21 245.06 130.38 245.75 134 247.82 133.83 247.13 130.21 245.06"/><polygon class="cls-3" points="133.83 247.13 134 247.82 137.53 244.78 137.35 244.1 133.83 247.13"/><polygon class="cls-6" points="130.21 245.06 133.83 247.13 137.35 244.1 133.73 242.03 130.21 245.06"/></g><g class="cls-7"><polygon class="cls-15" points="138.05 242.28 138.22 242.97 141.84 245.04 141.67 244.35 138.05 242.28"/><polygon class="cls-3" points="141.67 244.35 141.84 245.04 143.76 243.38 143.59 242.69 141.67 244.35"/><polygon class="cls-6" points="138.05 242.28 141.67 244.35 143.59 242.69 139.97 240.63 138.05 242.28"/></g><g class="cls-7"><polygon class="cls-15" points="134.6 247.57 134.77 248.26 138.39 250.33 138.22 249.64 134.6 247.57"/><polygon class="cls-3" points="138.22 249.64 138.39 250.33 141.92 247.29 141.75 246.6 138.22 249.64"/><polygon class="cls-6" points="134.6 247.57 138.22 249.64 141.75 246.6 138.12 244.53 134.6 247.57"/></g><g class="cls-7"><polygon class="cls-15" points="142.62 244.89 142.79 245.58 146.41 247.65 146.24 246.96 142.62 244.89"/><polygon class="cls-3" points="146.24 246.96 146.41 247.65 148.33 245.99 148.16 245.3 146.24 246.96"/><polygon class="cls-6" points="142.62 244.89 146.24 246.96 148.16 245.3 144.54 243.24 142.62 244.89"/></g><g class="cls-7"><polygon class="cls-15" points="138.99 250.08 139.16 250.76 142.78 252.83 142.61 252.15 138.99 250.08"/><polygon class="cls-3" points="142.61 252.15 142.78 252.83 146.31 249.8 146.13 249.11 142.61 252.15"/><polygon class="cls-6" points="138.99 250.08 142.61 252.15 146.13 249.11 142.51 247.04 138.99 250.08"/></g><g class="cls-7"><polygon class="cls-15" points="147.19 247.5 147.36 248.19 150.98 250.26 150.81 249.57 147.19 247.5"/><polygon class="cls-3" points="150.81 249.57 150.98 250.26 152.9 248.6 152.73 247.91 150.81 249.57"/><polygon class="cls-6" points="147.19 247.5 150.81 249.57 152.73 247.91 149.11 245.84 147.19 247.5"/></g><g class="cls-7"><polygon class="cls-15" points="143.38 252.59 143.55 253.27 147.17 255.34 147 254.66 143.38 252.59"/><polygon class="cls-3" points="147 254.66 147.17 255.34 150.7 252.31 150.53 251.62 147 254.66"/><polygon class="cls-6" points="143.38 252.59 147 254.66 150.53 251.62 146.9 249.55 143.38 252.59"/></g><g class="cls-7"><polygon class="cls-15" points="151.75 250.11 151.92 250.8 155.55 252.87 155.38 252.18 151.75 250.11"/><polygon class="cls-3" points="155.38 252.18 155.55 252.87 157.47 251.21 157.3 250.52 155.38 252.18"/><polygon class="cls-6" points="151.75 250.11 155.38 252.18 157.3 250.52 153.68 248.45 151.75 250.11"/></g><g class="cls-7"><polygon class="cls-15" points="147.77 255.09 147.94 255.78 151.56 257.85 151.39 257.16 147.77 255.09"/><polygon class="cls-3" points="151.39 257.16 151.56 257.85 155.09 254.81 154.92 254.13 151.39 257.16"/><polygon class="cls-6" points="147.77 255.09 151.39 257.16 154.92 254.13 151.29 252.06 147.77 255.09"/></g><g class="cls-7"><polygon class="cls-15" points="158.6 254.02 158.78 254.71 162.4 256.78 162.23 256.09 158.6 254.02"/><polygon class="cls-3" points="162.23 256.09 162.4 256.78 164.32 255.12 164.15 254.44 162.23 256.09"/><polygon class="cls-6" points="158.6 254.02 162.23 256.09 164.15 254.44 160.53 252.37 158.6 254.02"/></g><g class="cls-7"><polygon class="cls-15" points="152.16 257.6 152.33 258.29 155.95 260.36 155.78 259.67 152.16 257.6"/><polygon class="cls-3" points="155.78 259.67 155.95 260.36 159.48 257.32 159.31 256.63 155.78 259.67"/><polygon class="cls-6" points="152.16 257.6 155.78 259.67 159.31 256.63 155.68 254.57 152.16 257.6"/></g><g class="cls-7"><polygon class="cls-15" points="163.17 256.63 163.34 257.32 166.97 259.39 166.79 258.7 163.17 256.63"/><polygon class="cls-3" points="166.79 258.7 166.97 259.39 168.89 257.73 168.72 257.05 166.79 258.7"/><polygon class="cls-6" points="163.17 256.63 166.79 258.7 168.72 257.05 165.09 254.98 163.17 256.63"/></g><g class="cls-7"><polygon class="cls-15" points="156.55 260.11 156.72 260.8 160.34 262.87 160.17 262.18 156.55 260.11"/><polygon class="cls-3" points="160.17 262.18 160.34 262.87 163.87 259.83 163.7 259.14 160.17 262.18"/><polygon class="cls-6" points="156.55 260.11 160.17 262.18 163.7 259.14 160.07 257.07 156.55 260.11"/></g><g class="cls-7"><polygon class="cls-15" points="167.74 259.24 167.91 259.93 171.53 262 171.36 261.31 167.74 259.24"/><polygon class="cls-3" points="171.36 261.31 171.53 262 173.46 260.34 173.28 259.65 171.36 261.31"/><polygon class="cls-6" points="167.74 259.24 171.36 261.31 173.28 259.65 169.66 257.59 167.74 259.24"/></g><g class="cls-7"><polygon class="cls-15" points="160.94 262.62 161.11 263.3 164.73 265.37 164.56 264.69 160.94 262.62"/><polygon class="cls-3" points="164.56 264.69 164.73 265.37 168.26 262.34 168.09 261.65 164.56 264.69"/><polygon class="cls-6" points="160.94 262.62 164.56 264.69 168.09 261.65 164.46 259.58 160.94 262.62"/></g><g class="cls-7"><polygon class="cls-15" points="172.31 261.85 172.48 262.54 176.1 264.61 175.93 263.92 172.31 261.85"/><polygon class="cls-3" points="175.93 263.92 176.1 264.61 178.03 262.95 177.85 262.26 175.93 263.92"/><polygon class="cls-6" points="172.31 261.85 175.93 263.92 177.85 262.26 174.23 260.2 172.31 261.85"/></g><g class="cls-7"><polygon class="cls-15" points="165.33 265.13 165.5 265.81 169.12 267.88 168.95 267.19 165.33 265.13"/><polygon class="cls-3" points="168.95 267.19 169.12 267.88 172.65 264.85 172.48 264.16 168.95 267.19"/><polygon class="cls-6" points="165.33 265.13 168.95 267.19 172.48 264.16 168.85 262.09 165.33 265.13"/></g><g class="cls-7"><polygon class="cls-15" points="169.72 267.63 169.89 268.32 173.51 270.39 173.34 269.7 169.72 267.63"/><polygon class="cls-3" points="173.34 269.7 173.51 270.39 177.04 267.35 176.87 266.67 173.34 269.7"/><polygon class="cls-6" points="169.72 267.63 173.34 269.7 176.87 266.67 173.24 264.6 169.72 267.63"/></g><g class="cls-7"><polygon class="cls-15" points="179.18 265.78 179.35 266.46 182.97 268.53 182.8 267.85 179.18 265.78"/><polygon class="cls-3" points="182.8 267.85 182.97 268.53 184.9 266.88 184.72 266.19 182.8 267.85"/><polygon class="cls-6" points="179.18 265.78 182.8 267.85 184.72 266.19 181.1 264.12 179.18 265.78"/></g><g class="cls-7"><polygon class="cls-15" points="174.11 270.14 174.28 270.83 177.9 272.9 177.73 272.21 174.11 270.14"/><polygon class="cls-3" points="177.73 272.21 177.9 272.9 181.43 269.86 181.26 269.17 177.73 272.21"/><polygon class="cls-6" points="174.11 270.14 177.73 272.21 181.26 269.17 177.63 267.11 174.11 270.14"/></g><g class="cls-7"><polygon class="cls-15" points="112.06 240.72 112.23 241.41 114.43 242.66 114.26 241.98 112.06 240.72"/><polygon class="cls-3" points="114.26 241.98 114.43 242.66 117.95 239.63 117.78 238.94 114.26 241.98"/><polygon class="cls-15" points="104.24 242.28 104.41 242.96 108.03 245.03 107.86 244.34 104.24 242.28"/><polygon class="cls-6" points="104.24 242.28 107.86 244.34 112.06 240.72 114.26 241.98 117.78 238.94 111.97 235.62 110.73 236.68 108.44 238.65 104.24 242.28"/><polygon class="cls-3" points="107.86 244.34 108.03 245.03 112.23 241.41 112.06 240.72 107.86 244.34"/><polygon class="cls-3" points="118.65 244.49 118.82 245.17 122.34 242.13 122.17 241.45 118.65 244.49"/><polygon class="cls-15" points="115.03 242.41 115.2 243.1 118.82 245.17 118.65 244.49 115.03 242.41"/><polygon class="cls-6" points="115.03 242.41 118.65 244.49 122.17 241.45 118.55 239.38 115.03 242.41"/><polygon class="cls-15" points="108.63 244.78 108.8 245.47 112.42 247.54 112.25 246.85 108.63 244.78"/><polygon class="cls-6" points="108.63 244.78 112.25 246.85 115.77 243.82 112.15 241.75 108.63 244.78"/><polygon class="cls-3" points="112.25 246.85 112.42 247.54 115.94 244.5 115.77 243.82 112.25 246.85"/></g><g class="cls-7"><polygon class="cls-15" points="119.42 244.92 119.59 245.61 123.21 247.68 123.04 246.99 119.42 244.92"/><polygon class="cls-3" points="123.04 246.99 123.21 247.68 126.74 244.64 126.56 243.96 123.04 246.99"/><polygon class="cls-6" points="119.42 244.92 123.04 246.99 126.56 243.96 122.94 241.89 119.42 244.92"/></g><g class="cls-7"><polygon class="cls-15" points="123.81 247.43 123.98 248.12 127.6 250.19 127.43 249.5 123.81 247.43"/><polygon class="cls-3" points="127.43 249.5 127.6 250.19 131.13 247.15 130.95 246.46 127.43 249.5"/><polygon class="cls-6" points="123.81 247.43 127.43 249.5 130.95 246.46 127.33 244.4 123.81 247.43"/></g><g class="cls-7"><polygon class="cls-15" points="128.2 249.94 128.37 250.63 131.99 252.69 131.82 252.01 128.2 249.94"/><polygon class="cls-3" points="131.82 252.01 131.99 252.69 135.52 249.66 135.34 248.97 131.82 252.01"/><polygon class="cls-6" points="128.2 249.94 131.82 252.01 135.34 248.97 131.72 246.9 128.2 249.94"/></g><g class="cls-7"><polygon class="cls-15" points="132.59 252.45 132.76 253.13 136.38 255.2 136.21 254.52 132.59 252.45"/><polygon class="cls-3" points="136.21 254.52 136.38 255.2 139.91 252.17 139.74 251.48 136.21 254.52"/><polygon class="cls-6" points="132.59 252.45 136.21 254.52 139.74 251.48 136.11 249.41 132.59 252.45"/></g><g class="cls-7"><polygon class="cls-15" points="113.02 247.29 113.19 247.98 116.81 250.05 116.64 249.36 113.02 247.29"/><polygon class="cls-3" points="116.64 249.36 116.81 250.05 120.34 247.01 120.16 246.32 116.64 249.36"/><polygon class="cls-6" points="113.02 247.29 116.64 249.36 120.16 246.32 116.54 244.26 113.02 247.29"/></g><g class="cls-7"><polygon class="cls-15" points="117.41 249.8 117.58 250.49 121.2 252.55 121.03 251.87 117.41 249.8"/><polygon class="cls-3" points="121.03 251.87 121.2 252.55 124.73 249.52 124.56 248.83 121.03 251.87"/><polygon class="cls-6" points="117.41 249.8 121.03 251.87 124.56 248.83 120.93 246.76 117.41 249.8"/></g><g class="cls-7"><polygon class="cls-15" points="121.8 252.31 121.97 252.99 125.59 255.06 125.42 254.38 121.8 252.31"/><polygon class="cls-3" points="125.42 254.38 125.59 255.06 129.12 252.03 128.94 251.34 125.42 254.38"/><polygon class="cls-6" points="121.8 252.31 125.42 254.38 128.94 251.34 125.32 249.27 121.8 252.31"/></g><g class="cls-7"><polygon class="cls-15" points="126.19 254.81 126.36 255.5 129.98 257.57 129.81 256.88 126.19 254.81"/><polygon class="cls-3" points="129.81 256.88 129.98 257.57 133.51 254.53 133.34 253.85 129.81 256.88"/><polygon class="cls-6" points="126.19 254.81 129.81 256.88 133.34 253.85 129.71 251.78 126.19 254.81"/></g><g class="cls-7"><polygon class="cls-15" points="136.98 254.96 137.15 255.64 140.77 257.71 140.6 257.02 136.98 254.96"/><polygon class="cls-3" points="140.6 257.02 140.77 257.71 144.3 254.67 144.13 253.99 140.6 257.02"/><polygon class="cls-6" points="136.98 254.96 140.6 257.02 144.13 253.99 140.5 251.92 136.98 254.96"/></g><g class="cls-7"><polygon class="cls-15" points="130.58 257.32 130.75 258.01 134.37 260.08 134.2 259.39 130.58 257.32"/><polygon class="cls-3" points="134.2 259.39 134.37 260.08 137.9 257.04 137.72 256.36 134.2 259.39"/><polygon class="cls-6" points="130.58 257.32 134.2 259.39 137.72 256.36 134.1 254.29 130.58 257.32"/></g><g class="cls-7"><polygon class="cls-15" points="141.37 257.46 141.54 258.15 145.16 260.22 144.99 259.53 141.37 257.46"/><polygon class="cls-3" points="144.99 259.53 145.16 260.22 148.69 257.18 148.51 256.5 144.99 259.53"/><polygon class="cls-6" points="141.37 257.46 144.99 259.53 148.51 256.5 144.89 254.43 141.37 257.46"/></g><g class="cls-7"><polygon class="cls-15" points="134.97 259.83 135.14 260.52 138.76 262.58 138.59 261.9 134.97 259.83"/><polygon class="cls-3" points="138.59 261.9 138.76 262.58 142.29 259.55 142.12 258.86 138.59 261.9"/><polygon class="cls-6" points="134.97 259.83 138.59 261.9 142.12 258.86 138.49 256.79 134.97 259.83"/></g><g class="cls-7"><polygon class="cls-15" points="145.76 259.97 145.93 260.66 149.55 262.73 149.38 262.04 145.76 259.97"/><polygon class="cls-3" points="149.38 262.04 149.55 262.73 153.08 259.69 152.91 259 149.38 262.04"/><polygon class="cls-6" points="145.76 259.97 149.38 262.04 152.91 259 149.28 256.93 145.76 259.97"/></g><g class="cls-7"><polygon class="cls-15" points="139.36 262.34 139.53 263.02 143.15 265.09 142.98 264.41 139.36 262.34"/><polygon class="cls-3" points="142.98 264.41 143.15 265.09 146.68 262.06 146.5 261.37 142.98 264.41"/><polygon class="cls-6" points="139.36 262.34 142.98 264.41 146.5 261.37 142.88 259.3 139.36 262.34"/></g><g class="cls-7"><polygon class="cls-15" points="150.15 262.48 150.32 263.16 153.94 265.23 153.77 264.55 150.15 262.48"/><polygon class="cls-3" points="153.77 264.55 153.94 265.23 157.47 262.2 157.3 261.51 153.77 264.55"/><polygon class="cls-6" points="150.15 262.48 153.77 264.55 157.3 261.51 153.67 259.44 150.15 262.48"/></g><g class="cls-7"><polygon class="cls-15" points="143.75 264.85 143.92 265.53 147.54 267.6 147.37 266.91 143.75 264.85"/><polygon class="cls-3" points="147.37 266.91 147.54 267.6 151.07 264.56 150.9 263.88 147.37 266.91"/><polygon class="cls-6" points="143.75 264.85 147.37 266.91 150.9 263.88 147.27 261.81 143.75 264.85"/></g><g class="cls-7"><polygon class="cls-15" points="154.54 264.99 154.71 265.67 158.33 267.74 158.16 267.06 154.54 264.99"/><polygon class="cls-3" points="158.16 267.06 158.33 267.74 161.86 264.7 161.69 264.02 158.16 267.06"/><polygon class="cls-6" points="154.54 264.99 158.16 267.06 161.69 264.02 158.06 261.95 154.54 264.99"/></g><g class="cls-7"><polygon class="cls-15" points="148.14 267.35 148.31 268.04 151.93 270.11 151.76 269.42 148.14 267.35"/><polygon class="cls-3" points="151.76 269.42 151.93 270.11 155.46 267.07 155.29 266.39 151.76 269.42"/><polygon class="cls-6" points="148.14 267.35 151.76 269.42 155.29 266.39 151.66 264.32 148.14 267.35"/></g><g class="cls-7"><polygon class="cls-15" points="158.93 267.49 159.1 268.18 162.72 270.25 162.55 269.56 158.93 267.49"/><polygon class="cls-3" points="162.55 269.56 162.72 270.25 166.25 267.21 166.08 266.53 162.55 269.56"/><polygon class="cls-6" points="158.93 267.49 162.55 269.56 166.08 266.53 162.45 264.46 158.93 267.49"/></g><g class="cls-7"><polygon class="cls-15" points="152.53 269.86 152.7 270.55 156.32 272.62 156.15 271.93 152.53 269.86"/><polygon class="cls-3" points="156.15 271.93 156.32 272.62 159.85 269.58 159.68 268.89 156.15 271.93"/><polygon class="cls-6" points="152.53 269.86 156.15 271.93 159.68 268.89 156.05 266.82 152.53 269.86"/></g><g class="cls-7"><polygon class="cls-15" points="163.32 270 163.49 270.69 173.7 276.52 173.53 275.83 163.32 270"/><polygon class="cls-3" points="173.53 275.83 173.7 276.52 177.22 273.48 177.05 272.8 173.53 275.83"/><polygon class="cls-6" points="163.32 270 173.53 275.83 177.05 272.8 166.84 266.96 163.32 270"/></g><g class="cls-7"><polygon class="cls-15" points="156.92 272.37 157.09 273.06 160.71 275.12 160.54 274.44 156.92 272.37"/><polygon class="cls-3" points="160.54 274.44 160.71 275.12 164.24 272.09 164.07 271.4 160.54 274.44"/><polygon class="cls-6" points="156.92 272.37 160.54 274.44 164.07 271.4 160.44 269.33 156.92 272.37"/></g><g class="cls-7"><polygon class="cls-15" points="100.03 245.9 100.2 246.58 106.02 249.91 105.85 249.22 100.03 245.9"/><polygon class="cls-3" points="105.85 249.22 106.02 249.91 109.55 246.87 109.37 246.19 105.85 249.22"/><polygon class="cls-6" points="100.03 245.9 105.85 249.22 109.37 246.19 103.56 242.86 100.03 245.9"/></g><g class="cls-7"><polygon class="cls-15" points="106.62 249.66 106.79 250.35 110.41 252.41 110.24 251.73 106.62 249.66"/><polygon class="cls-3" points="110.24 251.73 110.41 252.41 113.94 249.38 113.76 248.69 110.24 251.73"/><polygon class="cls-6" points="106.62 249.66 110.24 251.73 113.76 248.69 110.14 246.62 106.62 249.66"/></g><g class="cls-7"><polygon class="cls-15" points="111.01 252.17 111.18 252.85 114.8 254.92 114.63 254.24 111.01 252.17"/><polygon class="cls-3" points="114.63 254.24 114.8 254.92 118.33 251.89 118.15 251.2 114.63 254.24"/><polygon class="cls-6" points="111.01 252.17 114.63 254.24 118.15 251.2 114.53 249.13 111.01 252.17"/></g><g class="cls-7"><polygon class="cls-15" points="115.4 254.67 115.57 255.36 119.19 257.43 119.02 256.74 115.4 254.67"/><polygon class="cls-3" points="119.02 256.74 119.19 257.43 122.72 254.39 122.55 253.71 119.02 256.74"/><polygon class="cls-6" points="115.4 254.67 119.02 256.74 122.55 253.71 118.92 251.64 115.4 254.67"/></g><g class="cls-7"><polygon class="cls-15" points="119.79 257.18 119.96 257.87 123.58 259.94 123.41 259.25 119.79 257.18"/><polygon class="cls-3" points="123.41 259.25 123.58 259.94 127.11 256.9 126.94 256.22 123.41 259.25"/><polygon class="cls-6" points="119.79 257.18 123.41 259.25 126.94 256.22 123.31 254.15 119.79 257.18"/></g><g class="cls-7"><polygon class="cls-15" points="124.18 259.69 124.35 260.38 127.97 262.44 127.8 261.76 124.18 259.69"/><polygon class="cls-3" points="127.8 261.76 127.97 262.44 131.5 259.41 131.32 258.72 127.8 261.76"/><polygon class="cls-6" points="124.18 259.69 127.8 261.76 131.32 258.72 127.7 256.65 124.18 259.69"/></g><g class="cls-7"><polygon class="cls-15" points="128.57 262.2 128.74 262.88 132.36 264.95 132.19 264.27 128.57 262.2"/><polygon class="cls-3" points="132.19 264.27 132.36 264.95 135.89 261.92 135.72 261.23 132.19 264.27"/><polygon class="cls-6" points="128.57 262.2 132.19 264.27 135.72 261.23 132.09 259.16 128.57 262.2"/></g><g class="cls-7"><polygon class="cls-15" points="132.96 264.7 133.13 265.39 136.75 267.46 136.58 266.77 132.96 264.7"/><polygon class="cls-3" points="136.58 266.77 136.75 267.46 140.28 264.43 140.11 263.74 136.58 266.77"/><polygon class="cls-6" points="132.96 264.7 136.58 266.77 140.11 263.74 136.48 261.67 132.96 264.7"/></g><g class="cls-7"><polygon class="cls-15" points="137.35 267.21 137.52 267.9 141.14 269.97 140.97 269.28 137.35 267.21"/><polygon class="cls-3" points="140.97 269.28 141.14 269.97 144.67 266.93 144.5 266.25 140.97 269.28"/><polygon class="cls-6" points="137.35 267.21 140.97 269.28 144.5 266.25 140.87 264.18 137.35 267.21"/></g><g class="cls-7"><polygon class="cls-15" points="141.74 269.72 141.91 270.41 145.53 272.48 145.36 271.79 141.74 269.72"/><polygon class="cls-3" points="145.36 271.79 145.53 272.48 149.06 269.44 148.89 268.75 145.36 271.79"/><polygon class="cls-6" points="141.74 269.72 145.36 271.79 148.89 268.75 145.26 266.69 141.74 269.72"/></g><g class="cls-7"><polygon class="cls-15" points="146.13 272.23 146.3 272.92 149.92 274.98 149.75 274.3 146.13 272.23"/><polygon class="cls-3" points="149.75 274.3 149.92 274.98 153.45 271.95 153.28 271.26 149.75 274.3"/><polygon class="cls-6" points="146.13 272.23 149.75 274.3 153.28 271.26 149.65 269.19 146.13 272.23"/></g><g class="cls-7"><polygon class="cls-15" points="150.52 274.74 150.69 275.42 154.31 277.49 154.14 276.81 150.52 274.74"/><polygon class="cls-3" points="154.14 276.81 154.31 277.49 157.84 274.46 157.67 273.77 154.14 276.81"/><polygon class="cls-6" points="150.52 274.74 154.14 276.81 157.67 273.77 154.04 271.7 150.52 274.74"/></g><g class="cls-7"><polygon class="cls-15" points="95.83 249.52 96 250.21 104.01 254.78 103.84 254.1 95.83 249.52"/><polygon class="cls-3" points="103.84 254.1 104.01 254.78 107.54 251.75 107.36 251.06 103.84 254.1"/><polygon class="cls-6" points="95.83 249.52 103.84 254.1 107.36 251.06 99.35 246.48 95.83 249.52"/></g><g class="cls-7"><polygon class="cls-15" points="104.61 254.53 104.78 255.22 108.4 257.29 108.23 256.6 104.61 254.53"/><polygon class="cls-3" points="108.23 256.6 108.4 257.29 111.93 254.25 111.75 253.57 108.23 256.6"/><polygon class="cls-6" points="104.61 254.53 108.23 256.6 111.75 253.57 108.13 251.5 104.61 254.53"/></g><g class="cls-7"><polygon class="cls-15" points="109 257.04 109.17 257.73 112.79 259.8 112.62 259.11 109 257.04"/><polygon class="cls-3" points="112.62 259.11 112.79 259.8 116.32 256.76 116.14 256.08 112.62 259.11"/><polygon class="cls-6" points="109 257.04 112.62 259.11 116.14 256.08 112.52 254.01 109 257.04"/></g><g class="cls-7"><polygon class="cls-15" points="113.39 259.55 113.56 260.24 143.52 277.35 143.35 276.67 113.39 259.55"/><polygon class="cls-3" points="143.35 276.67 143.52 277.35 147.05 274.32 146.88 273.63 143.35 276.67"/><polygon class="cls-6" points="113.39 259.55 143.35 276.67 146.88 273.63 116.91 256.51 113.39 259.55"/></g><g class="cls-7"><polygon class="cls-15" points="144.12 277.1 144.29 277.79 147.91 279.86 147.74 279.17 144.12 277.1"/><polygon class="cls-3" points="147.74 279.17 147.91 279.86 151.44 276.82 151.27 276.14 147.74 279.17"/><polygon class="cls-6" points="144.12 277.1 147.74 279.17 151.27 276.14 147.65 274.07 144.12 277.1"/></g><g class="cls-7"><polygon class="cls-15" points="161.31 274.88 161.48 275.56 169.49 280.14 169.32 279.45 161.31 274.88"/><polygon class="cls-3" points="169.32 279.45 169.49 280.14 173.02 277.1 172.85 276.42 169.32 279.45"/><polygon class="cls-6" points="161.31 274.88 169.32 279.45 172.85 276.42 164.84 271.84 161.31 274.88"/></g><g class="cls-7"><polygon class="cls-15" points="154.91 277.24 155.08 277.93 158.7 280 158.53 279.31 154.91 277.24"/><polygon class="cls-3" points="158.53 279.31 158.7 280 162.23 276.96 162.06 276.28 158.53 279.31"/><polygon class="cls-6" points="154.91 277.24 158.53 279.31 162.06 276.28 158.43 274.21 154.91 277.24"/></g><g class="cls-7"><polygon class="cls-15" points="148.51 279.61 148.68 280.3 152.3 282.37 152.13 281.68 148.51 279.61"/><polygon class="cls-3" points="152.13 281.68 152.3 282.37 155.83 279.33 155.66 278.64 152.13 281.68"/><polygon class="cls-6" points="148.51 279.61 152.13 281.68 155.66 278.64 152.03 276.58 148.51 279.61"/></g><g class="cls-7"><polygon class="cls-15" points="159.3 279.75 159.47 280.44 165.29 283.76 165.12 283.07 159.3 279.75"/><polygon class="cls-3" points="165.12 283.07 165.29 283.76 168.81 280.73 168.64 280.04 165.12 283.07"/><polygon class="cls-6" points="159.3 279.75 165.12 283.07 168.64 280.04 162.82 276.72 159.3 279.75"/></g><g class="cls-7"><polygon class="cls-15" points="152.9 282.12 153.07 282.81 161.08 287.38 160.91 286.7 152.9 282.12"/><polygon class="cls-3" points="160.91 286.7 161.08 287.38 164.61 284.35 164.44 283.66 160.91 286.7"/><polygon class="cls-6" points="152.9 282.12 160.91 286.7 164.44 283.66 156.43 279.08 152.9 282.12"/></g><g class="cls-7"><polygon class="cls-2" points="232.38 128.82 229.46 127.13 168.12 334.96 171.03 336.66 232.38 128.82"/><polygon class="cls-6" points="236.33 128.42 233.41 126.72 229.46 127.13 232.38 128.82 236.33 128.42"/><polygon class="cls-4" points="232.38 128.82 171.03 336.66 174.98 336.25 236.33 128.42 232.38 128.82"/></g><g class="cls-7"><polygon class="cls-4" points="256.67 170.37 258.96 169.03 258.97 165.58 256.68 166.92 256.67 170.37"/><polygon class="cls-4" points="256.68 166.92 258.97 165.58 228.6 148.05 226.31 149.39 256.68 166.92"/><polygon class="cls-2" points="226.31 149.39 223.85 151.42 256.67 170.37 256.68 166.92 226.31 149.39"/></g><g class="cls-7"><polygon class="cls-4" points="249.12 195.45 251.42 194.12 251.43 190.67 249.13 192 249.12 195.45"/><polygon class="cls-4" points="249.13 192 251.43 190.67 221.06 173.13 218.76 174.47 249.13 192"/><polygon class="cls-2" points="218.76 174.47 216.31 176.51 249.12 195.45 249.13 192 218.76 174.47"/></g><g class="cls-7"><polygon class="cls-4" points="241.8 220.63 244.1 219.29 244.11 215.85 241.81 217.18 241.8 220.63"/><polygon class="cls-4" points="241.81 217.18 244.11 215.85 213.74 198.31 211.44 199.65 241.81 217.18"/><polygon class="cls-2" points="211.44 199.65 208.99 201.69 241.8 220.63 241.81 217.18 211.44 199.65"/></g><g class="cls-7"><polygon class="cls-4" points="234.24 245.7 236.53 244.37 236.54 240.92 234.25 242.25 234.24 245.7"/><polygon class="cls-4" points="234.25 242.25 236.54 240.92 206.18 223.39 203.88 224.72 234.25 242.25"/><polygon class="cls-2" points="203.88 224.72 201.43 226.76 234.24 245.7 234.25 242.25 203.88 224.72"/></g><g class="cls-7"><polygon class="cls-4" points="226.92 270.88 229.22 269.55 229.23 266.1 226.93 267.44 226.92 270.88"/><polygon class="cls-4" points="226.93 267.44 229.23 266.1 198.86 248.57 196.56 249.9 226.93 267.44"/><polygon class="cls-2" points="196.56 249.9 194.11 251.94 226.92 270.88 226.93 267.44 196.56 249.9"/></g><g class="cls-7"><polygon class="cls-4" points="226.9 270.88 229.2 269.55 229.21 266.1 226.91 267.44 226.9 270.88"/><polygon class="cls-4" points="226.91 267.44 229.21 266.1 198.84 248.57 196.54 249.9 226.91 267.44"/></g><g class="cls-7"><polygon class="cls-4" points="219.58 296.06 221.88 294.73 221.89 291.28 219.59 292.62 219.58 296.06"/><polygon class="cls-4" points="219.59 292.62 221.89 291.28 191.52 273.75 189.22 275.08 219.59 292.62"/><polygon class="cls-2" points="189.22 275.08 186.77 277.12 219.58 296.06 219.59 292.62 189.22 275.08"/></g><g class="cls-7"><polygon class="cls-4" points="212.14 321.21 214.44 319.87 214.45 316.42 212.15 317.76 212.14 321.21"/><polygon class="cls-4" points="212.15 317.76 214.45 316.42 184.08 298.89 181.78 300.23 212.15 317.76"/><polygon class="cls-2" points="181.78 300.23 179.33 302.26 212.14 321.21 212.15 317.76 181.78 300.23"/></g><g class="cls-7"><polygon class="cls-4" points="204.7 346.32 207 344.98 207.01 341.54 204.71 342.87 204.7 346.32"/><polygon class="cls-4" points="204.71 342.87 207.01 341.54 176.64 324 174.34 325.34 204.71 342.87"/><polygon class="cls-2" points="174.34 325.34 171.89 327.38 204.7 346.32 204.71 342.87 174.34 325.34"/></g><g class="cls-7"><polygon class="cls-2" points="264.81 147.71 261.89 146.02 200.55 353.85 203.47 355.54 264.81 147.71"/><polygon class="cls-6" points="268.76 147.3 265.84 145.61 261.89 146.02 264.81 147.71 268.76 147.3"/><polygon class="cls-4" points="264.81 147.71 203.47 355.54 207.41 355.14 268.76 147.3 264.81 147.71"/></g><g id="man"><g id="man-2" data-name="man"><path class="cls-47" d="M197.18,313.25c.25-.57.65-.36,1.12-.44A4.26,4.26,0,0,0,200,312c.62-.43,1.17-.95,1.75-1.43a15.92,15.92,0,0,1,5.11-2.83,5.42,5.42,0,0,1,2.67-.32,5.49,5.49,0,0,1,1.93.68,2.49,2.49,0,0,1,1,1.22,4.09,4.09,0,0,1,.07,1.56,4.7,4.7,0,0,1-.27,1.39,5.63,5.63,0,0,1-1.79,2.18,9.74,9.74,0,0,1-2.76,1.78,22.42,22.42,0,0,0-2.55.85,5.42,5.42,0,0,0-1.42,1.1c-.33.35-.6.81-1,1a6.24,6.24,0,0,1-3,.74,3.23,3.23,0,0,1-3.34-3.52,10,10,0,0,1,.48-2.15A8.35,8.35,0,0,1,197.18,313.25Z"/></g><g id="man-3" data-name="man"><path class="cls-47" d="M180.09,328.58c.28-.55.67-.33,1.14-.39a4.54,4.54,0,0,0,1.68-.71c.63-.41,1.2-.91,1.81-1.37a16.08,16.08,0,0,1,5.21-2.62,5.21,5.21,0,0,1,3.69-.06,3.73,3.73,0,0,1,1.62,1.45,3,3,0,0,1,.25,2,4.56,4.56,0,0,1-.32,1.37,5.79,5.79,0,0,1-1.88,2.12,9.84,9.84,0,0,1-2.83,1.66,25.35,25.35,0,0,0-2.58.74,5.83,5.83,0,0,0-1.46,1.05,4.32,4.32,0,0,1-1.07,1,6.15,6.15,0,0,1-3,.62,3.25,3.25,0,0,1-3.2-3.65,10.47,10.47,0,0,1,.57-2.13C179.89,329.18,180,328.83,180.09,328.58Z"/></g><path class="cls-48" d="M190.74,277.23a1.05,1.05,0,0,0-.85-1.25c-2.19-.68-4.4-1.39-6.63-1.93a18.73,18.73,0,0,0-4-.57l-2.92-2.63a30.27,30.27,0,0,0-.28,7.66c.63,5.54,2.08,18.34,2.46,24.44.26,4.13.26,8.27.29,12.41s.35,8.12.64,12.16a3.79,3.79,0,0,0,.82,2.53,4.43,4.43,0,0,0,2.55,1.17,5,5,0,0,0,4-1.42c.66-.65.63-1.95.73-2.83s.13-1.59.16-2.39c.09-2.3.09-4.61.17-6.91s.21-4.87.37-7.3c.12-1.59.24-3.18.38-4.78l.24-2.63c.26-2.47.66-4.93.9-7.44q.67-7,.86-14.08c0-1.18.05-2.36.06-3.53C190.73,277.66,190.74,277.43,190.74,277.23Z"/><path class="cls-49" d="M191.89,264.3c-2.18-.06-4.81,4.55-6.16,5.85s-2.56,2.35-3.89,3.47a11.65,11.65,0,0,1-1.93,1.59c-.59.3-1.31.25-1.93.57s-2.16-1.81-2.25-1.27a8,8,0,0,0,2.34,5c6,4.35,13.6,5.59,19.39,10.17,2.44,1.93,4.39,4.39,6.64,6.54a3.64,3.64,0,0,0,.91.69,3.34,3.34,0,0,0,2,.19c2.37-.29,1.74-1.6,2.51-4.11.58-1.87,3.62-1.93,3.32-3.87-.45-2.85-2.72-4.9-4-6.37-5-5.59-9.69-11.42-14.72-17a4.39,4.39,0,0,0-1.76-1.36A1.14,1.14,0,0,0,191.89,264.3Z"/><path class="cls-50" d="M203.08,243c0,.69-.06,2-.73,2.48a6.22,6.22,0,0,1-2.4.3c-2,.18-3.95.31-5.92.43-.9.06-1.8.12-2.69.15a40.39,40.39,0,0,1-7.79-.51,8.26,8.26,0,0,1-3.43-1.07,2.92,2.92,0,0,1-.73-2.76,5.29,5.29,0,0,1,3-4.45c1.79-.72,3.57-.41,5.35-.19a96.18,96.18,0,0,1,12.17,2.37,5.76,5.76,0,0,1,2,.81A3.35,3.35,0,0,1,203.08,243Z"/><path class="cls-51" d="M202.38,240.76v-.19a6.24,6.24,0,0,0-.65-3.28,7.39,7.39,0,0,0-2.43-1.77,42.83,42.83,0,0,0-8.64-4.26c-4.61-1.66-9.31-5-14.23-2.26a6.3,6.3,0,0,0-1.39,1c-2.53,2.46-2.24,6.44-1.84,9.63.51,4.11,1.73,8.08,2.44,12.16.15.84.28,1.7.39,2.55.37,3,.1,6,.5,8.92.35,2.55-.45,5.46-.78,8-.21,1.58-.38,3.31.48,4.64s2.76,2,4.43,2.34c6.12,1.41,12.67,2.49,18.57.33a4.1,4.1,0,0,0,2.57-2,4.71,4.71,0,0,0,.13-2.18,124.62,124.62,0,0,1-.22-24.88A76.13,76.13,0,0,0,202.38,240.76Z"/><path class="cls-52" d="M201.59,236.72c-1.72-1.11-3.87-1.9-5.68-.93a4.85,4.85,0,0,0-1.68,1.69,8,8,0,0,0-.93,1.79,6.45,6.45,0,0,0,.45,4.79,7.13,7.13,0,0,0,3.85,3.37c1.42.66,2.82,1.4,4.2,2.16a67.46,67.46,0,0,0,8.43,4.19c1.7.63,3.62,1.07,5.13.12a4.12,4.12,0,0,0,1.77-3.25c.18-3.29-2-3.87-2.31-4.09C204.92,239.42,201.36,236.58,201.59,236.72Z"/><path class="cls-53" d="M225.33,240.18c.08-.21.14-.42.24-.63a13.74,13.74,0,0,1,1.94-3,5.44,5.44,0,0,1,2.51-2c.92-.2,1.71-.54,2.56.11a1,1,0,0,1,.38.56c0,.19-.09.39-.06.54.08.36.68.65.92.95a.6.6,0,0,1,.17.59c-.08.15-.29.25-.28.42s.33.28.27.56c0,.1-.12.17-.13.28s.1.26.13.38a1.27,1.27,0,0,1,0,.58.24.24,0,0,1-.24.25c-.54.11-1.05,0-1.59.05a1.94,1.94,0,0,0-1.08.57,12.26,12.26,0,0,0-.82.94,7.16,7.16,0,0,1-1.13,1c-.35.24-1.09.68-1.25.82Z"/><path class="cls-52" d="M228.29,239.87a3.51,3.51,0,0,1,.82,2.47c-.18.62-1.08,1.2-1.48,1.61-1.26,1.27-2.55,2.51-3.84,3.74-.59.56-1.17,1.11-1.77,1.65a32.38,32.38,0,0,1-5.63,4,6.08,6.08,0,0,1-2.93,1.07c-.88-.09-1.5-.92-2-1.87a6.06,6.06,0,0,1-.35-5.36,8.56,8.56,0,0,1,3.58-3.2,73.9,73.9,0,0,1,9.63-5,4.57,4.57,0,0,1,1.83-.48A3.06,3.06,0,0,1,228.29,239.87Z"/><path class="cls-53" d="M191.89,227.26c.18-1.22,1.1-.94.63-2a5.84,5.84,0,0,0-1.8-2.42,4.26,4.26,0,0,0-2.84-.94c-.35,0-.58.22-.93.22a21.3,21.3,0,0,0-2.88,0c-.95.14-1.83.21-1.83,1.28a13.08,13.08,0,0,1-.39,4.22,9.85,9.85,0,0,0-.68,2.27,4,4,0,0,0,2.4,3.67,9.4,9.4,0,0,0,5.5.5c.92-.14,2.22-.32,2.76-1.2a3.53,3.53,0,0,0,.14-2.25A12.35,12.35,0,0,1,191.89,227.26Z"/><path class="cls-53" d="M196,211.68a5,5,0,0,1,1.17,2.42c.31,2.07-.52,4.19-.07,6.24s-.42,6.51-4.34,7.66c-2,.59-5.9-.1-7.16-.7a10.12,10.12,0,0,1-3.8-4C173.58,210.27,190.42,204.92,196,211.68Z"/><path class="cls-47" d="M179.37,209.12a5.09,5.09,0,0,1,1.48-1,1.36,1.36,0,0,0,.5-.31,1.83,1.83,0,0,0,.21-.39A3.16,3.16,0,0,1,183,206a11.59,11.59,0,0,1,7.31-.92,9.38,9.38,0,0,1,2.45.62,8.51,8.51,0,0,1,2.38,1.62,9.48,9.48,0,0,1,2.47,3.28,16.72,16.72,0,0,1,.46,1.82,1.46,1.46,0,0,1-.49,1.52c-.19.15-.42.25-.62.38-.83.56-1,1.86-1.35,2.73-.22.56-.67.86-.8,1.45a16.59,16.59,0,0,1-.32,1.87c-.09.29-.28.6-.59.62a.64.64,0,0,1-.35-.1,1.76,1.76,0,0,1-.65-1,4.19,4.19,0,0,0-.4-1.16c0-.05-.08-.11-.13-.13h-.15a1.35,1.35,0,0,0-.9.75,6.06,6.06,0,0,0-.5,1.39,14.43,14.43,0,0,0-.32,2.13,3.84,3.84,0,0,1-.84,2.14c-1.19,1.28-3.48,1.21-5,.86a7.08,7.08,0,0,1-1.64-.5,7.8,7.8,0,0,1-2.77-2.79,12,12,0,0,1-1.77-3.15,11.34,11.34,0,0,1-.39-2C177.66,214.7,177.37,211.18,179.37,209.12Z"/><path class="cls-53" d="M191.54,217.38c-1.54-.34-2.22,1.54-1.37,3.18a7.53,7.53,0,0,0,1.1,1.36c2.43,2.79,3.51.32,2.75-.62C192.24,219.12,193.48,217.8,191.54,217.38Z"/><path class="cls-54" d="M191.58,220.38c-.16-.19-1.78-1.5-.46-2,.36-.15.69.2.69.56,0,.19-.09.37-.09.55a1.23,1.23,0,0,0,.08.33c.12.28.62.6.46,1S191.67,220.49,191.58,220.38Z"/><path class="cls-49" d="M212,292.74l-.1.25c-1.52,4-2.65,8.14-4,12.21-.89,2.7-2.86,10.12-5.93,10.1-1.52,0-4.37-.61-4.71-2-1.25-5.29,3.31-20.65,4.64-25,.34-1.09.33-.65.64-1.75.25-.88.3-2.23.87-3,1.1-1.41,3.15.31,4.19,1.06,1.51,1.1,3.54,2.08,4.64,3.57S212.57,291.29,212,292.74Z"/></g><g class="cls-7"><polygon class="cls-4" points="85.56 261.37 85.55 264.89 74.04 258.25 74.05 254.72 85.56 261.37"/><g class="cls-7"><path class="cls-4" d="M86.43,262.58v3.52a1.51,1.51,0,0,0-.87-1.21v-3.52A1.48,1.48,0,0,1,86.43,262.58Z"/><g class="cls-55"><g class="cls-7"><path class="cls-4" d="M86.43,262.58v3.52a1.51,1.51,0,0,0-.87-1.21v-3.52A1.48,1.48,0,0,1,86.43,262.58Z"/></g></g></g><g class="cls-7"><path class="cls-4" d="M96,264.73v3.53a6.61,6.61,0,0,1-1.27,3.8v-3.53A6.56,6.56,0,0,0,96,264.73Z"/><g class="cls-56"><g class="cls-7"><path class="cls-4" d="M96,264.73v3.53a6.61,6.61,0,0,1-1.27,3.8v-3.53A6.56,6.56,0,0,0,96,264.73Z"/></g></g></g><g class="cls-7"><path class="cls-4" d="M60.58,268.16v-3.53c0,2.64,1.74,5.29,5.23,7.3,5.19,3,12.79,3.75,19.17,2.26v3.52c-6.38,1.5-14,.75-19.17-2.26C62.32,273.44,60.58,270.8,60.58,268.16Z"/><g class="cls-57"><g class="cls-7"><path class="cls-4" d="M85,274.19v3.52a28.39,28.39,0,0,1-3,.52v-3.52C83,274.58,84,274.41,85,274.19Z"/><path class="cls-4" d="M82,274.71v3.52c-5.66.7-11.81-.23-16.22-2.78-3.49-2-5.23-4.65-5.23-7.29v-3.53c0,2.64,1.74,5.29,5.23,7.3C70.23,274.48,76.38,275.41,82,274.71Z"/></g></g></g><g class="cls-7"><path class="cls-4" d="M156.13,302.58v3.52a4.5,4.5,0,0,0-4.06,0v-3.52A4.47,4.47,0,0,1,156.13,302.58Z"/><g class="cls-58"><g class="cls-7"><path class="cls-4" d="M156.13,302.58v3.52a4.48,4.48,0,0,0-2.64-.45v-3.52A4.33,4.33,0,0,1,156.13,302.58Z"/><path class="cls-4" d="M153.49,302.13v3.52a4,4,0,0,0-1.42.45v-3.52A3.59,3.59,0,0,1,153.49,302.13Z"/></g></g></g><polygon class="cls-4" points="134.26 302.63 134.25 306.16 84.98 277.71 84.99 274.19 134.26 302.63"/><polygon class="cls-4" points="152.07 302.58 152.06 306.1 144.43 310.53 144.44 307.01 152.07 302.58"/><g class="cls-7"><path class="cls-4" d="M143.6,311.7v-3.52a1.42,1.42,0,0,1,.83-1.17v3.52A1.44,1.44,0,0,0,143.6,311.7Z"/><g class="cls-59"><g class="cls-7"><path class="cls-4" d="M144.44,307v3.52a2.07,2.07,0,0,0-.52.42v-3.52A2.07,2.07,0,0,1,144.44,307Z"/><path class="cls-4" d="M143.92,307.43V311a1.12,1.12,0,0,0-.31.75v-3.52A1.1,1.1,0,0,1,143.92,307.43Z"/></g></g></g><g class="cls-7"><path class="cls-4" d="M168.51,306.32v3.52a6.4,6.4,0,0,1-.76,3v-3.52A6.46,6.46,0,0,0,168.51,306.32Z"/><g class="cls-60"><g class="cls-7"><path class="cls-4" d="M168.51,306.32v3.52a6.4,6.4,0,0,1-.76,3v-3.52A6.46,6.46,0,0,0,168.51,306.32Z"/></g></g></g><polygon class="cls-4" points="167.75 309.29 167.74 312.81 156.12 306.1 156.13 302.58 167.75 309.29"/><g class="cls-7"><path class="cls-4" d="M133.12,309.75v-3.52c0,2.64,1.73,5.28,5.22,7.29,4.81,2.78,11.67,3.63,17.73,2.55v3.52c-6.06,1.08-12.92.23-17.73-2.54C134.85,315,133.11,312.39,133.12,309.75Z"/><g class="cls-61"><g class="cls-7"><path class="cls-4" d="M156.08,316.07v3.52c-.5.09-1,.17-1.5.23l0-3.53C155.09,316.23,155.58,316.16,156.08,316.07Z"/><path class="cls-4" d="M154.59,316.29l0,3.53c-5.66.7-11.81-.22-16.23-2.77-3.49-2-5.23-4.66-5.22-7.3v-3.52c0,2.64,1.73,5.28,5.22,7.29C142.77,316.07,148.92,317,154.59,316.29Z"/></g></g></g><path class="cls-3" d="M163.29,299c4.81,2.77,6.3,6.75,4.46,10.26l-11.62-6.71a4.47,4.47,0,0,0-4.06,0L144.44,307a1.24,1.24,0,0,0,0,2.35l11.62,6.71c-6.06,1.08-12.92.23-17.73-2.55-5.1-2.94-6.46-7.23-4.09-10.89L85,274.19c-6.38,1.49-14,.74-19.17-2.26-4.54-2.62-6.12-6.31-4.74-9.67l11.51,6.65a4.63,4.63,0,0,0,2.83.44l7-1.09a2.65,2.65,0,0,0,2.06-1.2L86.33,263c.26-.59,0-1.21-.77-1.64l-11.51-6.65c5.79-.81,12.17.09,16.71,2.72,5.2,3,6.52,7.39,3.95,11.09l49.07,28.33C150.22,295.25,158,296,163.29,299Z"/></g><g id="man-4" data-name="man"><g id="man-5" data-name="man"><path class="cls-4" d="M61.05,236.54c.1-.33.31-.51.92-.56s1.43-.09,2.15-.14l2.91-.18c0-.79-.07-1.59-.16-2.37a4.1,4.1,0,0,0,2.6-.44c1.16-.43,2.34-.82,3.53-1.17a3.22,3.22,0,0,1,1.56-.18c1.31.27,2,2.42,1.85,3.56a3.23,3.23,0,0,1-1.3,2,7.9,7.9,0,0,1-3.5,1.55A7.29,7.29,0,0,0,68.09,240c-1.34,1.05-2.3,2.16-4.08,2.29a2.91,2.91,0,0,1-3.34-2.8,9.37,9.37,0,0,1,.2-2C61,237.1,61,236.78,61.05,236.54Z"/><path class="cls-15" d="M66.49,238.76c0-.14,0-.29,0-.43a9.15,9.15,0,0,1,1-4,3.17,3.17,0,0,1,.83-1.36c1-.76,2.49-.09,3.1,1,.28.5.44,1.05.69,1.56.48,1,1.45,2.13,2.62,2.18a49.12,49.12,0,0,0,4.92-.57,4.09,4.09,0,0,1,1.84.18c1.35.55,1.74,2.73,1.26,4A3.28,3.28,0,0,1,81,242.86a7.89,7.89,0,0,1-3.76.74,7.27,7.27,0,0,0-3.74.59c-2,1-4.43,2.36-6.5.47a3.06,3.06,0,0,1-.89-2C66,241.34,66.47,240.07,66.49,238.76Z"/></g><path class="cls-62" d="M62.18,178.53c1,1,4.71-.84,4.76-1.32,4.43-3.44,3.9,10.27,2.63,15.72-.68,2.93-.5,6-.91,9a68.63,68.63,0,0,1-2.1,9.84,4.71,4.71,0,0,1-.92,1.94c-1,1.09-2.77,1-4.24.74-1.28-.21-2.71-.57-3.34-1.7a4.63,4.63,0,0,1-.37-2.34A32,32,0,0,0,57.3,204L56,197.43a57.43,57.43,0,0,1-1-5.82A42,42,0,0,1,55.47,181c.29-1.84-.33-5.29,2.29-5.66C60.12,175,61.52,177.87,62.18,178.53Z"/><path class="cls-63" d="M67.13,208.61l.73-3.08C67.57,206.55,67.33,207.57,67.13,208.61Z"/><path class="cls-62" d="M66,210.58c-.75-1.05-2.63-1-3.26-.72s-4.09-1.84-5.14-2.64a5.06,5.06,0,0,1-.08,1.06l-.06,1.1c0,.72-.07,1.44-.1,2.16,0,1.41-.07,2.82-.06,4.24a73.85,73.85,0,0,0,.49,8.27,67.22,67.22,0,0,0,1.52,8.32c.26,1,.55,2.09.86,3.12a3.67,3.67,0,0,0,1.34,2.24,3.32,3.32,0,0,0,1.31.39,5.55,5.55,0,0,0,1.35,0,2.14,2.14,0,0,0,1.3-.63,4.12,4.12,0,0,0,.75-1.51,10.63,10.63,0,0,0,.31-2.92c0-4.62-.29-9.23-.29-13.84a54.74,54.74,0,0,1,.86-10.63Z"/><path class="cls-52" d="M69,179.49c.42-.22,2.6-1.31,2.58-1.9,0-.4,1.06-.73,1.33-.72a2.72,2.72,0,0,1,1.41.62,6.62,6.62,0,0,1,2.18,3,17.15,17.15,0,0,1,.86,5.1A96.46,96.46,0,0,1,77,201q-.42,3.89-1.15,7.73c-.24,1.28-.51,2.55-.81,3.82a2.84,2.84,0,0,1-1.55,2.24c-2.2,1.38-6.15,1.19-7.72-1.29-1.69-2.67-1-6.83-1.52-9.83-.79-4.37-3.7-7.57-5-11.72a18.41,18.41,0,0,1-.33-9c.24-1.46.69-5,2.19-5.83a5.1,5.1,0,0,1,5.26,1.32C67.6,179.7,67.45,180.3,69,179.49Z"/><path class="cls-17" d="M54.08,167.44c-.09-.77-.21-1.54-.34-2.3-.65-3.67-1.74-7.24-2.2-10.94-.36-2.87-.62-6.44,1.66-8.66a6.23,6.23,0,0,1,1.24-.92c4.43-2.49,8.66.55,12.8,2A38.44,38.44,0,0,1,75,150.49a6.75,6.75,0,0,1,2.29,1.76,5.72,5.72,0,0,1,1,2.94,16.86,16.86,0,0,1-.36,3.67,75,75,0,0,0-.87,21.4c.37,3.06.73,11.43.73,11.43-1,.44-1.67.86-6.61.95-10.2.18-15.85-2.39-16.44-2.93s-.38-1.77-.4-2.51c-.06-2.22,0-4.45,0-6.66A86.77,86.77,0,0,0,54.08,167.44Z"/><path class="cls-52" d="M74.88,214.61q-.28,3.36-.52,6.72-.19,2.65-.33,5.31c-.07,1.37-.13,2.73-.18,4.1-.26,7.48.53,9.16-3,10.13a4.88,4.88,0,0,1-2.43.09c-2.29-.57-2.69-2.59-3-5.09-.16-1.41-.24-3.1-.28-4.52,0-1.21-.07-2.41-.08-3.61,0-1.63,0-3.25-.07-4.88,0-2.15,0-4.29,0-6.44,0-2.74-.26-5.54-.27-8.29a1.26,1.26,0,0,1,.56-1c.41-.27,8.68,2.75,9.52,3.69A11.31,11.31,0,0,1,74.88,214.61Z"/><path class="cls-53" d="M68.35,143.06c.16-1.1,1-.84.57-1.83a5.41,5.41,0,0,0-1.62-2.18,3.91,3.91,0,0,0-2.55-.85c-.32,0-.53.2-.84.2a18.66,18.66,0,0,0-2.59,0c-.86.12-1.65.18-1.65,1.15a11.91,11.91,0,0,1-.35,3.8,9.31,9.31,0,0,0-.62,2,3.6,3.6,0,0,0,2.17,3.31,8.43,8.43,0,0,0,4.94.44c.83-.12,2-.28,2.48-1.07a3.1,3.1,0,0,0,.13-2A10.8,10.8,0,0,1,68.35,143.06Z"/><g class="cls-7"><g class="cls-7"><path class="cls-5" d="M66.49,126.59l-3.59,2.09a1,1,0,0,1,1,.09l3.59-2.08A1,1,0,0,0,66.49,126.59Z"/><g class="cls-64"><g class="cls-7"><path class="cls-65" d="M63.89,128.77l3.59-2.08a1,1,0,0,0-1-.1l-3.59,2.09A1,1,0,0,1,63.89,128.77Z"/></g></g></g></g><path class="cls-53" d="M72.05,129.05a4.48,4.48,0,0,1,1,2.19c.28,1.86-.47,3.77-.07,5.62s-.37,5.86-3.91,6.9a12.54,12.54,0,0,1-6.44-.63,9.13,9.13,0,0,1-3.43-3.64C51.87,127.78,67,123,72.05,129.05Z"/><path class="cls-40" d="M55.89,134.25c0,.34.1.69.16,1a5.12,5.12,0,0,0,.2.77,4.93,4.93,0,0,0,.24.64,13.62,13.62,0,0,0,1.35,2.21,7.13,7.13,0,0,0,2.49,2.51,6.85,6.85,0,0,0,1.48.45c1.39.31,3.45.37,4.52-.78a3.45,3.45,0,0,0,.76-1.92,12.54,12.54,0,0,1,.29-1.92c0-.17.09-.33.14-.5a3.57,3.57,0,0,1,.31-.76,1.78,1.78,0,0,1,1-.85c.73-.23,1.61.19,2.24-.23a2,2,0,0,0,.64-1c.15-.36.28-.76.43-1.15a5.66,5.66,0,0,1,.74-1.45,3.94,3.94,0,0,0,.51-.65,2.23,2.23,0,0,0,.42-1c.07-1.72-1.34-3.41-2.53-4.51a7.88,7.88,0,0,0-2.14-1.46,8.26,8.26,0,0,0-2.2-.55,10.54,10.54,0,0,0-6.59.82,2.86,2.86,0,0,0-1.27,1.21,1.73,1.73,0,0,1-.18.36,1.48,1.48,0,0,1-.45.28,4.44,4.44,0,0,0-1.34.93C55.29,128.61,55.55,131.77,55.89,134.25Z"/><path class="cls-53" d="M68,134.33c-1.41-.12-1.8,1.63-.85,3a7.37,7.37,0,0,0,1.14,1.09c2.5,2.2,3.17-.13,2.38-.88C68.84,135.8,69.79,134.48,68,134.33Z"/><path class="cls-54" d="M68.4,137c-.16-.15-1.76-1.13-.65-1.76a.49.49,0,0,1,.68.42c0,.17,0,.34,0,.51a.73.73,0,0,0,.1.28c.14.23.63.47.53.81S68.49,137.09,68.4,137Z"/></g><g class="cls-7"><polygon class="cls-3" points="134.73 97.12 131.7 95.35 140.83 81.82 143.85 83.59 134.73 97.12"/><g class="cls-7"><path class="cls-3" d="M132,98.48l-3-1.77c.73.43,1.91-.14,2.73-1.36l3,1.77C133.91,98.34,132.72,98.91,132,98.48Z"/><g class="cls-66"><g class="cls-7"><path class="cls-3" d="M132,98.48l-3-1.77a1.32,1.32,0,0,0,1.15,0l3,1.77A1.34,1.34,0,0,1,132,98.48Z"/><path class="cls-3" d="M133.15,98.5l-3-1.77a3.29,3.29,0,0,0,.78-.48l3,1.77A2.71,2.71,0,0,1,133.15,98.5Z"/><path class="cls-3" d="M133.92,98l-3-1.77a4.42,4.42,0,0,0,.8-.9l3,1.77A4.46,4.46,0,0,1,133.92,98Z"/></g></g></g><polygon class="cls-3" points="74.35 171.05 71.32 169.27 116.32 102.56 119.34 104.34 74.35 171.05"/><g class="cls-7"><path class="cls-3" d="M74,179.68l-3-1.78a2.31,2.31,0,0,1-.36-.25c-1.71-1.48-1.37-5.23.75-8.38l3,1.78c-2.13,3.15-2.47,6.89-.76,8.37A2.36,2.36,0,0,0,74,179.68Z"/><g class="cls-67"><g class="cls-7"><path class="cls-3" d="M74,179.68l-3-1.78a2.31,2.31,0,0,1-.36-.25,3.39,3.39,0,0,1-1-2.24l3,1.77a3.41,3.41,0,0,0,1,2.24A2.36,2.36,0,0,0,74,179.68Z"/><path class="cls-3" d="M72.54,177.18l-3-1.77a7,7,0,0,1,.12-2.2l3,1.77A7,7,0,0,0,72.54,177.18Z"/><path class="cls-3" d="M72.66,175l-3-1.77a11,11,0,0,1,1.68-3.94l3,1.78A10.9,10.9,0,0,0,72.66,175Z"/></g></g></g><g class="cls-7"><path class="cls-3" d="M123.51,86.45l-3-1.78c3.77-5.6,8.76-9,12.92-9.27l3,1.78C132.27,77.46,127.29,80.85,123.51,86.45Z"/><g class="cls-68"><g class="cls-7"><path class="cls-3" d="M123.51,86.45l-3-1.78a26.71,26.71,0,0,1,5-5.61l3,1.77A26.53,26.53,0,0,0,123.51,86.45Z"/><path class="cls-3" d="M128.51,80.83l-3-1.77a17.55,17.55,0,0,1,4.75-2.9l3,1.77A17.7,17.7,0,0,0,128.51,80.83Z"/><path class="cls-3" d="M133.26,77.93l-3-1.77a10.59,10.59,0,0,1,3.17-.76l3,1.78A10.7,10.7,0,0,0,133.26,77.93Z"/></g></g></g><g class="cls-7"><path class="cls-3" d="M119.34,104.34l-3-1.78c-1.47-4.68,0-11.73,4.17-17.89l3,1.78C119.35,92.61,117.87,99.66,119.34,104.34Z"/><g class="cls-69"><g class="cls-7"><path class="cls-3" d="M119.34,104.34l-3-1.78a11.89,11.89,0,0,1-.46-2.17l3,1.77A12.19,12.19,0,0,0,119.34,104.34Z"/><path class="cls-3" d="M118.89,102.16l-3-1.77a18.31,18.31,0,0,1,.31-5.64l3,1.78A18.23,18.23,0,0,0,118.89,102.16Z"/><path class="cls-3" d="M119.19,96.53l-3-1.78a28.36,28.36,0,0,1,4.32-10.08l3,1.78A28.21,28.21,0,0,0,119.19,96.53Z"/></g></g></g><path class="cls-4" d="M123.51,86.45c3.78-5.6,8.76-9,12.92-9.27l-9.12,13.53c-.88,1.3-1,2.86-.31,3.48l4.85,4.19c.7.61,2,0,2.88-1.26l9.12-13.53c.86,4.62-.72,11-4.49,16.56-4,5.93-9.37,9.38-13.67,9.29L80.53,176.39c-2.13,3.15-5.23,4.5-6.94,3s-1.37-5.22.76-8.37l45-66.71C117.87,99.66,119.35,92.61,123.51,86.45Z"/></g><path class="cls-53" d="M101.4,145c-.27.13-.68.19-.7-.17,0-.62.34-1.23.23-1.84,0-.22-.18-.46-.41-.47s-.42.27-.52.52a8.36,8.36,0,0,1-.81,1.71,10.58,10.58,0,0,1-.94,1.07,3.63,3.63,0,0,0-.78,1.17,2,2,0,0,0,0,1.2,5.8,5.8,0,0,1-.09,1.09,8.59,8.59,0,0,0,.16,1.6,1.68,1.68,0,0,0,.52,1.06c.38.24.79-.06,1.06-.31a9.57,9.57,0,0,0,1-1.4c.16-.21.23-.44.39-.65a2.45,2.45,0,0,1,.74-.53,5.87,5.87,0,0,0,1.55-1.3,3.56,3.56,0,0,0,.93-1.79,11.49,11.49,0,0,0,.12-1.43,2.6,2.6,0,0,0-.32-1.55c-.37-.6-.47.13-.68.43a6.74,6.74,0,0,1-1.22,1.49A.85.85,0,0,1,101.4,145Z"/><path class="cls-6" d="M99,149.31a2.38,2.38,0,0,0-1.2-.59,3.26,3.26,0,0,0-2.5.9c-2.24,1.86-3.88,4.89-6.79,5.77a5,5,0,0,1-3.67-.8c-1.46-.83-3-1.43-4.55-2.17a33,33,0,0,0-3-1.44,4.78,4.78,0,0,0-4.19-.06,5.13,5.13,0,0,0-2.35,3.36,4.63,4.63,0,0,0,1.2,4.15,9.29,9.29,0,0,0,3.69,1.94c1.46.5,2.91,1,4.38,1.53.75.26,1.5.51,2.27.73s1.38.27,2.08.43a11,11,0,0,0,5.1-.37,7.88,7.88,0,0,0,2.84-1.55,29.05,29.05,0,0,0,6.93-8,4.28,4.28,0,0,0,.77-1.93A2.81,2.81,0,0,0,99,149.31Z"/><path class="cls-5" d="M148.61,48l-11-35.92Z"/><rect class="cls-70" x="142.03" y="11.26" width="2.16" height="37.57" transform="translate(-2.52 43.23) rotate(-17.03)"/><path class="cls-4" d="M161.72,160.79a28.7,28.7,0,0,1-13.33-18.18c.78,3.43,3.46,6.84,8,9.59,11.45,6.89,30.39,7.08,42.31.43,5.12-2.85,8.12-6.51,9-10.29A28.51,28.51,0,0,1,201.28,155a29.92,29.92,0,0,1-11.39,8A32.34,32.34,0,0,1,161.72,160.79Z"/><path class="cls-17" d="M198.94,79c11.15,6.72,10.77,17.41-.86,23.89s-30.09,6.3-41.24-.41-10.77-17.41.85-23.9S187.78,72.29,198.94,79Z"/><g class="cls-7"><path class="cls-3" d="M148.36,142.51l-9-39.3c1,4.58,4.53,9,10.49,12.6,14.86,8.94,39.48,9.19,55,.55,6.66-3.71,10.55-8.46,11.64-13.37l-8.77,39.35c-.84,3.78-3.84,7.44-9,10.29-11.92,6.65-30.86,6.46-42.31-.43C151.85,149.45,149.17,146,148.36,142.51Z"/></g><path class="cls-2" d="M152.91,78c15.19-8.25,36.69-8,51.14.58-1.29-.78-3.09-.71-5.11.41-11.16-6.71-29.62-6.9-41.25-.42s-12,17.18-.85,23.9,29.62,6.9,41.24.41,12-17.18.86-23.89c2-1.12,3.82-1.19,5.11-.41,3,1.95,7.59,4.91,10.77,11.13a20.11,20.11,0,0,1,1.68,13.22c-1.13,5-5,9.79-11.67,13.5-15.49,8.64-40.11,8.39-55-.56-6-3.58-9.44-8-10.49-12.58a20.25,20.25,0,0,1-.37-6.84,20.72,20.72,0,0,1,2-6.62A27.72,27.72,0,0,1,152.91,78Z"/><path class="cls-6" d="M194.07,30.49c8.56,5.15,8.27,13.36-.65,18.33s-23.08,4.83-31.64-.32-8.26-13.35.66-18.33S185.52,25.34,194.07,30.49Z"/><g class="cls-7"><path class="cls-3" d="M150.48,91.89c-13.77-8.52-16.79-19.8-16.9-27.76,0,6.39,4.12,12.78,12.36,17.74,17,10.23,45.11,10.51,62.81.64,9.11-5.08,13.69-11.86,13.67-18.64a29.66,29.66,0,0,1-2.06,11,32.69,32.69,0,0,1-4.91,8.43,39.68,39.68,0,0,1-16.6,11.85C180.57,102.25,161.38,98.63,150.48,91.89Z"/></g><path class="cls-17" d="M151.75,28.89a54.19,54.19,0,0,1,26.91-6.43,53.19,53.19,0,0,1,26.84,7.12c-2.9-1.75-6.95-1.58-11.43.91-8.55-5.15-22.72-5.29-31.63-.32s-9.21,13.18-.66,18.33,22.72,5.29,31.64.32,9.21-13.18.65-18.33c4.48-2.49,8.53-2.66,11.43-.91,4.08,2.63,16.5,10.65,16.9,27.75,0,6.78-4.56,13.56-13.67,18.64-17.7,9.87-45.82,9.59-62.81-.63-8.24-5-12.34-11.35-12.36-17.75a30.48,30.48,0,0,1,1.28-8.74,31.41,31.41,0,0,1,4.23-8.73A37.56,37.56,0,0,1,151.75,28.89Z"/><path class="cls-39" d="M186.72,82.68c-14.39,1.69-29.89-.78-40.8-7.34-8.19-4.94-12.3-11.28-12.36-17.64a15.92,15.92,0,0,1,4.55-11c0,5.7,3.74,11.4,11.09,15.82,9.78,5.89,23.68,8.1,36.59,6.58A118.17,118.17,0,0,1,186.72,82.68Z"/><g class="cls-7"><path class="cls-2" d="M133.58,64.13l0-6.54c0,6.4,4.12,12.79,12.36,17.75,17,10.22,45.11,10.5,62.81.63,9.11-5.08,13.69-11.86,13.67-18.64l0,6.54c0,6.78-4.56,13.56-13.67,18.64-17.7,9.87-45.82,9.59-62.81-.64C137.7,76.91,133.59,70.52,133.58,64.13Z"/></g><path class="cls-12" d="M140.78,64.32c-.88,2.47-2.37,2.63-3.41.37-1.73-3.76,0-8.32,2.28-7.67a1.87,1.87,0,0,1,.85.6C141.93,59.67,141.16,63.23,140.78,64.32Z"/><path class="cls-12" d="M166,75.49c-.65,3.71-5.31,4.33-7.66,1-2.45-3.45.24-7.42,3.67-7l.42.08A5.23,5.23,0,0,1,166,75.49Z"/><path class="cls-5" d="M207.44,59.56c0-2.2-1.54-3.09-3.44-2a7.62,7.62,0,0,0-3.44,6c0,2.19,1.54,3.08,3.44,2A7.58,7.58,0,0,0,207.44,59.56Z"/><path class="cls-5" d="M204.45,61.59l25.07-18.82Z"/><path class="cls-70" d="M204.45,62.67a1.1,1.1,0,0,1-.87-.43,1.08,1.08,0,0,1,.22-1.51l25.08-18.82a1.08,1.08,0,1,1,1.29,1.73L205.1,62.46A1.12,1.12,0,0,1,204.45,62.67Z"/><path class="cls-5" d="M235.89,41.42a5.83,5.83,0,1,0-5.83,5.83A5.83,5.83,0,0,0,235.89,41.42Z"/><path class="cls-5" d="M142.91,12.08a5.83,5.83,0,1,0-5.83,5.83A5.83,5.83,0,0,0,142.91,12.08Z"/><g class="cls-7"><g class="cls-7"><path class="cls-6" d="M212.6,101.11l4.24,2.46c-1.8-1-4.29-.9-7.05.69l-4.24-2.46C208.3,100.21,210.8,100.06,212.6,101.11Z"/><g class="cls-71"><g class="cls-7"><path class="cls-6" d="M209.79,104.26l-4.24-2.46c2.75-1.59,5.25-1.74,7-.69l4.24,2.46C215,102.53,212.55,102.67,209.79,104.26Z"/></g></g></g><path class="cls-12" d="M210.78,108.41c3.75-2.17,6.8-.42,6.81,3.89A14.9,14.9,0,0,1,210.82,124c-3.75,2.17-6.81.43-6.82-3.88A15,15,0,0,1,210.78,108.41Z"/><g class="cls-7"><path class="cls-6" d="M202.8,127.74l-4.24-2.47c-1.78-1-2.88-3.23-2.89-6.36,0-6.29,4.4-14,9.88-17.11l4.24,2.46c-5.47,3.17-9.9,10.83-9.88,17.12C199.92,124.5,201,126.7,202.8,127.74Z"/><g class="cls-72"><g class="cls-7"><path class="cls-6" d="M202.8,127.74l-4.24-2.47c-1.58-.92-2.63-2.75-2.85-5.34l4.25,2.46C200.18,125,201.22,126.82,202.8,127.74Z"/><path class="cls-6" d="M200,122.39l-4.25-2.46c0-.33,0-.67,0-1,0-5.42,3.27-11.87,7.68-15.56l4.25,2.46c-4.42,3.7-7.7,10.15-7.69,15.57C199.91,121.73,199.93,122.07,200,122.39Z"/><path class="cls-6" d="M207.6,105.81l-4.25-2.46a14.42,14.42,0,0,1,2.2-1.55l4.24,2.46A15.88,15.88,0,0,0,207.6,105.81Z"/></g></g></g><g class="cls-7"><path class="cls-6" d="M210.78,108.41l-1-4.15c5.48-3.16,9.93-.62,10,5.67s-4.41,13.95-9.88,17.12-9.93.62-10-5.67,4.41-13.95,9.88-17.12l1,4.15A15,15,0,0,0,204,120.15c0,4.31,3.07,6,6.82,3.88a14.9,14.9,0,0,0,6.77-11.73C217.58,108,214.53,106.24,210.78,108.41Z"/><g class="cls-73"><g class="cls-7"><path class="cls-15" d="M210.78,108.41l-1-4.15c5.48-3.16,9.93-.62,10,5.67s-4.41,13.95-9.88,17.12-9.93.62-10-5.67,4.41-13.95,9.88-17.12l1,4.15A15,15,0,0,0,204,120.15c0,4.31,3.07,6,6.82,3.88a14.9,14.9,0,0,0,6.77-11.73C217.58,108,214.53,106.24,210.78,108.41Z"/></g></g></g></g><g class="cls-7"><polygon class="cls-4" points="297.56 307.5 297.56 312.9 262.89 333.05 262.89 327.65 297.56 307.5"/><polygon class="cls-3" points="262.89 327.65 262.89 333.05 227.98 312.9 227.98 307.5 262.89 327.65"/><polygon class="cls-16" points="297.35 307.5 262.68 327.65 227.78 307.5 262.45 287.35 297.35 307.5"/></g><g class="cls-7"><polygon class="cls-3" points="298.2 300.32 298.2 305.72 263.53 325.87 263.53 320.47 298.2 300.32"/><polygon class="cls-3" points="263.53 320.47 263.53 325.87 228.63 305.72 228.63 300.32 263.53 320.47"/><polygon class="cls-16" points="298 300.32 263.32 320.47 228.42 300.32 263.09 280.17 298 300.32"/></g><g class="cls-7"><polygon class="cls-4" points="304.67 296.18 304.67 301.58 269.99 321.73 269.99 316.33 304.67 296.18"/><polygon class="cls-3" points="269.99 316.33 269.99 321.73 235.09 301.58 235.09 296.18 269.99 316.33"/><polygon class="cls-16" points="304.67 296.18 269.99 316.33 235.09 296.18 269.77 276.03 304.67 296.18"/></g><g class="cls-7"><polygon class="cls-4" points="304.67 289.3 304.67 294.7 269.99 314.85 269.99 309.45 304.67 289.3"/><polygon class="cls-3" points="269.99 309.45 269.99 314.85 235.09 294.7 235.09 289.3 269.99 309.45"/><polygon class="cls-16" points="304.67 289.3 269.99 309.45 235.09 289.3 269.77 269.15 304.67 289.3"/></g><g class="cls-7"><polygon class="cls-4" points="304.67 281.51 304.67 286.91 269.99 307.06 269.99 301.66 304.67 281.51"/><polygon class="cls-3" points="269.99 301.66 269.99 307.06 235.09 286.91 235.09 281.51 269.99 301.66"/><polygon class="cls-17" points="304.67 281.51 269.99 301.66 235.09 281.51 269.77 261.36 304.67 281.51"/></g></g></g></g></svg>